<?xml version="1.0" encoding="utf-8"?>
<!-- Generator: Adobe Illustrator 24.1.2, SVG Export Plug-In . SVG Version: 6.00 Build 0)  -->
<svg version="1.1" id="Calque_1" xmlns="http://www.w3.org/2000/svg" xmlns:xlink="http://www.w3.org/1999/xlink" x="0px" y="0px"
	 viewBox="0 0 300 300" style="enable-background:new 0 0 300 300;" xml:space="preserve">
<style type="text/css">
	.st0{fill:#C3D9AC;}
	.st1{fill:#AC7117;}
	.st2{fill:#D89828;}
	.st3{opacity:0.13;fill:#262423;}
	.st4{fill:#EBC0D1;}
	.st5{opacity:0.13;}
	.st6{fill:#262423;}
	.st7{fill:#FEFDFC;}
	.st8{opacity:0.07;}
</style>
<g>
	<path class="st0" d="M43.59,289c4.72,6.98,13.19,10.24,17.43,10.24h34.85c12.68,0,24.06-8.02,28.31-19.97l3.66-10.27H181
		l3.66,10.27c4.26,11.94,15.63,19.97,28.31,19.97h36.64c6.59,0,13-3.49,16.72-9.11c3.7-5.59,4.3-12.38,1.73-18.46L184.73,49.14
		c-8.53-26.44-22.11-36.99-32.58-36.99h-4.14c-10.43,0-19.95,6.54-23.71,16.31l-82.04,216.7c-3.43,8.56-2.16,14.71,0.76,18.98
		l-0.6,1.57C37.93,276.9,40.58,284.55,43.59,289z"/>
	<g>
		<path class="st1" d="M48.3,288.19h34.85c12.68,0,24.06-8.02,28.31-19.97l3.66-10.27h53.17l3.66,10.27
			c4.26,11.94,15.63,19.97,28.31,19.97h27.94c6.59,0,19.57-7.18,19.87-16.95c0.36-11.53,0.21-17.75-0.41-26.63L169.06,34.36
			c-4.41-11.58-12.75-15.63-25.14-15.63h-4.14c-12.35,0-23.62,7.76-28.07,19.32L29.54,234.12c-4.49,11.19-1.68,39.39,1.32,43.84
			C35.59,284.94,44.06,288.19,48.3,288.19z M139.3,185.92c0.76-2.66,1.47-5.17,2.14-7.57c0.71,2.41,1.48,4.93,2.29,7.57H139.3z"/>
		<path class="st2" d="M43.81,261.24h34.85c10.71,0,20.32-6.78,23.92-16.87l4.76-13.37h59.75l4.76,13.37
			c3.6,10.09,13.21,16.87,23.92,16.87h36.64c10.13,0,18.63-10.53,14.08-21.27l-83.32-222.5c-3.73-9.79-13.26-16.36-23.73-16.36
			h-4.14c-10.43,0-19.95,6.54-23.71,16.31l-82.04,216.7C21.42,254.37,39.54,261.24,43.81,261.24z M129.52,165.15
			c1.94-6.7,3.57-12.55,5.01-17.96c0.64-2.4,4.05-2.43,4.72-0.03c1.51,5.42,3.26,11.29,5.34,17.95c0.49,1.58-0.67,3.19-2.33,3.19
			h-10.4C130.23,168.29,129.06,166.71,129.52,165.15z"/>
	</g>
	<path class="st3" d="M47.17,253.25h34.59c5.9,0,11.15-3.62,13.13-9.04l9.75-26h66.08l8.62,21.42c3.22,8.82,11.78,14.71,21.37,14.71
		h26.21c2.31,0,4.64-0.53,6.59-1.77c4.78-3.06,6.45-8.7,4.6-13.52L157.46,22.52c-3.33-8.53-9.5-14.27-18.86-14.27h-3.7
		c-9.32,0-15.97,5.79-19.33,14.31L35.74,237.91c-1.84,4.75-0.26,10.3,4.34,13.4C42.15,252.71,44.68,253.25,47.17,253.25z
		 M121.49,170.97c4.24-14.25,7.79-26.68,10.91-38.2c1.39-5.11,6.93-5.85,8.38-0.76c3.28,11.52,7.33,24.7,11.88,38.85
		c1.08,3.35-0.8,6.79-4.4,6.79H125.6C122.05,177.66,120.5,174.3,121.49,170.97z"/>
	<g>
		<path class="st4" d="M48.23,250.92h32.07c5.64,0,10.66-3.54,12.55-8.85l9.47-25.64H172l8.44,21.17
			c3.08,8.64,11.26,14.41,20.43,14.41h24.45c2.21,0,4.43-0.52,6.28-1.73c4.58-2.99,6.19-8.52,4.42-13.25L156.81,24.8
			c-3.18-8.36-9.08-13.97-18.02-13.97h-3.53c-8.91,0-15.27,5.67-18.48,14.01L38.72,235.9c-2.13,5.63,0.53,12.4,7.31,14.7
			C46.73,250.84,47.49,250.92,48.23,250.92z M119.65,172.25c4.48-15.44,8.24-28.91,11.54-41.4c1.47-5.54,9.34-5.59,10.87-0.07
			c3.47,12.49,7.5,26.02,12.31,41.36c1.14,3.63-1.55,7.36-5.36,7.36h-23.96C121.29,179.5,118.61,175.86,119.65,172.25z"/>
		<g>
			<g class="st5">
				<path class="st6" d="M127.84,37.76c-0.07,0.16-0.13,0.33-0.19,0.5c-0.15,0.38-0.27,0.78-0.37,1.18
					c-0.04,0.17-0.08,0.34-0.12,0.51c-0.11,0.57-0.18,1.15-0.18,1.76c0,5.37,4.35,9.72,9.72,9.72c0.59,0,1.16-0.07,1.72-0.17
					c0.16-0.03,0.31-0.06,0.46-0.09c0.49-0.11,0.97-0.26,1.43-0.44c0.18-0.07,0.34-0.16,0.51-0.24c0.33-0.16,0.64-0.33,0.95-0.52
					c0.23-0.14,0.45-0.29,0.67-0.45c0.17-0.13,0.33-0.27,0.49-0.4c0.44-0.37,0.85-0.78,1.22-1.23c0.07-0.08,0.14-0.16,0.21-0.25
					c0.23-0.3,0.45-0.6,0.64-0.93c0,0,0,0,0,0c0,0,0,0,0,0c0.88-1.46,1.42-3.16,1.42-4.99c0-5.37-4.35-9.72-9.72-9.72
					c-1.4,0-2.73,0.31-3.93,0.84c-0.45,0.2-0.88,0.44-1.3,0.7c-0.21,0.14-0.41,0.29-0.61,0.45c-0.24,0.18-0.48,0.38-0.7,0.58
					c-0.18,0.17-0.36,0.33-0.53,0.51c-0.26,0.28-0.5,0.58-0.73,0.89c-0.09,0.13-0.2,0.24-0.29,0.37
					C128.31,36.79,128.06,37.27,127.84,37.76z"/>
				<path class="st6" d="M156.9,96.63c0.49-0.11,0.97-0.26,1.42-0.44c0.18-0.07,0.34-0.16,0.51-0.24c0.33-0.16,0.64-0.32,0.95-0.51
					c0.23-0.14,0.45-0.29,0.67-0.45c0.17-0.13,0.32-0.26,0.48-0.4c0.45-0.38,0.85-0.79,1.23-1.24c0.07-0.08,0.14-0.16,0.2-0.25
					c0.23-0.3,0.45-0.61,0.64-0.93c0,0,0,0,0,0l0,0c0.88-1.46,1.42-3.16,1.42-4.99c0-5.37-4.35-9.72-9.72-9.72
					c-1.4,0-2.72,0.31-3.93,0.84v0c-0.45,0.2-0.89,0.44-1.3,0.71c-0.21,0.14-0.41,0.29-0.61,0.45c-0.25,0.18-0.48,0.38-0.71,0.58
					c-0.18,0.17-0.36,0.33-0.52,0.51c-0.26,0.28-0.51,0.58-0.74,0.89c-0.09,0.13-0.2,0.24-0.29,0.37c-0.3,0.44-0.55,0.92-0.77,1.41
					c-0.07,0.16-0.13,0.33-0.19,0.5c-0.15,0.38-0.27,0.78-0.37,1.19c-0.04,0.17-0.08,0.34-0.12,0.51C145.07,86,145,86.58,145,87.19
					c0,0.67,0.07,1.33,0.2,1.96c0.26,1.27,0.76,2.44,1.46,3.47c0.35,0.52,0.75,1,1.19,1.44c1.32,1.32,3.01,2.26,4.91,2.65
					c0.63,0.13,1.29,0.2,1.96,0.2c0.59,0,1.16-0.07,1.72-0.17C156.59,96.7,156.74,96.67,156.9,96.63z"/>
				<path class="st6" d="M124.37,82.51c0.49-0.11,0.97-0.26,1.43-0.44c0.18-0.07,0.34-0.16,0.51-0.24c0.33-0.16,0.64-0.33,0.95-0.52
					c0.23-0.14,0.45-0.29,0.67-0.45c0.17-0.13,0.33-0.26,0.49-0.4c0.45-0.38,0.85-0.79,1.22-1.23c0.07-0.08,0.14-0.16,0.2-0.25
					c0.23-0.3,0.45-0.6,0.64-0.93c0,0,0,0,0,0c0,0,0,0,0,0c0.88-1.46,1.42-3.16,1.42-4.99c0-5.37-4.35-9.72-9.72-9.72
					c-1.4,0-2.73,0.31-3.93,0.84c-0.45,0.2-0.88,0.44-1.3,0.7c-0.21,0.14-0.41,0.29-0.61,0.45c-0.25,0.18-0.48,0.38-0.71,0.58
					c-0.18,0.17-0.36,0.33-0.52,0.51c-0.26,0.28-0.51,0.58-0.74,0.89c-0.09,0.13-0.2,0.24-0.29,0.37c-0.3,0.44-0.55,0.92-0.77,1.41
					c-0.07,0.16-0.13,0.33-0.19,0.5c-0.15,0.38-0.27,0.78-0.37,1.18c-0.04,0.17-0.08,0.34-0.12,0.51c-0.11,0.57-0.18,1.15-0.18,1.76
					c0,1.34,0.27,2.62,0.76,3.78c0.25,0.58,0.55,1.13,0.9,1.65c0.7,1.03,1.59,1.93,2.62,2.62c1.55,1.05,3.42,1.66,5.43,1.66
					c0.59,0,1.16-0.07,1.72-0.17C124.07,82.58,124.22,82.55,124.37,82.51z"/>
				<path class="st6" d="M170.62,137.39c0.18-0.07,0.34-0.16,0.51-0.24c0.33-0.16,0.64-0.33,0.95-0.52
					c0.23-0.14,0.45-0.29,0.67-0.45c0.17-0.13,0.33-0.27,0.49-0.4c0.44-0.37,0.85-0.78,1.22-1.23c0.07-0.08,0.14-0.16,0.21-0.25
					c0.23-0.3,0.45-0.6,0.64-0.93c0,0,0,0,0,0c0,0,0,0,0,0c0.88-1.46,1.42-3.16,1.42-4.99c0-5.37-4.35-9.72-9.72-9.72
					c-1.4,0-2.73,0.31-3.93,0.84c-0.45,0.2-0.88,0.44-1.3,0.7c-0.21,0.14-0.41,0.29-0.61,0.45c-0.24,0.18-0.48,0.38-0.7,0.58
					c-0.18,0.17-0.36,0.33-0.53,0.51c-0.26,0.28-0.5,0.58-0.73,0.89c-0.09,0.13-0.2,0.24-0.29,0.37c-0.3,0.44-0.55,0.92-0.77,1.41
					c-0.07,0.16-0.13,0.33-0.19,0.5c-0.15,0.38-0.27,0.78-0.37,1.18c-0.04,0.17-0.08,0.34-0.12,0.51c-0.11,0.57-0.18,1.15-0.18,1.76
					c0,5.37,4.35,9.72,9.72,9.72c0.59,0,1.16-0.07,1.72-0.17c0.16-0.03,0.31-0.06,0.46-0.09
					C169.69,137.72,170.16,137.57,170.62,137.39z"/>
				<path class="st6" d="M208.22,224.36C208.22,224.36,208.22,224.36,208.22,224.36C208.22,224.36,208.22,224.36,208.22,224.36
					c0.88-1.46,1.42-3.16,1.42-4.99c0-5.37-4.35-9.72-9.72-9.72c-1.4,0-2.73,0.31-3.93,0.84c-0.45,0.2-0.88,0.44-1.3,0.7
					c-0.21,0.14-0.41,0.29-0.61,0.45c-0.24,0.18-0.48,0.38-0.71,0.58c-0.18,0.17-0.36,0.33-0.53,0.51c-0.26,0.28-0.5,0.58-0.73,0.89
					c-0.09,0.13-0.2,0.24-0.29,0.37c-0.3,0.44-0.55,0.92-0.77,1.41c-0.07,0.16-0.13,0.33-0.19,0.5c-0.15,0.38-0.27,0.78-0.37,1.18
					c-0.04,0.17-0.08,0.34-0.12,0.51c-0.11,0.57-0.18,1.15-0.18,1.76c0,5.37,4.35,9.72,9.72,9.72c0.59,0,1.16-0.07,1.72-0.17
					c0.16-0.03,0.31-0.06,0.46-0.09c0.49-0.11,0.97-0.26,1.43-0.44c0.18-0.07,0.34-0.16,0.51-0.24c0.33-0.16,0.64-0.33,0.95-0.52
					c0.23-0.14,0.45-0.29,0.67-0.45c0.17-0.13,0.33-0.27,0.49-0.4c0.44-0.37,0.85-0.78,1.22-1.23c0.07-0.08,0.14-0.16,0.21-0.25
					C207.81,224.99,208.03,224.68,208.22,224.36z"/>
				<path class="st6" d="M94.72,134.45c-1.4,0-2.73,0.31-3.93,0.84c-0.45,0.2-0.88,0.44-1.3,0.7c-0.21,0.14-0.41,0.29-0.61,0.45
					c-0.24,0.18-0.48,0.38-0.7,0.58c-0.18,0.17-0.36,0.33-0.53,0.51c-0.26,0.28-0.5,0.58-0.73,0.89c-0.09,0.13-0.2,0.24-0.29,0.37
					c-0.3,0.44-0.55,0.92-0.77,1.41c-0.07,0.16-0.13,0.33-0.19,0.5c-0.15,0.38-0.27,0.78-0.37,1.18c-0.04,0.17-0.08,0.34-0.12,0.51
					c-0.11,0.57-0.18,1.15-0.18,1.76c0,5.37,4.35,9.72,9.72,9.72c0.59,0,1.16-0.07,1.72-0.17c0.16-0.03,0.31-0.06,0.46-0.09
					c0.49-0.11,0.97-0.26,1.43-0.44c0.18-0.07,0.34-0.16,0.51-0.24c0.33-0.16,0.64-0.33,0.95-0.52c0.23-0.14,0.45-0.29,0.67-0.45
					c0.17-0.13,0.33-0.27,0.49-0.4c0.44-0.37,0.85-0.78,1.22-1.23c0.07-0.08,0.14-0.16,0.21-0.25c0.23-0.3,0.45-0.6,0.64-0.93
					c0,0,0,0,0,0c0,0,0,0,0,0c0.88-1.46,1.42-3.16,1.42-4.99C104.44,138.8,100.09,134.45,94.72,134.45z"/>
				<path class="st6" d="M110.53,94.7c-1.4,0-2.73,0.31-3.93,0.84c-0.45,0.2-0.88,0.44-1.3,0.7c-0.21,0.14-0.41,0.29-0.61,0.45
					c-0.25,0.18-0.48,0.38-0.71,0.58c-0.18,0.17-0.36,0.33-0.52,0.51c-0.26,0.28-0.51,0.58-0.74,0.89c-0.09,0.13-0.2,0.24-0.29,0.37
					c-0.3,0.44-0.55,0.92-0.77,1.41c-0.07,0.16-0.13,0.33-0.19,0.5c-0.15,0.38-0.27,0.78-0.37,1.18c-0.04,0.17-0.08,0.34-0.12,0.51
					c-0.11,0.57-0.18,1.15-0.18,1.76c0,1.34,0.27,2.62,0.76,3.78c0.25,0.58,0.55,1.13,0.9,1.65c0.7,1.03,1.59,1.93,2.62,2.62
					c1.55,1.05,3.42,1.66,5.43,1.66c0.59,0,1.16-0.07,1.72-0.17c0.16-0.03,0.31-0.06,0.46-0.09c0.49-0.11,0.97-0.26,1.43-0.44
					c0.18-0.07,0.34-0.16,0.51-0.24c0.33-0.16,0.64-0.33,0.95-0.52c0.23-0.14,0.45-0.29,0.67-0.45c0.17-0.13,0.33-0.27,0.49-0.4
					c0.44-0.37,0.85-0.78,1.22-1.23c0.07-0.08,0.14-0.16,0.21-0.25c0.23-0.3,0.45-0.6,0.64-0.93c0,0,0,0,0,0c0,0,0,0,0,0
					c0.88-1.46,1.42-3.16,1.42-4.99C120.24,99.05,115.89,94.7,110.53,94.7z"/>
				<path class="st6" d="M185.79,181.01c0.49-0.11,0.97-0.26,1.43-0.44c0.18-0.07,0.34-0.16,0.51-0.24
					c0.33-0.16,0.64-0.33,0.95-0.52c0.23-0.14,0.45-0.29,0.67-0.45c0.17-0.13,0.33-0.27,0.49-0.4c0.44-0.37,0.85-0.78,1.22-1.23
					c0.07-0.08,0.14-0.16,0.21-0.25c0.23-0.3,0.45-0.6,0.64-0.93c0,0,0,0,0,0c0,0,0,0,0,0c0.88-1.46,1.42-3.16,1.42-4.99
					c0-5.37-4.35-9.72-9.72-9.72c-1.4,0-2.73,0.31-3.93,0.84c-0.45,0.2-0.88,0.44-1.3,0.7c-0.21,0.14-0.41,0.29-0.61,0.45
					c-0.24,0.18-0.48,0.38-0.71,0.58c-0.18,0.17-0.36,0.33-0.53,0.51c-0.26,0.28-0.5,0.58-0.73,0.89c-0.09,0.13-0.2,0.24-0.29,0.37
					c-0.3,0.44-0.55,0.92-0.77,1.41c-0.07,0.16-0.13,0.33-0.19,0.5c-0.15,0.38-0.27,0.78-0.37,1.18c-0.04,0.17-0.08,0.34-0.12,0.51
					c-0.11,0.57-0.18,1.15-0.18,1.76c0,5.37,4.35,9.72,9.72,9.72c0.59,0,1.16-0.07,1.72-0.17
					C185.48,181.08,185.63,181.05,185.79,181.01z"/>
				<path class="st6" d="M135.28,191.84c-1.4,0-2.72,0.31-3.93,0.84l0,0c-0.45,0.2-0.89,0.44-1.3,0.71
					c-0.21,0.14-0.41,0.29-0.61,0.45c-0.24,0.18-0.48,0.38-0.71,0.58c-0.18,0.17-0.36,0.33-0.52,0.51
					c-0.26,0.28-0.51,0.58-0.74,0.89c-0.09,0.13-0.2,0.24-0.29,0.37c-0.3,0.44-0.55,0.92-0.77,1.41c-0.07,0.16-0.13,0.33-0.19,0.5
					c-0.15,0.38-0.27,0.78-0.37,1.19c-0.04,0.17-0.08,0.34-0.12,0.51c-0.11,0.57-0.18,1.15-0.18,1.76c0,0.67,0.07,1.33,0.2,1.96
					c0.26,1.26,0.76,2.44,1.46,3.47c0.35,0.52,0.75,1,1.19,1.44c1.32,1.32,3.01,2.26,4.91,2.65c0.63,0.13,1.29,0.2,1.96,0.2
					c0.59,0,1.16-0.07,1.72-0.17c0.16-0.03,0.31-0.06,0.46-0.09c0.49-0.11,0.97-0.26,1.42-0.44c0.18-0.07,0.34-0.16,0.51-0.24
					c0.33-0.16,0.64-0.32,0.95-0.51c0.23-0.14,0.45-0.29,0.67-0.45c0.17-0.13,0.32-0.26,0.48-0.4c0.45-0.38,0.85-0.79,1.23-1.24
					c0.07-0.08,0.14-0.16,0.2-0.25c0.23-0.3,0.45-0.61,0.64-0.93c0,0,0,0,0,0l0,0c0.88-1.46,1.42-3.16,1.42-4.99
					C145,196.19,140.65,191.84,135.28,191.84z"/>
				<path class="st6" d="M85.01,171.57c-1.4,0-2.73,0.31-3.93,0.84c-0.45,0.2-0.88,0.44-1.3,0.7c-0.21,0.14-0.41,0.29-0.61,0.45
					c-0.24,0.18-0.48,0.38-0.7,0.58c-0.18,0.17-0.36,0.33-0.53,0.51c-0.26,0.28-0.5,0.58-0.73,0.89c-0.09,0.13-0.2,0.24-0.29,0.37
					c-0.3,0.44-0.55,0.92-0.77,1.41c-0.07,0.16-0.13,0.33-0.19,0.5c-0.15,0.38-0.27,0.78-0.37,1.18c-0.04,0.17-0.08,0.34-0.12,0.51
					c-0.11,0.57-0.18,1.15-0.18,1.76c0,5.37,4.35,9.72,9.72,9.72c0.59,0,1.16-0.07,1.72-0.17c0.16-0.03,0.31-0.06,0.46-0.09
					c0.49-0.11,0.97-0.26,1.43-0.44c0.18-0.07,0.34-0.16,0.51-0.24c0.33-0.16,0.64-0.33,0.95-0.52c0.23-0.14,0.45-0.29,0.67-0.45
					c0.17-0.13,0.33-0.27,0.49-0.4c0.44-0.37,0.85-0.78,1.22-1.23c0.07-0.08,0.14-0.16,0.21-0.25c0.23-0.3,0.45-0.6,0.64-0.93
					c0,0,0,0,0,0c0,0,0,0,0,0c0.88-1.46,1.42-3.16,1.42-4.99C94.72,175.92,90.37,171.57,85.01,171.57z"/>
				<path class="st6" d="M75.29,209.65c-1.4,0-2.73,0.31-3.93,0.84c-0.45,0.2-0.88,0.44-1.3,0.7c-0.21,0.14-0.41,0.29-0.61,0.45
					c-0.24,0.18-0.48,0.38-0.7,0.58c-0.18,0.17-0.36,0.33-0.53,0.51c-0.26,0.28-0.5,0.58-0.73,0.89c-0.09,0.13-0.2,0.24-0.29,0.37
					c-0.3,0.44-0.55,0.92-0.77,1.41c-0.07,0.16-0.13,0.33-0.19,0.5c-0.15,0.38-0.27,0.78-0.37,1.18c-0.04,0.17-0.08,0.34-0.12,0.51
					c-0.11,0.57-0.18,1.15-0.18,1.76c0,5.37,4.35,9.72,9.72,9.72c0.59,0,1.16-0.07,1.72-0.17c0.16-0.03,0.31-0.06,0.46-0.09
					c0.49-0.11,0.97-0.26,1.43-0.44c0.18-0.07,0.34-0.16,0.51-0.24c0.33-0.16,0.64-0.33,0.95-0.52c0.23-0.14,0.45-0.29,0.67-0.45
					c0.17-0.13,0.33-0.27,0.49-0.4c0.44-0.37,0.85-0.78,1.22-1.23c0.07-0.08,0.14-0.16,0.21-0.25c0.23-0.3,0.45-0.6,0.64-0.93
					c0,0,0,0,0,0c0,0,0,0,0,0c0.88-1.46,1.42-3.16,1.42-4.99C85.01,214,80.66,209.65,75.29,209.65z"/>
			</g>
			<g>
				<g>
					<circle class="st7" cx="137.58" cy="38.44" r="9.72"/>
					<g class="st8">
						<path class="st6" d="M132.24,34.55c0-1.83,0.54-3.53,1.42-4.99c-3.41,1.51-5.79,4.91-5.79,8.87c0,5.37,4.35,9.72,9.72,9.72
							c3.53,0,6.6-1.91,8.3-4.73c-1.2,0.53-2.53,0.84-3.93,0.84C136.59,44.27,132.24,39.92,132.24,34.55z"/>
					</g>
				</g>
				<g>
					<circle class="st7" cx="155.6" cy="83.91" r="9.72"/>
					<g class="st8">
						<path class="st6" d="M150.25,80.03c0-1.83,0.54-3.53,1.42-4.99c-3.41,1.51-5.79,4.91-5.79,8.87c0,5.37,4.35,9.72,9.72,9.72
							c3.53,0,6.6-1.91,8.3-4.73c-1.2,0.53-2.53,0.84-3.93,0.84C154.6,89.74,150.25,85.39,150.25,80.03z"/>
					</g>
				</g>
				<g>
					<circle class="st7" cx="123.07" cy="69.79" r="9.72"/>
					<g class="st8">
						<path class="st6" d="M117.73,65.91c0-1.83,0.54-3.53,1.42-4.99c-3.41,1.51-5.79,4.91-5.79,8.87c0,5.37,4.35,9.72,9.72,9.72
							c3.53,0,6.6-1.91,8.3-4.73c-1.2,0.53-2.53,0.84-3.93,0.84C122.08,75.62,117.73,71.27,117.73,65.91z"/>
					</g>
				</g>
				<g>
					<circle class="st7" cx="167.9" cy="125.11" r="9.72"/>
					<g class="st8">
						<path class="st6" d="M162.55,121.22c0-1.83,0.54-3.53,1.42-4.99c-3.41,1.51-5.79,4.91-5.79,8.87c0,5.37,4.35,9.72,9.72,9.72
							c3.53,0,6.6-1.91,8.3-4.73c-1.2,0.53-2.53,0.84-3.93,0.84C166.9,130.94,162.55,126.59,162.55,121.22z"/>
					</g>
				</g>
				<g>
					<circle class="st7" cx="200.81" cy="216.1" r="9.72"/>
					<g class="st8">
						<path class="st6" d="M195.46,212.21c0-1.83,0.54-3.53,1.42-4.99c-3.41,1.51-5.79,4.91-5.79,8.87c0,5.37,4.35,9.72,9.72,9.72
							c3.53,0,6.6-1.91,8.3-4.73c-1.2,0.53-2.53,0.84-3.93,0.84C199.81,221.93,195.46,217.57,195.46,212.21z"/>
					</g>
				</g>
				<g>
					<circle class="st7" cx="95.61" cy="140.89" r="9.72"/>
					<g class="st8">
						<path class="st6" d="M90.26,137.01c0-1.83,0.54-3.53,1.42-4.99c-3.41,1.51-5.79,4.91-5.79,8.87c0,5.37,4.35,9.72,9.72,9.72
							c3.53,0,6.6-1.91,8.3-4.73c-1.2,0.53-2.53,0.84-3.93,0.84C94.61,146.72,90.26,142.37,90.26,137.01z"/>
					</g>
				</g>
				<g>
					<circle class="st7" cx="111.41" cy="101.14" r="9.72"/>
					<g class="st8">
						<path class="st6" d="M106.07,97.26c0-1.83,0.54-3.53,1.42-4.99c-3.41,1.51-5.79,4.91-5.79,8.87c0,5.37,4.35,9.72,9.72,9.72
							c3.53,0,6.6-1.91,8.3-4.73c-1.2,0.53-2.53,0.84-3.93,0.84C110.42,106.97,106.07,102.62,106.07,97.26z"/>
					</g>
				</g>
				<g>
					<circle class="st7" cx="184.48" cy="168.29" r="9.72"/>
					<g class="st8">
						<path class="st6" d="M179.14,164.41c0-1.83,0.54-3.53,1.42-4.99c-3.41,1.51-5.79,4.91-5.79,8.87c0,5.37,4.35,9.72,9.72,9.72
							c3.53,0,6.6-1.91,8.3-4.73c-1.2,0.53-2.53,0.84-3.93,0.84C183.49,174.12,179.14,169.77,179.14,164.41z"/>
					</g>
				</g>
				<g>
					<circle class="st7" cx="136.16" cy="198.28" r="9.72"/>
					<g class="st8">
						<path class="st6" d="M130.82,194.4c0-1.83,0.54-3.53,1.42-4.99c-3.41,1.51-5.79,4.91-5.79,8.87c0,5.37,4.35,9.72,9.72,9.72
							c3.53,0,6.6-1.91,8.3-4.73c-1.2,0.53-2.53,0.84-3.93,0.84C135.17,204.11,130.82,199.76,130.82,194.4z"/>
					</g>
				</g>
				<g>
					<circle class="st7" cx="85.89" cy="178.01" r="9.72"/>
					<g class="st8">
						<path class="st6" d="M80.55,174.12c0-1.83,0.54-3.53,1.42-4.99c-3.41,1.51-5.79,4.91-5.79,8.87c0,5.37,4.35,9.72,9.72,9.72
							c3.53,0,6.6-1.91,8.3-4.73c-1.2,0.53-2.53,0.84-3.93,0.84C84.9,183.84,80.55,179.49,80.55,174.12z"/>
					</g>
				</g>
				<g>
					<circle class="st7" cx="76.18" cy="216.1" r="9.72"/>
					<g class="st8">
						<path class="st6" d="M70.83,212.21c0-1.83,0.54-3.53,1.42-4.99c-3.41,1.51-5.79,4.91-5.79,8.87c0,5.37,4.35,9.72,9.72,9.72
							c3.53,0,6.6-1.91,8.3-4.73c-1.2,0.53-2.53,0.84-3.93,0.84C75.18,221.93,70.83,217.57,70.83,212.21z"/>
					</g>
				</g>
			</g>
		</g>
	</g>
</g>
</svg>
