<?xml version="1.0" encoding="utf-8"?>
<!-- Generator: Adobe Illustrator 24.1.2, SVG Export Plug-In . SVG Version: 6.00 Build 0)  -->
<svg version="1.1" id="Calque_1" xmlns="http://www.w3.org/2000/svg" xmlns:xlink="http://www.w3.org/1999/xlink" x="0px" y="0px"
	 viewBox="0 0 300 300" style="enable-background:new 0 0 300 300;" xml:space="preserve">
<style type="text/css">
	.st0{fill:#C3D9AC;}
	.st1{fill:#AC7117;}
	.st2{fill:#D89828;}
	.st3{opacity:0.13;}
	.st4{fill:#262423;}
	.st5{fill:#FEFDFC;}
</style>
<g>
	<path class="st0" d="M85.68,299.37h82.11c50.73,0,84.81-33.52,84.81-83.41c0-15.11-2.33-38.87-20.55-62.09
		c7.92-11.38,12.07-26.18,12.47-41.45c2.08-78.13-49.7-99.45-89-99.45H81.15c-12.25,0-22.21,9.96-22.21,22.21v19.52
		c-0.11,0.98-0.18,1.98-0.18,2.99v214.76C58.76,287.29,70.84,299.37,85.68,299.37z M150.27,109.49h-8.93v-1.42h13.47
		c0.35,0,0.61,0.05,0.9,0.08C154.21,108.99,152.43,109.49,150.27,109.49z M158.34,203.56h-17v-2.82h21.54
		c0.74,0,1.42,0.21,2.07,0.52C163.13,202.73,160.88,203.56,158.34,203.56z"/>
	<g>
		<path class="st1" d="M72.84,288.22h82.11c50.73,0,84.81-33.52,84.81-83.41c0-21.97-8.59-49.94-24.31-65.06
			c10.24-11.83,16.23-20.92,16.23-38.48c0-48.84-29.61-97.15-80.13-97.15l-78.72,15.5c-14.84,0-26.92,12.08-26.92,26.92V261.3
			C45.92,276.14,57.99,288.22,72.84,288.22z M141.96,116.14H128.5V96.93h13.46c2.52,0,3.69,0.9,4.36,1.58
			c1.66,1.7,2.55,4.89,2.45,8.74C148.67,110.57,147.65,116.14,141.96,116.14z M156.83,200.6c0,4.78-2.1,9.6-6.8,9.6H128.5v-20.62
			h21.54C153.97,189.59,156.83,194.22,156.83,200.6z"/>
		<path class="st2" d="M68.3,261h82.11c47.91,0,80.1-31.63,80.1-78.7c0-22.25-9.49-42.57-26.32-56.97
			c13.31-12.76,18.25-31.7,18.25-46.57c0-46.02-32.05-76.94-79.75-76.94H68.3c-12.25,0-22.21,9.97-22.21,22.21v214.76
			C46.09,251.04,56.06,261,68.3,261z M137.43,98.34H120.9c-0.91,0-1.65-0.74-1.65-1.65V71.36c0-0.91,0.74-1.65,1.65-1.65h16.53
			c3.19,0,5.79,1.01,7.73,3.01c2.58,2.64,3.92,6.97,3.78,12.17C148.75,91.39,145.62,98.34,137.43,98.34z M157.01,178.1
			c0,8.43-4.73,14.31-11.51,14.31h-24.6c-0.91,0-1.65-0.74-1.65-1.65v-26.74c0-0.91,0.74-1.65,1.65-1.65h24.6
			C152.17,162.38,157.01,168.99,157.01,178.1z"/>
	</g>
	<g>
		<g class="st3">
			<g>
				<path class="st4" d="M52.6,57.51c-1.19,0-2.37-0.44-3.29-1.34c-1.86-1.81-1.9-4.8-0.09-6.66L90.05,7.59
					c1.81-1.86,4.8-1.91,6.66-0.09c1.86,1.81,1.9,4.8,0.09,6.66L55.98,56.09C55.05,57.04,53.83,57.51,52.6,57.51z"/>
			</g>
			<g>
				<path class="st4" d="M57.48,87.25c-1.19,0-2.37-0.44-3.29-1.34c-1.86-1.81-1.9-4.8-0.09-6.66l69.76-71.66
					c1.81-1.86,4.8-1.91,6.66-0.09c1.86,1.81,1.9,4.8,0.09,6.66L60.86,85.82C59.93,86.77,58.71,87.25,57.48,87.25z"/>
			</g>
			<g>
				<path class="st4" d="M52.6,129.02c-1.19,0-2.37-0.44-3.29-1.34c-1.86-1.81-1.9-4.8-0.09-6.66L157.32,9.99
					c1.81-1.86,4.8-1.91,6.66-0.09c1.86,1.81,1.9,4.8,0.09,6.66L55.98,127.59C55.05,128.54,53.83,129.02,52.6,129.02z"/>
			</g>
			<g>
				<path class="st4" d="M52.6,167.2c-1.19,0-2.37-0.44-3.29-1.34c-1.86-1.81-1.9-4.8-0.09-6.66l59.74-61.37
					c1.81-1.86,4.8-1.91,6.66-0.09c1.86,1.81,1.9,4.8,0.09,6.66l-59.74,61.37C55.05,166.72,53.83,167.2,52.6,167.2z"/>
			</g>
			<g>
				<path class="st4" d="M55.23,212.99c-1.19,0-2.37-0.44-3.29-1.34c-1.86-1.81-1.9-4.8-0.09-6.66L204.97,47.71
					c1.81-1.86,4.8-1.91,6.66-0.09c1.86,1.81,1.9,4.8,0.09,6.66L58.6,211.56C57.68,212.51,56.46,212.99,55.23,212.99z"/>
			</g>
			<g>
				<path class="st4" d="M55.35,244.21c-1.18,0-2.37-0.44-3.29-1.34c-1.86-1.81-1.9-4.8-0.09-6.66l54.16-55.63
					c1.81-1.86,4.8-1.91,6.66-0.09c1.86,1.81,1.9,4.8,0.09,6.66l-54.16,55.63C57.8,243.73,56.57,244.21,55.35,244.21z"/>
			</g>
			<g>
				<path class="st4" d="M77.78,264.58c-1.18,0-2.37-0.44-3.29-1.34c-1.86-1.81-1.9-4.8-0.09-6.66l54.19-55.66
					c1.81-1.86,4.8-1.91,6.66-0.09c1.86,1.81,1.9,4.8,0.09,6.66l-54.19,55.66C80.23,264.1,79.01,264.58,77.78,264.58z"/>
			</g>
			<g>
				<path class="st4" d="M121.74,266.38c-1.17,0-2.35-0.44-3.26-1.31c-1.88-1.8-1.94-4.78-0.14-6.66l93.12-97.13
					c1.8-1.88,4.78-1.94,6.66-0.14c1.88,1.8,1.94,4.78,0.14,6.66l-93.12,97.13C124.21,265.89,122.97,266.38,121.74,266.38z"/>
			</g>
			<g>
				<path class="st4" d="M156.27,266.6c-1.18,0-2.37-0.44-3.29-1.34c-1.86-1.81-1.9-4.8-0.09-6.66l67.38-69.22
					c1.81-1.86,4.8-1.91,6.66-0.09c1.86,1.81,1.9,4.8,0.09,6.66l-67.38,69.22C158.72,266.12,157.5,266.6,156.27,266.6z"/>
			</g>
			<g>
				<path class="st4" d="M145.68,70.95c-1.18,0-2.37-0.44-3.29-1.34c-1.86-1.81-1.9-4.8-0.09-6.66l35.99-36.97
					c1.81-1.87,4.8-1.91,6.66-0.09c1.86,1.81,1.9,4.8,0.09,6.66l-35.99,36.97C148.13,70.47,146.9,70.95,145.68,70.95z"/>
			</g>
			<g>
				<path class="st4" d="M136.62,166.01c-1.19,0-2.37-0.44-3.29-1.34c-1.86-1.81-1.9-4.8-0.09-6.66l82.32-84.56
					c1.81-1.86,4.8-1.91,6.66-0.09c1.86,1.81,1.9,4.8,0.09,6.66l-82.32,84.56C139.07,165.54,137.84,166.01,136.62,166.01z"/>
			</g>
			<g>
				<path class="st4" d="M164.07,177.09c-1.18,0-2.37-0.44-3.29-1.34c-1.86-1.81-1.9-4.8-0.09-6.66l37.18-38.19
					c1.81-1.86,4.8-1.91,6.66-0.09c1.86,1.81,1.9,4.8,0.09,6.66l-37.18,38.19C166.52,176.61,165.29,177.09,164.07,177.09z"/>
			</g>
		</g>
		<g>
			<g>
				<path class="st5" d="M51.28,53.07c-1.19,0-2.37-0.44-3.29-1.34c-1.86-1.81-1.9-4.8-0.09-6.66L88.72,3.14
					c1.81-1.86,4.8-1.91,6.66-0.09c1.86,1.81,1.9,4.8,0.09,6.66L54.65,51.64C53.73,52.59,52.51,53.07,51.28,53.07z"/>
			</g>
			<g>
				<path class="st5" d="M56.16,82.8c-1.19,0-2.37-0.44-3.29-1.34c-1.86-1.81-1.9-4.8-0.09-6.66l69.76-71.66
					c1.81-1.86,4.8-1.91,6.66-0.09c1.86,1.81,1.9,4.8,0.09,6.66L59.53,81.38C58.61,82.32,57.38,82.8,56.16,82.8z"/>
			</g>
			<g>
				<path class="st5" d="M51.28,124.57c-1.19,0-2.37-0.44-3.29-1.34c-1.86-1.81-1.9-4.8-0.09-6.66L155.99,5.54
					c1.81-1.86,4.8-1.91,6.66-0.09c1.86,1.81,1.9,4.8,0.09,6.66L54.65,123.15C53.73,124.09,52.51,124.57,51.28,124.57z"/>
			</g>
			<g>
				<path class="st5" d="M51.28,162.75c-1.19,0-2.37-0.44-3.29-1.34c-1.86-1.81-1.9-4.8-0.09-6.66l59.74-61.37
					c1.81-1.86,4.8-1.91,6.66-0.09c1.86,1.81,1.9,4.8,0.09,6.66l-59.74,61.37C53.73,162.27,52.51,162.75,51.28,162.75z"/>
			</g>
			<g>
				<path class="st5" d="M53.91,208.54c-1.18,0-2.37-0.44-3.29-1.34c-1.86-1.81-1.9-4.8-0.09-6.66L203.64,43.26
					c1.81-1.86,4.8-1.91,6.66-0.09c1.86,1.81,1.9,4.8,0.09,6.66L57.28,207.12C56.36,208.06,55.13,208.54,53.91,208.54z"/>
			</g>
			<g>
				<path class="st5" d="M54.02,239.76c-1.18,0-2.37-0.44-3.29-1.34c-1.86-1.81-1.9-4.8-0.09-6.66l54.16-55.63
					c1.81-1.86,4.8-1.91,6.66-0.09c1.86,1.81,1.9,4.8,0.09,6.66L57.4,238.34C56.47,239.29,55.25,239.76,54.02,239.76z"/>
			</g>
			<g>
				<path class="st5" d="M76.46,260.13c-1.18,0-2.37-0.44-3.29-1.34c-1.86-1.81-1.9-4.8-0.09-6.66l54.19-55.66
					c1.81-1.86,4.8-1.91,6.66-0.09c1.86,1.81,1.9,4.8,0.09,6.66L79.83,258.7C78.91,259.65,77.68,260.13,76.46,260.13z"/>
			</g>
			<g>
				<path class="st5" d="M120.41,261.93c-1.17,0-2.35-0.44-3.26-1.31c-1.88-1.8-1.94-4.78-0.14-6.66l93.12-97.13
					c1.8-1.88,4.78-1.94,6.66-0.14c1.88,1.8,1.94,4.78,0.14,6.66l-93.12,97.13C122.89,261.44,121.65,261.93,120.41,261.93z"/>
			</g>
			<g>
				<path class="st5" d="M154.95,262.15c-1.18,0-2.37-0.44-3.29-1.34c-1.86-1.81-1.9-4.8-0.09-6.66l67.38-69.22
					c1.81-1.86,4.8-1.91,6.66-0.09c1.86,1.81,1.9,4.8,0.09,6.66l-67.38,69.22C157.4,261.67,156.17,262.15,154.95,262.15z"/>
			</g>
			<g>
				<path class="st5" d="M144.35,66.5c-1.18,0-2.37-0.44-3.29-1.34c-1.86-1.81-1.9-4.8-0.09-6.66l35.99-36.97
					c1.81-1.87,4.8-1.91,6.66-0.09c1.86,1.81,1.9,4.8,0.09,6.66l-35.99,36.97C146.8,66.03,145.58,66.5,144.35,66.5z"/>
			</g>
			<g>
				<path class="st5" d="M135.29,161.56c-1.19,0-2.37-0.44-3.29-1.34c-1.86-1.81-1.9-4.8-0.09-6.66l82.32-84.56
					c1.81-1.86,4.8-1.91,6.66-0.09c1.86,1.81,1.9,4.8,0.09,6.66l-82.32,84.56C137.74,161.09,136.52,161.56,135.29,161.56z"/>
			</g>
			<g>
				<path class="st5" d="M162.74,172.64c-1.19,0-2.37-0.44-3.29-1.34c-1.86-1.81-1.9-4.8-0.09-6.66l37.18-38.19
					c1.81-1.86,4.8-1.91,6.66-0.09c1.86,1.81,1.9,4.8,0.09,6.66l-37.18,38.19C165.2,172.17,163.97,172.64,162.74,172.64z"/>
			</g>
		</g>
	</g>
</g>
</svg>
