<?xml version="1.0" encoding="utf-8"?>
<!-- Generator: Adobe Illustrator 24.1.2, SVG Export Plug-In . SVG Version: 6.00 Build 0)  -->
<svg version="1.1" id="Calque_1" xmlns="http://www.w3.org/2000/svg" xmlns:xlink="http://www.w3.org/1999/xlink" x="0px" y="0px"
	 viewBox="0 0 300 300" style="enable-background:new 0 0 300 300;" xml:space="preserve">
<style type="text/css">
	.st0{fill:#C3D9AC;}
	.st1{fill:#AC7117;}
	.st2{fill:#D89828;}
	.st3{opacity:0.13;}
	.st4{fill:#262423;}
	.st5{fill:#FEFDFC;}
</style>
<g>
	<path class="st0" d="M159.75,299.15c43.85,0,95.1-24.85,107.45-94.61c1.02-5.76,2.28-25.01-12.3-35.21
		c-3.71-2.6-7.17-5.46-11.69-5.46h-40.48c-6.86,0-12.9,4.67-14.68,11.35c-4.67,17.51-15.88,26.76-32.4,26.76
		c-11.33,0-20.84-5.65-27.65-15.47c-1.54-6.54-2.38-13.86-2.38-21.84c0-33.35,13.71-55.75,34.12-55.75
		c14.26,0,22.85,6.73,27.85,21.83c2.68,8.1,10.22,13.53,18.77,13.53h40.58c5.92,0,11.49-2.61,15.28-7.17
		c3.76-4.53,5.25-10.41,4.24-16.18c-14.64-84.2-72.16-108.49-111.16-108.49C88.93,12.44,44.33,64.91,44.33,143
		c0,3.16,0.1,6.26,0.25,9.34c-0.26,4.15-0.42,8.37-0.42,12.68C44.16,245.24,90.61,299.15,159.75,299.15z"/>
	<g>
		<path class="st1" d="M147.18,288.24c43.85,0,95.1-24.85,107.45-94.61c1.02-5.76,1.62-16.18-4.76-25.83
			c-6.93-10.48-11.16-13.88-17.62-14.76l-37.65,17.33c-8.95,0-16.81,6.07-19.13,14.77c-4.13,15.49-13.54,23.34-27.95,23.34
			c-20.61,0-34.47-21.99-34.47-54.72c0-33.35,13.71-55.75,34.12-55.75c14.26,0,22.85,6.73,27.85,21.83
			c2.68,8.1,10.22,13.53,18.77,13.53h34.82c5.92,0,11.49-2.61,15.28-7.17c3.76-4.52,5.31-10.42,4.24-16.18
			c-1.55-8.4-4.1-31.61-9.28-42.87c-20.95-45.48-52.92-48.21-91.68-48.21c-69.14,0-115.42,32.3-115.42,113.15
			c0,2.02-0.14,26.05-0.08,28.03C33.95,237.02,79.79,288.24,147.18,288.24z"/>
		<path class="st2" d="M142.75,261.61c41.98,0,91.06-23.86,102.91-90.81c0.78-4.42-0.43-8.93-3.33-12.39
			c-2.91-3.47-7.17-5.46-11.69-5.46h-40.48c-6.86,0-12.9,4.67-14.68,11.35c-4.67,17.51-15.88,26.76-32.4,26.76
			c-23.37,0-39.07-23.84-39.07-59.33c0-36.1,15.56-60.36,38.73-60.36c16.34,0,26.57,7.94,32.22,24.99
			c2.06,6.21,7.84,10.38,14.39,10.38h40.58c4.55,0,8.82-2.01,11.74-5.51c2.89-3.47,4.07-7.99,3.26-12.4
			C233.78,28.53,185.57,1.53,142.75,1.53C76.36,1.53,31.76,54,31.76,132.09C31.76,209.56,76.36,261.61,142.75,261.61z"/>
	</g>
	<g>
		<g class="st3">
			<g>
				<path class="st4" d="M78.56,54.74c-1.5,0-2.98-0.73-3.86-2.08c-1.39-2.13-0.8-4.98,1.33-6.38l13.44-8.79
					c2.13-1.4,4.98-0.8,6.38,1.33c1.39,2.13,0.8,4.98-1.33,6.38l-13.44,8.79C80.3,54.49,79.43,54.74,78.56,54.74z"/>
			</g>
			<g>
				<path class="st4" d="M83.27,80.35c-0.8-1.27-0.96-2.91-0.28-4.38c1.06-2.31,3.8-3.32,6.11-2.26l14.59,6.72
					c2.32,1.06,3.32,3.8,2.26,6.11c-1.06,2.31-3.8,3.32-6.11,2.26l-14.59-6.72C84.4,81.7,83.73,81.08,83.27,80.35z"/>
			</g>
			<g>
				<path class="st4" d="M121.02,30.16c0.23-1.49,1.18-2.83,2.65-3.49c2.32-1.05,5.05-0.02,6.1,2.29l6.63,14.63
					c1.05,2.32,0.03,5.05-2.29,6.1c-2.32,1.05-5.05,0.02-6.1-2.29l-6.63-14.63C121,31.91,120.89,31.01,121.02,30.16z"/>
			</g>
			<g>
				<path class="st4" d="M48.21,186.98c-0.8-1.27-0.96-2.91-0.28-4.38c1.06-2.31,3.8-3.32,6.11-2.26l14.59,6.72
					c2.32,1.06,3.32,3.8,2.26,6.11c-1.06,2.31-3.8,3.32-6.11,2.26l-14.59-6.72C49.34,188.33,48.67,187.72,48.21,186.98z"/>
			</g>
			<g>
				<path class="st4" d="M99.98,218.2c1.11-1.02,2.69-1.47,4.25-1.07c2.47,0.63,3.96,3.14,3.33,5.6l-3.97,15.56
					c-0.63,2.47-3.13,3.96-5.6,3.33c-2.47-0.63-3.96-3.14-3.33-5.6l3.97-15.56C98.86,219.55,99.34,218.78,99.98,218.2z"/>
			</g>
			<g>
				<path class="st4" d="M168.93,213.84c1.11-1.02,2.69-1.47,4.25-1.07c2.47,0.63,3.96,3.14,3.33,5.6l-3.97,15.56
					c-0.63,2.47-3.13,3.96-5.6,3.33c-2.47-0.63-3.96-3.14-3.33-5.6l3.97-15.56C167.81,215.2,168.29,214.43,168.93,213.84z"/>
			</g>
			<g>
				<path class="st4" d="M198.72,170.43c1.5-0.12,3.02,0.5,4.01,1.78c1.56,2.01,1.18,4.91-0.83,6.46l-12.72,9.81
					c-2.02,1.56-4.91,1.18-6.46-0.83c-1.56-2.01-1.18-4.91,0.83-6.46l12.72-9.81C197,170.81,197.86,170.5,198.72,170.43z"/>
			</g>
			<g>
				<path class="st4" d="M208.83,50.6c0.29-1.47,1.3-2.78,2.79-3.38c2.36-0.95,5.04,0.19,6,2.55l6.02,14.89
					c0.96,2.36-0.18,5.04-2.54,6c-2.36,0.95-5.04-0.19-6-2.54l-6.02-14.89C208.73,52.36,208.66,51.45,208.83,50.6z"/>
			</g>
			<g>
				<path class="st4" d="M215.71,89.2c0.77,1.29,0.89,2.93,0.18,4.38c-1.12,2.29-3.88,3.23-6.16,2.11l-14.42-7.06
					c-2.29-1.12-3.23-3.88-2.11-6.16c1.12-2.29,3.88-3.23,6.16-2.11l14.42,7.06C214.62,87.83,215.27,88.46,215.71,89.2z"/>
			</g>
			<g>
				<path class="st4" d="M125.68,241.98c-0.7-1.33-0.73-2.98,0.06-4.39c1.24-2.22,4.05-3.02,6.27-1.77l14.02,7.84
					c2.23,1.24,3.02,4.05,1.77,6.27c-1.24,2.22-4.05,3.02-6.27,1.77l-14.02-7.84C126.7,243.41,126.08,242.75,125.68,241.98z"/>
			</g>
			<g>
				<path class="st4" d="M197.65,210.85c-0.7-1.33-0.73-2.98,0.06-4.39c1.24-2.22,4.05-3.02,6.27-1.77l14.02,7.84
					c2.23,1.24,3.02,4.05,1.77,6.27c-1.24,2.22-4.05,3.02-6.27,1.77l-14.02-7.84C198.67,212.28,198.05,211.62,197.65,210.85z"/>
			</g>
			<g>
				<path class="st4" d="M174.68,71.76c-1.5,0-2.98-0.73-3.86-2.08c-1.39-2.13-0.8-4.98,1.33-6.38l13.44-8.79
					c2.13-1.4,4.98-0.8,6.38,1.33c1.39,2.13,0.8,4.98-1.33,6.38L177.2,71C176.42,71.51,175.54,71.76,174.68,71.76z"/>
			</g>
			<g>
				<path class="st4" d="M160.18,38.66c-0.6-1.61-0.28-3.5,1-4.82l11.14-11.57c1.77-1.83,4.68-1.89,6.51-0.12
					c1.83,1.77,1.89,4.68,0.12,6.51l-11.14,11.57c-1.77,1.83-4.68,1.89-6.51,0.12C160.79,39.87,160.41,39.29,160.18,38.66z"/>
			</g>
			<g>
				<path class="st4" d="M70.13,145.95c-1.1-1.32-1.41-3.21-0.64-4.88l6.73-14.58c1.07-2.31,3.8-3.32,6.11-2.25
					c2.31,1.07,3.32,3.8,2.25,6.11l-6.73,14.58c-1.07,2.31-3.8,3.32-6.11,2.25C71.1,146.89,70.55,146.46,70.13,145.95z"/>
			</g>
			<g>
				<path class="st4" d="M106.92,197.33c-1.69,0.31-3.49-0.34-4.57-1.82l-9.45-12.99c-1.5-2.06-1.04-4.94,1.02-6.44
					c2.06-1.5,4.94-1.04,6.44,1.02l9.45,12.99c1.5,2.06,1.04,4.94-1.02,6.44C108.22,196.94,107.58,197.21,106.92,197.33z"/>
			</g>
			<g>
				<path class="st4" d="M59.04,113.2c-1.72,0-3.37-0.97-4.16-2.62l-6.92-14.49c-1.1-2.3-0.12-5.05,2.17-6.14
					c2.3-1.1,5.05-0.13,6.14,2.17l6.92,14.49c1.1,2.3,0.12,5.05-2.17,6.14C60.38,113.05,59.7,113.2,59.04,113.2z"/>
			</g>
		</g>
		<g>
			<g>
				<path class="st5" d="M77.54,50.9c-1.5,0-2.98-0.73-3.86-2.08c-1.39-2.13-0.8-4.98,1.33-6.38l13.44-8.79
					c2.13-1.4,4.98-0.8,6.38,1.33c1.39,2.13,0.8,4.98-1.33,6.38l-13.44,8.79C79.28,50.65,78.4,50.9,77.54,50.9z"/>
			</g>
			<g>
				<path class="st5" d="M82.25,76.51c-0.8-1.27-0.96-2.91-0.28-4.38c1.06-2.31,3.8-3.32,6.11-2.26l14.59,6.72
					c2.32,1.06,3.32,3.8,2.26,6.11c-1.06,2.31-3.8,3.32-6.11,2.26l-14.59-6.72C83.37,77.86,82.7,77.25,82.25,76.51z"/>
			</g>
			<g>
				<path class="st5" d="M119.99,26.32c0.23-1.49,1.18-2.83,2.65-3.49c2.32-1.05,5.05-0.02,6.1,2.29l6.63,14.63
					c1.05,2.32,0.03,5.05-2.29,6.1c-2.32,1.05-5.05,0.02-6.1-2.29l-6.63-14.63C119.97,28.07,119.86,27.17,119.99,26.32z"/>
			</g>
			<g>
				<path class="st5" d="M47.18,183.14c-0.8-1.27-0.96-2.91-0.28-4.38c1.06-2.31,3.8-3.32,6.11-2.26l14.59,6.72
					c2.32,1.06,3.32,3.8,2.26,6.11c-1.06,2.31-3.8,3.32-6.11,2.26l-14.59-6.72C48.31,184.49,47.64,183.88,47.18,183.14z"/>
			</g>
			<g>
				<path class="st5" d="M98.95,214.36c1.11-1.02,2.69-1.47,4.25-1.07c2.47,0.63,3.96,3.14,3.33,5.6l-3.97,15.56
					c-0.63,2.47-3.13,3.96-5.6,3.33c-2.47-0.63-3.96-3.14-3.33-5.6l3.97-15.56C97.84,215.71,98.32,214.94,98.95,214.36z"/>
			</g>
			<g>
				<path class="st5" d="M167.91,210c1.11-1.02,2.69-1.47,4.25-1.07c2.47,0.63,3.96,3.14,3.33,5.6l-3.97,15.56
					c-0.63,2.47-3.13,3.96-5.6,3.33c-2.47-0.63-3.96-3.14-3.33-5.6l3.97-15.56C166.79,211.36,167.27,210.59,167.91,210z"/>
			</g>
			<g>
				<path class="st5" d="M197.69,166.59c1.5-0.12,3.02,0.5,4.01,1.78c1.56,2.01,1.18,4.91-0.83,6.46l-12.72,9.81
					c-2.02,1.56-4.91,1.18-6.46-0.83c-1.56-2.01-1.18-4.91,0.83-6.46l12.72-9.81C195.98,166.97,196.83,166.66,197.69,166.59z"/>
			</g>
			<g>
				<path class="st5" d="M207.81,46.76c0.29-1.47,1.3-2.78,2.79-3.38c2.36-0.95,5.04,0.19,6,2.55l6.02,14.89
					c0.96,2.36-0.18,5.04-2.54,6c-2.36,0.95-5.04-0.19-6-2.54l-6.02-14.89C207.71,48.52,207.64,47.61,207.81,46.76z"/>
			</g>
			<g>
				<path class="st5" d="M214.69,85.36c0.77,1.29,0.89,2.93,0.18,4.38c-1.12,2.29-3.88,3.23-6.16,2.11l-14.42-7.06
					c-2.29-1.12-3.23-3.88-2.11-6.16c1.12-2.29,3.88-3.23,6.16-2.11l14.42,7.06C213.59,83.99,214.24,84.62,214.69,85.36z"/>
			</g>
			<g>
				<path class="st5" d="M124.65,238.14c-0.7-1.33-0.73-2.98,0.06-4.39c1.24-2.22,4.05-3.02,6.27-1.77l14.02,7.84
					c2.23,1.24,3.02,4.05,1.77,6.27c-1.24,2.22-4.05,3.02-6.27,1.77l-14.02-7.84C125.67,239.57,125.05,238.91,124.65,238.14z"/>
			</g>
			<g>
				<path class="st5" d="M196.63,207.01c-0.7-1.33-0.73-2.98,0.06-4.39c1.24-2.22,4.05-3.02,6.27-1.77l14.02,7.84
					c2.23,1.24,3.02,4.05,1.77,6.27c-1.24,2.22-4.05,3.02-6.27,1.77l-14.02-7.84C197.65,208.44,197.03,207.78,196.63,207.01z"/>
			</g>
			<g>
				<path class="st5" d="M173.65,67.92c-1.5,0-2.98-0.73-3.86-2.08c-1.39-2.13-0.8-4.98,1.33-6.38l13.44-8.79
					c2.13-1.4,4.98-0.8,6.38,1.33c1.39,2.13,0.8,4.98-1.33,6.38l-13.44,8.79C175.39,67.67,174.52,67.92,173.65,67.92z"/>
			</g>
			<g>
				<path class="st5" d="M159.15,34.82c-0.6-1.61-0.28-3.5,1-4.82l11.14-11.57c1.77-1.83,4.68-1.89,6.51-0.12
					c1.83,1.77,1.89,4.68,0.12,6.51L166.79,36.4c-1.77,1.83-4.68,1.89-6.51,0.12C159.76,36.03,159.39,35.45,159.15,34.82z"/>
			</g>
			<g>
				<path class="st5" d="M69.1,142.11c-1.1-1.32-1.41-3.21-0.64-4.88l6.73-14.58c1.07-2.31,3.8-3.32,6.11-2.25
					c2.31,1.07,3.32,3.8,2.25,6.11l-6.73,14.58c-1.07,2.31-3.8,3.32-6.11,2.25C70.07,143.05,69.53,142.62,69.1,142.11z"/>
			</g>
			<g>
				<path class="st5" d="M105.9,193.49c-1.69,0.31-3.49-0.34-4.57-1.82l-9.45-12.99c-1.5-2.06-1.04-4.94,1.02-6.44
					c2.06-1.5,4.94-1.04,6.44,1.02l9.45,12.99c1.5,2.06,1.04,4.94-1.02,6.44C107.19,193.1,106.55,193.37,105.9,193.49z"/>
			</g>
			<g>
				<path class="st5" d="M58.01,109.36c-1.72,0-3.37-0.97-4.16-2.62l-6.92-14.49c-1.1-2.3-0.12-5.05,2.17-6.14
					c2.3-1.1,5.05-0.13,6.14,2.17l6.92,14.49c1.1,2.3,0.12,5.05-2.17,6.14C59.35,109.21,58.68,109.36,58.01,109.36z"/>
			</g>
		</g>
	</g>
</g>
</svg>
