<?xml version="1.0" encoding="utf-8"?>
<!-- Generator: Adobe Illustrator 24.1.2, SVG Export Plug-In . SVG Version: 6.00 Build 0)  -->
<svg version="1.1" id="Calque_1" xmlns="http://www.w3.org/2000/svg" xmlns:xlink="http://www.w3.org/1999/xlink" x="0px" y="0px"
	 viewBox="0 0 300 300" style="enable-background:new 0 0 300 300;" xml:space="preserve">
<style type="text/css">
	.st0{fill:#C3D9AC;}
	.st1{fill:#AC7117;}
	.st2{fill:#D89828;}
	.st3{fill:#8E6119;}
	.st4{opacity:0.18;}
	.st5{fill:#262423;}
	.st6{fill:#FEFDFC;}
	.st7{opacity:0.07;}
</style>
<g>
	<path class="st0" d="M81,298.92h64.88c30.73,0,57.67-10.79,77.9-31.21c24.09-24.32,37.53-61.32,36.73-104.13
		C258.48,53.87,190.47,12.9,141.34,12.9H76.47c-12.65,0-22.94,10.29-22.94,22.94v19.47c-0.11,1-0.18,2.01-0.18,3.04v212.93
		C53.35,286.52,65.75,298.92,81,298.92z M140.64,200.31h-3.67v-89.16h8.2c16.69,0,28.48,16.92,30.89,43.02
		C173.03,182.23,159.56,200.31,140.64,200.31z"/>
	<g>
		<path class="st1" d="M68.16,287.78h64.88c30.73,0,57.67-10.79,77.9-31.21c24.09-24.32,35.13-57.84,34.73-100.65
			c0-19.87-9.1-65.31-19.07-88.69c-20.08-47.07-42.13-47.67-93.56-47.67H68.16c-15.25,0-27.65,12.4-27.65,27.65v212.93
			C40.5,275.37,52.91,287.78,68.16,287.78z M124.13,206.96V100.01h8.2c18.76,0,31.37,21.35,31.37,53.13
			c0,32.2-12.61,53.83-31.37,53.83H124.13z"/>
		<path class="st2" d="M63.62,260.56h64.88c29.45,0,55.23-10.31,74.55-29.82c23.2-23.42,35.76-59.25,35.37-100.82
			c0-76.67-44.17-128.18-109.92-128.18H63.62c-12.65,0-22.94,10.29-22.94,22.94v212.93C40.68,250.27,50.97,260.56,63.62,260.56z
			 M114.88,185.65V76.31c0-1.94,1.58-3.51,3.52-3.51h9.39c21.58,0,36.08,23.24,36.08,57.83c0,35.01-14.5,58.54-36.08,58.54h-9.39
			C116.46,189.17,114.88,187.59,114.88,185.65z"/>
	</g>
	<g>
		<path class="st3" d="M72.9,244.75h56.95c25.85,0,48.48-9.05,65.45-26.18c20.37-20.56,31.39-52.01,31.05-88.5
			c0-67.3-38.78-112.52-96.49-112.52H72.9c-11.11,0-20.14,9.03-20.14,20.14v186.91C52.76,235.72,61.79,244.75,72.9,244.75z
			 M105.29,196.73V66.37c0-2.31,2.23-4.19,4.98-4.19h13.32c30.6,0,51.16,27.71,51.16,68.95c0,41.74-20.56,69.79-51.16,69.79h-13.32
			C107.53,200.92,105.29,199.04,105.29,196.73z"/>
		<g>
			<g class="st4">
				<path class="st5" d="M68.33,47.17c-0.07,0.16-0.13,0.33-0.2,0.5c-0.15,0.39-0.27,0.79-0.37,1.2c-0.04,0.17-0.09,0.34-0.12,0.52
					c-0.11,0.58-0.18,1.17-0.18,1.77c0,0.68,0.07,1.34,0.2,1.98c0.26,1.28,0.77,2.46,1.48,3.51c0.35,0.52,0.75,1.01,1.2,1.45
					c1.33,1.33,3.04,2.28,4.96,2.67c0.64,0.13,1.3,0.2,1.98,0.2c0.6,0,1.17-0.07,1.74-0.18c0.16-0.03,0.31-0.06,0.46-0.09
					c0.49-0.12,0.98-0.26,1.44-0.45c0.18-0.07,0.34-0.16,0.51-0.24c0.33-0.16,0.65-0.33,0.96-0.52c0.23-0.14,0.46-0.29,0.68-0.46
					c0.17-0.13,0.33-0.27,0.49-0.41c0.45-0.38,0.86-0.79,1.23-1.25c0.07-0.08,0.14-0.16,0.21-0.25c0.23-0.3,0.45-0.61,0.65-0.94
					c0,0,0,0,0,0l0,0c0.89-1.48,1.43-3.19,1.43-5.04c0-5.42-4.39-9.81-9.81-9.81c-1.41,0-2.75,0.31-3.97,0.85
					c-0.46,0.2-0.89,0.44-1.31,0.71c-0.22,0.14-0.42,0.3-0.62,0.45c-0.25,0.19-0.48,0.38-0.71,0.59c-0.18,0.17-0.36,0.33-0.53,0.52
					c-0.27,0.28-0.51,0.59-0.74,0.9c-0.09,0.13-0.2,0.24-0.29,0.38C68.81,46.19,68.56,46.67,68.33,47.17z"/>
				<path class="st5" d="M190.74,85c0.16-0.03,0.31-0.06,0.46-0.1c0.49-0.12,0.98-0.26,1.44-0.45c0.18-0.07,0.34-0.16,0.51-0.24
					c0.33-0.16,0.65-0.33,0.96-0.52c0.23-0.14,0.46-0.29,0.68-0.46c0.17-0.13,0.33-0.27,0.49-0.41c0.45-0.38,0.86-0.79,1.24-1.25
					c0.07-0.08,0.14-0.16,0.21-0.25c0.23-0.3,0.45-0.61,0.65-0.94c0,0,0,0,0,0c0,0,0,0,0,0c0.89-1.48,1.43-3.19,1.43-5.04
					c0-5.42-4.39-9.81-9.81-9.81c-1.41,0-2.75,0.31-3.97,0.85c-0.46,0.2-0.89,0.44-1.31,0.71c-0.22,0.14-0.41,0.3-0.62,0.45
					c-0.25,0.19-0.49,0.38-0.72,0.59c-0.18,0.17-0.36,0.33-0.53,0.51c-0.27,0.28-0.51,0.59-0.74,0.9c-0.09,0.13-0.2,0.24-0.29,0.37
					c-0.3,0.45-0.55,0.93-0.77,1.43c-0.07,0.16-0.13,0.33-0.2,0.5c-0.15,0.39-0.27,0.79-0.37,1.2c-0.04,0.17-0.09,0.34-0.12,0.52
					c-0.11,0.58-0.18,1.17-0.18,1.77c0,1.35,0.27,2.65,0.77,3.82c0.25,0.59,0.55,1.14,0.9,1.67c0.71,1.04,1.61,1.94,2.65,2.65
					c1.57,1.06,3.45,1.68,5.49,1.68C189.6,85.17,190.18,85.1,190.74,85z"/>
				<path class="st5" d="M160.21,55.31c0.49-0.12,0.98-0.26,1.44-0.45c0.18-0.07,0.34-0.16,0.51-0.24c0.33-0.16,0.65-0.33,0.96-0.52
					c0.23-0.14,0.46-0.29,0.68-0.46c0.17-0.13,0.33-0.27,0.49-0.41c0.45-0.38,0.86-0.79,1.23-1.25c0.07-0.08,0.14-0.16,0.21-0.25
					c0.23-0.3,0.45-0.61,0.65-0.94c0,0,0,0,0,0l0,0c0.89-1.48,1.43-3.19,1.43-5.04c0-5.42-4.39-9.81-9.81-9.81
					c-1.41,0-2.75,0.31-3.97,0.85c-0.46,0.2-0.89,0.44-1.31,0.71c-0.22,0.14-0.41,0.3-0.62,0.45c-0.25,0.19-0.49,0.38-0.72,0.59
					c-0.18,0.17-0.36,0.33-0.53,0.51c-0.27,0.28-0.51,0.59-0.75,0.9c-0.09,0.13-0.2,0.24-0.29,0.37c-0.3,0.45-0.55,0.93-0.78,1.43
					c-0.07,0.16-0.13,0.33-0.19,0.5c-0.15,0.39-0.27,0.79-0.37,1.2c-0.04,0.17-0.09,0.34-0.12,0.52c-0.11,0.58-0.18,1.17-0.18,1.77
					c0,0.84,0.14,1.64,0.33,2.41c0.28,1.11,0.72,2.15,1.34,3.07c0.55,0.81,1.24,1.5,1.99,2.11c1.2,0.97,2.6,1.7,4.16,2.02
					c0.64,0.13,1.3,0.2,1.98,0.2c0.6,0,1.17-0.07,1.74-0.18C159.9,55.37,160.05,55.34,160.21,55.31z"/>
				<path class="st5" d="M123.26,43.84C123.26,43.84,123.26,43.84,123.26,43.84C123.26,43.84,123.26,43.84,123.26,43.84
					c0.89-1.48,1.43-3.19,1.43-5.04c0-5.42-4.39-9.81-9.81-9.81c-1.41,0-2.75,0.31-3.97,0.85c-0.46,0.2-0.89,0.44-1.31,0.71
					c-0.22,0.14-0.42,0.3-0.62,0.45c-0.25,0.19-0.48,0.38-0.71,0.59c-0.18,0.17-0.36,0.34-0.53,0.52c-0.27,0.28-0.51,0.58-0.74,0.9
					c-0.09,0.13-0.2,0.24-0.29,0.38c-0.3,0.45-0.55,0.93-0.77,1.43c-0.07,0.16-0.13,0.33-0.2,0.5c-0.15,0.39-0.27,0.79-0.37,1.2
					c-0.04,0.17-0.09,0.34-0.12,0.52c-0.11,0.58-0.18,1.17-0.18,1.77c0,5.42,4.39,9.81,9.81,9.81c0.6,0,1.17-0.07,1.74-0.18
					c0.16-0.03,0.31-0.06,0.46-0.09c0.49-0.12,0.98-0.26,1.44-0.45c0.18-0.07,0.34-0.16,0.51-0.24c0.33-0.16,0.65-0.33,0.96-0.52
					c0.23-0.14,0.46-0.29,0.68-0.46c0.17-0.13,0.33-0.27,0.49-0.41c0.45-0.38,0.86-0.79,1.23-1.24c0.07-0.08,0.14-0.17,0.21-0.25
					C122.85,44.47,123.06,44.16,123.26,43.84z"/>
				<path class="st5" d="M69.14,146.1c0.55,0.81,1.24,1.5,1.99,2.11c1.2,0.97,2.6,1.7,4.16,2.02c0.64,0.13,1.3,0.2,1.98,0.2
					c0.6,0,1.17-0.07,1.74-0.18c0.16-0.03,0.31-0.06,0.46-0.09c0.49-0.12,0.98-0.26,1.44-0.45c0.18-0.07,0.34-0.16,0.51-0.24
					c0.33-0.16,0.65-0.33,0.96-0.52c0.23-0.14,0.46-0.29,0.68-0.46c0.17-0.13,0.33-0.27,0.49-0.41c0.45-0.38,0.86-0.79,1.23-1.25
					c0.07-0.08,0.14-0.16,0.21-0.25c0.23-0.3,0.45-0.61,0.65-0.94c0,0,0,0,0,0l0,0c0.89-1.48,1.43-3.19,1.43-5.04
					c0-5.42-4.39-9.81-9.81-9.81c-1.41,0-2.75,0.31-3.97,0.85c-0.46,0.2-0.89,0.44-1.31,0.71c-0.22,0.14-0.41,0.3-0.62,0.45
					c-0.25,0.19-0.49,0.38-0.72,0.59c-0.18,0.17-0.36,0.33-0.53,0.51c-0.27,0.28-0.51,0.59-0.75,0.9c-0.09,0.13-0.2,0.24-0.29,0.37
					c-0.3,0.45-0.55,0.93-0.78,1.43c-0.07,0.16-0.13,0.33-0.19,0.5c-0.15,0.39-0.27,0.79-0.37,1.2c-0.04,0.17-0.09,0.34-0.12,0.52
					c-0.11,0.58-0.18,1.17-0.18,1.77c0,0.84,0.14,1.64,0.33,2.41C68.09,144.13,68.52,145.18,69.14,146.1z"/>
				<path class="st5" d="M210.51,127.73C210.51,127.73,210.51,127.73,210.51,127.73C210.51,127.73,210.51,127.73,210.51,127.73
					c0.89-1.48,1.43-3.19,1.43-5.04c0-5.42-4.39-9.81-9.81-9.81c-1.41,0-2.75,0.31-3.97,0.85c-0.46,0.2-0.89,0.44-1.31,0.71
					c-0.22,0.14-0.41,0.3-0.62,0.45c-0.25,0.19-0.49,0.38-0.71,0.59c-0.18,0.17-0.36,0.33-0.53,0.51c-0.27,0.28-0.51,0.59-0.74,0.9
					c-0.09,0.13-0.2,0.24-0.29,0.37c-0.3,0.45-0.55,0.93-0.77,1.43c-0.07,0.16-0.13,0.33-0.2,0.5c-0.15,0.39-0.27,0.79-0.37,1.2
					c-0.04,0.17-0.09,0.34-0.12,0.52c-0.11,0.58-0.18,1.17-0.18,1.77c0,1.35,0.27,2.65,0.77,3.82c0.25,0.59,0.55,1.14,0.9,1.67
					c0.71,1.04,1.61,1.94,2.65,2.65c1.57,1.06,3.45,1.68,5.49,1.68c0.6,0,1.17-0.07,1.74-0.18c0.16-0.03,0.31-0.06,0.46-0.1
					c0.49-0.12,0.98-0.26,1.44-0.45c0.18-0.07,0.34-0.16,0.51-0.24c0.33-0.16,0.65-0.33,0.96-0.52c0.23-0.14,0.46-0.29,0.68-0.46
					c0.17-0.13,0.33-0.27,0.49-0.41c0.45-0.38,0.86-0.79,1.23-1.24c0.07-0.08,0.14-0.17,0.21-0.25
					C210.09,128.37,210.31,128.06,210.51,127.73z"/>
				<path class="st5" d="M196.91,159.3c-1.41,0-2.75,0.31-3.97,0.85c-0.46,0.2-0.89,0.44-1.31,0.71c-0.22,0.14-0.42,0.3-0.62,0.45
					c-0.25,0.19-0.48,0.38-0.71,0.59c-0.18,0.17-0.36,0.33-0.53,0.52c-0.27,0.28-0.51,0.59-0.74,0.9c-0.09,0.13-0.2,0.24-0.29,0.38
					c-0.3,0.45-0.55,0.93-0.77,1.43c-0.07,0.16-0.13,0.33-0.2,0.5c-0.15,0.39-0.27,0.79-0.37,1.2c-0.04,0.17-0.09,0.34-0.12,0.52
					c-0.11,0.58-0.18,1.17-0.18,1.77c0,0.68,0.07,1.34,0.2,1.98c0.26,1.28,0.77,2.46,1.48,3.51c0.35,0.52,0.75,1.01,1.2,1.45
					c1.33,1.33,3.04,2.28,4.96,2.67c0.64,0.13,1.3,0.2,1.98,0.2c0.6,0,1.17-0.07,1.74-0.18c0.16-0.03,0.31-0.06,0.46-0.09
					c0.49-0.12,0.98-0.26,1.44-0.45c0.18-0.07,0.34-0.16,0.51-0.24c0.33-0.16,0.65-0.33,0.96-0.52c0.23-0.14,0.46-0.29,0.68-0.46
					c0.17-0.13,0.33-0.27,0.49-0.41c0.45-0.38,0.86-0.79,1.23-1.25c0.07-0.08,0.14-0.16,0.21-0.25c0.23-0.3,0.45-0.61,0.65-0.94
					c0,0,0,0,0,0l0,0c0.89-1.48,1.43-3.19,1.43-5.04C206.72,163.7,202.33,159.3,196.91,159.3z"/>
				<path class="st5" d="M85.66,212.46c-1.41,0-2.75,0.31-3.97,0.85c-0.46,0.2-0.89,0.44-1.31,0.71c-0.22,0.14-0.41,0.3-0.62,0.45
					c-0.25,0.19-0.49,0.38-0.71,0.59c-0.18,0.17-0.36,0.33-0.53,0.51c-0.27,0.28-0.51,0.59-0.74,0.9c-0.09,0.13-0.2,0.24-0.29,0.37
					c-0.3,0.45-0.55,0.93-0.77,1.43c-0.07,0.16-0.13,0.33-0.2,0.5c-0.15,0.39-0.27,0.79-0.37,1.2c-0.04,0.17-0.09,0.34-0.12,0.52
					c-0.11,0.58-0.18,1.17-0.18,1.77c0,1.35,0.27,2.65,0.77,3.82c0.25,0.59,0.55,1.14,0.9,1.67c0.71,1.04,1.61,1.94,2.65,2.65
					c1.57,1.06,3.45,1.68,5.49,1.68c0.6,0,1.17-0.07,1.74-0.18c0.16-0.03,0.31-0.06,0.46-0.09c0.49-0.12,0.98-0.26,1.44-0.45
					c0.18-0.07,0.34-0.16,0.51-0.24c0.33-0.16,0.65-0.33,0.96-0.52c0.23-0.14,0.46-0.29,0.68-0.46c0.17-0.13,0.33-0.27,0.49-0.41
					c0.45-0.38,0.86-0.79,1.23-1.24c0.07-0.08,0.14-0.17,0.21-0.25c0.23-0.3,0.45-0.61,0.65-0.94c0,0,0,0,0,0c0,0,0,0,0,0
					c0.89-1.48,1.43-3.19,1.43-5.04C95.47,216.86,91.08,212.46,85.66,212.46z"/>
				<path class="st5" d="M69.14,101.37c0.55,0.81,1.24,1.5,1.99,2.11c1.2,0.97,2.6,1.7,4.16,2.02c0.64,0.13,1.3,0.2,1.98,0.2
					c0.6,0,1.17-0.07,1.74-0.18c0.16-0.03,0.31-0.06,0.46-0.09c0.49-0.12,0.98-0.26,1.44-0.45c0.18-0.07,0.34-0.16,0.51-0.24
					c0.33-0.16,0.65-0.33,0.96-0.52c0.23-0.14,0.46-0.29,0.68-0.46c0.17-0.13,0.33-0.27,0.49-0.41c0.45-0.38,0.86-0.79,1.23-1.25
					c0.07-0.08,0.14-0.16,0.21-0.25c0.23-0.3,0.45-0.61,0.65-0.94c0,0,0,0,0,0l0,0c0.89-1.48,1.43-3.19,1.43-5.04
					c0-5.42-4.39-9.81-9.81-9.81c-1.41,0-2.75,0.31-3.97,0.85c-0.46,0.2-0.89,0.44-1.31,0.71c-0.22,0.14-0.41,0.3-0.62,0.45
					c-0.25,0.19-0.49,0.38-0.72,0.59c-0.18,0.17-0.36,0.33-0.53,0.51c-0.27,0.28-0.51,0.59-0.75,0.9c-0.09,0.13-0.2,0.24-0.29,0.37
					c-0.3,0.45-0.55,0.93-0.78,1.43c-0.07,0.16-0.13,0.33-0.19,0.5c-0.15,0.39-0.27,0.79-0.37,1.2c-0.04,0.17-0.09,0.34-0.12,0.52
					c-0.11,0.58-0.18,1.17-0.18,1.77c0,0.84,0.14,1.64,0.33,2.41C68.09,99.41,68.52,100.45,69.14,101.37z"/>
				<path class="st5" d="M79.02,193.99c0.16-0.03,0.31-0.06,0.46-0.09c0.49-0.12,0.98-0.26,1.44-0.45c0.18-0.07,0.34-0.16,0.51-0.24
					c0.33-0.16,0.65-0.33,0.96-0.52c0.23-0.14,0.46-0.29,0.68-0.46c0.17-0.13,0.33-0.27,0.49-0.41c0.45-0.38,0.86-0.79,1.23-1.25
					c0.07-0.08,0.14-0.16,0.21-0.25c0.23-0.3,0.45-0.61,0.65-0.94c0,0,0,0,0,0l0,0c0.89-1.48,1.43-3.19,1.43-5.04
					c0-5.42-4.39-9.81-9.81-9.81c-1.41,0-2.75,0.31-3.97,0.85c-0.46,0.2-0.89,0.44-1.31,0.71c-0.22,0.14-0.42,0.3-0.62,0.45
					c-0.25,0.19-0.48,0.38-0.71,0.59c-0.18,0.17-0.36,0.33-0.53,0.52c-0.27,0.28-0.51,0.59-0.74,0.9c-0.09,0.13-0.2,0.24-0.29,0.38
					c-0.3,0.45-0.55,0.93-0.77,1.43c-0.07,0.16-0.13,0.33-0.2,0.5c-0.15,0.39-0.27,0.79-0.37,1.2c-0.04,0.17-0.09,0.34-0.12,0.52
					c-0.11,0.58-0.18,1.17-0.18,1.77c0,0.68,0.07,1.34,0.2,1.98c0.26,1.28,0.77,2.46,1.48,3.51c0.35,0.52,0.75,1.01,1.2,1.45
					c1.33,1.33,3.04,2.28,4.96,2.67c0.64,0.13,1.3,0.2,1.98,0.2C77.88,194.16,78.46,194.09,79.02,193.99z"/>
				<path class="st5" d="M134.28,212.46c-1.41,0-2.75,0.31-3.96,0.85l0,0c-0.46,0.2-0.89,0.45-1.31,0.71
					c-0.22,0.14-0.41,0.3-0.62,0.45c-0.25,0.19-0.49,0.38-0.72,0.59c-0.18,0.17-0.36,0.33-0.53,0.51c-0.27,0.28-0.51,0.59-0.75,0.9
					c-0.09,0.13-0.2,0.24-0.29,0.37c-0.3,0.45-0.55,0.93-0.78,1.43c-0.07,0.16-0.13,0.33-0.19,0.5c-0.15,0.39-0.27,0.79-0.37,1.2
					c-0.04,0.17-0.09,0.34-0.12,0.52c-0.11,0.58-0.18,1.17-0.18,1.77c0,0.84,0.14,1.64,0.33,2.41c0.28,1.11,0.72,2.15,1.34,3.07
					c0.55,0.81,1.24,1.5,1.99,2.11c1.2,0.97,2.6,1.7,4.16,2.02c0.64,0.13,1.3,0.2,1.98,0.2c0.6,0,1.17-0.07,1.74-0.18
					c0.16-0.03,0.31-0.06,0.47-0.09c0.49-0.12,0.98-0.26,1.44-0.45c0.18-0.07,0.34-0.16,0.52-0.24c0.33-0.16,0.65-0.33,0.96-0.52
					c0.23-0.14,0.46-0.29,0.68-0.46c0.17-0.13,0.33-0.27,0.49-0.4c0.45-0.38,0.86-0.79,1.24-1.25c0.07-0.08,0.14-0.16,0.21-0.25
					c0.23-0.3,0.45-0.61,0.65-0.94c0,0,0,0,0,0h0c0.89-1.48,1.43-3.19,1.43-5.04C144.09,216.86,139.7,212.46,134.28,212.46z"/>
				<path class="st5" d="M173.68,192.84c-1.41,0-2.75,0.31-3.97,0.85c-0.46,0.2-0.89,0.44-1.31,0.71c-0.22,0.14-0.41,0.3-0.62,0.45
					c-0.25,0.19-0.49,0.38-0.72,0.59c-0.18,0.17-0.36,0.33-0.53,0.51c-0.27,0.28-0.51,0.59-0.74,0.9c-0.09,0.13-0.2,0.24-0.29,0.37
					c-0.3,0.45-0.55,0.93-0.77,1.43c-0.07,0.16-0.13,0.33-0.2,0.5c-0.15,0.39-0.27,0.79-0.37,1.2c-0.04,0.17-0.09,0.34-0.12,0.52
					c-0.11,0.58-0.18,1.17-0.18,1.77c0,1.35,0.27,2.65,0.77,3.82c0.25,0.59,0.55,1.14,0.9,1.67c0.71,1.04,1.61,1.94,2.65,2.65
					c1.57,1.06,3.45,1.68,5.49,1.68c0.6,0,1.17-0.07,1.74-0.18c0.16-0.03,0.31-0.06,0.46-0.09c0.49-0.12,0.98-0.26,1.44-0.45
					c0.18-0.07,0.34-0.16,0.51-0.24c0.33-0.16,0.65-0.33,0.96-0.52c0.23-0.14,0.46-0.29,0.68-0.46c0.17-0.13,0.33-0.27,0.49-0.41
					c0.45-0.38,0.86-0.79,1.23-1.24c0.07-0.08,0.14-0.17,0.21-0.25c0.23-0.3,0.45-0.61,0.65-0.94c0,0,0,0,0,0c0,0,0,0,0,0
					c0.89-1.48,1.43-3.19,1.43-5.04C183.49,197.23,179.1,192.84,173.68,192.84z"/>
			</g>
			<g>
				<g>
					<circle class="st6" cx="80.47" cy="49.05" r="9.81"/>
					<g class="st7">
						<path class="st5" d="M75.07,45.13c0-1.85,0.54-3.56,1.43-5.04c-3.44,1.52-5.85,4.96-5.85,8.96c0,5.42,4.39,9.81,9.81,9.81
							c3.57,0,6.66-1.93,8.38-4.77c-1.21,0.54-2.55,0.85-3.96,0.85C79.46,54.94,75.07,50.55,75.07,45.13z"/>
					</g>
				</g>
				<g>
					<circle class="st6" cx="192.19" cy="73.25" r="9.81"/>
					<g class="st7">
						<path class="st5" d="M186.79,69.33c0-1.85,0.54-3.56,1.43-5.04c-3.44,1.52-5.85,4.96-5.85,8.96c0,5.42,4.39,9.81,9.81,9.81
							c3.57,0,6.66-1.93,8.38-4.77c-1.21,0.54-2.55,0.85-3.96,0.85C191.19,79.14,186.79,74.74,186.79,69.33z"/>
					</g>
				</g>
				<g>
					<circle class="st6" cx="161.19" cy="43.66" r="9.81"/>
					<g class="st7">
						<path class="st5" d="M155.79,39.73c0-1.85,0.54-3.56,1.43-5.04c-3.44,1.52-5.85,4.96-5.85,8.96c0,5.42,4.39,9.81,9.81,9.81
							c3.57,0,6.66-1.93,8.38-4.77c-1.21,0.54-2.55,0.85-3.96,0.85C160.19,49.54,155.79,45.15,155.79,39.73z"/>
					</g>
				</g>
				<g>
					<circle class="st6" cx="118.07" cy="36.69" r="9.81"/>
					<g class="st7">
						<path class="st5" d="M112.68,32.76c0-1.85,0.54-3.56,1.43-5.04c-3.44,1.52-5.85,4.96-5.85,8.96c0,5.42,4.39,9.81,9.81,9.81
							c3.57,0,6.66-1.92,8.38-4.77c-1.21,0.54-2.55,0.85-3.96,0.85C117.07,42.58,112.68,38.18,112.68,32.76z"/>
					</g>
				</g>
				<g>
					<circle class="st6" cx="80.47" cy="138.5" r="9.81"/>
					<g class="st7">
						<path class="st5" d="M75.07,134.58c0-1.85,0.54-3.56,1.43-5.04c-3.44,1.52-5.85,4.96-5.85,8.96c0,5.42,4.39,9.81,9.81,9.81
							c3.57,0,6.66-1.93,8.38-4.77c-1.21,0.54-2.55,0.85-3.96,0.85C79.46,144.39,75.07,140,75.07,134.58z"/>
					</g>
				</g>
				<g>
					<circle class="st6" cx="205.31" cy="120.58" r="9.81"/>
					<g class="st7">
						<path class="st5" d="M199.92,116.66c0-1.85,0.54-3.56,1.43-5.04c-3.44,1.52-5.85,4.96-5.85,8.96c0,5.42,4.39,9.81,9.81,9.81
							c3.57,0,6.66-1.93,8.38-4.77c-1.21,0.54-2.55,0.85-3.96,0.85C204.31,126.47,199.92,122.08,199.92,116.66z"/>
					</g>
				</g>
				<g>
					<circle class="st6" cx="200.1" cy="167" r="9.81"/>
					<g class="st7">
						<path class="st5" d="M194.7,163.08c0-1.85,0.54-3.56,1.43-5.04c-3.44,1.52-5.85,4.96-5.85,8.96c0,5.42,4.39,9.81,9.81,9.81
							c3.57,0,6.66-1.92,8.38-4.77c-1.21,0.54-2.55,0.85-3.96,0.85C199.1,172.89,194.7,168.5,194.7,163.08z"/>
					</g>
				</g>
				<g>
					<circle class="st6" cx="88.85" cy="220.16" r="9.81"/>
					<g class="st7">
						<path class="st5" d="M83.45,216.24c0-1.85,0.54-3.56,1.43-5.04c-3.44,1.52-5.85,4.96-5.85,8.96c0,5.42,4.39,9.81,9.81,9.81
							c3.57,0,6.66-1.93,8.38-4.77c-1.21,0.54-2.55,0.85-3.96,0.85C87.84,226.05,83.45,221.66,83.45,216.24z"/>
					</g>
				</g>
				<g>
					<circle class="st6" cx="80.47" cy="93.78" r="9.81"/>
					<g class="st7">
						<path class="st5" d="M75.07,89.85c0-1.85,0.54-3.56,1.43-5.04c-3.44,1.52-5.85,4.96-5.85,8.96c0,5.42,4.39,9.81,9.81,9.81
							c3.57,0,6.66-1.92,8.38-4.77c-1.21,0.54-2.55,0.85-3.96,0.85C79.46,99.66,75.07,95.27,75.07,89.85z"/>
					</g>
				</g>
				<g>
					<circle class="st6" cx="80.47" cy="182.24" r="9.81"/>
					<g class="st7">
						<path class="st5" d="M75.07,178.32c0-1.85,0.54-3.56,1.43-5.04c-3.44,1.52-5.85,4.96-5.85,8.96c0,5.42,4.39,9.81,9.81,9.81
							c3.57,0,6.66-1.93,8.38-4.77c-1.21,0.54-2.55,0.85-3.96,0.85C79.46,188.13,75.07,183.74,75.07,178.32z"/>
					</g>
				</g>
				<g>
					<circle class="st6" cx="137.47" cy="220.16" r="9.81"/>
					<g class="st7">
						<path class="st5" d="M132.07,216.24c0-1.85,0.54-3.56,1.43-5.04c-3.44,1.52-5.85,4.96-5.85,8.96c0,5.42,4.39,9.81,9.81,9.81
							c3.57,0,6.66-1.93,8.38-4.77c-1.21,0.54-2.55,0.85-3.96,0.85C136.46,226.05,132.07,221.66,132.07,216.24z"/>
					</g>
				</g>
				<g>
					<circle class="st6" cx="176.87" cy="200.54" r="9.81"/>
					<g class="st7">
						<path class="st5" d="M171.47,196.62c0-1.85,0.54-3.56,1.43-5.04c-3.44,1.52-5.85,4.96-5.85,8.96c0,5.42,4.39,9.81,9.81,9.81
							c3.57,0,6.66-1.93,8.38-4.77c-1.21,0.54-2.55,0.85-3.96,0.85C175.87,206.43,171.47,202.04,171.47,196.62z"/>
					</g>
				</g>
			</g>
		</g>
	</g>
</g>
</svg>
