<?xml version="1.0" encoding="utf-8"?>
<!-- Generator: Adobe Illustrator 24.1.2, SVG Export Plug-In . SVG Version: 6.00 Build 0)  -->
<svg version="1.1" id="Calque_1" xmlns="http://www.w3.org/2000/svg" xmlns:xlink="http://www.w3.org/1999/xlink" x="0px" y="0px"
	 viewBox="0 0 300 300" style="enable-background:new 0 0 300 300;" xml:space="preserve">
<style type="text/css">
	.st0{fill:#C3D9AC;}
	.st1{fill:#AC7117;}
	.st2{fill:#D89828;}
	.st3{opacity:0.13;}
	.st4{fill:#262423;}
	.st5{fill:#EBC0D1;}
	.st6{fill:#FEFDFC;}
</style>
<g>
	<path class="st0" d="M103.39,300.24h93.74c20.24,0,36.7-16.47,36.7-36.7v-8.35c0-39.23-23.25-53.53-39.41-54.46
		c17.17-3.06,30.27-18.06,30.27-36.1v-5.88c0-29.35-15.68-44.13-24.09-49.51c17.25-2.99,30.42-18.03,30.42-36.12V50.01
		c-1.81-30.5-24.24-36.97-41.25-36.97H98.84c-12.66,0-22.97,10.3-22.97,22.97v19.54c-0.11,1-0.17,2.01-0.17,3.03v213.98
		C75.7,287.82,88.13,300.24,103.39,300.24z"/>
	<g>
		<path class="st1" d="M90.51,289.06h93.74c20.24,0,36.7-16.47,36.7-36.7v-19.23c0-20.24-16.46-41.74-36.7-41.74h-33.2
			c-2.6,0-4.72-2.12-4.72-4.72v8.2c0-2.6,2.12-4.72,4.72-4.72h24.05c20.24,0,36.7-16.47,36.7-36.7v-21.26
			c0-20.24-16.46-36.7-36.7-36.7h-24.05c-2.6,0-4.72,13.26-4.72,10.66v-2.79c0-2.6,2.12-4.72,4.72-4.72h30.38
			c20.24,0,36.7-16.46,36.7-36.7V40.11c0-20.24-19.26-38.23-39.5-38.23L90.51,3.4c-15.27,0-27.69,28.72-27.69,43.99v213.98
			C62.82,276.64,75.24,289.06,90.51,289.06z"/>
		<path class="st2" d="M85.96,261.77h93.74c17.63,0,31.98-14.35,31.98-31.98v-8.35c0-17.63-14.34-31.98-31.98-31.98h-33.2
			c-5.21,0-9.44-4.24-9.44-9.44v-7.71c0-5.21,4.24-9.44,9.44-9.44h24.05c17.63,0,31.98-14.35,31.98-31.98V125
			c0-17.63-14.34-31.98-31.98-31.98h-24.05c-5.21,0-9.44-4.24-9.44-9.44v-2.79c0-5.21,4.24-9.44,9.44-9.44h30.38
			c17.63,0,31.98-14.35,31.98-31.98v-5.53c0-17.63-14.35-31.98-31.98-31.98H85.96C73.3,1.86,63,12.16,63,24.82V238.8
			C63,251.46,73.3,261.77,85.96,261.77z"/>
	</g>
	<g>
		<g class="st3">
			<path class="st4" d="M171.62,156.08c-1.54,0-3.05-0.75-3.96-2.14c-1.43-2.18-0.82-5.11,1.37-6.54l13.78-9.02
				c2.18-1.43,5.11-0.82,6.54,1.37c1.43,2.18,0.82,5.11-1.37,6.54l-13.78,9.02C173.41,155.83,172.51,156.08,171.62,156.08z"/>
		</g>
		<g class="st3">
			<path class="st4" d="M92.95,77.28c-0.82-1.31-0.98-2.98-0.29-4.49c1.09-2.37,3.9-3.41,6.26-2.31l14.95,6.89
				c2.37,1.09,3.41,3.89,2.31,6.26c-1.09,2.37-3.9,3.41-6.26,2.31l-14.95-6.89C94.11,78.66,93.42,78.03,92.95,77.28z"/>
		</g>
		<g class="st3">
			<path class="st4" d="M74.56,27.79c0.24-1.52,1.21-2.9,2.72-3.58c2.37-1.08,5.17-0.03,6.25,2.35l6.8,14.99
				c1.08,2.38,0.03,5.17-2.35,6.25c-2.37,1.08-5.17,0.03-6.25-2.35l-6.8-14.99C74.53,29.59,74.42,28.66,74.56,27.79z"/>
		</g>
		<g class="st3">
			<path class="st4" d="M154.89,209.41c-0.82-1.31-0.98-2.98-0.29-4.49c1.09-2.37,3.9-3.41,6.26-2.31l14.95,6.89
				c2.37,1.09,3.41,3.89,2.31,6.26c-1.09,2.37-3.9,3.41-6.26,2.31l-14.95-6.89C156.05,210.79,155.36,210.16,154.89,209.41z"/>
		</g>
		<g class="st3">
			<path class="st4" d="M121.47,198.88c1.14-1.04,2.76-1.51,4.36-1.1c2.53,0.64,4.05,3.21,3.41,5.74l-4.07,15.95
				c-0.64,2.53-3.21,4.06-5.74,3.41c-2.53-0.64-4.05-3.21-3.41-5.74l4.07-15.95C120.32,200.27,120.82,199.48,121.47,198.88z"/>
		</g>
		<g class="st3">
			<path class="st4" d="M196.15,51.04c0.79,1.32,0.91,3.01,0.18,4.49c-1.15,2.34-3.97,3.31-6.32,2.17l-14.79-7.24
				c-2.35-1.15-3.31-3.97-2.17-6.32c1.15-2.34,3.97-3.31,6.32-2.17l14.79,7.24C195.03,49.63,195.7,50.27,196.15,51.04z"/>
		</g>
		<g class="st3">
			<path class="st4" d="M89.13,236.6c-0.71-1.37-0.75-3.05,0.06-4.5c1.27-2.28,4.15-3.09,6.43-1.82l14.37,8.03
				c2.28,1.27,3.09,4.15,1.82,6.43c-1.27,2.28-4.15,3.09-6.43,1.82l-14.37-8.03C90.17,238.06,89.54,237.38,89.13,236.6z"/>
		</g>
		<g class="st3">
			<path class="st4" d="M174.59,234.63c-0.71-1.37-0.75-3.05,0.06-4.5c1.27-2.28,4.15-3.09,6.43-1.82l14.37,8.03
				c2.28,1.27,3.09,4.15,1.82,6.43c-1.27,2.28-4.15,3.09-6.43,1.82l-14.37-8.03C175.64,236.09,175,235.42,174.59,234.63z"/>
		</g>
		<g class="st3">
			<path class="st4" d="M128.68,66.69c-1.54,0-3.05-0.75-3.96-2.14c-1.43-2.18-0.82-5.11,1.37-6.54L139.87,49
				c2.18-1.43,5.11-0.82,6.54,1.37c1.43,2.18,0.82,5.11-1.37,6.54l-13.78,9.02C130.46,66.44,129.57,66.69,128.68,66.69z"/>
		</g>
		<g class="st3">
			<path class="st4" d="M109.01,35.21c-0.62-1.65-0.28-3.58,1.02-4.94l11.42-11.86c1.81-1.88,4.8-1.93,6.68-0.12
				c1.88,1.81,1.94,4.8,0.12,6.68l-11.42,11.86c-1.81,1.88-4.8,1.93-6.68,0.12C109.63,36.45,109.25,35.85,109.01,35.21z"/>
		</g>
		<g class="st3">
			<path class="st4" d="M115.02,149.67c-1.13-1.36-1.44-3.29-0.66-5l6.9-14.95c1.09-2.37,3.9-3.4,6.27-2.31
				c2.37,1.09,3.4,3.9,2.31,6.27l-6.9,14.95c-1.09,2.37-3.9,3.4-6.27,2.31C116.02,150.63,115.46,150.19,115.02,149.67z"/>
		</g>
		<g class="st3">
			<path class="st4" d="M91.45,162.38c-1.73,0.32-3.58-0.35-4.68-1.87l-9.68-13.31c-1.53-2.11-1.07-5.06,1.04-6.6
				c2.11-1.54,5.06-1.07,6.6,1.04l9.68,13.31c1.53,2.11,1.07,5.06-1.04,6.6C92.77,161.99,92.12,162.26,91.45,162.38z"/>
		</g>
		<g class="st3">
			<path class="st4" d="M95.25,125.99c-1.76,0-3.45-0.99-4.26-2.69l-7.1-14.85c-1.12-2.35-0.13-5.17,2.23-6.3
				c2.35-1.13,5.17-0.13,6.3,2.23l7.1,14.85c1.12,2.35,0.13,5.17-2.23,6.3C96.62,125.84,95.93,125.99,95.25,125.99z"/>
		</g>
		<g>
			<path class="st5" d="M170.57,152.15c-1.54,0-3.05-0.75-3.96-2.14c-1.43-2.18-0.82-5.11,1.37-6.54l13.78-9.02
				c2.18-1.43,5.11-0.82,6.54,1.37c1.43,2.18,0.82,5.11-1.37,6.54l-13.78,9.02C172.35,151.9,171.46,152.15,170.57,152.15z"/>
		</g>
		<g>
			<path class="st5" d="M91.9,73.34c-0.82-1.31-0.98-2.98-0.29-4.49c1.09-2.37,3.9-3.41,6.26-2.31l14.95,6.89
				c2.37,1.09,3.41,3.89,2.31,6.26c-1.09,2.37-3.9,3.41-6.26,2.31l-14.95-6.89C93.05,74.72,92.37,74.1,91.9,73.34z"/>
		</g>
		<g>
			<path class="st6" d="M73.51,23.85c0.24-1.52,1.21-2.9,2.72-3.58c2.37-1.08,5.17-0.03,6.25,2.35l6.8,14.99
				c1.08,2.38,0.03,5.17-2.35,6.25c-2.37,1.08-5.17,0.03-6.25-2.35l-6.8-14.99C73.48,25.65,73.37,24.73,73.51,23.85z"/>
		</g>
		<g>
			<path class="st6" d="M153.84,205.47c-0.82-1.31-0.98-2.98-0.29-4.49c1.09-2.37,3.9-3.41,6.26-2.31l14.95,6.89
				c2.37,1.09,3.41,3.89,2.31,6.26c-1.09,2.37-3.9,3.41-6.26,2.31l-14.95-6.89C155,206.85,154.31,206.22,153.84,205.47z"/>
		</g>
		<g class="st3">
			<path class="st4" d="M159.97,17.58c1.14-1.04,2.76-1.51,4.36-1.1c2.53,0.64,4.05,3.21,3.41,5.74l-4.07,15.95
				c-0.64,2.53-3.21,4.06-5.74,3.41c-2.53-0.64-4.05-3.21-3.41-5.74l4.07-15.95C158.82,18.97,159.32,18.18,159.97,17.58z"/>
		</g>
		<g>
			<path class="st5" d="M158.92,13.64c1.14-1.04,2.76-1.51,4.36-1.1c2.53,0.64,4.05,3.21,3.41,5.74l-4.07,15.95
				c-0.64,2.53-3.21,4.06-5.74,3.41c-2.53-0.64-4.05-3.21-3.41-5.74l4.07-15.95C157.77,15.03,158.26,14.24,158.92,13.64z"/>
		</g>
		<g>
			<path class="st6" d="M120.42,194.95c1.14-1.04,2.76-1.51,4.36-1.1c2.53,0.64,4.05,3.21,3.41,5.74l-4.07,15.95
				c-0.64,2.53-3.21,4.06-5.74,3.41c-2.53-0.64-4.05-3.21-3.41-5.74l4.07-15.95C119.27,196.34,119.76,195.55,120.42,194.95z"/>
		</g>
		<g>
			<path class="st6" d="M195.1,47.1c0.79,1.32,0.91,3.01,0.18,4.49c-1.15,2.34-3.97,3.31-6.32,2.17l-14.79-7.24
				c-2.35-1.15-3.31-3.97-2.17-6.32c1.15-2.34,3.97-3.31,6.32-2.17l14.79,7.24C193.98,45.69,194.65,46.34,195.1,47.1z"/>
		</g>
		<g>
			<path class="st6" d="M88.07,232.66c-0.71-1.37-0.75-3.05,0.06-4.5c1.27-2.28,4.15-3.09,6.43-1.82l14.37,8.03
				c2.28,1.27,3.09,4.15,1.82,6.43c-1.27,2.28-4.15,3.09-6.43,1.82l-14.37-8.03C89.12,234.13,88.48,233.45,88.07,232.66z"/>
		</g>
		<g>
			<path class="st5" d="M173.54,230.69c-0.71-1.37-0.75-3.05,0.06-4.5c1.27-2.28,4.15-3.09,6.43-1.82l14.37,8.03
				c2.28,1.27,3.09,4.15,1.82,6.43c-1.27,2.28-4.15,3.09-6.43,1.82l-14.37-8.03C174.59,232.16,173.95,231.48,173.54,230.69z"/>
		</g>
		<g>
			<path class="st6" d="M127.63,62.75c-1.54,0-3.05-0.75-3.96-2.14c-1.43-2.18-0.82-5.11,1.37-6.54l13.78-9.02
				c2.18-1.43,5.11-0.82,6.54,1.37c1.43,2.18,0.82,5.11-1.37,6.54l-13.78,9.02C129.41,62.5,128.52,62.75,127.63,62.75z"/>
		</g>
		<g class="st3">
			<path class="st4" d="M140.82,251.59c-1.54,0-3.05-0.75-3.96-2.14c-1.43-2.18-0.82-5.11,1.37-6.54L152,233.9
				c2.18-1.43,5.11-0.82,6.54,1.37c1.43,2.18,0.82,5.11-1.37,6.54l-13.78,9.02C142.6,251.34,141.71,251.59,140.82,251.59z"/>
		</g>
		<g>
			<path class="st5" d="M139.77,247.65c-1.54,0-3.05-0.75-3.96-2.14c-1.43-2.18-0.82-5.11,1.37-6.54l13.78-9.02
				c2.18-1.43,5.11-0.82,6.54,1.37c1.43,2.18,0.82,5.11-1.37,6.54l-13.78,9.02C141.55,247.4,140.65,247.65,139.77,247.65z"/>
		</g>
		<g>
			<path class="st5" d="M107.96,31.28c-0.62-1.65-0.28-3.58,1.02-4.94l11.42-11.86c1.81-1.88,4.8-1.93,6.68-0.12
				c1.88,1.81,1.94,4.8,0.12,6.68l-11.42,11.86c-1.81,1.88-4.8,1.93-6.68,0.12C108.58,32.51,108.2,31.91,107.96,31.28z"/>
		</g>
		<g>
			<path class="st6" d="M113.97,145.73c-1.13-1.36-1.44-3.29-0.66-5l6.9-14.95c1.09-2.37,3.9-3.4,6.27-2.31
				c2.37,1.09,3.4,3.9,2.31,6.27l-6.9,14.95c-1.09,2.37-3.9,3.4-6.27,2.31C114.96,146.7,114.41,146.26,113.97,145.73z"/>
		</g>
		<g class="st3">
			<path class="st4" d="M154.58,127.7c-1.13-1.36-1.44-3.29-0.66-5l6.9-14.95c1.09-2.37,3.9-3.4,6.27-2.31
				c2.37,1.09,3.4,3.9,2.31,6.27l-6.9,14.95c-1.09,2.37-3.9,3.4-6.27,2.31C155.57,128.66,155.01,128.22,154.58,127.7z"/>
		</g>
		<g>
			<path class="st6" d="M153.52,123.76c-1.13-1.36-1.44-3.29-0.66-5l6.9-14.95c1.09-2.37,3.9-3.4,6.27-2.31
				c2.37,1.09,3.4,3.9,2.31,6.27l-6.9,14.95c-1.09,2.37-3.9,3.4-6.27,2.31C154.52,124.73,153.96,124.29,153.52,123.76z"/>
		</g>
		<g>
			<path class="st5" d="M90.39,158.45c-1.73,0.32-3.58-0.35-4.68-1.87l-9.68-13.31c-1.53-2.11-1.07-5.06,1.04-6.6
				c2.11-1.54,5.06-1.07,6.6,1.04l9.68,13.31c1.53,2.11,1.07,5.06-1.04,6.6C91.72,158.05,91.06,158.32,90.39,158.45z"/>
		</g>
		<g class="st3">
			<path class="st4" d="M91.52,208.29c-1.73,0.32-3.58-0.35-4.68-1.87l-9.68-13.31c-1.53-2.11-1.07-5.06,1.04-6.6
				c2.11-1.54,5.06-1.07,6.6,1.04l9.68,13.31c1.53,2.11,1.07,5.06-1.04,6.6C92.85,207.89,92.19,208.17,91.52,208.29z"/>
		</g>
		<g>
			<path class="st5" d="M90.47,204.36c-1.73,0.32-3.58-0.35-4.68-1.87l-9.68-13.31c-1.53-2.11-1.07-5.06,1.04-6.6
				c2.11-1.54,5.06-1.07,6.6,1.04l9.68,13.31c1.53,2.11,1.07,5.06-1.04,6.6C91.79,203.96,91.14,204.23,90.47,204.36z"/>
		</g>
		<g>
			<path class="st6" d="M94.2,122.05c-1.76,0-3.45-0.99-4.26-2.69l-7.1-14.85c-1.12-2.35-0.13-5.17,2.23-6.3
				c2.35-1.13,5.17-0.13,6.3,2.23l7.1,14.85c1.12,2.35,0.13,5.17-2.23,6.3C95.57,121.9,94.88,122.05,94.2,122.05z"/>
		</g>
	</g>
</g>
</svg>
