<?xml version="1.0" encoding="utf-8"?>
<!-- Generator: Adobe Illustrator 24.1.2, SVG Export Plug-In . SVG Version: 6.00 Build 0)  -->
<svg version="1.1" id="Calque_1" xmlns="http://www.w3.org/2000/svg" xmlns:xlink="http://www.w3.org/1999/xlink" x="0px" y="0px"
	 viewBox="0 0 300 300" style="enable-background:new 0 0 300 300;" xml:space="preserve">
<style type="text/css">
	.st0{fill:#C3D9AC;}
	.st1{fill:#AC7117;}
	.st2{fill:#D89828;}
	.st3{fill:#FEFDFC;}
	.st4{opacity:0.13;}
	.st5{fill:#262423;}
	.st6{fill:none;stroke:#8E6119;stroke-width:12.5353;stroke-linecap:round;stroke-linejoin:round;stroke-miterlimit:10;}
</style>
<g>
	<path class="st0" d="M106.7,299.37h30.31c14.66,0,26.58-11.92,26.58-26.58v-48.88c0-2.05,1.67-3.72,3.72-3.72h26.04
		c17.78,0,32.25-14.47,32.25-32.25v-14.41c1.58-36.76-21.62-50.02-36.78-50.02h-25.23v-9.96c0-2.05,1.67-3.72,3.72-3.72h35.15
		c17.78,0,32.25-14.47,32.25-32.25V63.53c0-33.6-21.62-50.02-36.78-50.02h-95.75c-12.06,0-21.88,9.81-21.88,21.88v19.51
		c-0.11,0.97-0.17,1.95-0.17,2.95v214.93C80.12,287.45,92.04,299.37,106.7,299.37z"/>
	<g>
		<path class="st1" d="M93.88,288.24h30.31c14.66,0,26.58-11.92,26.58-26.58v-48.88c0-2.05,1.67-3.72,3.72-3.72h26.04
			c17.78,0,32.25-14.47,32.25-32.25v-31.68c0-17.79-14.47-32.25-32.25-32.25h-26.04c-2.05,0-3.72-1.67-3.72-3.72v-6.74
			c0-2.05,1.67-3.72,3.72-3.72h35.15c17.78,0,32.25-14.47,32.25-32.25V34.64c0-17.79-14.47-32.25-32.25-32.25H93.88
			c-14.66,0-26.58,29.69-26.58,44.34v214.93C67.3,276.32,79.22,288.24,93.88,288.24z"/>
		<path class="st2" d="M89.35,261.08h30.31c12.06,0,21.88-9.81,21.88-21.88v-48.88c0-4.64,3.78-8.42,8.42-8.42H176
			c15.19,0,27.55-12.36,27.55-27.55v-14.41c0-15.19-12.36-27.55-27.55-27.55h-26.04c-4.64,0-8.42-3.77-8.42-8.42V79.97
			c0-4.64,3.78-8.42,8.42-8.42h35.15c15.19,0,27.55-12.36,27.55-27.55V29.94c0-15.19-12.36-27.55-27.55-27.55H89.35
			c-12.06,0-21.88,9.81-21.88,21.88V239.2C67.47,251.26,77.29,261.08,89.35,261.08z"/>
	</g>
	<g>
		<path class="st3" d="M177.61,55.76c10.38,0,18.8-8.42,18.8-18.8s-8.42-18.8-18.8-18.8h-72.08c-10.38,0-18.8,8.42-18.8,18.8v196.09
			c0,10.38,8.42,18.8,18.8,18.8c10.38,0,18.8-8.42,18.8-18.8v-67.77h46.22c10.38,0,18.8-8.42,18.8-18.8c0-10.38-8.42-18.8-18.8-18.8
			h-46.22V55.76H177.61z"/>
		<g>
			<g>
				<g class="st4">
					<path class="st5" d="M91.03,252.14c-3.2-14.34,5.06-26.98,21.27-32.93c3.66-1.35,5.99-3.39,6.92-6.07
						c1.13-3.28,0.17-7.13-1.28-9.48c-2.14-3.47-5.5-3.96-11.25-4.54c-6.57-0.66-15.58-1.57-19.6-11.71
						c-2.58-6.51-2-13.87,1.59-20.21c3.96-6.99,10.89-11.61,19.52-13.01c4.04-0.66,6.92-2.51,8.56-5.5
						c2.12-3.86,1.99-9.42-0.35-14.87c-1.17-2.72-4.04-4.07-8.63-6.04c-5.8-2.5-13.75-5.91-16.64-15.58
						c-5.49-18.4,10.71-27.74,18.49-32.24c3.13-1.81,4.94-4.38,5.37-7.64c0.66-5.03-1.93-11.02-6.92-16.02
						c-13.13-13.13-7.89-25.37-6.59-27.89c0.98-2.08,8.34-16.61,22.65-16.61c3.46,0,6.27,2.81,6.27,6.27s-2.81,6.27-6.27,6.27
						c-6.82,0-11.26,9.3-11.3,9.39c-0.1,0.23-0.22,0.46-0.36,0.68c-0.23,0.45-2.74,5.83,4.46,13.02
						c7.74,7.74,11.66,17.65,10.49,26.51c-0.94,7.12-5.03,13.11-11.53,16.86c-12.94,7.47-14.47,12.02-12.74,17.8
						c1.15,3.86,4.23,5.35,9.58,7.65c5.34,2.3,11.99,5.16,15.19,12.61c3.9,9.1,3.84,18.52-0.18,25.84
						c-3.49,6.36-9.72,10.56-17.53,11.84c-4.8,0.78-8.58,3.21-10.63,6.82c-1.68,2.97-2,6.48-0.84,9.4c1.03,2.6,2.41,3.17,9.2,3.86
						c6.4,0.64,15.17,1.52,20.66,10.43c2.92,4.74,5.1,12.52,2.46,20.17c-1.52,4.41-5.27,10.37-14.45,13.73
						c-10.36,3.8-15.09,10.38-13.34,18.52c0.5,2.32,1.05,7.59-3.67,8.51C95.74,258.77,92.06,256.77,91.03,252.14z"/>
				</g>
				<path class="st6" d="M93.24,248.95c-2.24-10.38,2.95-20.46,17.31-25.73c14.15-5.19,12.83-18.23,8.82-24.73
					c-7.83-12.7-25.18-2.23-30.36-15.27c-3.82-9.62,2.09-22.41,16.29-24.72c14.2-2.31,18.56-15.96,12.96-29.02
					c-4.7-10.96-21.15-7.98-25.02-20.94c-3.34-11.21,3.5-18.02,15.62-25.02c12.12-6.99,10.88-22.37-0.26-33.51
					c-11.14-11.14-5.4-20.69-5.4-20.69s5.84-13.11,17.03-13.11"/>
			</g>
			<g>
				<g class="st4">
					<path class="st5" d="M188.49,162.78c-3.46,0-6.27-2.81-6.27-6.27c0-6.82-9.33-11.27-9.42-11.32c-0.21-0.1-0.45-0.22-0.65-0.34
						c-0.45-0.23-5.83-2.74-13.02,4.46c-7.73,7.73-17.63,11.66-26.52,10.49c-7.12-0.94-13.11-5.03-16.86-11.53
						c-1.73-3-0.7-6.83,2.3-8.56c3.01-1.73,6.83-0.7,8.56,2.3c1.81,3.13,4.38,4.94,7.64,5.37c5.03,0.66,11.02-1.93,16.02-6.92
						c13.13-13.13,25.36-7.89,27.89-6.59c2.09,0.99,16.61,8.34,16.61,22.65C194.76,159.98,191.95,162.78,188.49,162.78z"/>
				</g>
				<path class="st6" d="M121.17,139.72c6.99,12.12,22.37,10.88,33.51-0.26c11.14-11.14,20.69-5.4,20.69-5.4s13.11,5.84,13.11,17.03
					"/>
			</g>
			<g>
				<g class="st4">
					<path class="st5" d="M188.49,49.2c-3.46,0-6.27-2.81-6.27-6.27c0-6.82-9.33-11.27-9.42-11.32c-0.21-0.1-0.45-0.22-0.65-0.34
						c-0.45-0.23-5.83-2.74-13.02,4.46c-7.73,7.73-17.63,11.66-26.52,10.49c-7.12-0.94-13.11-5.03-16.86-11.53
						c-1.73-3-0.7-6.83,2.3-8.56c3.01-1.73,6.83-0.7,8.56,2.3c1.81,3.13,4.38,4.94,7.64,5.37c5.03,0.66,11.02-1.93,16.02-6.92
						c13.13-13.13,25.36-7.89,27.89-6.59c2.09,0.99,16.61,8.34,16.61,22.65C194.76,46.4,191.95,49.2,188.49,49.2z"/>
				</g>
				<path class="st6" d="M121.17,26.14c6.99,12.12,22.37,10.88,33.51-0.26c11.14-11.14,20.69-5.4,20.69-5.4s13.11,5.84,13.11,17.03"
					/>
			</g>
		</g>
	</g>
</g>
</svg>
