<?xml version="1.0" encoding="utf-8"?>
<!-- Generator: Adobe Illustrator 24.1.2, SVG Export Plug-In . SVG Version: 6.00 Build 0)  -->
<svg version="1.1" id="Calque_1" xmlns="http://www.w3.org/2000/svg" xmlns:xlink="http://www.w3.org/1999/xlink" x="0px" y="0px"
	 viewBox="0 0 300 300" style="enable-background:new 0 0 300 300;" xml:space="preserve">
<style type="text/css">
	.st0{fill:#C2D9AB;}
	.st1{fill:#AB7017;}
	.st2{fill:#D79728;}
	.st3{opacity:0.13;}
	.st4{fill:#252422;}
	.st5{fill:#FCFBFA;}
</style>
<g>
	<path class="st0" d="M257.8,203.5c-0.6-8.9,0.2-31.1-9.9-50.8c-3.7-7.1-7.4-12.5-12.5-16c6.7-1.5,12.6-5.6,16.4-11.5
		c4.8-7.4,7-23.7-2.4-46.2c-15.1-36.2-49.6-57.2-89.8-57.2c-64.9,0-110.2,52.6-110.2,128c0,16.2,2,31.3,5.9,45.1
		c8.2,62.8,49.8,103.5,108.6,103.5c27.8,0,53.8-10.8,71.4-29.6C251.5,251.3,259.5,228.2,257.8,203.5z M189.8,128.4
		c-7.4-0.1-15.8,0.1-22.7,5.3c-7.8,5.9-10.1,15.2-11.7,24.2c-0.8,4.4-1.7,9.4-0.7,14.7c0.6,3.3,2.4,6.6,4.7,9.2
		c-0.7,3.8-1.2,8-0.3,12.4c1.1,6,5.7,11.7,11.1,13.9c1.7,0.7,3.5,1.2,5.3,1.7c-0.2,0-0.4,0.1-0.5,0.2c-11.8,2.7-22.3,0.6-31.2-6.5
		c-8.4-6.7-14.2-16.7-17.9-27.3c-0.1-1.8-0.2-3.5-0.2-5.2c0-17.9,3.7-59.5,38.3-59.5c12.5,0,20.8,4.2,26,13.3
		c0.8,1.3,1.7,2.5,2.7,3.7C191.7,128.5,190.7,128.4,189.8,128.4z"/>
	<g>
		<path class="st1" d="M151.7,283.1c29,0,56.3-11.3,74.7-31c17.1-18.3,22.4-39.1,22.1-67.7c-0.1-10-0.1-35.8-4.2-45.8
			c-11-26.6-37.2-26.8-56.3-27c-2,0-3.9,0-5.9-0.1c-8.1-0.2-17.5,0.2-25.5,6.2c-9.1,6.8-12.1,16.9-13.8,26.4
			c-0.8,4.5-1.5,25.1-0.4,31.2c1.4,7.5,7,14.5,13.8,17.3c3.3,1.4,6.8,2.2,10.2,3c2.2,0.5,6.4,1.5,8.1,2.4c-0.1,0.6-0.3,1.6-0.8,2.9
			c-1.2,3.2-4.1,5.7-7.7,6.6c-10.4,2.4-19.6,0.5-27.3-5.6c-14.3-11.4-20.7-33.6-20.7-50.6c0-16.5,3.3-55,33.8-55
			c10.9,0,17.7,3.4,22.1,11c5.3,9.2,15.5,14.9,26.5,14.9h16.8c10.6,0,20.4-5.3,26.2-14.3c5.7-8.7,5.1-15.7-5-45.4
			c-13.2-38.9-44.6-43.4-86.7-43.4c-66.7,0-113.2,28.3-114.4,104.7c0,1-0.3,26.8-0.3,27.8C37,230.3,83.1,283.1,151.7,283.1z"/>
		<path class="st2" d="M147.4,257c27.8,0,53.8-10.8,71.4-29.6c16.2-17.4,24.2-40.6,22.5-65.2c-0.7-9.6-1.6-19.8-5.5-29.2
			c-9.9-23.8-33.3-24-52.2-24.2c-2,0-3.9,0-5.9-0.1c-7.4-0.1-15.8,0.1-22.7,5.3c-7.8,5.9-10.1,15.2-11.7,24.2
			c-0.8,4.4-1.7,9.4-0.7,14.7c1.1,6,5.7,11.7,11.1,13.9c3,1.2,6.3,2,9.5,2.8c4.5,1.1,10.2,2.4,11.3,4.6c0.6,1.2,0.4,3.6-0.8,6.7
			c-1.7,4.6-5.9,8.2-10.9,9.4c-11.8,2.7-22.3,0.6-31.2-6.5C116,171.5,109,147.7,109,129.7c0-17.9,3.7-59.5,38.3-59.5
			c12.5,0,20.8,4.2,26,13.3c4.5,7.8,13.2,12.6,22.6,12.6h16.8c9.1,0,17.5-4.6,22.4-12.2c4.8-7.4,5.6-16.7,2-24.7
			C221.2,23.4,187.6,2,147.4,2C82.5,2,37.2,54.6,37.2,130C37.2,206,81.5,257,147.4,257z"/>
	</g>
	<g>
		<g class="st3">
			<path class="st4" d="M81.4,58.4c-1.5,0-2.9-0.7-3.8-2c-1.4-2.1-0.8-4.9,1.3-6.3l13.2-8.6c2.1-1.4,4.9-0.8,6.3,1.3
				c1.4,2.1,0.8,4.9-1.3,6.3l-13.2,8.6C83.1,58.1,82.2,58.4,81.4,58.4z"/>
		</g>
		<g class="st3">
			<path class="st4" d="M86,83.5c-0.8-1.2-0.9-2.9-0.3-4.3c1-2.3,3.7-3.3,6-2.2l14.3,6.6c2.3,1,3.3,3.7,2.2,6c-1,2.3-3.7,3.3-6,2.2
				L88,85.2C87.1,84.8,86.5,84.2,86,83.5z"/>
		</g>
		<g class="st3">
			<path class="st4" d="M123,34.3c0.2-1.5,1.2-2.8,2.6-3.4c2.3-1,4.9,0,6,2.2l6.5,14.3c1,2.3,0,4.9-2.2,6c-2.3,1-4.9,0-6-2.2
				l-6.5-14.3C123,36,122.9,35.1,123,34.3z"/>
		</g>
		<g class="st3">
			<path class="st4" d="M55.3,186.2c-0.8-1.2-0.9-2.9-0.3-4.3c1-2.3,3.7-3.3,6-2.2l14.3,6.6c2.3,1,3.3,3.7,2.2,6
				c-1,2.3-3.7,3.3-6,2.2l-14.3-6.6C56.4,187.5,55.7,186.9,55.3,186.2z"/>
		</g>
		<g class="st3">
			<path class="st4" d="M102.4,218.6c1.1-1,2.6-1.4,4.2-1c2.4,0.6,3.9,3.1,3.3,5.5l-3.9,15.3c-0.6,2.4-3.1,3.9-5.5,3.3
				c-2.4-0.6-3.9-3.1-3.3-5.5l3.9-15.3C101.3,220,101.8,219.2,102.4,218.6z"/>
		</g>
		<g class="st3">
			<path class="st4" d="M170,214.4c1.1-1,2.6-1.4,4.2-1c2.4,0.6,3.9,3.1,3.3,5.5l-3.9,15.3c-0.6,2.4-3.1,3.9-5.5,3.3
				c-2.4-0.6-3.9-3.1-3.3-5.5l3.9-15.3C168.9,215.7,169.4,215,170,214.4z"/>
		</g>
		<g class="st3">
			<path class="st4" d="M203,169.9c1.5-0.1,3,0.5,3.9,1.7c1.5,2,1.2,4.8-0.8,6.3l-12.5,9.6c-2,1.5-4.8,1.2-6.3-0.8
				c-1.5-2-1.2-4.8,0.8-6.3l12.5-9.6C201.3,170.3,202.2,170,203,169.9z"/>
		</g>
		<g class="st3">
			<path class="st4" d="M213.5,59.9c0.3-1.4,1.3-2.7,2.7-3.3c2.3-0.9,4.9,0.2,5.9,2.5l5.9,14.6c0.9,2.3-0.2,4.9-2.5,5.9
				c-2.3,0.9-4.9-0.2-5.9-2.5l-5.9-14.6C213.5,61.7,213.4,60.8,213.5,59.9z"/>
		</g>
		<g class="st3">
			<path class="st4" d="M127.6,242c-0.7-1.3-0.7-2.9,0.1-4.3c1.2-2.2,4-3,6.1-1.7l13.7,7.7c2.2,1.2,3,4,1.7,6.1
				c-1.2,2.2-4,3-6.1,1.7l-13.7-7.7C128.6,243.4,128,242.7,127.6,242z"/>
		</g>
		<g class="st3">
			<path class="st4" d="M198.2,211.4c-0.7-1.3-0.7-2.9,0.1-4.3c1.2-2.2,4-3,6.1-1.7l13.7,7.7c2.2,1.2,3,4,1.7,6.1
				c-1.2,2.2-4,3-6.1,1.7l-13.7-7.7C199.2,212.8,198.6,212.2,198.2,211.4z"/>
		</g>
		<g class="st3">
			<path class="st4" d="M182.5,75.1c-1.5,0-2.9-0.7-3.8-2c-1.4-2.1-0.8-4.9,1.3-6.3l13.2-8.6c2.1-1.4,4.9-0.8,6.3,1.3
				c1.4,2.1,0.8,4.9-1.3,6.3L185,74.3C184.2,74.8,183.3,75.1,182.5,75.1z"/>
		</g>
		<g class="st3">
			<path class="st4" d="M161.4,42.6c-0.6-1.6-0.3-3.4,1-4.7l10.9-11.3c1.7-1.8,4.6-1.9,6.4-0.1c1.8,1.7,1.9,4.6,0.1,6.4l-10.9,11.3
				c-1.7,1.8-4.6,1.9-6.4,0.1C162,43.8,161.7,43.2,161.4,42.6z"/>
		</g>
		<g class="st3">
			<path class="st4" d="M73.1,147.8c-1.1-1.3-1.4-3.1-0.6-4.8l6.6-14.3c1-2.3,3.7-3.3,6-2.2c2.3,1,3.3,3.7,2.2,6l-6.6,14.3
				c-1,2.3-3.7,3.3-6,2.2C74.1,148.7,73.5,148.3,73.1,147.8z"/>
		</g>
		<g class="st3">
			<path class="st4" d="M109.2,198.2c-1.7,0.3-3.4-0.3-4.5-1.8l-9.3-12.7c-1.5-2-1-4.8,1-6.3c2-1.5,4.8-1,6.3,1l9.3,12.7
				c1.5,2,1,4.8-1,6.3C110.5,197.8,109.8,198.1,109.2,198.2z"/>
		</g>
		<g class="st3">
			<path class="st4" d="M62.3,115.7c-1.7,0-3.3-0.9-4.1-2.6l-6.8-14.2c-1.1-2.3-0.1-4.9,2.1-6c2.3-1.1,4.9-0.1,6,2.1l6.8,14.2
				c1.1,2.3,0.1,4.9-2.1,6C63.6,115.6,62.9,115.7,62.3,115.7z"/>
		</g>
		<g>
			<path class="st5" d="M80.4,54.6c-1.5,0-2.9-0.7-3.8-2c-1.4-2.1-0.8-4.9,1.3-6.3l13.2-8.6c2.1-1.4,4.9-0.8,6.3,1.3
				c1.4,2.1,0.8,4.9-1.3,6.3l-13.2,8.6C82.1,54.4,81.2,54.6,80.4,54.6z"/>
		</g>
		<g>
			<path class="st5" d="M85,79.7c-0.8-1.2-0.9-2.9-0.3-4.3c1-2.3,3.7-3.3,6-2.2l14.3,6.6c2.3,1,3.3,3.7,2.2,6c-1,2.3-3.7,3.3-6,2.2
				l-14.3-6.6C86.1,81.1,85.5,80.4,85,79.7z"/>
		</g>
		<g>
			<path class="st5" d="M122,30.5c0.2-1.5,1.2-2.8,2.6-3.4c2.3-1,4.9,0,6,2.2l6.5,14.3c1,2.3,0,4.9-2.2,6c-2.3,1-4.9,0-6-2.2
				l-6.5-14.3C122,32.2,121.9,31.4,122,30.5z"/>
		</g>
		<g>
			<path class="st5" d="M54.3,182.4c-0.8-1.2-0.9-2.9-0.3-4.3c1-2.3,3.7-3.3,6-2.2l14.3,6.6c2.3,1,3.3,3.7,2.2,6
				c-1,2.3-3.7,3.3-6,2.2l-14.3-6.6C55.4,183.7,54.7,183.1,54.3,182.4z"/>
		</g>
		<g>
			<path class="st5" d="M101.4,214.9c1.1-1,2.6-1.4,4.2-1c2.4,0.6,3.9,3.1,3.3,5.5l-3.9,15.3c-0.6,2.4-3.1,3.9-5.5,3.3
				c-2.4-0.6-3.9-3.1-3.3-5.5l3.9-15.3C100.3,216.2,100.8,215.5,101.4,214.9z"/>
		</g>
		<g>
			<path class="st5" d="M169,210.6c1.1-1,2.6-1.4,4.2-1c2.4,0.6,3.9,3.1,3.3,5.5l-3.9,15.3c-0.6,2.4-3.1,3.9-5.5,3.3
				c-2.4-0.6-3.9-3.1-3.3-5.5l3.9-15.3C167.9,211.9,168.4,211.2,169,210.6z"/>
		</g>
		<g>
			<path class="st5" d="M202,166.2c1.5-0.1,3,0.5,3.9,1.7c1.5,2,1.2,4.8-0.8,6.3l-12.5,9.6c-2,1.5-4.8,1.2-6.3-0.8
				c-1.5-2-1.2-4.8,0.8-6.3l12.5-9.6C200.3,166.5,201.2,166.2,202,166.2z"/>
		</g>
		<g>
			<path class="st5" d="M212.5,56.2c0.3-1.4,1.3-2.7,2.7-3.3c2.3-0.9,4.9,0.2,5.9,2.5l5.9,14.6c0.9,2.3-0.2,4.9-2.5,5.9
				c-2.3,0.9-4.9-0.2-5.9-2.5l-5.9-14.6C212.4,57.9,212.4,57,212.5,56.2z"/>
		</g>
		<g>
			<path class="st5" d="M126.6,238.2c-0.7-1.3-0.7-2.9,0.1-4.3c1.2-2.2,4-3,6.1-1.7l13.7,7.7c2.2,1.2,3,4,1.7,6.1
				c-1.2,2.2-4,3-6.1,1.7l-13.7-7.7C127.6,239.6,127,239,126.6,238.2z"/>
		</g>
		<g>
			<path class="st5" d="M197.2,207.7c-0.7-1.3-0.7-2.9,0.1-4.3c1.2-2.2,4-3,6.1-1.7l13.7,7.7c2.2,1.2,3,4,1.7,6.1
				c-1.2,2.2-4,3-6.1,1.7l-13.7-7.7C198.2,209.1,197.5,208.4,197.2,207.7z"/>
		</g>
		<g>
			<path class="st5" d="M181.5,71.3c-1.5,0-2.9-0.7-3.8-2c-1.4-2.1-0.8-4.9,1.3-6.3l13.2-8.6c2.1-1.4,4.9-0.8,6.3,1.3
				c1.4,2.1,0.8,4.9-1.3,6.3l-13.2,8.6C183.2,71.1,182.3,71.3,181.5,71.3z"/>
		</g>
		<g class="st3">
			<path class="st4" d="M162.2,141.4c0.3-1.4,1.3-2.7,2.7-3.3c2.3-0.9,4.9,0.2,5.9,2.5l5.9,14.6c0.9,2.3-0.2,4.9-2.5,5.9
				c-2.3,0.9-4.9-0.2-5.9-2.5l-5.9-14.6C162.1,143.2,162.1,142.3,162.2,141.4z"/>
		</g>
		<g class="st3">
			<path class="st4" d="M234.3,157c0.8,1.3,0.9,2.9,0.2,4.3c-1.1,2.2-3.8,3.2-6,2.1l-14.1-6.9c-2.2-1.1-3.2-3.8-2.1-6
				c1.1-2.2,3.8-3.2,6-2.1l14.1,6.9C233.3,155.6,233.9,156.3,234.3,157z"/>
		</g>
		<g class="st3">
			<path class="st4" d="M194.1,139.9c-1.5,0-2.9-0.7-3.8-2c-1.4-2.1-0.8-4.9,1.3-6.3l13.2-8.6c2.1-1.4,4.9-0.8,6.3,1.3
				c1.4,2.1,0.8,4.9-1.3,6.3l-13.2,8.6C195.8,139.6,194.9,139.9,194.1,139.9z"/>
		</g>
		<g>
			<path class="st5" d="M161.2,137.7c0.3-1.4,1.3-2.7,2.7-3.3c2.3-0.9,4.9,0.2,5.9,2.5l5.9,14.6c0.9,2.3-0.2,4.9-2.5,5.9
				c-2.3,0.9-4.9-0.2-5.9-2.5l-5.9-14.6C161.1,139.4,161.1,138.5,161.2,137.7z"/>
		</g>
		<g>
			<path class="st5" d="M233.3,153.2c0.8,1.3,0.9,2.9,0.2,4.3c-1.1,2.2-3.8,3.2-6,2.1l-14.1-6.9c-2.2-1.1-3.2-3.8-2.1-6
				c1.1-2.2,3.8-3.2,6-2.1l14.1,6.9C232.2,151.9,232.9,152.5,233.3,153.2z"/>
		</g>
		<g>
			<path class="st5" d="M193.1,136.1c-1.5,0-2.9-0.7-3.8-2c-1.4-2.1-0.8-4.9,1.3-6.3l13.2-8.6c2.1-1.4,4.9-0.8,6.3,1.3
				c1.4,2.1,0.8,4.9-1.3,6.3l-13.2,8.6C194.8,135.9,193.9,136.1,193.1,136.1z"/>
		</g>
		<g>
			<path class="st5" d="M160.4,38.9c-0.6-1.6-0.3-3.4,1-4.7l10.9-11.3c1.7-1.8,4.6-1.9,6.4-0.1c1.8,1.7,1.9,4.6,0.1,6.4l-10.9,11.3
				c-1.7,1.8-4.6,1.9-6.4,0.1C161,40,160.6,39.5,160.4,38.9z"/>
		</g>
		<g>
			<path class="st5" d="M72.1,144.1c-1.1-1.3-1.4-3.1-0.6-4.8l6.6-14.3c1-2.3,3.7-3.3,6-2.2c2.3,1,3.3,3.7,2.2,6l-6.6,14.3
				c-1,2.3-3.7,3.3-6,2.2C73.1,145,72.5,144.6,72.1,144.1z"/>
		</g>
		<g>
			<path class="st5" d="M108.2,194.4c-1.7,0.3-3.4-0.3-4.5-1.8l-9.3-12.7c-1.5-2-1-4.8,1-6.3c2-1.5,4.8-1,6.3,1l9.3,12.7
				c1.5,2,1,4.8-1,6.3C109.5,194,108.8,194.3,108.2,194.4z"/>
		</g>
		<g>
			<path class="st5" d="M61.2,111.9c-1.7,0-3.3-0.9-4.1-2.6l-6.8-14.2c-1.1-2.3-0.1-4.9,2.1-6c2.3-1.1,4.9-0.1,6,2.1l6.8,14.2
				c1.1,2.3,0.1,4.9-2.1,6C62.6,111.8,61.9,111.9,61.2,111.9z"/>
		</g>
	</g>
</g>
</svg>
