<?xml version="1.0" encoding="utf-8"?>
<!-- Generator: Adobe Illustrator 24.1.2, SVG Export Plug-In . SVG Version: 6.00 Build 0)  -->
<svg version="1.1" id="Calque_1" xmlns="http://www.w3.org/2000/svg" xmlns:xlink="http://www.w3.org/1999/xlink" x="0px" y="0px"
	 viewBox="0 0 300 300" style="enable-background:new 0 0 300 300;" xml:space="preserve">
<style type="text/css">
	.st0{fill:#C2D9AB;}
	.st1{fill:#AB7017;}
	.st2{fill:#D79728;}
	.st3{opacity:0.13;}
	.st4{fill:#252422;}
	.st5{fill:#8D6017;}
	.st6{fill:#FCFBFA;}
</style>
<g>
	<path class="st0" d="M206.4,297h17.7c18,0,32.6-14.6,32.6-32.6V63.1c0-40.8-21.7-50-36.8-50h-18.2c-15.3,0-27.7,12.4-27.7,27.7v19
		c-0.1,1.1-0.2,2.2-0.2,3.3v29.9c-0.8,4.6-4.8,8.2-9.7,8.2h-21.9c-0.2,0-0.5-0.1-0.7-0.1v-38c-1.1-32.5-21.7-50-36.8-50H86.5
		c-15.3,0-27.7,12.4-27.7,27.7v19c-0.1,1.1-0.2,2.2-0.2,3.3v201.3c0,18,14.6,32.6,32.6,32.6h17.7c18,0,32.6-14.6,32.6-32.6v-59.6
		c0-2.9,2.3-5.2,5.2-5.2h21.9c2.9,0,5.2,2.3,5.2,5.2v59.6C173.8,282.4,188.4,297,206.4,297z"/>
	<g>
		<path class="st1" d="M193.7,285.9h17.7c18,0,32.6-14.6,32.6-32.6V34.5c0-17.8-14.5-32.4-32.4-32.4h-18.2
			c-17.8,0-32.4,14.5-32.4,32.4v67.9c0,2.9-2.3,5.2-5.2,5.2H134c-2.9,0-5.2-2.3-5.2-5.2V34.5c0-17.8-14.5-32.4-32.4-32.4H78.2
			c-17.8,0-32.4,14.5-32.4,32.4v218.8c0,18,14.6,32.6,32.6,32.6h17.7c18,0,32.6-14.6,32.6-32.6v-59.6c0-2.9,2.3-5.2,5.2-5.2h21.9
			c2.9,0,5.2,2.3,5.2,5.2v59.6C161.1,271.3,175.7,285.9,193.7,285.9z"/>
		<path class="st2" d="M189.2,259h17.7c15.4,0,27.9-12.5,27.9-27.9V29.7c0-15.3-12.4-27.7-27.7-27.7h-18.2
			c-15.3,0-27.7,12.4-27.7,27.7v50.5c0,5.4-4.4,9.9-9.9,9.9h-21.9c-5.4,0-9.9-4.4-9.9-9.9V29.7C119.6,14.4,107.2,2,91.9,2H73.7
			C58.5,2,46,14.4,46,29.7V231C46,246.4,58.6,259,74,259h17.7c15.4,0,27.9-12.5,27.9-27.9v-59.6c0-5.4,4.4-9.9,9.9-9.9h21.9
			c5.4,0,9.9,4.4,9.9,9.9V231C161.2,246.4,173.8,259,189.2,259z"/>
	</g>
	<g>
		<g class="st3">
			<path class="st4" d="M202.6,103.2c-1.5,0-3-0.7-3.9-2.1c-1.4-2.2-0.8-5.1,1.3-6.5l13.6-8.9c2.2-1.4,5.1-0.8,6.5,1.3
				c1.4,2.2,0.8,5.1-1.3,6.5l-13.6,8.9C204.3,103,203.4,103.2,202.6,103.2z"/>
		</g>
		<g class="st3">
			<path class="st4" d="M76.8,77.6c-0.8-1.3-1-3-0.3-4.4c1.1-2.3,3.9-3.4,6.2-2.3l14.8,6.8c2.3,1.1,3.4,3.9,2.3,6.2
				c-1.1,2.3-3.9,3.4-6.2,2.3l-14.8-6.8C77.9,79,77.3,78.4,76.8,77.6z"/>
		</g>
		<g class="st3">
			<path class="st4" d="M58.6,28.7c0.2-1.5,1.2-2.9,2.7-3.5c2.3-1.1,5.1,0,6.2,2.3l6.7,14.8c1.1,2.3,0,5.1-2.3,6.2
				c-2.3,1.1-5.1,0-6.2-2.3L59,31.3C58.6,30.5,58.5,29.6,58.6,28.7z"/>
		</g>
		<g class="st3">
			<path class="st4" d="M198.7,138.7c-0.8-1.3-1-3-0.3-4.4c1.1-2.3,3.9-3.4,6.2-2.3l14.8,6.8c2.3,1.1,3.4,3.9,2.3,6.2
				c-1.1,2.3-3.9,3.4-6.2,2.3l-14.8-6.8C199.9,140.1,199.2,139.5,198.7,138.7z"/>
		</g>
		<g class="st3">
			<path class="st4" d="M185.8,165c1.1-1,2.7-1.5,4.3-1.1c2.5,0.6,4,3.2,3.4,5.7l-4,15.8c-0.6,2.5-3.2,4-5.7,3.4
				c-2.5-0.6-4-3.2-3.4-5.7l4-15.8C184.7,166.4,185.1,165.6,185.8,165z"/>
		</g>
		<g class="st3">
			<path class="st4" d="M105,197.8c1.1-1,2.7-1.5,4.3-1.1c2.5,0.6,4,3.2,3.4,5.7l-4,15.8c-0.6,2.5-3.2,4-5.7,3.4
				c-2.5-0.6-4-3.2-3.4-5.7l4-15.8C103.9,199.2,104.3,198.4,105,197.8z"/>
		</g>
		<g class="st3">
			<path class="st4" d="M221.2,31.7c0.8,1.3,0.9,3,0.2,4.4c-1.1,2.3-3.9,3.3-6.2,2.1l-14.6-7.2c-2.3-1.1-3.3-3.9-2.1-6.2
				c1.1-2.3,3.9-3.3,6.2-2.1l14.6,7.2C220.1,30.3,220.8,30.9,221.2,31.7z"/>
		</g>
		<g class="st3">
			<path class="st4" d="M67.6,239c-0.7-1.3-0.7-3,0.1-4.4c1.3-2.3,4.1-3.1,6.4-1.8l14.2,7.9c2.3,1.3,3.1,4.1,1.8,6.4
				c-1.3,2.3-4.1,3.1-6.4,1.8l-14.2-7.9C68.7,240.5,68,239.8,67.6,239z"/>
		</g>
		<g class="st3">
			<path class="st4" d="M180.1,237.6c-0.7-1.3-0.7-3,0.1-4.4c1.3-2.3,4.1-3.1,6.4-1.8l14.2,7.9c2.3,1.3,3.1,4.1,1.8,6.4
				c-1.3,2.3-4.1,3.1-6.4,1.8l-14.2-7.9C181.1,239,180.5,238.4,180.1,237.6z"/>
		</g>
		<g class="st3">
			<path class="st4" d="M179.6,81.1c-1.5,0-3-0.7-3.9-2.1c-1.4-2.2-0.8-5.1,1.3-6.5l13.6-8.9c2.2-1.4,5.1-0.8,6.5,1.3
				c1.4,2.2,0.8,5.1-1.3,6.5l-13.6,8.9C181.4,80.8,180.5,81.1,179.6,81.1z"/>
		</g>
		<g class="st3">
			<path class="st4" d="M91.6,51.7c-0.6-1.6-0.3-3.5,1-4.9l11.3-11.7c1.8-1.9,4.7-1.9,6.6-0.1c1.9,1.8,1.9,4.7,0.1,6.6L99.4,53.3
				c-1.8,1.9-4.7,1.9-6.6,0.1C92.2,53,91.9,52.4,91.6,51.7z"/>
		</g>
		<g class="st3">
			<path class="st4" d="M92,160.2c-1.1-1.3-1.4-3.3-0.6-4.9l6.8-14.8c1.1-2.3,3.9-3.4,6.2-2.3c2.3,1.1,3.4,3.9,2.3,6.2l-6.8,14.8
				c-1.1,2.3-3.9,3.4-6.2,2.3C93,161.1,92.4,160.7,92,160.2z"/>
		</g>
		<g class="st3">
			<path class="st4" d="M75.3,161.8c-1.7,0.3-3.5-0.3-4.6-1.8l-9.6-13.2c-1.5-2.1-1.1-5,1-6.5c2.1-1.5,5-1.1,6.5,1l9.6,13.2
				c1.5,2.1,1.1,5-1,6.5C76.6,161.4,76,161.6,75.3,161.8z"/>
		</g>
		<g class="st3">
			<path class="st4" d="M79.1,125.8c-1.7,0-3.4-1-4.2-2.7l-7-14.7c-1.1-2.3-0.1-5.1,2.2-6.2c2.3-1.1,5.1-0.1,6.2,2.2l7,14.7
				c1.1,2.3,0.1,5.1-2.2,6.2C80.4,125.6,79.7,125.8,79.1,125.8z"/>
		</g>
		<g>
			<path class="st5" d="M201.5,99.3c-1.5,0-3-0.7-3.9-2.1c-1.4-2.2-0.8-5.1,1.3-6.5l13.6-8.9c2.2-1.4,5.1-0.8,6.5,1.3
				c1.4,2.2,0.8,5.1-1.3,6.5l-13.6,8.9C203.3,99.1,202.4,99.3,201.5,99.3z"/>
		</g>
		<g>
			<path class="st5" d="M75.8,73.7c-0.8-1.3-1-3-0.3-4.4c1.1-2.3,3.9-3.4,6.2-2.3l14.8,6.8c2.3,1.1,3.4,3.9,2.3,6.2
				c-1.1,2.3-3.9,3.4-6.2,2.3l-14.8-6.8C76.9,75.1,76.2,74.5,75.8,73.7z"/>
		</g>
		<g>
			<path class="st6" d="M57.6,24.8c0.2-1.5,1.2-2.9,2.7-3.5c2.3-1.1,5.1,0,6.2,2.3l6.7,14.8c1.1,2.3,0,5.1-2.3,6.2
				c-2.3,1.1-5.1,0-6.2-2.3l-6.7-14.8C57.5,26.6,57.4,25.7,57.6,24.8z"/>
		</g>
		<g>
			<path class="st6" d="M197.7,134.8c-0.8-1.3-1-3-0.3-4.4c1.1-2.3,3.9-3.4,6.2-2.3l14.8,6.8c2.3,1.1,3.4,3.9,2.3,6.2
				c-1.1,2.3-3.9,3.4-6.2,2.3l-14.8-6.8C198.8,136.2,198.2,135.6,197.7,134.8z"/>
		</g>
		<g>
			<path class="st5" d="M184.8,161.1c1.1-1,2.7-1.5,4.3-1.1c2.5,0.6,4,3.2,3.4,5.7l-4,15.8c-0.6,2.5-3.2,4-5.7,3.4
				c-2.5-0.6-4-3.2-3.4-5.7l4-15.8C183.6,162.5,184.1,161.7,184.8,161.1z"/>
		</g>
		<g>
			<path class="st6" d="M103.9,194c1.1-1,2.7-1.5,4.3-1.1c2.5,0.6,4,3.2,3.4,5.7l-4,15.8c-0.6,2.5-3.2,4-5.7,3.4
				c-2.5-0.6-4-3.2-3.4-5.7l4-15.8C102.8,195.3,103.3,194.5,103.9,194z"/>
		</g>
		<g>
			<path class="st6" d="M220.2,27.8c0.8,1.3,0.9,3,0.2,4.4c-1.1,2.3-3.9,3.3-6.2,2.1l-14.6-7.2c-2.3-1.1-3.3-3.9-2.1-6.2
				c1.1-2.3,3.9-3.3,6.2-2.1l14.6,7.2C219.1,26.4,219.7,27,220.2,27.8z"/>
		</g>
		<g>
			<path class="st6" d="M66.6,235.1c-0.7-1.3-0.7-3,0.1-4.4c1.3-2.3,4.1-3.1,6.4-1.8l14.2,7.9c2.3,1.3,3.1,4.1,1.8,6.4
				c-1.3,2.3-4.1,3.1-6.4,1.8L68.5,237C67.6,236.6,67,235.9,66.6,235.1z"/>
		</g>
		<g>
			<path class="st5" d="M179,233.7c-0.7-1.3-0.7-3,0.1-4.4c1.3-2.3,4.1-3.1,6.4-1.8l14.2,7.9c2.3,1.3,3.1,4.1,1.8,6.4
				c-1.3,2.3-4.1,3.1-6.4,1.8l-14.2-7.9C180.1,235.2,179.4,234.5,179,233.7z"/>
		</g>
		<g>
			<path class="st6" d="M178.6,77.2c-1.5,0-3-0.7-3.9-2.1c-1.4-2.2-0.8-5.1,1.3-6.5l13.6-8.9c2.2-1.4,5.1-0.8,6.5,1.3
				c1.4,2.2,0.8,5.1-1.3,6.5l-13.6,8.9C180.3,76.9,179.5,77.2,178.6,77.2z"/>
		</g>
		<g class="st3">
			<path class="st4" d="M214.5,212.7c-1.5,0-3-0.7-3.9-2.1c-1.4-2.2-0.8-5.1,1.3-6.5l13.6-8.9c2.2-1.4,5.1-0.8,6.5,1.3
				c1.4,2.2,0.8,5.1-1.3,6.5l-13.6,8.9C216.3,212.4,215.4,212.7,214.5,212.7z"/>
		</g>
		<g>
			<path class="st6" d="M213.5,208.8c-1.5,0-3-0.7-3.9-2.1c-1.4-2.2-0.8-5.1,1.3-6.5l13.6-8.9c2.2-1.4,5.1-0.8,6.5,1.3
				c1.4,2.2,0.8,5.1-1.3,6.5L216,208C215.3,208.5,214.4,208.8,213.5,208.8z"/>
		</g>
		<g class="st3">
			<path class="st4" d="M127.6,126.8c-1.5,0-3-0.7-3.9-2.1c-1.4-2.2-0.8-5.1,1.3-6.5l13.6-8.9c2.2-1.4,5.1-0.8,6.5,1.3
				c1.4,2.2,0.8,5.1-1.3,6.5l-13.6,8.9C129.4,126.5,128.5,126.8,127.6,126.8z"/>
		</g>
		<g>
			<path class="st5" d="M126.6,122.9c-1.5,0-3-0.7-3.9-2.1c-1.4-2.2-0.8-5.1,1.3-6.5l13.6-8.9c2.2-1.4,5.1-0.8,6.5,1.3
				c1.4,2.2,0.8,5.1-1.3,6.5l-13.6,8.9C128.3,122.6,127.4,122.9,126.6,122.9z"/>
		</g>
		<g>
			<path class="st5" d="M90.6,47.9c-0.6-1.6-0.3-3.5,1-4.9l11.3-11.7c1.8-1.9,4.7-1.9,6.6-0.1c1.9,1.8,1.9,4.7,0.1,6.6L98.3,49.5
				c-1.8,1.9-4.7,1.9-6.6,0.1C91.2,49.1,90.8,48.5,90.6,47.9z"/>
		</g>
		<g>
			<path class="st6" d="M91,156.3c-1.1-1.3-1.4-3.3-0.6-4.9l6.8-14.8c1.1-2.3,3.9-3.4,6.2-2.3c2.3,1.1,3.4,3.9,2.3,6.2l-6.8,14.8
				c-1.1,2.3-3.9,3.4-6.2,2.3C91.9,157.2,91.4,156.8,91,156.3z"/>
		</g>
		<g class="st3">
			<path class="st4" d="M161.2,150c-1.1-1.3-1.4-3.3-0.6-4.9l6.8-14.8c1.1-2.3,3.9-3.4,6.2-2.3c2.3,1.1,3.4,3.9,2.3,6.2l-6.8,14.8
				c-1.1,2.3-3.9,3.4-6.2,2.3C162.2,151,161.7,150.6,161.2,150z"/>
		</g>
		<g>
			<path class="st6" d="M160.2,146.1c-1.1-1.3-1.4-3.3-0.6-4.9l6.8-14.8c1.1-2.3,3.9-3.4,6.2-2.3c2.3,1.1,3.4,3.9,2.3,6.2l-6.8,14.8
				c-1.1,2.3-3.9,3.4-6.2,2.3C161.2,147.1,160.6,146.7,160.2,146.1z"/>
		</g>
		<g>
			<path class="st5" d="M74.3,157.9c-1.7,0.3-3.5-0.3-4.6-1.8l-9.6-13.2c-1.5-2.1-1.1-5,1-6.5c2.1-1.5,5-1.1,6.5,1l9.6,13.2
				c1.5,2.1,1.1,5-1,6.5C75.6,157.5,74.9,157.7,74.3,157.9z"/>
		</g>
		<g class="st3">
			<path class="st4" d="M75.4,207.1c-1.7,0.3-3.5-0.3-4.6-1.8l-9.6-13.2c-1.5-2.1-1.1-5,1-6.5c2.1-1.5,5-1.1,6.5,1l9.6,13.2
				c1.5,2.1,1.1,5-1,6.5C76.7,206.8,76,207,75.4,207.1z"/>
		</g>
		<g>
			<path class="st5" d="M74.3,203.3c-1.7,0.3-3.5-0.3-4.6-1.8l-9.6-13.2c-1.5-2.1-1.1-5,1-6.5c2.1-1.5,5-1.1,6.5,1l9.6,13.2
				c1.5,2.1,1.1,5-1,6.5C75.7,202.9,75,203.1,74.3,203.3z"/>
		</g>
		<g>
			<path class="st6" d="M78,121.9c-1.7,0-3.4-1-4.2-2.7l-7-14.7c-1.1-2.3-0.1-5.1,2.2-6.2c2.3-1.1,5.1-0.1,6.2,2.2l7,14.7
				c1.1,2.3,0.1,5.1-2.2,6.2C79.4,121.7,78.7,121.9,78,121.9z"/>
		</g>
	</g>
</g>
</svg>
