<?xml version="1.0" encoding="utf-8"?>
<!-- Generator: Adobe Illustrator 24.1.2, SVG Export Plug-In . SVG Version: 6.00 Build 0)  -->
<svg version="1.1" id="Calque_1" xmlns="http://www.w3.org/2000/svg" xmlns:xlink="http://www.w3.org/1999/xlink" x="0px" y="0px"
	 viewBox="0 0 300 300" style="enable-background:new 0 0 300 300;" xml:space="preserve">
<style type="text/css">
	.st0{fill:#C2D9AB;}
	.st1{fill:#AB7017;}
	.st2{fill:#D79728;}
	.st3{opacity:0.13;}
	.st4{fill:#252422;}
	.st5{fill:none;stroke:#FCFBFA;stroke-width:12.4937;stroke-linecap:round;stroke-linejoin:round;stroke-miterlimit:10;}
</style>
<g>
	<path class="st0" d="M147.6,298h19.3c8.9,0,17.4-3.6,23.8-10.1c6.8-6.8,10.7-16.5,10.6-26.4l-1.2-194.8
		c-0.1-40.1-23.3-53.7-39-53.7h-17c-16.3,0-29.7,14-29.8,31.3l-0.1,21.5c0,0.3,0,0.6,0,0.8l-1.2,194.8c-0.1,9.9,3.8,19.5,10.6,26.4
		C130.2,294.4,138.6,298,147.6,298z"/>
	<g>
		<path class="st1" d="M134.8,286.9h19.3c8.9,0,17.4-3.6,23.8-10.1c6.8-6.8,10.7-16.5,10.6-26.4l-1.2-212.3
			c-0.1-19.8-15.6-36-34.5-36h-17c-18.9,0-34.4,16.1-34.5,36l-1.2,212.3c-0.1,9.9,3.8,19.5,10.6,26.4
			C117.4,283.3,125.8,286.9,134.8,286.9z"/>
		<path class="st2" d="M130.3,259.8h19.3c7.7,0,15-3.1,20.5-8.7c5.9-6,9.3-14.4,9.3-23l-1.2-194.8C178.1,16,164.7,2,148.4,2h-17
			c-16.3,0-29.7,14-29.8,31.3l-1.2,194.8c-0.1,8.7,3.3,17.1,9.3,23C115.3,256.8,122.6,259.8,130.3,259.8z"/>
	</g>
	<g>
		<g class="st3">
			<path class="st4" d="M120.3,253c-3.2-14.3,5-26.9,21.2-32.8c3.7-1.3,6-3.4,6.9-6c1.1-3.3,0.2-7.1-1.3-9.5
				c-2.1-3.5-5.5-3.9-11.2-4.5c-6.6-0.7-15.5-1.6-19.5-11.7c-2.6-6.5-2-13.8,1.6-20.1c3.9-7,10.9-11.6,19.5-13
				c4-0.7,6.9-2.5,8.5-5.5c2.1-3.8,2-9.4-0.4-14.8c-1.2-2.7-4-4.1-8.6-6c-5.8-2.5-13.7-5.9-16.6-15.5c-5.5-18.3,10.7-27.7,18.4-32.1
				c3.1-1.8,4.9-4.4,5.4-7.6c0.7-5-1.9-11-6.9-16c-13.1-13.1-7.9-25.3-6.6-27.8c1-2.1,8.3-16.6,22.6-16.6c3.4,0,6.2,2.8,6.2,6.2
				s-2.8,6.2-6.2,6.2c-6.8,0-11.2,9.3-11.3,9.4c-0.1,0.2-0.2,0.5-0.4,0.7c-0.2,0.4-2.7,5.8,4.4,13c7.7,7.7,11.6,17.6,10.5,26.4
				c-0.9,7.1-5,13.1-11.5,16.8c-12.9,7.4-14.4,12-12.7,17.7c1.1,3.9,4.2,5.3,9.5,7.6c5.3,2.3,12,5.1,15.1,12.6
				c3.9,9.1,3.8,18.5-0.2,25.8c-3.5,6.3-9.7,10.5-17.5,11.8c-4.8,0.8-8.5,3.2-10.6,6.8c-1.7,3-2,6.5-0.8,9.4c1,2.6,2.4,3.2,9.2,3.8
				c6.4,0.6,15.1,1.5,20.6,10.4c2.9,4.7,5.1,12.5,2.4,20.1c-1.5,4.4-5.3,10.3-14.4,13.7c-10.3,3.8-15,10.3-13.3,18.5
				c0.5,2.3,1.1,7.6-3.7,8.5C125,259.6,121.4,257.6,120.3,253z"/>
		</g>
		<path class="st5" d="M122.3,250c-2.2-10.3,2.9-20.4,17.2-25.6c14.1-5.2,12.8-18.2,8.8-24.6c-7.8-12.7-25.1-2.2-30.3-15.2
			c-3.8-9.6,2.1-22.3,16.2-24.6c14.2-2.3,18.5-15.9,12.9-28.9c-4.7-10.9-21.1-8-24.9-20.9c-3.3-11.2,3.5-18,15.6-24.9
			c12.1-7,10.8-22.3-0.3-33.4c-11.1-11.1-5.4-20.6-5.4-20.6S138,18,149.2,18"/>
	</g>
</g>
</svg>
