<?xml version="1.0" encoding="utf-8"?>
<!-- Generator: Adobe Illustrator 24.1.2, SVG Export Plug-In . SVG Version: 6.00 Build 0)  -->
<svg version="1.1" id="Calque_1" xmlns="http://www.w3.org/2000/svg" xmlns:xlink="http://www.w3.org/1999/xlink" x="0px" y="0px"
	 viewBox="0 0 300 300" style="enable-background:new 0 0 300 300;" xml:space="preserve">
<style type="text/css">
	.st0{fill:#C2D9AB;}
	.st1{fill:#AB7017;}
	.st2{fill:#D79728;}
	.st3{fill:#EABFD0;}
	.st4{opacity:0.13;}
	.st5{fill:#252422;}
	.st6{fill:#FCFBFA;}
</style>
<g>
	<path class="st0" d="M139.4,106.8H163l1.8,81.2c-1.1,7.2-4.4,14.7-13.3,14.7c-2.5,0-4.8-0.5-6.7-1.5v-4.9c0-9.1-3.5-17.3-9.2-23.5
		c-0.7-16.1-14-29-30.2-29h-8.5c-16.7,0-30.3,13.6-30.3,30.3v7.9c0,2.9,0.1,5.8,0.3,8.6c-0.3,1.9-0.5,3.8-0.5,5.7v7.9
		c0,55.8,37,94.8,89.9,94.8c24.4,0,47-8.9,63.7-25c18.1-17.5,27.6-41.6,27.6-69.7V74.3c0-44.2-28.3-61.3-48.2-61.3H135
		c-13.3,0-24.2,10.9-24.2,24.2v18.6c0,0.1,0,0.3,0,0.4c-0.1,1.1-0.2,2.1-0.2,3.2V78C110.6,93.9,123.6,106.8,139.4,106.8z"/>
	<path class="st1" d="M92.7,132.9l-4,0.1c-19.3,0-34.9,15.7-34.9,34.9v25.3c0,55.8,37,94.8,89.9,94.8c24.4,0,47-8.9,63.7-25
		c18.1-17.5,27.6-41.6,27.6-69.7V47.5c0-24.1-19.6-45.3-43.8-45.3l-64.4,17.3c-15.9,0-28.8,12.9-28.8,28.8V67
		c0,15.9,12.9,28.8,28.8,28.8h23.5l2.1,96.4c0,7.8-1.6,17.1-9.1,17.1c-9.3,0-11.2-9.3-11.2-17.1v-24.3
		C132.1,148.7,111.9,132.9,92.7,132.9z"/>
	<path class="st2" d="M92.7,132.9h-8.5c-16.7,0-30.3,13.6-30.3,30.3v7.9c0,53.1,35.1,90.1,85.3,90.1c23.2,0,44.6-8.4,60.5-23.7
		c17.1-16.6,26.2-39.5,26.2-66.4V41.1c0-21.6-17.6-39.1-39.1-39.1h-64.4C109,2,98.1,12.9,98.1,26.2v18.6C98.1,58.1,109,69,122.3,69
		h25.4c1.5,0,2.7,1.2,2.7,2.7l2.1,98.4c0,8.1-1.8,21.7-13.8,21.7c-10.1,0-15.9-7.9-15.9-21.7v-6.8C123,146.5,109.4,132.9,92.7,132.9
		z"/>
	<g>
		<g>
			<path class="st3" d="M136.9,244.7c-23.1,0-37.6-8.9-46-16.9c-15.2-14.5-22.5-37.3-21.2-66c0.5-10.3,9.2-18.1,19.5-17.7
				c10.3,0.5,18.2,9.2,17.7,19.5c-0.8,17.3,2.6,30.5,9.7,37.3c5.6,5.3,14.3,7.4,26,6.3c14.7-1.4,23.8-7.6,28.4-19.4
				c4.1-10.4,3.2-21.2,3.2-21.3c0-0.5-0.1-1.2-0.1-1.8V61.2c0-4.5-3.6-8.1-8.1-8.1h-34.2c-10.3,0-18.6-8.3-18.6-18.6
				s8.3-18.6,18.6-18.6H166c25,0,45.2,20.3,45.2,45.2v102.8c0.5,6.5,1.4,34.4-16.5,56.1c-11.4,13.9-28.2,22.3-48.7,24.2
				C142.9,244.6,139.8,244.7,136.9,244.7z"/>
		</g>
		<g>
			<g class="st4">
				<g>
					<path class="st5" d="M132.3,60.2c-3.4,0-6.2-2.8-6.2-6.2V16.9c0-3.4,2.8-6.2,6.2-6.2c3.4,0,6.2,2.8,6.2,6.2V54
						C138.5,57.5,135.7,60.2,132.3,60.2z"/>
				</g>
				<g>
					<path class="st5" d="M156,59.2c-3.4,0-6.2-2.8-6.2-6.2V15.8c0-3.4,2.8-6.2,6.2-6.2s6.2,2.8,6.2,6.2V53
						C162.2,56.4,159.4,59.2,156,59.2z"/>
				</g>
				<g>
					<path class="st5" d="M170.4,64.3c-1.1,0-2.2-0.3-3.2-0.9c-2.9-1.8-3.8-5.6-2.1-8.5l21.1-34.6c1.8-2.9,5.6-3.8,8.5-2.1
						c2.9,1.8,3.8,5.6,2.1,8.5l-21.1,34.6C174.5,63.3,172.5,64.3,170.4,64.3z"/>
				</g>
				<g>
					<path class="st5" d="M173.3,82.5c-2.5,0-4.9-1.6-5.8-4.1c-1.2-3.2,0.5-6.8,3.7-7.9l37-13.5c3.2-1.2,6.8,0.5,7.9,3.7
						c1.2,3.2-0.5,6.8-3.7,7.9l-37,13.5C174.7,82.4,174,82.5,173.3,82.5z"/>
				</g>
				<g>
					<path class="st5" d="M173.3,102.9c-3.1,0-5.8-2.4-6.2-5.6c-0.4-3.4,2.1-6.4,5.5-6.8l37.2-3.8c3.4-0.3,6.4,2.1,6.8,5.5
						c0.4,3.4-2.1,6.4-5.5,6.8l-37.2,3.8C173.7,102.9,173.5,102.9,173.3,102.9z"/>
				</g>
				<g>
					<path class="st5" d="M173.1,128.3c-3.3,0-6.1-2.6-6.2-6c-0.1-3.4,2.6-6.3,6-6.4l37.2-1.2c3.4-0.1,6.3,2.6,6.4,6
						c0.1,3.4-2.6,6.3-6,6.4l-37.2,1.2C173.3,128.3,173.2,128.3,173.1,128.3z"/>
				</g>
				<g>
					<path class="st5" d="M174.5,155.1c-3.3,0-6.1-2.7-6.2-6c-0.1-3.4,2.6-6.3,6-6.4l37.2-1.1c3.5-0.1,6.3,2.6,6.4,6
						c0.1,3.4-2.6,6.3-6,6.4l-37.2,1.1C174.7,155.1,174.6,155.1,174.5,155.1z"/>
				</g>
				<g>
					<path class="st5" d="M209.8,182c-0.1,0-0.2,0-0.3,0l-37.1-1.7c-3.4-0.2-6.1-3-5.9-6.5c0.2-3.4,3-6.1,6.5-5.9l37.1,1.7
						c3.4,0.2,6.1,3,5.9,6.5C215.8,179.4,213.1,182,209.8,182z"/>
				</g>
				<g>
					<path class="st5" d="M207.7,215.2c-0.7,0-1.4-0.1-2.2-0.4l-34.8-13c-3.2-1.2-4.8-4.8-3.6-8c1.2-3.2,4.8-4.8,8-3.6l34.8,13
						c3.2,1.2,4.8,4.8,3.6,8C212.6,213.6,210.2,215.2,207.7,215.2z"/>
				</g>
				<g>
					<path class="st5" d="M181.7,240.2c-1.7,0-3.4-0.7-4.6-2.1l-24.6-27.9c-2.3-2.6-2-6.5,0.5-8.7c2.6-2.3,6.5-2,8.7,0.5l24.6,27.9
						c2.3,2.6,2,6.5-0.5,8.7C184.7,239.6,183.2,240.2,181.7,240.2z"/>
				</g>
				<g>
					<path class="st5" d="M139.8,253.5c-0.1,0-0.2,0-0.3,0c-3.4-0.2-6.1-3.1-5.9-6.5l1.8-38.5c0.2-3.4,3-6,6.5-5.9
						c3.4,0.2,6.1,3.1,5.9,6.5l-1.8,38.5C145.8,250.9,143.1,253.5,139.8,253.5z"/>
				</g>
				<g>
					<path class="st5" d="M104.1,244.3c-0.8,0-1.6-0.2-2.4-0.5c-3.1-1.3-4.6-5-3.3-8.1l14.4-33.5c1.3-3.1,5-4.6,8.1-3.3
						c3.1,1.3,4.6,5,3.3,8.1l-14.4,33.5C108.8,242.8,106.5,244.3,104.1,244.3z"/>
				</g>
				<g>
					<path class="st5" d="M75.3,217.6c-2.2,0-4.2-1.1-5.4-3.1c-1.7-3-0.7-6.8,2.3-8.4l32.1-18.3c3-1.7,6.8-0.7,8.5,2.3
						c1.7,3,0.7,6.8-2.3,8.4l-32.1,18.3C77.4,217.3,76.3,217.6,75.3,217.6z"/>
				</g>
				<g>
					<path class="st5" d="M67.2,182c-3,0-5.7-2.2-6.1-5.3c-0.5-3.4,1.9-6.5,5.3-7l38.3-5.5c3.4-0.5,6.5,1.9,7,5.3
						c0.5,3.4-1.9,6.5-5.3,7l-38.3,5.5C67.8,182,67.5,182,67.2,182z"/>
				</g>
			</g>
			<g>
				<g>
					<path class="st6" d="M129.6,59c-3.4,0-6.2-2.8-6.2-6.2V15.6c0-3.4,2.8-6.2,6.2-6.2s6.2,2.8,6.2,6.2v37.2
						C135.8,56.2,133,59,129.6,59z"/>
				</g>
				<g>
					<path class="st6" d="M153.4,57.9c-3.4,0-6.2-2.8-6.2-6.2V14.6c0-3.4,2.8-6.2,6.2-6.2s6.2,2.8,6.2,6.2v37.2
						C159.6,55.2,156.8,57.9,153.4,57.9z"/>
				</g>
				<g>
					<path class="st6" d="M167.7,63.1c-1.1,0-2.2-0.3-3.2-0.9c-2.9-1.8-3.8-5.6-2.1-8.5l21.1-34.6c1.8-2.9,5.6-3.8,8.5-2.1
						c2.9,1.8,3.8,5.6,2.1,8.5L173,60.1C171.8,62,169.8,63.1,167.7,63.1z"/>
				</g>
				<g>
					<path class="st6" d="M170.6,81.2c-2.5,0-4.9-1.6-5.8-4.1c-1.2-3.2,0.5-6.8,3.7-7.9l37-13.5c3.2-1.2,6.8,0.5,7.9,3.7
						c1.2,3.2-0.5,6.8-3.7,7.9l-37,13.5C172,81.1,171.3,81.2,170.6,81.2z"/>
				</g>
				<g>
					<path class="st6" d="M170.6,101.6c-3.1,0-5.8-2.4-6.2-5.6c-0.4-3.4,2.1-6.4,5.5-6.8l37.2-3.8c3.4-0.3,6.4,2.1,6.8,5.5
						c0.4,3.4-2.1,6.4-5.5,6.8l-37.2,3.8C171,101.6,170.8,101.6,170.6,101.6z"/>
				</g>
				<g>
					<path class="st6" d="M170.5,127c-3.3,0-6.1-2.6-6.2-6c-0.1-3.4,2.6-6.3,6-6.4l37.2-1.2c3.4-0.1,6.3,2.6,6.4,6
						c0.1,3.4-2.6,6.3-6,6.4l-37.2,1.2C170.6,127,170.5,127,170.5,127z"/>
				</g>
				<g>
					<path class="st6" d="M171.9,153.9c-3.3,0-6.1-2.7-6.2-6c-0.1-3.4,2.6-6.3,6-6.4l37.2-1.1c3.5-0.1,6.3,2.6,6.4,6
						c0.1,3.4-2.6,6.3-6,6.4l-37.2,1.1C172,153.9,171.9,153.9,171.9,153.9z"/>
				</g>
				<g>
					<path class="st6" d="M207.1,180.7c-0.1,0-0.2,0-0.3,0l-37.1-1.7c-3.4-0.2-6.1-3-5.9-6.5c0.2-3.4,3-6.1,6.5-5.9l37.1,1.7
						c3.4,0.2,6.1,3,5.9,6.5C213.2,178.1,210.4,180.7,207.1,180.7z"/>
				</g>
				<g>
					<path class="st6" d="M205.1,213.9c-0.7,0-1.4-0.1-2.2-0.4l-34.8-13c-3.2-1.2-4.8-4.8-3.6-8c1.2-3.2,4.8-4.8,8-3.6l34.8,13
						c3.2,1.2,4.8,4.8,3.6,8C209.9,212.4,207.6,213.9,205.1,213.9z"/>
				</g>
				<g>
					<path class="st6" d="M179.1,238.9c-1.7,0-3.4-0.7-4.6-2.1l-24.6-27.9c-2.3-2.6-2-6.5,0.5-8.7c2.6-2.3,6.5-2,8.7,0.5l24.6,27.9
						c2.3,2.6,2,6.5-0.5,8.7C182,238.4,180.5,238.9,179.1,238.9z"/>
				</g>
				<g>
					<path class="st6" d="M137.1,252.2c-0.1,0-0.2,0-0.3,0c-3.4-0.2-6.1-3.1-5.9-6.5l1.8-38.5c0.2-3.4,3-6,6.5-5.9
						c3.4,0.2,6.1,3.1,5.9,6.5l-1.8,38.5C143.1,249.7,140.4,252.2,137.1,252.2z"/>
				</g>
				<g>
					<path class="st6" d="M101.5,243c-0.8,0-1.6-0.2-2.4-0.5c-3.1-1.3-4.6-5-3.3-8.1l14.4-33.5c1.3-3.1,5-4.6,8.1-3.3
						c3.1,1.3,4.6,5,3.3,8.1l-14.4,33.5C106.2,241.6,103.9,243,101.5,243z"/>
				</g>
				<g>
					<path class="st6" d="M72.6,216.3c-2.2,0-4.2-1.1-5.4-3.1c-1.7-3-0.7-6.8,2.3-8.4l32.1-18.3c3-1.7,6.8-0.7,8.5,2.3
						c1.7,3,0.7,6.8-2.3,8.4l-32.1,18.3C74.7,216.1,73.6,216.3,72.6,216.3z"/>
				</g>
				<g>
					<path class="st6" d="M64.6,180.7c-3,0-5.7-2.2-6.1-5.3c-0.5-3.4,1.9-6.5,5.3-7l38.3-5.5c3.4-0.5,6.5,1.9,7,5.3
						c0.5,3.4-1.9,6.5-5.3,7l-38.3,5.5C65.1,180.7,64.8,180.7,64.6,180.7z"/>
				</g>
			</g>
		</g>
	</g>
</g>
</svg>
