<?xml version="1.0" encoding="utf-8"?>
<!-- Generator: Adobe Illustrator 24.1.2, SVG Export Plug-In . SVG Version: 6.00 Build 0)  -->
<svg version="1.1" id="Calque_1" xmlns="http://www.w3.org/2000/svg" xmlns:xlink="http://www.w3.org/1999/xlink" x="0px" y="0px"
	 viewBox="0 0 300 300" style="enable-background:new 0 0 300 300;" xml:space="preserve">
<style type="text/css">
	.st0{fill:#C2D9AB;}
	.st1{fill:#AB7017;}
	.st2{fill:#D79728;}
	.st3{opacity:0.13;}
	.st4{fill:#252422;}
	.st5{fill:none;stroke:#FCFBFA;stroke-width:12.2421;stroke-linecap:round;stroke-linejoin:round;stroke-miterlimit:10;}
</style>
<g>
	<path class="st0" d="M98.9,17.6H87.4C70.6,17.6,57,31.3,57,48.1v18.6c-0.1,1.1-0.2,2.2-0.2,3.4v196c0,17,13.8,30.8,30.8,30.8h20
		c17,0,30.8-13.8,30.8-30.8v-46.1c0-2-0.2-4.2-0.4-6.4c-0.1-1.4-0.4-4.7-0.4-6.6c2.8,1.9,7,5.8,9.4,9.8c5.1,9,8.8,19,12.6,29.6
		c4.2,11.5,8.4,23.3,15,34.2c7,11.6,18.9,17.5,35.4,17.5c8.1,0,15.5-1.4,20.4-2.3h0c14.2-2.7,20.7-11.1,23.5-17.7
		c7.9-18-1.7-44.6-11.7-64.7c-6.1-17-15.4-33-19.8-40c-3.9-6.3-8.3-13.2-13.5-19.2c1.3-0.9,2.5-2,3.6-3.2c7.8-8.7,14.6-19,19.9-30.5
		c15-32,20.4-55.7,16.2-70.3c-1.5-5-5.3-15.5-19.9-33.9c-8.3-10.5-29.1,0.8-35.8,3.8c-14.8,6.7-19.5,19.1-24,31
		c-0.8,2.2-1.6,4.4-2.5,6.6c-5.5,13.6-12.3,26.8-20,39.2c-2.4,3.9-5.3,7.1-7.9,9.7V70C138.6,36.8,115.2,17.6,98.9,17.6z"/>
	<g>
		<path class="st1" d="M79.3,6.8c-19.3,0-35,33-35,52.3v196c0,17,13.8,30.8,30.8,30.8h20c17,0,30.8-13.8,30.8-30.8V209
			c0-2-0.2-4.2-0.4-6.4c-0.1-1.4-0.4-4.7-0.4-6.6c2.8,1.9,7,5.8,9.4,9.8c5.1,9,8.8,19,12.6,29.6c4.2,11.5,8.4,23.3,14.9,34.2
			c7,11.6,18.9,17.5,35.4,17.5c8.1,0,15.5-1.4,20.4-2.3c14.2-2.7,20.7-11.1,23.5-17.7c11.1-25.5-12.5-68.1-23.2-85.2
			c-5.2-8.3-11-17.7-18.9-25c-2.4-2.2-5.2-4-7.6-5.5c-1.2-0.8-3-1.9-4.2-2.7c1.2-0.8,2.6-1.5,3.2-1.9c3.1-1.8,6.6-3.8,9.3-6.8
			c7.8-8.7,14.6-19,19.9-30.5c15-32,18.6-61.4,11.4-86.7c-2.1-7.5-6.9-13.1-13.5-16.2c-13.9-6.4-32.3,0.5-39.6,3.8
			c-16.6,7.4-17,37.7-21.7,50.2c-0.8,2.1-1.6,4.2-2.4,6.3c-5.4,13.3-12,26.3-19.7,38.5c-3.3,5.2-6.7,9.1-9.1,11.4
			c-0.2-2.5,0.1-6.6,0.3-9.2c0.2-2.6,0.4-5,0.4-7.4V41.6c0-19.3-15.7-34.8-35-34.8H79.3z"/>
		<path class="st2" d="M212.5,258.3c12.3-2.3,17.8-9.5,20.2-15c10.6-24.1-14.8-68-22.9-81c-5-8.1-10.7-17.2-18.1-24
			c-2.1-1.9-4.6-3.5-7-5c-3.5-2.2-7.1-4.5-7.6-6.9c-0.3-1.4,2.9-3.4,6.8-5.6c2.9-1.7,6-3.5,8.2-5.9c7.5-8.4,14-18.2,19.2-29.3
			c10-21.3,20.8-50.2,15.9-67.1c-1.8-6.2-5.6-10.8-11.1-13.3C203.9-0.4,187,6,180.3,9c-14.8,6.7-19.5,19.1-24,31
			c-0.8,2.2-1.6,4.4-2.5,6.6c-5.5,13.6-12.3,26.8-20,39.2c-2.7,4.3-6,7.9-8.8,10.6c-2.7,2.6-7.2,1-7.7-2.7c-0.5-3.2-0.9-6.6-0.8-8.5
			c0.2-2.5,0.4-4.9,0.4-7.1V37.2c0-16.8-13.6-30.5-30.5-30.5H74.9c-16.8,0-30.5,13.6-30.5,30.5v196c0,14.5,11.7,26.2,26.2,26.2h20
			c14.5,0,26.2-11.7,26.2-26.2v-46.1c0-1.8-0.2-3.9-0.4-6c-0.3-3.2-0.7-8,0-9.9c0.2-0.6,1-2.7,2-2.8c3.6-0.3,11.9,6.7,15.6,13.2
			c5.3,9.3,9,19.5,12.9,30.3c4.1,11.3,8.3,22.9,14.6,33.4c7.3,12.2,20,15.3,31.5,15.3C200.7,260.6,207.8,259.2,212.5,258.3z"/>
	</g>
	<g>
		<g>
			<g class="st3">
				<path class="st4" d="M137.5,123.5c10.4,1.6,24.2,5.5,32,14.8c5,6,6.9,13.7,5.4,22.1c-1.5,8.1-0.9,13.8,1.8,17.5
					c2.6,3.5,7.6,5.7,14.9,6.6c9.7,1.2,17.1,6.9,20,15.1c2.7,7.9,0.6,16.3-5.7,22.6c-2.9,2.9-5,9.7-3.4,15.8
					c1.2,4.5,4.1,7.5,8.5,8.7c3.3,0.9,5.1,4.3,4.2,7.6c-0.8,2.7-3.2,4.5-5.9,4.5c-0.5,0-1.1-0.1-1.7-0.2
					c-8.7-2.5-14.8-8.6-17.1-17.4c-2.5-9.7,0.2-21.3,6.6-27.6c2.9-2.9,4-6.6,2.8-10c-1.3-3.7-5-6.3-9.9-6.9
					c-10.8-1.4-18.6-5.2-23.2-11.6c-4.8-6.5-6.1-15.3-4-26.9c0.9-4.9,0-8.8-2.7-12.1c-4.9-5.9-14.9-8.9-23.5-10.3"/>
			</g>
			<path class="st5" d="M139.4,132.4c11.9,3.9,23.1,11.6,20.3,27c-3.1,17.2,1.7,28.7,22,31.3c15.3,1.9,20.6,17.4,10.7,27.3
				c-8.1,8.1-9.3,30,7.9,34.8"/>
		</g>
		<g>
			<g class="st3">
				<path class="st4" d="M148.2,124.9c2.3-3.3,5.4-6.2,9.3-8.5c7.1-4.1,11-8.3,12.1-12.7c1-4.2-0.6-9.5-4.6-15.6
					c-5.4-8.1-5.9-17.5-1.5-25c4.2-7.2,12-11,20.9-10.3c4,0.3,10.6-2.6,14.2-7.7c2.7-3.8,3-7.9,1.1-12.2c-1.4-3.1-0.1-6.7,3-8.1
					c2.5-1.2,5.5-0.5,7.2,1.6c0.4,0.4,0.7,0.9,0.9,1.4c3.8,8.2,3,16.9-2.1,24.3c-5.7,8.2-16.3,13.6-25.2,12.9
					c-4.1-0.3-7.6,1.3-9.4,4.3c-2,3.4-1.6,7.9,1.2,12c6,9.1,8.1,17.5,6.3,25.2c-1.9,7.9-7.7,14.6-17.8,20.5
					c-2.7,1.6-4.4,1.8-5.4,2.7l-13.4-5.1"/>
			</g>
			<path class="st5" d="M138.6,131.2c0.5-6.1,12.8-9.6,19.9-13.7c15.1-8.8,20.7-20,9.5-37c-8.5-12.9-0.2-27,13.8-25.9
				c11.4,0.9,28.8-12.4,21.3-28.6"/>
		</g>
		<g>
			<g class="st3">
				<path class="st4" d="M104.7,19.2c3.4,13.9-4.3,26.5-20,32.6c-3.5,1.4-5.8,3.4-6.6,6.1c-1,3.2,0,7,1.5,9.2
					c2.2,3.3,5.5,3.7,11.1,4.2c6.4,0.5,15.2,1.2,19.4,11c2.7,6.3,2.3,13.5-1.1,19.8c-3.7,6.9-10.4,11.6-18.8,13.1
					c-3.9,0.7-6.7,2.6-8.2,5.6c-2,3.8-1.7,9.2,0.7,14.5c1.2,2.6,4,3.9,8.6,5.7c5.7,2.3,13.6,5.5,16.6,14.8
					c5.8,17.8-9.8,27.3-17.3,31.9c-3,1.8-4.7,4.4-5.1,7.6c-0.5,4.9,2.1,10.7,7.1,15.5c13.1,12.5,8.3,24.6,7.1,27.1
					c-0.9,2.1-7.8,16.4-21.7,16.7c-3.4,0.1-6.2-2.6-6.3-6c-0.1-3.4,2.6-6.2,6-6.3c6.7-0.2,10.8-9.3,10.8-9.4
					c0.1-0.2,0.2-0.5,0.3-0.7c0.2-0.4,2.5-5.7-4.6-12.6c-7.7-7.4-11.8-17-10.8-25.7c0.8-7,4.6-12.9,10.9-16.7
					c12.5-7.6,13.9-12.1,12-17.7c-1.2-3.7-4.3-5.1-9.5-7.3c-5.3-2.1-11.8-4.8-15.1-12c-4-8.8-4.2-18-0.4-25.2
					c3.3-6.3,9.3-10.5,16.9-11.9c4.7-0.9,8.3-3.3,10.2-6.9c1.6-2.9,1.8-6.4,0.6-9.2c-1.1-2.5-2.4-3-9.1-3.6
					c-6.3-0.5-14.8-1.2-20.4-9.7c-3-4.6-5.3-12.1-2.8-19.6c1.4-4.3,4.9-10.2,13.8-13.7c10-3.9,14.5-10.5,12.6-18.4
					c-0.5-2.3-1.2-7.4,3.4-8.4C99.9,12.8,103.6,14.7,104.7,19.2z"/>
			</g>
			<path class="st5" d="M92.6,19.5c2.4,10.1-2.4,20-16.3,25.5c-13.7,5.4-12.1,18.1-8.1,24.3c7.9,12.2,24.6,1.6,30,14.2
				c3.9,9.3-1.5,21.9-15.4,24.5c-13.8,2.6-17.8,16-12,28.6c4.8,10.6,20.8,7.3,24.9,19.9c3.5,10.9-3,17.7-14.7,24.8
				c-11.7,7.1-10.1,22.1,1,32.7c11.1,10.6,5.7,20.1,5.7,20.1s-5.4,12.9-16.3,13.2"/>
		</g>
	</g>
</g>
</svg>
