<?xml version="1.0" encoding="utf-8"?>
<!-- Generator: Adobe Illustrator 24.1.2, SVG Export Plug-In . SVG Version: 6.00 Build 0)  -->
<svg version="1.1" id="Calque_1" xmlns="http://www.w3.org/2000/svg" xmlns:xlink="http://www.w3.org/1999/xlink" x="0px" y="0px"
	 viewBox="0 0 300 300" style="enable-background:new 0 0 300 300;" xml:space="preserve">
<style type="text/css">
	.st0{fill:#C2D9AB;}
	.st1{fill:#AB7017;}
	.st2{fill:#D79728;}
	.st3{fill:#EABFD0;}
	.st4{opacity:0.13;}
	.st5{fill:#252422;}
	.st6{fill:#8D6017;}
	.st7{opacity:0.2;}
</style>
<g>
	<path class="st0" d="M79.8,39.4v19.1c-0.1,1.1-0.2,2.1-0.2,3.2v188.9c0,26.1,21.2,47.3,47.3,47.3h69.9c18.6,0,33.7-15.1,33.7-33.7
		v-12.7c0-8.9-3.5-17.1-9.2-23.1c-0.4-15.7-13.2-28.3-28.9-28.3h-29.5c0,0,0,0-0.1,0V54.4c-0.2-35.1-21-41.3-35.5-41.3h-21.3
		C91.6,13.1,79.8,24.9,79.8,39.4z"/>
	<g>
		<path class="st1" d="M66.9,50.7v188.9c0,26.1,21.2,47.3,47.3,47.3h69.9c18.6,0,33.7-15.1,33.7-33.7v-30.4
			c0-18.6-15.1-33.7-33.7-33.7h-29.5c-2.5,0-4.6-2.1-4.6-4.6V33.7c0-17.1-13.5-31.7-33.4-31.6L97.8,19.7
			C80.8,19.7,66.9,33.6,66.9,50.7z"/>
		<path class="st2" d="M67,217.2c0,23.5,19.1,42.7,42.7,42.7h69.9c16,0,29-13,29-29v-12.7c0-16-13-29-29-29h-29.5
			c-5.1,0-9.3-4.2-9.3-9.3V28.3c0-14.5-11.8-26.3-26.3-26.3H93.3C78.8,2,67,13.8,67,28.3V217.2z"/>
	</g>
	<g>
		<g>
			<path class="st3" d="M178.4,250.4h-61c-24.2,0-34.8-12.5-34.8-36.7V41.6c0-12.8,9.9-24,22.7-24.4c13.3-0.4,24.1,10.2,24.1,23.4
				v148c0,8.3,6.7,15,15,15h33c12.8,0,24,9.9,24.4,22.7C202.2,239.5,191.6,250.4,178.4,250.4z"/>
		</g>
		<g>
			<g class="st4">
				<path class="st5" d="M106.9,33.7c-1.4,0-2.7,0.3-3.9,0.8c-0.5,0.2-0.9,0.4-1.3,0.7c-0.2,0.1-0.4,0.3-0.6,0.4
					c-0.2,0.2-0.5,0.4-0.7,0.6c-0.2,0.2-0.4,0.3-0.5,0.5c-0.3,0.3-0.5,0.6-0.7,0.9c-0.1,0.1-0.2,0.2-0.3,0.4
					c-0.3,0.4-0.5,0.9-0.8,1.4c-0.1,0.2-0.1,0.3-0.2,0.5c-0.1,0.4-0.3,0.8-0.4,1.2c0,0.2-0.1,0.3-0.1,0.5c-0.1,0.6-0.2,1.2-0.2,1.8
					c0,1.3,0.3,2.6,0.8,3.8c0.2,0.6,0.5,1.1,0.9,1.7c0.7,1,1.6,1.9,2.6,2.6c1.6,1.1,3.4,1.7,5.5,1.7c0.6,0,1.2-0.1,1.7-0.2
					c0.2,0,0.3-0.1,0.5-0.1c0.5-0.1,1-0.3,1.4-0.4c0.2-0.1,0.3-0.2,0.5-0.2c0.3-0.2,0.6-0.3,1-0.5c0.2-0.1,0.5-0.3,0.7-0.5
					c0.2-0.1,0.3-0.3,0.5-0.4c0.4-0.4,0.9-0.8,1.2-1.2c0.1-0.1,0.1-0.2,0.2-0.3c0.2-0.3,0.4-0.6,0.6-0.9c0,0,0,0,0,0c0,0,0,0,0,0
					c0.9-1.5,1.4-3.2,1.4-5C116.6,38.1,112.3,33.7,106.9,33.7z"/>
				<path class="st5" d="M106.9,70.8c-1.4,0-2.7,0.3-3.9,0.8c-0.5,0.2-0.9,0.4-1.3,0.7c-0.2,0.1-0.4,0.3-0.6,0.4
					c-0.2,0.2-0.5,0.4-0.7,0.6c-0.2,0.2-0.4,0.3-0.5,0.5c-0.3,0.3-0.5,0.6-0.7,0.9c-0.1,0.1-0.2,0.2-0.3,0.4
					c-0.3,0.4-0.5,0.9-0.8,1.4c-0.1,0.2-0.1,0.3-0.2,0.5c-0.1,0.4-0.3,0.8-0.4,1.2c0,0.2-0.1,0.3-0.1,0.5c-0.1,0.6-0.2,1.2-0.2,1.8
					c0,1.3,0.3,2.6,0.8,3.8c0.2,0.6,0.5,1.1,0.9,1.7c0.7,1,1.6,1.9,2.6,2.6c1.6,1.1,3.4,1.7,5.5,1.7c0.6,0,1.2-0.1,1.7-0.2
					c0.2,0,0.3-0.1,0.5-0.1c0.5-0.1,1-0.3,1.4-0.4c0.2-0.1,0.3-0.2,0.5-0.2c0.3-0.2,0.6-0.3,1-0.5c0.2-0.1,0.5-0.3,0.7-0.5
					c0.2-0.1,0.3-0.3,0.5-0.4c0.4-0.4,0.9-0.8,1.2-1.2c0.1-0.1,0.1-0.2,0.2-0.3c0.2-0.3,0.4-0.6,0.6-0.9c0,0,0,0,0,0c0,0,0,0,0,0
					c0.9-1.5,1.4-3.2,1.4-5C116.6,75.2,112.3,70.8,106.9,70.8z"/>
				<path class="st5" d="M106.9,107.9c-1.4,0-2.7,0.3-3.9,0.8c-0.5,0.2-0.9,0.4-1.3,0.7c-0.2,0.1-0.4,0.3-0.6,0.5
					c-0.2,0.2-0.5,0.4-0.7,0.6c-0.2,0.2-0.4,0.3-0.5,0.5c-0.3,0.3-0.5,0.6-0.7,0.9c-0.1,0.1-0.2,0.2-0.3,0.4
					c-0.3,0.4-0.5,0.9-0.8,1.4c-0.1,0.2-0.1,0.3-0.2,0.5c-0.1,0.4-0.3,0.8-0.4,1.2c0,0.2-0.1,0.3-0.1,0.5c-0.1,0.6-0.2,1.2-0.2,1.8
					c0,5.4,4.4,9.8,9.8,9.8c0.6,0,1.2-0.1,1.7-0.2c0.2,0,0.3-0.1,0.5-0.1c0.5-0.1,1-0.3,1.4-0.4c0.2-0.1,0.3-0.2,0.5-0.2
					c0.3-0.2,0.6-0.3,1-0.5c0.2-0.1,0.5-0.3,0.7-0.5c0.2-0.1,0.3-0.3,0.5-0.4c0.4-0.4,0.9-0.8,1.2-1.2c0.1-0.1,0.1-0.2,0.2-0.3
					c0.2-0.3,0.4-0.6,0.6-0.9c0,0,0,0,0,0c0,0,0,0,0,0c0.9-1.5,1.4-3.2,1.4-5C116.6,112.3,112.3,107.9,106.9,107.9z"/>
				<path class="st5" d="M106.9,145.1c-1.4,0-2.7,0.3-3.9,0.8c-0.5,0.2-0.9,0.4-1.3,0.7c-0.2,0.1-0.4,0.3-0.6,0.4
					c-0.2,0.2-0.5,0.4-0.7,0.6c-0.2,0.2-0.4,0.3-0.5,0.5c-0.3,0.3-0.5,0.6-0.7,0.9c-0.1,0.1-0.2,0.2-0.3,0.4
					c-0.3,0.4-0.5,0.9-0.8,1.4c-0.1,0.2-0.1,0.3-0.2,0.5c-0.1,0.4-0.3,0.8-0.4,1.2c0,0.2-0.1,0.3-0.1,0.5c-0.1,0.6-0.2,1.2-0.2,1.8
					c0,1.3,0.3,2.6,0.8,3.8c0.2,0.6,0.5,1.1,0.9,1.7c0.7,1,1.6,1.9,2.6,2.6c1.6,1.1,3.4,1.7,5.5,1.7c0.6,0,1.2-0.1,1.7-0.2
					c0.2,0,0.3-0.1,0.5-0.1c0.5-0.1,1-0.3,1.4-0.4c0.2-0.1,0.3-0.2,0.5-0.2c0.3-0.2,0.6-0.3,1-0.5c0.2-0.1,0.5-0.3,0.7-0.5
					c0.2-0.1,0.3-0.3,0.5-0.4c0.4-0.4,0.9-0.8,1.2-1.2c0.1-0.1,0.1-0.2,0.2-0.3c0.2-0.3,0.4-0.6,0.6-0.9c0,0,0,0,0,0c0,0,0,0,0,0
					c0.9-1.5,1.4-3.2,1.4-5C116.6,149.4,112.3,145.1,106.9,145.1z"/>
				<path class="st5" d="M106.9,182.2c-1.4,0-2.7,0.3-3.9,0.8c-0.5,0.2-0.9,0.4-1.3,0.7c-0.2,0.1-0.4,0.3-0.6,0.5
					c-0.2,0.2-0.5,0.4-0.7,0.6c-0.2,0.2-0.4,0.3-0.5,0.5c-0.3,0.3-0.5,0.6-0.7,0.9c-0.1,0.1-0.2,0.2-0.3,0.4
					c-0.3,0.4-0.5,0.9-0.8,1.4c-0.1,0.2-0.1,0.3-0.2,0.5c-0.1,0.4-0.3,0.8-0.4,1.2c0,0.2-0.1,0.3-0.1,0.5c-0.1,0.6-0.2,1.2-0.2,1.8
					c0,5.4,4.4,9.8,9.8,9.8c0.6,0,1.2-0.1,1.7-0.2c0.2,0,0.3-0.1,0.5-0.1c0.5-0.1,1-0.3,1.4-0.4c0.2-0.1,0.3-0.2,0.5-0.2
					c0.3-0.2,0.6-0.3,1-0.5c0.2-0.1,0.5-0.3,0.7-0.5c0.2-0.1,0.3-0.3,0.5-0.4c0.4-0.4,0.9-0.8,1.2-1.2c0.1-0.1,0.1-0.2,0.2-0.3
					c0.2-0.3,0.4-0.6,0.6-0.9c0,0,0,0,0,0c0,0,0,0,0,0c0.9-1.5,1.4-3.2,1.4-5C116.6,186.6,112.3,182.2,106.9,182.2z"/>
				<path class="st5" d="M106.9,219.3c-1.4,0-2.7,0.3-3.9,0.8c-0.5,0.2-0.9,0.4-1.3,0.7c-0.2,0.1-0.4,0.3-0.6,0.4
					c-0.2,0.2-0.5,0.4-0.7,0.6c-0.2,0.2-0.4,0.3-0.5,0.5c-0.3,0.3-0.5,0.6-0.7,0.9c-0.1,0.1-0.2,0.2-0.3,0.4
					c-0.3,0.4-0.5,0.9-0.8,1.4c-0.1,0.2-0.1,0.3-0.2,0.5c-0.1,0.4-0.3,0.8-0.4,1.2c0,0.2-0.1,0.3-0.1,0.5c-0.1,0.6-0.2,1.2-0.2,1.8
					c0,1.3,0.3,2.6,0.8,3.8c0.2,0.6,0.5,1.1,0.9,1.7c0.7,1,1.6,1.9,2.6,2.6c1.6,1.1,3.4,1.7,5.5,1.7c0.6,0,1.2-0.1,1.7-0.2
					c0.2,0,0.3-0.1,0.5-0.1c0.5-0.1,1-0.3,1.4-0.4c0.2-0.1,0.3-0.2,0.5-0.2c0.3-0.2,0.6-0.3,1-0.5c0.2-0.1,0.5-0.3,0.7-0.5
					c0.2-0.1,0.3-0.3,0.5-0.4c0.4-0.4,0.9-0.8,1.2-1.2c0.1-0.1,0.1-0.2,0.2-0.3c0.2-0.3,0.4-0.6,0.6-0.9c0,0,0,0,0,0c0,0,0,0,0,0
					c0.9-1.5,1.4-3.2,1.4-5C116.6,223.7,112.3,219.3,106.9,219.3z"/>
				<path class="st5" d="M146.3,219.3c-1.4,0-2.7,0.3-3.9,0.8c-0.5,0.2-0.9,0.4-1.3,0.7c-0.2,0.1-0.4,0.3-0.6,0.4
					c-0.2,0.2-0.5,0.4-0.7,0.6c-0.2,0.2-0.4,0.3-0.5,0.5c-0.3,0.3-0.5,0.6-0.7,0.9c-0.1,0.1-0.2,0.2-0.3,0.4
					c-0.3,0.4-0.5,0.9-0.8,1.4c-0.1,0.2-0.1,0.3-0.2,0.5c-0.1,0.4-0.3,0.8-0.4,1.2c0,0.2-0.1,0.3-0.1,0.5c-0.1,0.6-0.2,1.2-0.2,1.8
					c0,1.3,0.3,2.6,0.8,3.8c0.2,0.6,0.5,1.1,0.9,1.7c0.7,1,1.6,1.9,2.6,2.6c1.6,1.1,3.4,1.7,5.5,1.7c0.6,0,1.2-0.1,1.7-0.2
					c0.2,0,0.3-0.1,0.5-0.1c0.5-0.1,1-0.3,1.4-0.4c0.2-0.1,0.3-0.2,0.5-0.2c0.3-0.2,0.6-0.3,1-0.5c0.2-0.1,0.5-0.3,0.7-0.5
					c0.2-0.1,0.3-0.3,0.5-0.4c0.4-0.4,0.9-0.8,1.2-1.2c0.1-0.1,0.1-0.2,0.2-0.3c0.2-0.3,0.4-0.6,0.6-0.9c0,0,0,0,0,0c0,0,0,0,0,0
					c0.9-1.5,1.4-3.2,1.4-5C156.1,223.7,151.7,219.3,146.3,219.3z"/>
				<path class="st5" d="M194.1,234.1C194.1,234.1,194.1,234.1,194.1,234.1C194.1,234.1,194.1,234.1,194.1,234.1
					c0.9-1.5,1.4-3.2,1.4-5c0-5.4-4.4-9.8-9.8-9.8c-1.4,0-2.7,0.3-3.9,0.8c-0.5,0.2-0.9,0.4-1.3,0.7c-0.2,0.1-0.4,0.3-0.6,0.4
					c-0.2,0.2-0.5,0.4-0.7,0.6c-0.2,0.2-0.4,0.3-0.5,0.5c-0.3,0.3-0.5,0.6-0.7,0.9c-0.1,0.1-0.2,0.2-0.3,0.4
					c-0.3,0.4-0.5,0.9-0.8,1.4c-0.1,0.2-0.1,0.3-0.2,0.5c-0.1,0.4-0.3,0.8-0.4,1.2c0,0.2-0.1,0.3-0.1,0.5c-0.1,0.6-0.2,1.2-0.2,1.8
					c0,1.3,0.3,2.6,0.8,3.8c0.2,0.6,0.5,1.1,0.9,1.7c0.7,1,1.6,1.9,2.6,2.6c1.6,1.1,3.4,1.7,5.5,1.7c0.6,0,1.2-0.1,1.7-0.2
					c0.2,0,0.3-0.1,0.5-0.1c0.5-0.1,1-0.3,1.4-0.4c0.2-0.1,0.3-0.2,0.5-0.2c0.3-0.2,0.6-0.3,1-0.5c0.2-0.1,0.5-0.3,0.7-0.5
					c0.2-0.1,0.3-0.3,0.5-0.4c0.4-0.4,0.9-0.8,1.2-1.2c0.1-0.1,0.1-0.2,0.2-0.3C193.7,234.7,193.9,234.4,194.1,234.1z"/>
			</g>
			<g>
				<g>
					<circle class="st6" cx="105" cy="41.5" r="9.8"/>
					<g class="st7">
						<path class="st5" d="M99.6,37.6c0-1.8,0.5-3.5,1.4-5c-3.4,1.5-5.8,4.9-5.8,8.9c0,5.4,4.4,9.8,9.8,9.8c3.6,0,6.6-1.9,8.3-4.7
							c-1.2,0.5-2.5,0.8-3.9,0.8C104,47.3,99.6,42.9,99.6,37.6z"/>
					</g>
				</g>
				<g>
					<circle class="st6" cx="105" cy="78.6" r="9.8"/>
					<g class="st7">
						<path class="st5" d="M99.6,74.7c0-1.8,0.5-3.5,1.4-5c-3.4,1.5-5.8,4.9-5.8,8.9c0,5.4,4.4,9.8,9.8,9.8c3.6,0,6.6-1.9,8.3-4.7
							c-1.2,0.5-2.5,0.8-3.9,0.8C104,84.4,99.6,80.1,99.6,74.7z"/>
					</g>
				</g>
				<g>
					<circle class="st6" cx="105" cy="115.7" r="9.8"/>
					<g class="st7">
						<path class="st5" d="M99.6,111.8c0-1.8,0.5-3.5,1.4-5c-3.4,1.5-5.8,4.9-5.8,8.9c0,5.4,4.4,9.8,9.8,9.8c3.6,0,6.6-1.9,8.3-4.7
							c-1.2,0.5-2.5,0.8-3.9,0.8C104,121.6,99.6,117.2,99.6,111.8z"/>
					</g>
				</g>
				<g>
					<circle class="st6" cx="105" cy="152.8" r="9.8"/>
					<g class="st7">
						<path class="st5" d="M99.6,148.9c0-1.8,0.5-3.5,1.4-5c-3.4,1.5-5.8,4.9-5.8,8.9c0,5.4,4.4,9.8,9.8,9.8c3.6,0,6.6-1.9,8.3-4.7
							c-1.2,0.5-2.5,0.8-3.9,0.8C104,158.7,99.6,154.3,99.6,148.9z"/>
					</g>
				</g>
				<g>
					<circle class="st6" cx="105" cy="190" r="9.8"/>
					<g class="st7">
						<path class="st5" d="M99.6,186.1c0-1.8,0.5-3.5,1.4-5c-3.4,1.5-5.8,4.9-5.8,8.9c0,5.4,4.4,9.8,9.8,9.8c3.6,0,6.6-1.9,8.3-4.7
							c-1.2,0.5-2.5,0.8-3.9,0.8C104,195.8,99.6,191.4,99.6,186.1z"/>
					</g>
				</g>
				<g>
					<circle class="st6" cx="105" cy="227.1" r="9.8"/>
					<g class="st7">
						<path class="st5" d="M99.6,223.2c0-1.8,0.5-3.5,1.4-5c-3.4,1.5-5.8,4.9-5.8,8.9c0,5.4,4.4,9.8,9.8,9.8c3.6,0,6.6-1.9,8.3-4.7
							c-1.2,0.5-2.5,0.8-3.9,0.8C104,232.9,99.6,228.6,99.6,223.2z"/>
					</g>
				</g>
				<g>
					<circle class="st6" cx="144.4" cy="227.1" r="9.8"/>
					<g class="st7">
						<path class="st5" d="M139,223.2c0-1.8,0.5-3.5,1.4-5c-3.4,1.5-5.8,4.9-5.8,8.9c0,5.4,4.4,9.8,9.8,9.8c3.6,0,6.6-1.9,8.3-4.7
							c-1.2,0.5-2.5,0.8-3.9,0.8C143.4,232.9,139,228.6,139,223.2z"/>
					</g>
				</g>
				<g>
					<circle class="st6" cx="183.9" cy="227.1" r="9.8"/>
					<g class="st7">
						<path class="st5" d="M178.5,223.2c0-1.8,0.5-3.5,1.4-5c-3.4,1.5-5.8,4.9-5.8,8.9c0,5.4,4.4,9.8,9.8,9.8c3.6,0,6.6-1.9,8.3-4.7
							c-1.2,0.5-2.5,0.8-3.9,0.8C182.9,232.9,178.5,228.6,178.5,223.2z"/>
					</g>
				</g>
			</g>
		</g>
	</g>
</g>
</svg>
