<?xml version="1.0" encoding="utf-8"?>
<!-- Generator: Adobe Illustrator 24.1.2, SVG Export Plug-In . SVG Version: 6.00 Build 0)  -->
<svg version="1.1" id="Calque_1" xmlns="http://www.w3.org/2000/svg" xmlns:xlink="http://www.w3.org/1999/xlink" x="0px" y="0px"
	 viewBox="0 0 300 300" style="enable-background:new 0 0 300 300;" xml:space="preserve">
<style type="text/css">
	.st0{fill:#C2D9AB;}
	.st1{fill:#AB7017;}
	.st2{fill:#D79728;}
	.st3{fill:#8D6017;}
	.st4{opacity:0.2;}
	.st5{fill:#252422;}
	.st6{fill:#EABFD0;}
</style>
<g>
	<path class="st0" d="M44.8,55c-0.1,0.9-0.2,1.9-0.2,2.9v211.7c0,15.8,12.9,28.7,28.6,28.7h25c15.8,0,28.6-12.9,28.6-28.7l-0.1-58.3
		l10.2,13.6c4.1,5.4,10.3,8.8,17.1,9.2c6.7,0.4,13.3-2.2,18-7.2l16.6-17.8v60.5c0,15.8,12.9,28.7,28.6,28.7h25
		c15.8,0,28.6-12.9,28.6-28.7V45.7c-2.1-30-18.4-30.7-29.9-30.7c-6.4,0-12.5,3-16.4,8.1l-71.3,92.4L82,23C78.1,18,72,15,65.6,15
		c-11.5,0-20.8,9.3-20.8,20.8V55z"/>
	<g>
		<path class="st1" d="M32,258.6c0,15.8,12.9,28.7,28.6,28.7h25c15.8,0,28.6-12.9,28.6-28.7l-0.1-58.3l10.2,13.6
			c4.1,5.4,10.3,8.8,17.1,9.2c6.7,0.4,13.3-2.2,18-7.2l16.6-17.8v60.5c0,15.8,12.9,28.7,28.6,28.7h25c15.8,0,28.6-12.9,28.6-28.7
			V30.5c0-14-11.2-26-27.2-26.3c-7.8-0.2-13.5,6-18.3,12.1l-74.7,94.1L91.3,55.3C76.6,37.9,66.6,39.8,55.6,39.8
			c-14,0-23.6-21.9-23.6-7.9V258.6z"/>
		<path class="st2" d="M56.2,260.5h25c13.2,0,24-10.8,24-24l-0.1-72.3l18.6,24.9c3.2,4.3,8.2,7,13.6,7.3c5.4,0.3,10.6-1.8,14.3-5.8
			l24.3-26l0.3-0.6v72.5c0,13.2,10.8,24,24,24h25c13.2,0,24-10.8,24-24V24.8c0-11.5-9.3-20.8-20.8-20.8c-6.4,0-12.5,3-16.4,8.1
			l-71.3,92.4L69.4,12.1C65.5,7,59.3,4,52.9,4c-11.5,0-20.8,9.3-20.8,20.8v211.7C32.2,249.7,42.9,260.5,56.2,260.5z"/>
	</g>
	<g>
		<g>
			<path class="st3" d="M217.9,256.6c-11.1,0-20.1-9-20.1-20.1V116.3l-42.4,52.1c-3.8,4.7-9.5,7.4-15.5,7.4c0,0-0.1,0-0.1,0
				c-6,0-11.6-2.7-15.5-7.3l-39.6-47.8v111c0,11.1-9,20.1-20.1,20.1c-11.1,0-20.1-9-20.1-20.1V65.1c0-8.5,5.3-16,13.3-18.9
				c8-2.9,16.9-0.4,22.3,6.1l59.6,71.8l62.6-77c5.4-6.6,14.3-9.1,22.3-6.2c8,2.8,13.4,10.4,13.4,18.9v176.7
				C238,247.6,229,256.6,217.9,256.6z"/>
		</g>
		<g>
			<g class="st4">
				<path class="st5" d="M65.5,56.4c1.1-1,2.7-1.5,4.3-1.1c2.5,0.6,4,3.2,3.3,5.6l-4,15.7c-0.6,2.5-3.2,4-5.6,3.3
					c-2.5-0.6-4-3.2-3.3-5.6l4-15.7C64.3,57.8,64.8,57,65.5,56.4z"/>
			</g>
			<g class="st4">
				<path class="st5" d="M98.5,86.2c1.5,0.1,3,0.9,3.8,2.2c1.3,2.2,0.6,5-1.6,6.4l-13.9,8.3c-2.2,1.3-5,0.6-6.4-1.6
					c-1.3-2.2-0.6-5,1.6-6.4l13.9-8.3C96.7,86.4,97.6,86.2,98.5,86.2z"/>
			</g>
			<g class="st4">
				<path class="st5" d="M77.6,126.8c0.2,1.5-0.4,3.1-1.6,4.1c-2,1.6-4.9,1.4-6.5-0.6L59,117.9c-1.6-2-1.4-4.9,0.6-6.5
					c2-1.6,4.9-1.4,6.5,0.6l10.3,12.4C77.1,125.1,77.5,125.9,77.6,126.8z"/>
			</g>
			<g class="st4">
				<path class="st5" d="M70.5,219.4c-1,1.1-2.5,1.7-4.2,1.5c-2.5-0.4-4.3-2.8-3.9-5.3l2.5-16c0.4-2.5,2.8-4.3,5.3-3.9
					c2.5,0.4,4.3,2.8,3.9,5.3l-2.5,16C71.5,217.9,71.1,218.7,70.5,219.4z"/>
			</g>
			<g class="st4">
				<path class="st5" d="M119.8,129.5c-0.1,1.5-1,2.9-2.4,3.7c-2.3,1.2-5.1,0.4-6.3-1.9l-7.7-14.2c-1.2-2.3-0.4-5.1,1.9-6.3
					c2.3-1.2,5.1-0.4,6.3,1.9l7.7,14.2C119.7,127.7,119.9,128.6,119.8,129.5z"/>
			</g>
			<g class="st4">
				<path class="st5" d="M76.7,244.9c0.2,1.5-0.2,3.1-1.4,4.2c-1.9,1.7-4.8,1.6-6.5-0.3l-10.9-11.9c-1.7-1.9-1.6-4.8,0.3-6.5
					c1.9-1.7,4.8-1.6,6.5,0.3l10.9,11.9C76.1,243.2,76.5,244,76.7,244.9z"/>
			</g>
			<g class="st4">
				<path class="st5" d="M208.6,74.9c-1.4,0.5-3.1,0.4-4.4-0.6c-2.1-1.5-2.5-4.4-1-6.5l9.6-13c1.5-2.1,4.4-2.5,6.5-1
					c2.1,1.5,2.5,4.4,1,6.5l-9.6,13C210.1,74.1,209.4,74.6,208.6,74.9z"/>
			</g>
			<g class="st4">
				<path class="st5" d="M71,159.2c1.5,0.1,2.9,1,3.7,2.5c1.2,2.3,0.3,5.1-2,6.3l-14.3,7.5c-2.3,1.2-5.1,0.3-6.3-2
					c-1.2-2.3-0.3-5.1,2-6.3l14.3-7.5C69.3,159.2,70.2,159.1,71,159.2z"/>
			</g>
			<g class="st4">
				<path class="st5" d="M150,142.7c1.5,0.1,2.9,1,3.7,2.5c1.2,2.3,0.3,5.1-2,6.3l-14.3,7.5c-2.3,1.2-5.1,0.3-6.3-2
					c-1.2-2.3-0.3-5.1,2-6.3l14.3-7.5C148.3,142.8,149.2,142.6,150,142.7z"/>
			</g>
			<g>
				<path class="st6" d="M63.1,54.6c1.1-1,2.7-1.5,4.3-1.1c2.5,0.6,4,3.2,3.3,5.6l-4,15.7c-0.6,2.5-3.2,4-5.6,3.3
					c-2.5-0.6-4-3.2-3.3-5.6l4-15.7C62,56,62.5,55.2,63.1,54.6z"/>
			</g>
			<g>
				<path class="st6" d="M96.1,84.4c1.5,0.1,3,0.9,3.8,2.2c1.3,2.2,0.6,5-1.6,6.4l-13.9,8.3c-2.2,1.3-5,0.6-6.4-1.6
					c-1.3-2.2-0.6-5,1.6-6.4l13.9-8.3C94.3,84.6,95.2,84.4,96.1,84.4z"/>
			</g>
			<g>
				<path class="st6" d="M75.2,125c0.2,1.5-0.4,3.1-1.6,4.1c-2,1.6-4.9,1.4-6.5-0.6l-10.3-12.4c-1.6-2-1.4-4.9,0.6-6.5
					c2-1.6,4.9-1.4,6.5,0.6l10.3,12.4C74.8,123.2,75.1,124.1,75.2,125z"/>
			</g>
			<g class="st4">
				<path class="st5" d="M179.5,131.8c0.2,1.5-0.4,3.1-1.6,4.1c-2,1.6-4.9,1.4-6.5-0.6L161,122.9c-1.6-2-1.4-4.9,0.6-6.5
					c2-1.6,4.9-1.4,6.5,0.6l10.3,12.4C179.1,130.1,179.4,130.9,179.5,131.8z"/>
			</g>
			<g>
				<path class="st6" d="M177.2,130c0.2,1.5-0.4,3.1-1.6,4.1c-2,1.6-4.9,1.4-6.5-0.6l-10.3-12.4c-1.6-2-1.4-4.9,0.6-6.5
					c2-1.6,4.9-1.4,6.5,0.6l10.3,12.4C176.7,128.3,177.1,129.1,177.2,130z"/>
			</g>
			<g>
				<path class="st6" d="M68.2,217.6c-1,1.1-2.5,1.7-4.2,1.5c-2.5-0.4-4.3-2.8-3.9-5.3l2.5-16c0.4-2.5,2.8-4.3,5.3-3.9
					c2.5,0.4,4.3,2.8,3.9,5.3l-2.5,16C69.2,216.1,68.8,216.9,68.2,217.6z"/>
			</g>
			<g class="st4">
				<path class="st5" d="M190,115.8c-1,1.1-2.5,1.7-4.2,1.5c-2.5-0.4-4.3-2.8-3.9-5.3l2.5-16c0.4-2.5,2.8-4.3,5.3-3.9
					c2.5,0.4,4.3,2.8,3.9,5.3l-2.5,16C191,114.3,190.6,115.1,190,115.8z"/>
			</g>
			<g>
				<path class="st6" d="M187.6,114c-1,1.1-2.5,1.7-4.2,1.5c-2.5-0.4-4.3-2.8-3.9-5.3l2.5-16c0.4-2.5,2.8-4.3,5.3-3.9
					c2.5,0.4,4.3,2.8,3.9,5.3l-2.5,16C188.6,112.5,188.2,113.3,187.6,114z"/>
			</g>
			<g class="st4">
				<path class="st5" d="M223.1,244.6c-1,1.1-2.5,1.7-4.2,1.5c-2.5-0.4-4.3-2.8-3.9-5.3l2.5-16c0.4-2.5,2.8-4.3,5.3-3.9
					c2.5,0.4,4.3,2.8,3.9,5.3l-2.5,16C224.1,243.2,223.7,244,223.1,244.6z"/>
			</g>
			<g>
				<path class="st6" d="M220.8,242.8c-1,1.1-2.5,1.7-4.2,1.5c-2.5-0.4-4.3-2.8-3.9-5.3l2.5-16c0.4-2.5,2.8-4.3,5.3-3.9
					c2.5,0.4,4.3,2.8,3.9,5.3l-2.5,16C221.8,241.3,221.4,242.2,220.8,242.8z"/>
			</g>
			<g>
				<path class="st6" d="M117.5,127.7c-0.1,1.5-1,2.9-2.4,3.7c-2.3,1.2-5.1,0.4-6.3-1.9l-7.7-14.2c-1.2-2.3-0.4-5.1,1.9-6.3
					c2.3-1.2,5.1-0.4,6.3,1.9l7.7,14.2C117.4,125.9,117.5,126.8,117.5,127.7z"/>
			</g>
			<g class="st4">
				<path class="st5" d="M231.6,84.4c1.5,0.1,3,0.9,3.8,2.2c1.3,2.2,0.6,5-1.6,6.4l-13.9,8.3c-2.2,1.3-5,0.6-6.4-1.6
					c-1.3-2.2-0.6-5,1.6-6.4L229,85C229.8,84.6,230.7,84.4,231.6,84.4z"/>
			</g>
			<g class="st4">
				<path class="st5" d="M230.8,154.2c-0.1,1.5-1,2.9-2.4,3.7c-2.3,1.2-5.1,0.4-6.3-1.9l-7.7-14.2c-1.2-2.3-0.4-5.1,1.9-6.3
					c2.3-1.2,5.1-0.4,6.3,1.9l7.7,14.2C230.7,152.4,230.8,153.3,230.8,154.2z"/>
			</g>
			<g>
				<path class="st6" d="M229.2,82.6c1.5,0.1,3,0.9,3.8,2.2c1.3,2.2,0.6,5-1.6,6.4l-13.9,8.3c-2.2,1.3-5,0.6-6.4-1.6
					c-1.3-2.2-0.6-5,1.6-6.4l13.9-8.3C227.4,82.8,228.3,82.6,229.2,82.6z"/>
			</g>
			<g>
				<path class="st6" d="M228.4,152.4c-0.1,1.5-1,2.9-2.4,3.7c-2.3,1.2-5.1,0.4-6.3-1.9L212,140c-1.2-2.3-0.4-5.1,1.9-6.3
					c2.3-1.2,5.1-0.4,6.3,1.9l7.7,14.2C228.3,150.6,228.5,151.5,228.4,152.4z"/>
			</g>
			<g>
				<path class="st6" d="M74.3,243.1c0.2,1.5-0.2,3.1-1.4,4.2c-1.9,1.7-4.8,1.6-6.5-0.3l-10.9-11.9c-1.7-1.9-1.6-4.8,0.3-6.5
					c1.9-1.7,4.8-1.6,6.5,0.3l10.9,11.9C73.8,241.4,74.2,242.2,74.3,243.1z"/>
			</g>
			<g>
				<path class="st6" d="M206.2,73.1c-1.4,0.5-3.1,0.4-4.4-0.6c-2.1-1.5-2.5-4.4-1-6.5l9.6-13c1.5-2.1,4.4-2.5,6.5-1
					c2.1,1.5,2.5,4.4,1,6.5l-9.6,13C207.8,72.3,207,72.8,206.2,73.1z"/>
			</g>
			<g>
				<path class="st6" d="M68.7,157.4c1.5,0.1,2.9,1,3.7,2.5c1.2,2.3,0.3,5.1-2,6.3l-14.3,7.5c-2.3,1.2-5.1,0.3-6.3-2
					c-1.2-2.3-0.3-5.1,2-6.3l14.3-7.5C66.9,157.4,67.8,157.3,68.7,157.4z"/>
			</g>
			<g>
				<path class="st6" d="M147.7,140.9c1.5,0.1,2.9,1,3.7,2.5c1.2,2.3,0.3,5.1-2,6.3l-14.3,7.5c-2.3,1.2-5.1,0.3-6.3-2
					c-1.2-2.3-0.3-5.1,2-6.3l14.3-7.5C145.9,141,146.8,140.8,147.7,140.9z"/>
			</g>
			<g class="st4">
				<path class="st5" d="M227.3,177.7c1.5,0.1,2.9,1,3.7,2.5c1.2,2.3,0.3,5.1-2,6.3l-14.3,7.5c-2.3,1.2-5.1,0.3-6.3-2
					c-1.2-2.3-0.3-5.1,2-6.3l14.3-7.5C225.6,177.8,226.5,177.6,227.3,177.7z"/>
			</g>
			<g>
				<path class="st6" d="M225,175.9c1.5,0.1,2.9,1,3.7,2.5c1.2,2.3,0.3,5.1-2,6.3l-14.3,7.5c-2.3,1.2-5.1,0.3-6.3-2
					c-1.2-2.3-0.3-5.1,2-6.3l14.3-7.5C223.2,176,224.1,175.8,225,175.9z"/>
			</g>
		</g>
	</g>
</g>
</svg>
