<?xml version="1.0" encoding="utf-8"?>
<!-- Generator: Adobe Illustrator 24.1.2, SVG Export Plug-In . SVG Version: 6.00 Build 0)  -->
<svg version="1.1" id="Calque_1" xmlns="http://www.w3.org/2000/svg" xmlns:xlink="http://www.w3.org/1999/xlink" x="0px" y="0px"
	 viewBox="0 0 300 300" style="enable-background:new 0 0 300 300;" xml:space="preserve">
<style type="text/css">
	.st0{fill:#C2D9AB;}
	.st1{fill:#AB7017;}
	.st2{fill:#D79728;}
	.st3{fill:#FCFBFA;}
	.st4{opacity:0.13;}
	.st5{fill:#252422;}
	.st6{fill:#EABFD0;}
</style>
<g>
	<path class="st0" d="M261.2,215.9c14.8-42.6,6-112.9-24.2-159.7c-18.5-28.6-48.9-42.5-84.2-42.5c-66.3,0-110.9,51.8-110.9,128.9
		c0,3.3,0.1,6.4,0.2,9.6c-0.2,4-0.4,8.1-0.4,12.2c0,81.8,42.3,133,110.5,133.5l1.1,0c77.8,0,102.1-62.4,107.7-81.5L261.2,215.9z
		 M152.8,200.4c-11.6,0-21.3-5.6-28.2-15.5c-1.4-6.2-2.2-13-2.2-20.5c0-31.6,14-52.8,34.8-52.8c17.8,0,30.4,16.9,32.9,43
		C187,182.5,172.8,200.4,152.8,200.4z"/>
	<g>
		<path class="st1" d="M248.7,205.1c16.7-48.1,10.5-112.5-24.2-159.7c-21.1-28.7-42.9-25.2-79.8-25.2
			c-69.1,0-115.3,28.6-115.3,108.4c0,0.8-0.2,26.6-0.2,27.4c0.8,80.5,43,130.6,110.5,131.1l1.1,0c77.8,0,102.1-62.4,107.7-81.5
			L248.7,205.1z M178.2,153.7c0,31.8-13.4,53.2-33.4,53.2c-20.8,0-34.8-21.4-34.8-53.2c0-31.6,14-52.8,34.8-52.8
			C164.7,100.9,178.2,122.1,178.2,153.7z"/>
		<path class="st2" d="M240,181.9c16.3-46.8,10.2-100.4-15.4-136.5C204.8,17.7,175.7,3,140.3,3C74,3,29.4,54.8,29.4,131.9
			c0,79,40.6,128.4,105.9,128.9c0.4,0,0.7,0,1.1,0c74.6,0,98-59.8,103.4-78.2L240,181.9z M140.3,189.6c-23.5,0-39.4-23.2-39.4-57.7
			c0-34.3,15.8-57.4,39.4-57.4c22.7,0,38,23.1,38,57.4C178.3,166.4,163.1,189.6,140.3,189.6z"/>
	</g>
	<g>
		<path class="st3" d="M217.9,56.3c-18.1-25.4-45.7-39.4-77.9-39.4c-59.6,0-101.3,47.3-101.3,115c0,69.4,38.2,114.6,97.3,115
			c0,0,0,0,0,0l1,0c54.4,0,84.7-37,94.9-71.6c0,0,0,0,0,0l0-0.2C246,134.6,240.5,88,217.9,56.3z M137.4,202.5l-0.5,0c0,0,0,0,0,0
			c0,0,0,0,0,0c-34.8-0.3-55.6-26.7-55.6-70.6c0-42.9,23-70.6,58.7-70.6c18.7,0,33.5,7.4,43.8,21.9c14.3,20.1,17.6,50.3,8.3,76.9
			c-0.1,0.2-0.1,0.4-0.2,0.6l-0.1,0.4c0,0,0,0,0,0c0,0,0,0,0,0C188.1,173.7,175.5,202.5,137.4,202.5z"/>
		<g class="st4">
			<g>
				<path class="st5" d="M199.6,224.8c1.9,2.7,1.2,6.4-1.4,8.3c-2.7,2-6.5,1.4-8.5-1.3l-21.5-29.5c-2-2.8-1.4-6.5,1.3-8.5
					c2.7-2,6.5-1.4,8.5,1.3l21.5,29.5C199.5,224.7,199.6,224.8,199.6,224.8z"/>
			</g>
			<g>
				<path class="st5" d="M174.4,237.8c1.2,3-0.2,6.5-3.2,7.8c-3.1,1.3-6.7-0.1-8-3.1l-14.6-33.4c-1.4-3.2,0.1-6.7,3.1-8
					c3.1-1.3,6.7,0.1,8,3.1l14.6,33.4C174.3,237.7,174.3,237.8,174.4,237.8z"/>
			</g>
			<g>
				<path class="st5" d="M139.1,245.8c-0.1,3.3-2.8,5.9-6.1,5.9c-3.4,0-6.1-2.8-6-6.1l0.2-36.5c0-3.4,2.8-6.1,6.1-6
					c3.4,0,6.1,2.8,6,6.1l-0.2,36.5C139.1,245.7,139.1,245.8,139.1,245.8z"/>
			</g>
			<g>
				<path class="st5" d="M105.4,240.1c-1.3,3-4.7,4.5-7.8,3.3c-3.1-1.2-4.7-4.8-3.4-7.9l13.3-34c1.3-3.2,4.8-4.7,7.9-3.4
					c3.1,1.2,4.7,4.8,3.4,7.9l-13.3,34C105.4,240,105.4,240.1,105.4,240.1z"/>
			</g>
			<g>
				<path class="st5" d="M78.5,221.7c-2,2.6-5.7,3.2-8.4,1.4c-2.8-1.9-3.4-5.7-1.5-8.5l20.9-29.9c2-2.8,5.7-3.4,8.5-1.5
					c2.8,1.9,3.4,5.7,1.5,8.5l-20.9,29.9C78.5,221.6,78.5,221.6,78.5,221.7z"/>
			</g>
			<g>
				<path class="st5" d="M59.5,195c-2.5,2.1-6.3,1.8-8.5-0.6c-2.2-2.5-2-6.4,0.5-8.6l27.3-24.3c2.6-2.3,6.4-2,8.6,0.5
					c2.2,2.5,2,6.4-0.5,8.6l-27.3,24.3C59.6,194.9,59.5,194.9,59.5,195z"/>
			</g>
			<g>
				<path class="st5" d="M45,160.9c-3.2,0.6-6.3-1.5-7-4.8c-0.7-3.3,1.4-6.5,4.7-7.2l35.7-7.4c3.4-0.7,6.5,1.4,7.2,4.7
					c0.7,3.3-1.4,6.5-4.7,7.2l-35.7,7.4C45.2,160.8,45.1,160.9,45,160.9z"/>
			</g>
			<g>
				<path class="st5" d="M43.1,128.6c-3.3-0.3-5.7-3.2-5.5-6.5c0.2-3.4,3.1-5.9,6.5-5.7l36.4,2.5c3.4,0.3,5.9,3.1,5.7,6.5
					c-0.2,3.4-3.1,5.9-6.5,5.7l-36.4-2.5C43.2,128.6,43.1,128.6,43.1,128.6z"/>
			</g>
			<g>
				<path class="st5" d="M47.2,99.6c-3.1-0.9-5-4.2-4.2-7.4c0.8-3.3,4.2-5.2,7.4-4.4l35.3,9.2c3.3,0.9,5.2,4.2,4.4,7.4
					c-0.8,3.3-4.2,5.2-7.4,4.4l-35.3-9.2C47.3,99.7,47.2,99.7,47.2,99.6z"/>
			</g>
			<g>
				<path class="st5" d="M58.2,68.6c-2.8-1.7-3.7-5.4-2.1-8.2c1.7-2.9,5.4-3.9,8.3-2.2L96,76.3c3,1.7,3.9,5.4,2.2,8.3
					c-1.7,2.9-5.4,3.9-8.3,2.2L58.3,68.7C58.3,68.6,58.2,68.6,58.2,68.6z"/>
			</g>
			<g>
				<path class="st5" d="M78.6,44.9c-2.1-2.5-1.8-6.3,0.7-8.4c2.5-2.2,6.4-1.9,8.6,0.6l23.9,27.6c2.2,2.6,1.9,6.4-0.6,8.6
					c-2.5,2.2-6.4,1.9-8.6-0.6L78.7,45C78.6,45,78.6,44.9,78.6,44.9z"/>
			</g>
			<g>
				<path class="st5" d="M104,29.7c-1.3-3,0.1-6.5,3.1-7.9c3.1-1.4,6.7,0,8.1,3l15.1,33.2c1.4,3.1,0,6.7-3,8.1c-3.1,1.4-6.7,0-8.1-3
					l-15.1-33.2C104.1,29.8,104,29.8,104,29.7z"/>
			</g>
			<g>
				<path class="st5" d="M137.4,22.4c0-3.3,2.7-6,6-6c3.4-0.1,6.1,2.6,6.2,6l0.7,36.5c0,3.4-2.6,6.1-6,6.2c-3.4,0.1-6.1-2.6-6.2-6
					l-0.7-36.5C137.4,22.5,137.4,22.4,137.4,22.4z"/>
			</g>
			<g>
				<path class="st5" d="M172,27.6c1.2-3,4.7-4.5,7.8-3.4c3.1,1.2,4.7,4.7,3.5,7.8l-12.9,34.1c-1.2,3.2-4.7,4.7-7.8,3.5
					c-3.1-1.2-4.7-4.7-3.5-7.8l12.9-34.1C172,27.8,172,27.7,172,27.6z"/>
			</g>
			<g>
				<path class="st5" d="M198.6,42.7c2.1-2.5,5.8-2.9,8.4-0.9c2.6,2.1,3.1,5.9,1,8.5L185.5,79c-2.1,2.7-5.9,3.1-8.5,1
					c-2.6-2.1-3.1-5.9-1-8.5l22.6-28.7C198.5,42.8,198.5,42.7,198.6,42.7z"/>
			</g>
			<g>
				<path class="st5" d="M222,67.5c3-1.4,6.5-0.2,8,2.7c1.5,3,0.3,6.7-2.7,8.2L194.8,95c-3.1,1.5-6.7,0.3-8.2-2.7
					c-1.5-3-0.3-6.7,2.7-8.2l32.5-16.6C221.9,67.6,221.9,67.6,222,67.5z"/>
			</g>
			<g>
				<path class="st5" d="M233.4,95.2c3.2-0.6,6.4,1.5,7.1,4.7c0.7,3.3-1.4,6.5-4.6,7.2l-35.6,7.8c-3.4,0.7-6.5-1.4-7.2-4.6
					c-0.7-3.3,1.4-6.5,4.6-7.2l35.6-7.8C233.3,95.2,233.3,95.2,233.4,95.2z"/>
			</g>
			<g>
				<path class="st5" d="M238.9,123.3c3.3,0.2,5.8,3,5.7,6.3c-0.1,3.4-3,6-6.3,5.8l-36.5-1.4c-3.4-0.2-6-3-5.8-6.3
					c0.1-3.4,3-6,6.3-5.8l36.5,1.4C238.8,123.3,238.9,123.3,238.9,123.3z"/>
			</g>
			<g>
				<path class="st5" d="M236.3,150.4c3.2,0.7,5.3,3.8,4.7,7c-0.6,3.3-3.7,5.5-7.1,4.9l-35.9-6.4c-3.4-0.6-5.5-3.7-4.9-7.1
					c0.6-3.3,3.7-5.5,7.1-4.9l35.9,6.4C236.2,150.4,236.2,150.4,236.3,150.4z"/>
			</g>
			<g>
				<path class="st5" d="M230.4,178.5c3,1.3,4.5,4.7,3.3,7.8c-1.2,3.1-4.7,4.7-7.9,3.5l-34.1-13.1c-3.2-1.2-4.7-4.7-3.5-7.9
					c1.2-3.1,4.7-4.7,7.9-3.5l34.1,13.1C230.3,178.4,230.3,178.4,230.4,178.5z"/>
			</g>
			<g>
				<path class="st5" d="M219.2,203.4c2.6,2,3.2,5.7,1.3,8.4c-1.9,2.7-5.7,3.4-8.5,1.4l-29.8-21.1c-2.8-2-3.4-5.7-1.4-8.5
					c1.9-2.7,5.7-3.4,8.5-1.4l29.8,21.1C219.1,203.3,219.2,203.3,219.2,203.4z"/>
			</g>
		</g>
	</g>
	<g>
		<g>
			<path class="st6" d="M198.5,222.8c1.9,2.7,1.2,6.4-1.4,8.3c-2.7,2-6.5,1.4-8.5-1.3l-21.5-29.5c-2-2.8-1.4-6.5,1.3-8.5
				c2.7-2,6.5-1.4,8.5,1.3l21.5,29.5C198.4,222.7,198.4,222.7,198.5,222.8z"/>
		</g>
		<g>
			<path class="st6" d="M173.3,235.8c1.2,3-0.2,6.5-3.2,7.8c-3.1,1.3-6.7-0.1-8-3.1L147.4,207c-1.4-3.2,0.1-6.7,3.1-8
				c3.1-1.3,6.7,0.1,8,3.1l14.6,33.4C173.2,235.7,173.2,235.7,173.3,235.8z"/>
		</g>
		<g>
			<path class="st6" d="M137.9,243.8c-0.1,3.3-2.8,5.9-6.1,5.9c-3.4,0-6.1-2.8-6-6.1L126,207c0-3.4,2.8-6.1,6.1-6
				c3.4,0,6.1,2.8,6,6.1l-0.2,36.5C138,243.7,138,243.7,137.9,243.8z"/>
		</g>
		<g>
			<path class="st6" d="M104.3,238.1c-1.3,3-4.7,4.5-7.8,3.3c-3.1-1.2-4.7-4.8-3.4-7.9l13.3-34c1.3-3.2,4.8-4.7,7.9-3.4
				c3.1,1.2,4.7,4.8,3.4,7.9l-13.3,34C104.3,237.9,104.3,238,104.3,238.1z"/>
		</g>
		<g>
			<path class="st6" d="M77.3,219.6c-2,2.6-5.7,3.2-8.4,1.4c-2.8-1.9-3.4-5.7-1.5-8.5l20.9-29.9c2-2.8,5.7-3.4,8.5-1.5
				c2.8,1.9,3.4,5.7,1.5,8.5l-20.9,29.9C77.4,219.5,77.4,219.5,77.3,219.6z"/>
		</g>
		<g>
			<path class="st6" d="M58.4,192.9c-2.5,2.1-6.3,1.8-8.5-0.6c-2.2-2.5-2-6.4,0.5-8.6l27.3-24.3c2.6-2.3,6.4-2,8.6,0.5
				c2.2,2.5,2,6.4-0.5,8.6l-27.3,24.3C58.5,192.8,58.4,192.9,58.4,192.9z"/>
		</g>
		<g>
			<path class="st6" d="M43.9,158.8c-3.2,0.6-6.3-1.5-7-4.8c-0.7-3.3,1.4-6.5,4.7-7.2l35.7-7.4c3.4-0.7,6.5,1.4,7.2,4.7
				c0.7,3.3-1.4,6.5-4.7,7.2l-35.7,7.4C44,158.8,44,158.8,43.9,158.8z"/>
		</g>
		<g>
			<path class="st6" d="M41.9,126.5c-3.3-0.3-5.7-3.2-5.5-6.5c0.2-3.4,3.1-5.9,6.5-5.7l36.4,2.5c3.4,0.3,5.9,3.1,5.7,6.5
				c-0.2,3.4-3.1,5.9-6.5,5.7l-36.4-2.5C42.1,126.6,42,126.6,41.9,126.5z"/>
		</g>
		<g>
			<path class="st6" d="M46.1,97.6c-3.1-0.9-5-4.2-4.2-7.4c0.8-3.3,4.2-5.2,7.4-4.4L84.6,95c3.3,0.9,5.2,4.2,4.4,7.4
				c-0.8,3.3-4.2,5.2-7.4,4.4l-35.3-9.2C46.2,97.6,46.1,97.6,46.1,97.6z"/>
		</g>
		<g>
			<path class="st6" d="M57.1,66.5c-2.8-1.7-3.7-5.4-2.1-8.2c1.7-2.9,5.4-3.9,8.3-2.2l31.6,18.2c3,1.7,3.9,5.4,2.2,8.3
				c-1.7,2.9-5.4,3.9-8.3,2.2L57.2,66.6C57.2,66.6,57.1,66.6,57.1,66.5z"/>
		</g>
		<g>
			<path class="st6" d="M77.5,42.8c-2.1-2.5-1.8-6.3,0.7-8.4c2.5-2.2,6.4-1.9,8.6,0.6l23.9,27.6c2.2,2.6,1.9,6.4-0.6,8.6
				c-2.5,2.2-6.4,1.9-8.6-0.6L77.6,43C77.5,42.9,77.5,42.9,77.5,42.8z"/>
		</g>
		<g>
			<path class="st6" d="M102.9,27.7c-1.3-3,0.1-6.5,3.1-7.9c3.1-1.4,6.7,0,8.1,3L129.1,56c1.4,3.1,0,6.7-3,8.1c-3.1,1.4-6.7,0-8.1-3
				L103,27.8C102.9,27.8,102.9,27.7,102.9,27.7z"/>
		</g>
		<g>
			<path class="st6" d="M136.3,20.3c0-3.3,2.7-6,6-6c3.4-0.1,6.1,2.6,6.2,6l0.7,36.5c0,3.4-2.6,6.1-6,6.2c-3.4,0.1-6.1-2.6-6.2-6
				l-0.7-36.5C136.3,20.4,136.3,20.4,136.3,20.3z"/>
		</g>
		<g>
			<path class="st6" d="M170.9,25.6c1.2-3,4.7-4.5,7.8-3.4c3.1,1.2,4.7,4.7,3.5,7.8l-12.9,34.1c-1.2,3.2-4.7,4.7-7.8,3.5
				c-3.1-1.2-4.7-4.7-3.5-7.8l12.9-34.1C170.8,25.7,170.9,25.6,170.9,25.6z"/>
		</g>
		<g>
			<path class="st6" d="M197.5,40.6c2.1-2.5,5.8-2.9,8.4-0.9c2.6,2.1,3.1,5.9,1,8.5l-22.6,28.7c-2.1,2.7-5.9,3.1-8.5,1
				c-2.6-2.1-3.1-5.9-1-8.5l22.6-28.7C197.4,40.7,197.4,40.6,197.5,40.6z"/>
		</g>
		<g>
			<path class="st6" d="M220.8,65.5c3-1.4,6.5-0.2,8,2.7c1.5,3,0.3,6.7-2.7,8.2L193.7,93c-3.1,1.5-6.7,0.3-8.2-2.7
				c-1.5-3-0.3-6.7,2.7-8.2l32.5-16.6C220.7,65.5,220.8,65.5,220.8,65.5z"/>
		</g>
		<g>
			<path class="st6" d="M232.3,93.1c3.2-0.6,6.4,1.4,7.1,4.7c0.7,3.3-1.4,6.5-4.6,7.2l-35.6,7.8c-3.4,0.7-6.5-1.4-7.2-4.6
				c-0.7-3.3,1.4-6.5,4.6-7.2l35.6-7.8C232.1,93.2,232.2,93.2,232.3,93.1z"/>
		</g>
		<g>
			<path class="st6" d="M237.8,121.3c3.3,0.2,5.8,3,5.7,6.3c-0.1,3.4-3,6-6.3,5.8l-36.5-1.4c-3.4-0.2-6-3-5.8-6.3
				c0.1-3.4,3-6,6.3-5.8l36.5,1.4C237.7,121.3,237.8,121.3,237.8,121.3z"/>
		</g>
		<g>
			<path class="st6" d="M235.2,148.3c3.2,0.7,5.3,3.8,4.7,7c-0.6,3.3-3.7,5.5-7.1,4.9l-35.9-6.4c-3.4-0.6-5.5-3.7-4.9-7.1
				c0.6-3.3,3.7-5.5,7.1-4.9l35.9,6.4C235.1,148.3,235.1,148.3,235.2,148.3z"/>
		</g>
		<g>
			<path class="st6" d="M229.3,176.4c3,1.3,4.5,4.7,3.3,7.8c-1.2,3.1-4.7,4.7-7.9,3.5l-34.1-13.1c-3.2-1.2-4.7-4.7-3.5-7.9
				c1.2-3.1,4.7-4.7,7.9-3.5l34.1,13.1C229.2,176.4,229.2,176.4,229.3,176.4z"/>
		</g>
		<g>
			<path class="st6" d="M218.1,201.3c2.6,2,3.2,5.7,1.3,8.4c-1.9,2.7-5.7,3.4-8.5,1.4L181.1,190c-2.8-2-3.4-5.7-1.4-8.5
				c1.9-2.7,5.7-3.4,8.5-1.4l29.8,21.1C218,201.2,218,201.3,218.1,201.3z"/>
		</g>
	</g>
</g>
</svg>
