<?xml version="1.0" encoding="utf-8"?>
<!-- Generator: Adobe Illustrator 24.1.2, SVG Export Plug-In . SVG Version: 6.00 Build 0)  -->
<svg version="1.1" id="Calque_1" xmlns="http://www.w3.org/2000/svg" xmlns:xlink="http://www.w3.org/1999/xlink" x="0px" y="0px"
	 viewBox="0 0 300 300" style="enable-background:new 0 0 300 300;" xml:space="preserve">
<style type="text/css">
	.st0{fill:#C2D9AB;}
	.st1{fill:#AB7017;}
	.st2{fill:#D79728;}
	.st3{fill:#FCFBFA;}
	.st4{opacity:0.13;}
	.st5{fill:#252422;}
	.st6{fill:#8D6017;}
	.st7{opacity:0.2;}
</style>
<g>
	<path class="st0" d="M217.5,39c-14.5-17.5-37.6-24.9-63-24.9H95.8c-18.8,0-34,15.3-34,34v18.8c-0.1,1.1-0.2,2.3-0.2,3.4v197.3
		c0,16.2,13.2,29.4,29.4,29.4h24c16.2,0,29.4-13.2,29.4-29.4v-34.8H159c27.1,0,50.3-9.5,67.1-27.4c16.7-17.8,25.5-42.5,25.5-71.1
		C252.3,111.6,244.6,71.5,217.5,39z M154.5,138.7h-11.3v-29.5H159c5.4,0,9.6,5,11.5,12.8C168,132.3,162.2,138.7,154.5,138.7z"/>
	<g>
		<path class="st1" d="M146.3,20.6H87.5c-21.3,0-38.7,17.4-38.7,38.7v197.3c0,16.2,13.2,29.4,29.4,29.4h24
			c16.2,0,29.4-13.2,29.4-29.4v-34.8h14.7c27.1,0,50.3-9.5,67.1-27.4c16.7-17.8,25.5-42.5,25.5-71.1c1-31.2-10.5-70.4-28.7-89.1
			C193.5,16.9,173,20.6,146.3,20.6z M158.9,121.2c0,14.2-5.2,24.1-12.6,24.1h-15.8V98.1h15.8C153.7,98.1,158.9,107.6,158.9,121.2z"
			/>
		<path class="st2" d="M141.8,3H83.1C64.3,3,49,18.3,49,37v197.3C49,248,60.1,259,73.8,259h24c13.6,0,24.7-11.1,24.7-24.7v-37.7
			c0-1,0.8-1.9,1.9-1.9h17.5c52.6,0,87.9-37.8,87.9-94c1-29.9-7.7-55.1-25-72.9C189,11.6,167.2,3,141.8,3z M159.1,98.9
			c0,17.2-6.9,28.7-17.3,28.7h-18.6c-1,0-1.9-0.8-1.9-1.9V73.1c0-1,0.8-1.9,1.9-1.9h18.6C152.1,71.2,159.1,82.3,159.1,98.9z"/>
	</g>
	<g>
		<g>
			<path class="st3" d="M86.3,242c-9.4,0-17.1-7.6-17.1-17.1V38.5c0-8.8,6.6-16.1,15.3-17c0.9-0.1,21.7-2.2,45.7,0
				c35.3,3.2,59.4,13.8,71.6,31.7c13.8,20.3,17.5,51.5,9.3,77.6c-6.7,21.3-20.4,36.8-38.7,43.8c-27.4,10.5-55.1,9.9-68.9,8.6v41.6
				C103.4,234.3,95.7,242,86.3,242z M103.4,148.9c8.4,1,33.2,2.8,56.7-6.2c10.7-4.1,15.9-14.3,18.3-22.1c5.1-16.2,3-36.5-5-48.2
				c-10-14.7-45.2-18.3-70.1-17.8V148.9z"/>
		</g>
		<g>
			<g class="st4">
				<path class="st5" d="M88,29.2c-1.4,0-2.7,0.3-3.9,0.8c-0.5,0.2-0.9,0.4-1.3,0.7c-0.2,0.1-0.4,0.3-0.6,0.4
					c-0.2,0.2-0.5,0.4-0.7,0.6c-0.2,0.2-0.4,0.3-0.5,0.5c-0.3,0.3-0.5,0.6-0.7,0.9c-0.1,0.1-0.2,0.2-0.3,0.4
					c-0.3,0.4-0.5,0.9-0.8,1.4c-0.1,0.2-0.1,0.3-0.2,0.5c-0.1,0.4-0.3,0.8-0.4,1.2c0,0.2-0.1,0.3-0.1,0.5c-0.1,0.6-0.2,1.2-0.2,1.8
					c0,5.4,4.3,9.7,9.7,9.7c0.6,0,1.2-0.1,1.7-0.2c0.2,0,0.3-0.1,0.5-0.1c0.5-0.1,1-0.3,1.4-0.4c0.2-0.1,0.3-0.2,0.5-0.2
					c0.3-0.2,0.6-0.3,0.9-0.5c0.2-0.1,0.5-0.3,0.7-0.5c0.2-0.1,0.3-0.3,0.5-0.4c0.4-0.4,0.8-0.8,1.2-1.2c0.1-0.1,0.1-0.2,0.2-0.2
					c0.2-0.3,0.4-0.6,0.6-0.9c0,0,0,0,0,0c0,0,0,0,0,0c0.9-1.5,1.4-3.2,1.4-5C97.7,33.5,93.4,29.2,88,29.2z"/>
				<path class="st5" d="M77,123.9c-0.1,0.6-0.2,1.2-0.2,1.8c0,0.8,0.1,1.6,0.3,2.4c0.3,1.1,0.7,2.1,1.3,3c0.5,0.8,1.2,1.5,2,2.1
					c1.2,1,2.6,1.7,4.1,2c0.6,0.1,1.3,0.2,2,0.2c0.6,0,1.2-0.1,1.7-0.2c0.2,0,0.3-0.1,0.5-0.1c0.5-0.1,1-0.3,1.4-0.4
					c0.2-0.1,0.3-0.2,0.5-0.2c0.3-0.2,0.6-0.3,0.9-0.5c0.2-0.1,0.5-0.3,0.7-0.5c0.2-0.1,0.3-0.3,0.5-0.4c0.4-0.4,0.9-0.8,1.2-1.2
					c0.1-0.1,0.1-0.2,0.2-0.2c0.2-0.3,0.4-0.6,0.6-0.9c0,0,0,0,0,0l0,0c0.9-1.5,1.4-3.2,1.4-5c0-5.4-4.3-9.7-9.7-9.7
					c-1.4,0-2.7,0.3-3.9,0.8l0,0c-0.5,0.2-0.9,0.4-1.3,0.7c-0.2,0.1-0.4,0.3-0.6,0.4c-0.2,0.2-0.5,0.4-0.7,0.6
					c-0.2,0.2-0.4,0.3-0.5,0.5c-0.3,0.3-0.5,0.6-0.7,0.9c-0.1,0.1-0.2,0.2-0.3,0.4c-0.3,0.4-0.5,0.9-0.8,1.4
					c-0.1,0.2-0.1,0.3-0.2,0.5c-0.1,0.4-0.3,0.8-0.4,1.2C77.1,123.6,77.1,123.7,77,123.9z"/>
				<path class="st5" d="M88,210.8c-1.4,0-2.7,0.3-3.9,0.8c-0.5,0.2-0.9,0.4-1.3,0.7c-0.2,0.1-0.4,0.3-0.6,0.4
					c-0.2,0.2-0.5,0.4-0.7,0.6c-0.2,0.2-0.4,0.3-0.5,0.5c-0.3,0.3-0.5,0.6-0.7,0.9c-0.1,0.1-0.2,0.2-0.3,0.4
					c-0.3,0.4-0.5,0.9-0.8,1.4c-0.1,0.2-0.1,0.3-0.2,0.5c-0.1,0.4-0.3,0.8-0.4,1.2c0,0.2-0.1,0.3-0.1,0.5c-0.1,0.6-0.2,1.2-0.2,1.8
					c0,5.4,4.3,9.7,9.7,9.7c0.6,0,1.2-0.1,1.7-0.2c0.2,0,0.3-0.1,0.5-0.1c0.5-0.1,1-0.3,1.4-0.4c0.2-0.1,0.3-0.2,0.5-0.2
					c0.3-0.2,0.6-0.3,0.9-0.5c0.2-0.1,0.5-0.3,0.7-0.5c0.2-0.1,0.3-0.3,0.5-0.4c0.4-0.4,0.8-0.8,1.2-1.2c0.1-0.1,0.1-0.2,0.2-0.3
					c0.2-0.3,0.4-0.6,0.6-0.9c0,0,0,0,0,0c0,0,0,0,0,0c0.9-1.5,1.4-3.2,1.4-5C97.7,215.2,93.4,210.8,88,210.8z"/>
				<path class="st5" d="M87.3,72.6c-1.4,0-2.7,0.3-3.9,0.8c-0.5,0.2-0.9,0.4-1.3,0.7c-0.2,0.1-0.4,0.3-0.6,0.4
					c-0.2,0.2-0.5,0.4-0.7,0.6c-0.2,0.2-0.4,0.3-0.5,0.5c-0.3,0.3-0.5,0.6-0.7,0.9c-0.1,0.1-0.2,0.2-0.3,0.4
					c-0.3,0.4-0.5,0.9-0.8,1.4c-0.1,0.2-0.1,0.3-0.2,0.5c-0.1,0.4-0.3,0.8-0.4,1.2c0,0.2-0.1,0.3-0.1,0.5c-0.1,0.6-0.2,1.2-0.2,1.8
					c0,0.7,0.1,1.3,0.2,2c0.3,1.3,0.8,2.4,1.5,3.5c0.3,0.5,0.7,1,1.2,1.4c1.3,1.3,3,2.3,4.9,2.6c0.6,0.1,1.3,0.2,2,0.2
					c0.6,0,1.2-0.1,1.7-0.2c0.2,0,0.3-0.1,0.5-0.1c0.5-0.1,1-0.3,1.4-0.4c0.2-0.1,0.3-0.2,0.5-0.2c0.3-0.2,0.6-0.3,0.9-0.5
					c0.2-0.1,0.5-0.3,0.7-0.5c0.2-0.1,0.3-0.3,0.5-0.4c0.4-0.4,0.9-0.8,1.2-1.2c0.1-0.1,0.1-0.2,0.2-0.2c0.2-0.3,0.4-0.6,0.6-0.9
					c0,0,0,0,0,0h0c0.9-1.5,1.4-3.2,1.4-5C97,76.9,92.6,72.6,87.3,72.6z"/>
				<path class="st5" d="M77.9,170.8c0,0.2-0.1,0.3-0.1,0.5c-0.1,0.6-0.2,1.2-0.2,1.8c0,0.8,0.1,1.6,0.3,2.4c0.3,1.1,0.7,2.1,1.3,3
					c0.5,0.8,1.2,1.5,2,2.1c1.2,1,2.6,1.7,4.1,2c0.6,0.1,1.3,0.2,2,0.2c0.6,0,1.2-0.1,1.7-0.2c0.2,0,0.3-0.1,0.5-0.1
					c0.5-0.1,1-0.3,1.4-0.4c0.2-0.1,0.3-0.2,0.5-0.2c0.3-0.2,0.6-0.3,0.9-0.5c0.2-0.1,0.5-0.3,0.7-0.5c0.2-0.1,0.3-0.3,0.5-0.4
					c0.4-0.4,0.9-0.8,1.2-1.2c0.1-0.1,0.1-0.2,0.2-0.2c0.2-0.3,0.4-0.6,0.6-0.9c0,0,0,0,0,0h0c0.9-1.5,1.4-3.2,1.4-5
					c0-5.4-4.3-9.7-9.7-9.7c-1.4,0-2.7,0.3-3.9,0.8c-0.5,0.2-0.9,0.4-1.3,0.7c-0.2,0.1-0.4,0.3-0.6,0.4c-0.2,0.2-0.5,0.4-0.7,0.6
					c-0.2,0.2-0.4,0.3-0.5,0.5c-0.3,0.3-0.5,0.6-0.7,0.9c-0.1,0.1-0.2,0.2-0.3,0.4c-0.3,0.4-0.5,0.9-0.8,1.4
					c-0.1,0.2-0.1,0.3-0.2,0.5C78.1,170,78,170.4,77.9,170.8z"/>
				<path class="st5" d="M135.4,48.7c0.5-0.1,1-0.3,1.4-0.4c0.2-0.1,0.3-0.2,0.5-0.2c0.3-0.2,0.6-0.3,0.9-0.5
					c0.2-0.1,0.5-0.3,0.7-0.5c0.2-0.1,0.3-0.3,0.5-0.4c0.4-0.4,0.9-0.8,1.2-1.2c0.1-0.1,0.1-0.2,0.2-0.2c0.2-0.3,0.4-0.6,0.6-0.9
					c0,0,0,0,0,0l0,0c0.9-1.5,1.4-3.2,1.4-5c0-5.4-4.3-9.7-9.7-9.7c-1.4,0-2.7,0.3-3.9,0.8l0,0c-0.5,0.2-0.9,0.4-1.3,0.7
					c-0.2,0.1-0.4,0.3-0.6,0.4c-0.2,0.2-0.5,0.4-0.7,0.6c-0.2,0.2-0.4,0.3-0.5,0.5c-0.3,0.3-0.5,0.6-0.7,0.9
					c-0.1,0.1-0.2,0.2-0.3,0.4c-0.3,0.4-0.5,0.9-0.8,1.4c-0.1,0.2-0.1,0.3-0.2,0.5c-0.1,0.4-0.3,0.8-0.4,1.2c0,0.2-0.1,0.3-0.1,0.5
					c-0.1,0.6-0.2,1.2-0.2,1.8c0,0.8,0.1,1.6,0.3,2.4c0.3,1.1,0.7,2.1,1.3,3c0.5,0.8,1.2,1.5,2,2.1c1.2,1,2.6,1.7,4.1,2
					c0.6,0.1,1.3,0.2,2,0.2c0.6,0,1.2-0.1,1.7-0.2C135.1,48.8,135.2,48.8,135.4,48.7z"/>
				<path class="st5" d="M207.2,99.6C207.2,99.6,207.2,99.6,207.2,99.6L207.2,99.6c0.9-1.5,1.4-3.2,1.4-5c0-5.4-4.3-9.7-9.7-9.7
					c-1.4,0-2.7,0.3-3.9,0.8c-0.5,0.2-0.9,0.4-1.3,0.7c-0.2,0.1-0.4,0.3-0.6,0.4c-0.2,0.2-0.5,0.4-0.7,0.6c-0.2,0.2-0.4,0.3-0.5,0.5
					c-0.3,0.3-0.5,0.6-0.7,0.9c-0.1,0.1-0.2,0.2-0.3,0.4c-0.3,0.4-0.5,0.9-0.8,1.4c-0.1,0.2-0.1,0.3-0.2,0.5
					c-0.1,0.4-0.3,0.8-0.4,1.2c0,0.2-0.1,0.3-0.1,0.5c-0.1,0.6-0.2,1.2-0.2,1.8c0,0.7,0.1,1.3,0.2,2c0.3,1.3,0.8,2.4,1.5,3.5
					c0.3,0.5,0.7,1,1.2,1.4c1.3,1.3,3,2.3,4.9,2.6c0.6,0.1,1.3,0.2,2,0.2c0.6,0,1.2-0.1,1.7-0.2c0.2,0,0.3-0.1,0.5-0.1
					c0.5-0.1,1-0.3,1.4-0.4c0.2-0.1,0.3-0.2,0.5-0.2c0.3-0.2,0.6-0.3,0.9-0.5c0.2-0.1,0.5-0.3,0.7-0.5c0.2-0.1,0.3-0.3,0.5-0.4
					c0.4-0.4,0.9-0.8,1.2-1.2c0.1-0.1,0.1-0.2,0.2-0.2C206.7,100.3,207,100,207.2,99.6z"/>
				<path class="st5" d="M187.3,131.6c-1.4,0-2.7,0.3-3.9,0.8c-0.5,0.2-0.9,0.4-1.3,0.7c-0.2,0.1-0.4,0.3-0.6,0.4
					c-0.2,0.2-0.5,0.4-0.7,0.6c-0.2,0.2-0.4,0.3-0.5,0.5c-0.3,0.3-0.5,0.6-0.7,0.9c-0.1,0.1-0.2,0.2-0.3,0.4
					c-0.3,0.4-0.5,0.9-0.8,1.4c-0.1,0.2-0.1,0.3-0.2,0.5c-0.1,0.4-0.3,0.8-0.4,1.2c0,0.2-0.1,0.3-0.1,0.5c-0.1,0.6-0.2,1.2-0.2,1.8
					c0,1.3,0.3,2.6,0.8,3.8c0.2,0.6,0.5,1.1,0.9,1.6c0.7,1,1.6,1.9,2.6,2.6c1.5,1,3.4,1.7,5.4,1.7c0.6,0,1.2-0.1,1.7-0.2
					c0.2,0,0.3-0.1,0.5-0.1c0.5-0.1,1-0.3,1.4-0.4c0.2-0.1,0.3-0.2,0.5-0.2c0.3-0.2,0.6-0.3,0.9-0.5c0.2-0.1,0.5-0.3,0.7-0.5
					c0.2-0.1,0.3-0.3,0.5-0.4c0.4-0.4,0.8-0.8,1.2-1.2c0.1-0.1,0.1-0.2,0.2-0.3c0.2-0.3,0.4-0.6,0.6-0.9c0,0,0,0,0,0c0,0,0,0,0,0
					c0.9-1.5,1.4-3.2,1.4-5C197,135.9,192.6,131.6,187.3,131.6z"/>
				<path class="st5" d="M144.7,154.6c-1.4,0-2.7,0.3-3.9,0.8c-0.5,0.2-0.9,0.4-1.3,0.7c-0.2,0.1-0.4,0.3-0.6,0.4
					c-0.2,0.2-0.5,0.4-0.7,0.6c-0.2,0.2-0.4,0.3-0.5,0.5c-0.3,0.3-0.5,0.6-0.7,0.9c-0.1,0.1-0.2,0.2-0.3,0.4
					c-0.3,0.4-0.5,0.9-0.8,1.4c-0.1,0.2-0.1,0.3-0.2,0.5c-0.1,0.4-0.3,0.8-0.4,1.2c0,0.2-0.1,0.3-0.1,0.5c-0.1,0.6-0.2,1.2-0.2,1.8
					c0,1.3,0.3,2.6,0.8,3.8c0.2,0.6,0.5,1.1,0.9,1.6c0.7,1,1.6,1.9,2.6,2.6c1.5,1,3.4,1.7,5.4,1.7c0.6,0,1.2-0.1,1.7-0.2
					c0.2,0,0.3-0.1,0.5-0.1c0.5-0.1,1-0.3,1.4-0.4c0.2-0.1,0.3-0.2,0.5-0.2c0.3-0.2,0.6-0.3,0.9-0.5c0.2-0.1,0.5-0.3,0.7-0.5
					c0.2-0.1,0.3-0.3,0.5-0.4c0.4-0.4,0.8-0.8,1.2-1.2c0.1-0.1,0.1-0.2,0.2-0.3c0.2-0.3,0.4-0.6,0.6-0.9c0,0,0,0,0,0c0,0,0,0,0,0
					c0.9-1.5,1.4-3.2,1.4-5C154.4,158.9,150.1,154.6,144.7,154.6z"/>
				<path class="st5" d="M179.3,64.1c0.2,0,0.3-0.1,0.5-0.1c0.5-0.1,1-0.3,1.4-0.4c0.2-0.1,0.3-0.2,0.5-0.2c0.3-0.2,0.6-0.3,0.9-0.5
					c0.2-0.1,0.5-0.3,0.7-0.5c0.2-0.1,0.3-0.3,0.5-0.4c0.4-0.4,0.8-0.8,1.2-1.2c0.1-0.1,0.1-0.2,0.2-0.3c0.2-0.3,0.4-0.6,0.6-0.9
					c0,0,0,0,0,0c0,0,0,0,0,0c0.9-1.5,1.4-3.2,1.4-5c0-5.4-4.3-9.7-9.7-9.7c-1.4,0-2.7,0.3-3.9,0.8c-0.5,0.2-0.9,0.4-1.3,0.7
					c-0.2,0.1-0.4,0.3-0.6,0.4c-0.2,0.2-0.5,0.4-0.7,0.6c-0.2,0.2-0.4,0.3-0.5,0.5c-0.3,0.3-0.5,0.6-0.7,0.9
					c-0.1,0.1-0.2,0.2-0.3,0.4c-0.3,0.4-0.5,0.9-0.8,1.4c-0.1,0.2-0.1,0.3-0.2,0.5c-0.1,0.4-0.3,0.8-0.4,1.2c0,0.2-0.1,0.3-0.1,0.5
					c-0.1,0.6-0.2,1.2-0.2,1.8c0,5.4,4.3,9.7,9.7,9.7C178.1,64.3,178.7,64.2,179.3,64.1z"/>
			</g>
			<g>
				<g>
					<circle class="st6" cx="85.5" cy="37.8" r="9.7"/>
					<g class="st7">
						<path class="st5" d="M80.2,34c0-1.8,0.5-3.5,1.4-5c-3.4,1.5-5.8,4.9-5.8,8.9c0,5.4,4.3,9.7,9.7,9.7c3.5,0,6.6-1.9,8.3-4.7
							c-1.2,0.5-2.5,0.8-3.9,0.8C84.5,43.7,80.2,39.3,80.2,34z"/>
					</g>
				</g>
				<g>
					<circle class="st6" cx="84.1" cy="124.6" r="9.7"/>
					<g class="st7">
						<path class="st5" d="M78.8,120.7c0-1.8,0.5-3.5,1.4-5c-3.4,1.5-5.8,4.9-5.8,8.9c0,5.4,4.3,9.7,9.7,9.7c3.5,0,6.6-1.9,8.3-4.7
							c-1.2,0.5-2.5,0.8-3.9,0.8C83.1,130.4,78.8,126.1,78.8,120.7z"/>
					</g>
				</g>
				<g>
					<circle class="st6" cx="85.5" cy="219.5" r="9.7"/>
					<g class="st7">
						<path class="st5" d="M80.2,215.6c0-1.8,0.5-3.5,1.4-5c-3.4,1.5-5.8,4.9-5.8,8.9c0,5.4,4.3,9.7,9.7,9.7c3.5,0,6.6-1.9,8.3-4.7
							c-1.2,0.5-2.5,0.8-3.9,0.8C84.5,225.3,80.2,221,80.2,215.6z"/>
					</g>
				</g>
				<g>
					<circle class="st6" cx="84.8" cy="81.2" r="9.7"/>
					<g class="st7">
						<path class="st5" d="M79.5,77.3c0-1.8,0.5-3.5,1.4-5c-3.4,1.5-5.8,4.9-5.8,8.9c0,5.4,4.3,9.7,9.7,9.7c3.5,0,6.6-1.9,8.3-4.7
							c-1.2,0.5-2.5,0.8-3.9,0.8C83.8,87.1,79.5,82.7,79.5,77.3z"/>
					</g>
				</g>
				<g>
					<circle class="st6" cx="84.8" cy="172.1" r="9.7"/>
					<g class="st7">
						<path class="st5" d="M79.5,168.2c0-1.8,0.5-3.5,1.4-5c-3.4,1.5-5.8,4.9-5.8,8.9c0,5.4,4.3,9.7,9.7,9.7c3.5,0,6.6-1.9,8.3-4.7
							c-1.2,0.5-2.5,0.8-3.9,0.8C83.8,177.9,79.5,173.5,79.5,168.2z"/>
					</g>
				</g>
				<g>
					<circle class="st6" cx="130.7" cy="38.3" r="9.7"/>
					<g class="st7">
						<path class="st5" d="M125.4,34.4c0-1.8,0.5-3.5,1.4-5c-3.4,1.5-5.8,4.9-5.8,8.9c0,5.4,4.3,9.7,9.7,9.7c3.5,0,6.6-1.9,8.3-4.7
							c-1.2,0.5-2.5,0.8-3.9,0.8C129.7,44.1,125.4,39.7,125.4,34.4z"/>
					</g>
				</g>
				<g>
					<circle class="st6" cx="196.4" cy="93.6" r="9.7"/>
					<g class="st7">
						<path class="st5" d="M191.1,89.7c0-1.8,0.5-3.5,1.4-5c-3.4,1.5-5.8,4.9-5.8,8.9c0,5.4,4.3,9.7,9.7,9.7c3.5,0,6.6-1.9,8.3-4.7
							c-1.2,0.5-2.5,0.8-3.9,0.8C195.4,99.4,191.1,95.1,191.1,89.7z"/>
					</g>
				</g>
				<g>
					<circle class="st6" cx="184.8" cy="140.3" r="9.7"/>
					<g class="st7">
						<path class="st5" d="M179.5,136.4c0-1.8,0.5-3.5,1.4-5c-3.4,1.5-5.8,4.9-5.8,8.9c0,5.4,4.3,9.7,9.7,9.7c3.5,0,6.6-1.9,8.3-4.7
							c-1.2,0.5-2.5,0.8-3.9,0.8C183.8,146.1,179.5,141.7,179.5,136.4z"/>
					</g>
				</g>
				<g>
					<circle class="st6" cx="142.3" cy="163.2" r="9.7"/>
					<g class="st7">
						<path class="st5" d="M136.9,159.4c0-1.8,0.5-3.5,1.4-5c-3.4,1.5-5.8,4.9-5.8,8.9c0,5.4,4.3,9.7,9.7,9.7c3.5,0,6.6-1.9,8.3-4.7
							c-1.2,0.5-2.5,0.8-3.9,0.8C141.3,169.1,136.9,164.7,136.9,159.4z"/>
					</g>
				</g>
				<g>
					<circle class="st6" cx="175.1" cy="53.6" r="9.7"/>
					<g class="st7">
						<path class="st5" d="M169.7,49.7c0-1.8,0.5-3.5,1.4-5c-3.4,1.5-5.8,4.9-5.8,8.9c0,5.4,4.3,9.7,9.7,9.7c3.5,0,6.6-1.9,8.3-4.7
							c-1.2,0.5-2.5,0.8-3.9,0.8C174.1,59.4,169.7,55.1,169.7,49.7z"/>
					</g>
				</g>
			</g>
		</g>
	</g>
</g>
</svg>
