<?xml version="1.0" encoding="utf-8"?>
<!-- Generator: Adobe Illustrator 24.1.2, SVG Export Plug-In . SVG Version: 6.00 Build 0)  -->
<svg version="1.1" id="Calque_1" xmlns="http://www.w3.org/2000/svg" xmlns:xlink="http://www.w3.org/1999/xlink" x="0px" y="0px"
	 viewBox="0 0 300 300" style="enable-background:new 0 0 300 300;" xml:space="preserve">
<style type="text/css">
	.st0{fill:#C2D9AB;}
	.st1{fill:#AB7017;}
	.st2{fill:#D79728;}
	.st3{opacity:0.13;}
	.st4{fill:#252422;}
	.st5{fill:#FCFBFA;}
</style>
<g>
	<path class="st0" d="M74.2,270.6c18.4,17.9,42.7,27.4,70.2,27.4c1.1,0,2.2,0,3.3,0c23.5-0.6,42-5.6,55-14.6
		c0.8-0.6,1.6-1.2,2.4-1.8c7.5,10.6,15.4,15.7,24.1,15.7c0,0,0,0,0,0l17.4-0.9c8.8-0.5,18.1-6.1,23.5-14.3c4.8-7.4,6-15.8,3.3-23
		c-2.5-6.6-5.3-13.2-8.5-19.6c-0.1-0.2-0.1-0.5-0.2-0.7c-2.6-6.9-5.6-13.8-9-20.5c0.2-0.7,0.5-1.5,0.7-2.1l0.1-0.4
		c14.9-42.7,10.1-110.5-24.2-160.3c-19.4-28.1-49-42.6-84.5-42.6c-66.5,0-111.2,52-111.2,129.3c0,3.2,0.1,6.4,0.2,9.6
		c-0.2,4-0.4,8.1-0.4,12.3C36.5,209.1,49.9,246.9,74.2,270.6z M117.4,164.1c0-31.7,14-53,34.9-53c17.9,0,30.5,17,33,43.1
		c-3.1,27.9-17.4,45.9-37.5,45.9c-11.6,0-21.4-5.7-28.3-15.5C118.2,178.4,117.4,171.6,117.4,164.1z"/>
	<g>
		<path class="st1" d="M244.1,204.9c16.8-48.3,5.5-118.2-21.1-155.6c-20.7-29.1-46.2-29.9-83.2-29.9c0,0,0,0,0,0
			C70.5,19.4,24,54.8,24,134.9c0,2.2,0,22.8,0.1,25c1.3,42.1,14.5,77.4,37.6,99.9c18.4,17.9,42.7,27.4,70.2,27.4c1.1,0,2.2,0,3.3,0
			c23.5-0.6,42-5.6,55-14.6c0.8-0.6,1.6-1.2,2.4-1.8c7.5,10.6,15.4,15.7,24.1,15.7c0,0,0,0,0,0l17.4-0.9c8.8-0.5,18.1-6.1,23.5-14.3
			c4.8-7.4,6-15.8,3.3-23c-4.5-12.1-10.2-23.9-16.9-35.2c-0.5-0.9-1.3-2.2-1.4-2.5c-0.1-0.9,0.8-3.5,1.4-5.1L244.1,204.9z
			 M173.3,153.3c0,31.9-13.5,53.3-33.5,53.3c-20.9,0-34.9-21.4-34.9-53.3c0-31.7,14-53,34.9-53C159.9,100.3,173.3,121.6,173.3,153.3
			z"/>
		<path class="st2" d="M235.4,181.6c16.3-46.9,10.3-100.7-15.5-136.9c-19.8-27.9-49-42.6-84.5-42.6c-66.5,0-111.2,52-111.2,129.3
			c0,43.8,12.9,80.4,36.4,103.2c17.6,17.1,40.7,26.1,67,26.1c1,0,2.1,0,3.2,0c22.6-0.6,40.2-5.3,52.5-13.8c2.4-1.7,4.3-3.3,5.9-4.9
			c7.5,12.1,15,18,23,18l17.4-0.9c7.4-0.4,15.2-5.2,19.9-12.3c4-6.1,5.1-13,2.9-18.9c-4.4-11.8-10-23.3-16.6-34.5
			c-0.9-1.5-1.7-2.9-2-4c-0.4-1.9,0.6-4.7,1.5-7.5L235.4,181.6z M173.5,131.4c0,34.6-15.3,57.9-38.1,57.9
			c-23.6,0-39.5-23.3-39.5-57.9c0-34.4,15.9-57.6,39.5-57.6C158.2,73.8,173.5,97,173.5,131.4z"/>
	</g>
	<g>
		<g class="st3">
			<path class="st4" d="M69.8,53.1c-1.5,0-3-0.7-3.8-2.1c-1.4-2.1-0.8-4.9,1.3-6.3L80.6,36c2.1-1.4,4.9-0.8,6.3,1.3
				c1.4,2.1,0.8,4.9-1.3,6.3l-13.3,8.7C71.5,52.9,70.7,53.1,69.8,53.1z"/>
		</g>
		<g class="st3">
			<path class="st4" d="M74.5,78.5c-0.8-1.3-1-2.9-0.3-4.3c1.1-2.3,3.8-3.3,6.1-2.2l14.5,6.7c2.3,1.1,3.3,3.8,2.2,6.1
				c-1.1,2.3-3.8,3.3-6.1,2.2l-14.5-6.7C75.6,79.9,74.9,79.3,74.5,78.5z"/>
		</g>
		<g class="st3">
			<path class="st4" d="M112,28.7c0.2-1.5,1.2-2.8,2.6-3.5c2.3-1,5,0,6.1,2.3l6.6,14.5c1,2.3,0,5-2.3,6.1c-2.3,1-5,0-6.1-2.3
				l-6.6-14.5C111.9,30.4,111.8,29.5,112,28.7z"/>
		</g>
		<g class="st3">
			<path class="st4" d="M39.7,184.4c-0.8-1.3-1-2.9-0.3-4.3c1.1-2.3,3.8-3.3,6.1-2.2l14.5,6.7c2.3,1.1,3.3,3.8,2.2,6.1
				c-1.1,2.3-3.8,3.3-6.1,2.2l-14.5-6.7C40.8,185.8,40.1,185.1,39.7,184.4z"/>
		</g>
		<g class="st3">
			<path class="st4" d="M91.1,215.4c1.1-1,2.7-1.5,4.2-1.1c2.4,0.6,3.9,3.1,3.3,5.6l-3.9,15.5c-0.6,2.5-3.1,3.9-5.6,3.3
				c-2.4-0.6-3.9-3.1-3.3-5.6l3.9-15.5C90,216.8,90.4,216,91.1,215.4z"/>
		</g>
		<g class="st3">
			<path class="st4" d="M159.5,211.1c1.1-1,2.7-1.5,4.2-1.1c2.4,0.6,3.9,3.1,3.3,5.6l-3.9,15.5c-0.6,2.5-3.1,3.9-5.6,3.3
				c-2.4-0.6-3.9-3.1-3.3-5.6l3.9-15.5C158.4,212.4,158.9,211.7,159.5,211.1z"/>
		</g>
		<g class="st3">
			<path class="st4" d="M189.1,168c1.5-0.1,3,0.5,4,1.8c1.5,2,1.2,4.9-0.8,6.4l-12.6,9.7c-2,1.5-4.9,1.2-6.4-0.8
				c-1.5-2-1.2-4.9,0.8-6.4l12.6-9.7C187.4,168.3,188.3,168,189.1,168z"/>
		</g>
		<g class="st3">
			<path class="st4" d="M199.2,49c0.3-1.5,1.3-2.8,2.8-3.4c2.3-0.9,5,0.2,6,2.5l6,14.8c1,2.3-0.2,5-2.5,6c-2.3,0.9-5-0.2-6-2.5
				l-6-14.8C199.1,50.7,199,49.8,199.2,49z"/>
		</g>
		<g class="st3">
			<path class="st4" d="M206,87.3c0.8,1.3,0.9,2.9,0.2,4.4c-1.1,2.3-3.8,3.2-6.1,2.1l-14.3-7c-2.3-1.1-3.2-3.8-2.1-6.1
				c1.1-2.3,3.8-3.2,6.1-2.1l14.3,7C204.9,86,205.6,86.6,206,87.3z"/>
		</g>
		<g class="st3">
			<path class="st4" d="M116.6,239c-0.7-1.3-0.7-3,0.1-4.4c1.2-2.2,4-3,6.2-1.8l13.9,7.8c2.2,1.2,3,4,1.8,6.2c-1.2,2.2-4,3-6.2,1.8
				l-13.9-7.8C117.6,240.4,117,239.8,116.6,239z"/>
		</g>
		<g class="st3">
			<path class="st4" d="M188.1,208.1c-0.7-1.3-0.7-3,0.1-4.4c1.2-2.2,4-3,6.2-1.8l13.9,7.8c2.2,1.2,3,4,1.8,6.2
				c-1.2,2.2-4,3-6.2,1.8l-13.9-7.8C189.1,209.5,188.5,208.9,188.1,208.1z"/>
		</g>
		<g class="st3">
			<path class="st4" d="M165.2,70c-1.5,0-3-0.7-3.8-2.1c-1.4-2.1-0.8-4.9,1.3-6.3l13.3-8.7c2.1-1.4,4.9-0.8,6.3,1.3
				c1.4,2.1,0.8,4.9-1.3,6.3l-13.3,8.7C167,69.8,166.1,70,165.2,70z"/>
		</g>
		<g class="st3">
			<path class="st4" d="M150.8,37.1c-0.6-1.6-0.3-3.5,1-4.8l11.1-11.5c1.8-1.8,4.6-1.9,6.5-0.1c1.8,1.8,1.9,4.6,0.1,6.5l-11.1,11.5
				c-1.8,1.8-4.6,1.9-6.5,0.1C151.5,38.3,151.1,37.7,150.8,37.1z"/>
		</g>
		<g class="st3">
			<path class="st4" d="M61.4,143.7c-1.1-1.3-1.4-3.2-0.6-4.8l6.7-14.5c1.1-2.3,3.8-3.3,6.1-2.2c2.3,1.1,3.3,3.8,2.2,6.1l-6.7,14.5
				c-1.1,2.3-3.8,3.3-6.1,2.2C62.4,144.6,61.8,144.2,61.4,143.7z"/>
		</g>
		<g class="st3">
			<path class="st4" d="M98,194.7c-1.7,0.3-3.5-0.3-4.5-1.8L84,180c-1.5-2-1-4.9,1-6.4c2-1.5,4.9-1,6.4,1l9.4,12.9
				c1.5,2,1,4.9-1,6.4C99.2,194.3,98.6,194.6,98,194.7z"/>
		</g>
		<g class="st3">
			<path class="st4" d="M50.4,111.1c-1.7,0-3.3-1-4.1-2.6l-6.9-14.4c-1.1-2.3-0.1-5,2.2-6.1c2.3-1.1,5-0.1,6.1,2.2l6.9,14.4
				c1.1,2.3,0.1,5-2.2,6.1C51.7,111,51.1,111.1,50.4,111.1z"/>
		</g>
		<g>
			<path class="st5" d="M68.8,49.3c-1.5,0-3-0.7-3.8-2.1c-1.4-2.1-0.8-4.9,1.3-6.3l13.3-8.7c2.1-1.4,4.9-0.8,6.3,1.3
				c1.4,2.1,0.8,4.9-1.3,6.3l-13.3,8.7C70.5,49,69.6,49.3,68.8,49.3z"/>
		</g>
		<g>
			<path class="st5" d="M73.5,74.7c-0.8-1.3-1-2.9-0.3-4.3c1.1-2.3,3.8-3.3,6.1-2.2l14.5,6.7c2.3,1.1,3.3,3.8,2.2,6.1
				c-1.1,2.3-3.8,3.3-6.1,2.2l-14.5-6.7C74.6,76.1,73.9,75.4,73.5,74.7z"/>
		</g>
		<g>
			<path class="st5" d="M110.9,24.9c0.2-1.5,1.2-2.8,2.6-3.5c2.3-1,5,0,6.1,2.3l6.6,14.5c1,2.3,0,5-2.3,6.1c-2.3,1-5,0-6.1-2.3
				l-6.6-14.5C110.9,26.6,110.8,25.7,110.9,24.9z"/>
		</g>
		<g>
			<path class="st5" d="M38.6,180.6c-0.8-1.3-1-2.9-0.3-4.3c1.1-2.3,3.8-3.3,6.1-2.2l14.5,6.7c2.3,1.1,3.3,3.8,2.2,6.1
				c-1.1,2.3-3.8,3.3-6.1,2.2l-14.5-6.7C39.8,181.9,39.1,181.3,38.6,180.6z"/>
		</g>
		<g>
			<path class="st5" d="M90.1,211.6c1.1-1,2.7-1.5,4.2-1.1c2.4,0.6,3.9,3.1,3.3,5.6l-3.9,15.5c-0.6,2.5-3.1,3.9-5.6,3.3
				c-2.4-0.6-3.9-3.1-3.3-5.6l3.9-15.5C88.9,212.9,89.4,212.2,90.1,211.6z"/>
		</g>
		<g>
			<path class="st5" d="M158.5,207.3c1.1-1,2.7-1.5,4.2-1.1c2.4,0.6,3.9,3.1,3.3,5.6l-3.9,15.5c-0.6,2.5-3.1,3.9-5.6,3.3
				c-2.4-0.6-3.9-3.1-3.3-5.6l3.9-15.5C157.4,208.6,157.9,207.9,158.5,207.3z"/>
		</g>
		<g class="st3">
			<path class="st4" d="M227.1,227.9c1.3-0.8,2.9-0.9,4.4-0.2c2.3,1.1,3.2,3.8,2.1,6.1l-6.9,14.4c-1.1,2.3-3.8,3.2-6.1,2.1
				c-2.3-1.1-3.2-3.8-2.1-6.1l6.9-14.4C225.7,229,226.3,228.3,227.1,227.9z"/>
		</g>
		<g>
			<path class="st5" d="M226.8,223.9c1.3-0.8,2.9-0.9,4.4-0.2c2.3,1.1,3.2,3.8,2.1,6.1l-6.9,14.4c-1.1,2.3-3.8,3.2-6.1,2.1
				c-2.3-1.1-3.2-3.8-2.1-6.1l6.9-14.4C225.5,225,226.1,224.4,226.8,223.9z"/>
		</g>
		<g>
			<path class="st5" d="M188.1,164.2c1.5-0.1,3,0.5,4,1.8c1.5,2,1.2,4.9-0.8,6.4l-12.6,9.7c-2,1.5-4.9,1.2-6.4-0.8
				c-1.5-2-1.2-4.9,0.8-6.4l12.6-9.7C186.4,164.5,187.2,164.2,188.1,164.2z"/>
		</g>
		<g>
			<path class="st5" d="M198.1,45.2c0.3-1.5,1.3-2.8,2.8-3.4c2.3-0.9,5,0.2,6,2.5l6,14.8c1,2.3-0.2,5-2.5,6c-2.3,0.9-5-0.2-6-2.5
				l-6-14.8C198,46.9,198,46,198.1,45.2z"/>
		</g>
		<g>
			<path class="st5" d="M205,83.5c0.8,1.3,0.9,2.9,0.2,4.4c-1.1,2.3-3.9,3.2-6.1,2.1l-14.3-7c-2.3-1.1-3.2-3.8-2.1-6.1
				c1.1-2.3,3.8-3.2,6.1-2.1l14.3,7C203.9,82.1,204.5,82.8,205,83.5z"/>
		</g>
		<g>
			<path class="st5" d="M115.6,235.2c-0.7-1.3-0.7-3,0.1-4.4c1.2-2.2,4-3,6.2-1.8l13.9,7.8c2.2,1.2,3,4,1.8,6.2
				c-1.2,2.2-4,3-6.2,1.8l-13.9-7.8C116.6,236.6,116,236,115.6,235.2z"/>
		</g>
		<g>
			<path class="st5" d="M187,204.3c-0.7-1.3-0.7-3,0.1-4.4c1.2-2.2,4-3,6.2-1.8l13.9,7.8c2.2,1.2,3,4,1.8,6.2c-1.2,2.2-4,3-6.2,1.8
				l-13.9-7.8C188.1,205.7,187.4,205.1,187,204.3z"/>
		</g>
		<g>
			<path class="st5" d="M164.2,66.2c-1.5,0-3-0.7-3.8-2.1c-1.4-2.1-0.8-4.9,1.3-6.3l13.3-8.7c2.1-1.4,4.9-0.8,6.3,1.3
				c1.4,2.1,0.8,4.9-1.3,6.3l-13.3,8.7C166,65.9,165.1,66.2,164.2,66.2z"/>
		</g>
		<g class="st3">
			<path class="st4" d="M217.9,114.6c0.3-1.5,1.3-2.8,2.8-3.4c2.3-0.9,5,0.2,6,2.5l6,14.8c1,2.3-0.2,5-2.5,6c-2.3,0.9-5-0.2-6-2.5
				l-6-14.8C217.8,116.4,217.7,115.5,217.9,114.6z"/>
		</g>
		<g class="st3">
			<path class="st4" d="M224.7,153c0.8,1.3,0.9,2.9,0.2,4.4c-1.1,2.3-3.9,3.2-6.1,2.1l-14.3-7c-2.3-1.1-3.2-3.8-2.1-6.1
				c1.1-2.3,3.9-3.2,6.1-2.1l14.3,7C223.6,151.6,224.2,152.2,224.7,153z"/>
		</g>
		<g class="st3">
			<path class="st4" d="M183.9,135.6c-1.5,0-3-0.7-3.8-2.1c-1.4-2.1-0.8-4.9,1.3-6.3l13.3-8.7c2.1-1.4,4.9-0.8,6.3,1.3
				c1.4,2.1,0.8,4.9-1.3,6.3l-13.3,8.7C185.7,135.4,184.8,135.6,183.9,135.6z"/>
		</g>
		<g>
			<path class="st5" d="M216.8,110.8c0.3-1.5,1.3-2.8,2.8-3.4c2.3-0.9,5,0.2,6,2.5l6,14.8c1,2.3-0.2,5-2.5,6c-2.3,0.9-5-0.2-6-2.5
				l-6-14.8C216.7,112.6,216.7,111.7,216.8,110.8z"/>
		</g>
		<g>
			<path class="st5" d="M223.7,149.1c0.8,1.3,0.9,2.9,0.2,4.4c-1.1,2.3-3.9,3.2-6.1,2.1l-14.3-7c-2.3-1.1-3.2-3.8-2.1-6.1
				c1.1-2.3,3.9-3.2,6.1-2.1l14.3,7C222.6,147.8,223.2,148.4,223.7,149.1z"/>
		</g>
		<g>
			<path class="st5" d="M182.9,131.8c-1.5,0-3-0.7-3.8-2.1c-1.4-2.1-0.8-4.9,1.3-6.3l13.3-8.7c2.1-1.4,4.9-0.8,6.3,1.3
				c1.4,2.1,0.8,4.9-1.3,6.3l-13.3,8.7C184.6,131.6,183.8,131.8,182.9,131.8z"/>
		</g>
		<g>
			<path class="st5" d="M149.8,33.3c-0.6-1.6-0.3-3.5,1-4.8L161.9,17c1.8-1.8,4.6-1.9,6.5-0.1c1.8,1.8,1.9,4.6,0.1,6.5l-11.1,11.5
				c-1.8,1.8-4.6,1.9-6.5,0.1C150.4,34.5,150.1,33.9,149.8,33.3z"/>
		</g>
		<g>
			<path class="st5" d="M60.4,139.9c-1.1-1.3-1.4-3.2-0.6-4.8l6.7-14.5c1.1-2.3,3.8-3.3,6.1-2.2c2.3,1.1,3.3,3.8,2.2,6.1l-6.7,14.5
				c-1.1,2.3-3.8,3.3-6.1,2.2C61.4,140.8,60.8,140.4,60.4,139.9z"/>
		</g>
		<g>
			<path class="st5" d="M96.9,190.9c-1.7,0.3-3.5-0.3-4.5-1.8L83,176.2c-1.5-2-1-4.9,1-6.4c2-1.5,4.9-1,6.4,1l9.4,12.9
				c1.5,2,1,4.9-1,6.4C98.2,190.5,97.6,190.8,96.9,190.9z"/>
		</g>
		<g>
			<path class="st5" d="M49.4,107.3c-1.7,0-3.3-1-4.1-2.6l-6.9-14.4c-1.1-2.3-0.1-5,2.2-6.1c2.3-1.1,5-0.1,6.1,2.2l6.9,14.4
				c1.1,2.3,0.1,5-2.2,6.1C50.7,107.2,50.1,107.3,49.4,107.3z"/>
		</g>
	</g>
</g>
</svg>
