<?xml version="1.0" encoding="utf-8"?>
<!-- Generator: Adobe Illustrator 24.1.2, SVG Export Plug-In . SVG Version: 6.00 Build 0)  -->
<svg version="1.1" id="Calque_1" xmlns="http://www.w3.org/2000/svg" xmlns:xlink="http://www.w3.org/1999/xlink" x="0px" y="0px"
	 viewBox="0 0 300 300" style="enable-background:new 0 0 300 300;" xml:space="preserve">
<style type="text/css">
	.st0{fill:#C2D9AB;}
	.st1{fill:#AB7017;}
	.st2{fill:#D79728;}
	.st3{opacity:0.13;}
	.st4{fill:#252422;}
	.st5{fill:#FCFBFA;}
</style>
<g>
	<path class="st0" d="M143.5,224.1c0-1.3,1.1-2.4,2.4-2.4c1,0,1.8,0.6,2.2,1.5h0l22.9,55.6c4.8,11.6,16,19.2,28.6,19.2h18.6
		c11.4,0,21.9-5.7,28.1-15.3c6.2-9.6,7.1-21.5,2.4-31.9l-7.3-16.1c-0.4-1.5-0.9-2.9-1.5-4.3l-14.5-32.2c0.1-0.5,0.4-0.9,0.8-1.3
		c16.9-16.3,25.3-37.8,25.3-67.7c0-89.3-56-115.1-98.1-115.1H81.2c-11.3,0-20.5,9.2-20.5,20.5V54c-0.1,0.9-0.2,1.9-0.2,2.9v210.2
		c0,17.1,13.9,30.9,30.9,30.9h21.2c17.1,0,30.9-13.9,30.9-30.9V224.1z M142.5,111.9c0-1.3,1.1-2.4,2.4-2.4h12.7
		c5.8,0,9.3,3.4,11.2,8c-2.8,7.4-8.4,11.8-15.7,11.8h-10.6V111.9z"/>
	<g>
		<path class="st1" d="M130.8,213c0-1.3,1.1-2.4,2.4-2.4c1,0,1.8,0.6,2.2,1.5h0l22.9,55.6c4.8,11.6,16,19.2,28.6,19.2h18.6
			c11.4,0,21.9-5.7,28.1-15.3c6.2-9.6,7.1-21.5,2.4-31.9l-23.2-51.5c-0.4-0.8-0.1-1.7,0.7-2.5c16.9-16.3,24.9-37.8,25.3-67.7
			c0-58.3-29.3-110.9-95-114.8L72.9,20.7c-13.9,0-25.1,11.3-25.1,25.1V256c0,17.1,13.9,30.9,30.9,30.9h21.2
			c17.1,0,30.9-13.9,30.9-30.9V213z M157.9,116.7c0,9.3-3.4,19.3-13,19.3h-12.7c-1.3,0-2.4-1.1-2.4-2.4v-32.7c0-1.3,1.1-2.4,2.4-2.4
			h12.7C154.4,98.4,157.9,107.9,157.9,116.7z"/>
		<path class="st2" d="M135.2,188l22.9,55.6c4.1,9.9,13.6,16.3,24.3,16.3H201c9.8,0,18.8-4.9,24.1-13.1c5.3-8.2,6.1-18.5,2.1-27.4
			L204,168c-1.2-2.6-0.5-5.7,1.7-7.8c15.9-15.4,23.5-35.8,23.9-64.4c0-55.5-35.7-92.7-88.9-92.7H68.4c-11.3,0-20.5,9.2-20.5,20.5
			v210.2c0,14.5,11.8,26.3,26.3,26.3h21.2c14.5,0,26.3-11.8,26.3-26.3v-43c0-3.9,3.2-7.1,7.1-7.1C131.6,183.6,134.1,185.3,135.2,188
			z M120.6,78.5c0-3.9,3.2-7.1,7.1-7.1h12.7c10.7,0,17.7,9,17.7,22.9c0,14.6-6.9,24-17.7,24h-12.7c-3.9,0-7.1-3.2-7.1-7.1V78.5z"/>
	</g>
	<g>
		<g class="st3">
			<path class="st4" d="M141.5,131c3.1-1.4,6.8,0,8.3,3.1l15.4,34.1c1.4,3.1,0,6.8-3.1,8.3c-3.1,1.4-6.8,0-8.3-3.1l-15.4-34.1
				C137,136.2,138.3,132.5,141.5,131z"/>
		</g>
		<g class="st3">
			<path class="st4" d="M123.2,125.9c3.4,0,6.2,2.8,6.2,6.2v37.4c0,3.4-2.8,6.2-6.2,6.2c-3.4,0-6.2-2.8-6.2-6.2v-37.4
				C116.9,128.7,119.7,125.9,123.2,125.9z"/>
		</g>
		<g class="st3">
			<path class="st4" d="M95.2,103.2c3.4,0.2,6,3,5.9,6.4c-0.1,3.4-2.9,6.2-6.4,6.1l-37.4-0.8c-3.5-0.1-6.2-2.9-6.1-6.4
				c0.1-3.4,2.9-6.2,6.4-6.1l37.4,0.8C95.1,103.2,95.2,103.2,95.2,103.2z"/>
		</g>
		<g class="st3">
			<path class="st4" d="M59.4,75.3c0.1,0,0.2,0,0.3,0L97,77c3.4,0.2,6.1,3.1,6,6.5c-0.2,3.4-3,6.2-6.5,6l-37.4-1.7
				c-3.4-0.2-6.1-3.1-6-6.5C53.3,77.9,56.1,75.3,59.4,75.3z"/>
		</g>
		<g class="st3">
			<path class="st4" d="M61.5,41.9c0.7,0,1.5,0.1,2.2,0.4l35,13c3.2,1.2,4.9,4.8,3.7,8c-1.2,3.2-4.8,4.9-8,3.7l-35-13
				c-3.2-1.2-4.9-4.8-3.7-8C56.6,43.4,58.9,41.9,61.5,41.9z"/>
		</g>
		<g class="st3">
			<path class="st4" d="M87.6,16.8c1.7,0,3.4,0.7,4.7,2.1l24.8,28c2.3,2.6,2,6.5-0.5,8.8c-2.6,2.3-6.5,2-8.8-0.5l-24.8-28
				c-2.3-2.6-2-6.5,0.5-8.8C84.7,17.3,86.1,16.8,87.6,16.8z"/>
		</g>
		<g class="st3">
			<path class="st4" d="M129.9,3.3c0.1,0,0.2,0,0.3,0c3.4,0.2,6.1,3.1,5.9,6.5l-1.8,38.7c-0.2,3.4-3,6.1-6.5,5.9
				c-3.4-0.2-6.1-3.1-5.9-6.5l1.8-38.7C123.8,5.9,126.5,3.3,129.9,3.3z"/>
		</g>
		<g class="st3">
			<path class="st4" d="M165.7,12.6c0.8,0,1.7,0.2,2.5,0.5c3.2,1.4,4.6,5,3.3,8.2L157,55c-1.4,3.2-5,4.6-8.2,3.3
				c-3.2-1.4-4.6-5-3.3-8.2L160,16.4C161,14.1,163.3,12.6,165.7,12.6z"/>
		</g>
		<g class="st3">
			<path class="st4" d="M194.8,39.5c2.2,0,4.3,1.1,5.4,3.1c1.7,3,0.7,6.8-2.3,8.5l-32.3,18.4c-3,1.7-6.8,0.7-8.5-2.3
				c-1.7-3-0.7-6.8,2.3-8.5l32.3-18.4C192.6,39.7,193.7,39.5,194.8,39.5z"/>
		</g>
		<g class="st3">
			<path class="st4" d="M211,74.7c3,0.3,5.5,2.8,5.6,6c0.1,3.4-2.6,6.3-6,6.5l-38.9,1.5c-3.4,0.1-6.3-2.6-6.5-6
				c-0.1-3.4,2.6-6.3,6-6.5l38.9-1.5C210.4,74.6,210.7,74.6,211,74.7z"/>
		</g>
		<g>
			<path class="st5" d="M144.4,131.1c3.1-1.4,6.8,0,8.3,3.1l15.4,34.1c1.4,3.1,0,6.8-3.1,8.3s-6.8,0-8.3-3.1l-15.4-34.1
				C139.9,136.2,141.3,132.5,144.4,131.1z"/>
		</g>
		<g>
			<path class="st5" d="M125.8,127.1c3.4,0,6.2,2.8,6.2,6.2v37.4c0,3.4-2.8,6.2-6.2,6.2s-6.2-2.8-6.2-6.2v-37.4
				C119.6,129.9,122.4,127.1,125.8,127.1z"/>
		</g>
		<g>
			<path class="st5" d="M97.8,104.6c3.4,0.2,6,3,5.9,6.4c-0.1,3.4-2.9,6.2-6.4,6.1L60,116.2c-3.5-0.1-6.2-2.9-6.1-6.4
				c0.1-3.4,2.9-6.2,6.4-6.1l37.4,0.8C97.7,104.6,97.8,104.6,97.8,104.6z"/>
		</g>
		<g class="st3">
			<path class="st4" d="M96.7,129.6c3.4,0.2,6,3,5.9,6.4c-0.1,3.4-2.9,6.2-6.4,6.1l-37.4-0.8c-3.5-0.1-6.2-2.9-6.1-6.4
				c0.1-3.4,2.9-6.2,6.4-6.1l37.4,0.8C96.6,129.6,96.6,129.6,96.7,129.6z"/>
		</g>
		<g>
			<path class="st5" d="M99.3,131c3.4,0.2,6,3,5.9,6.4c-0.1,3.4-2.9,6.2-6.4,6.1l-37.4-0.8c-3.5-0.1-6.2-2.9-6.1-6.4
				c0.1-3.4,2.9-6.2,6.4-6.1l37.4,0.8C99.2,131,99.3,131,99.3,131z"/>
		</g>
		<g class="st3">
			<path class="st4" d="M97.9,155.4c3.4,0.1,6.1,2.8,6.1,6.2c0,3.4-2.8,6.2-6.2,6.2l-37.4,0.1c-3.5,0-6.2-2.8-6.2-6.2
				c0-3.4,2.8-6.2,6.2-6.2l37.4-0.1C97.7,155.4,97.8,155.4,97.9,155.4z"/>
		</g>
		<g>
			<path class="st5" d="M100.5,156.7c3.4,0.1,6.1,2.8,6.1,6.2c0,3.4-2.8,6.2-6.2,6.2l-37.4,0.1c-3.5,0-6.2-2.8-6.2-6.2
				c0-3.4,2.8-6.2,6.2-6.2l37.4-0.1C100.4,156.7,100.4,156.7,100.5,156.7z"/>
		</g>
		<g class="st3">
			<path class="st4" d="M99.2,185.2c3.4,0.1,6.1,2.8,6.1,6.2c0,3.4-2.8,6.2-6.2,6.2l-37.4,0.1c-3.5,0-6.2-2.8-6.2-6.2
				c0-3.4,2.8-6.2,6.2-6.2l37.4-0.1C99.1,185.2,99.2,185.2,99.2,185.2z"/>
		</g>
		<g>
			<path class="st5" d="M101.9,186.6c3.4,0.1,6.1,2.8,6.1,6.2c0,3.4-2.8,6.2-6.2,6.2l-37.4,0.1c-3.5,0-6.2-2.8-6.2-6.2
				c0-3.4,2.8-6.2,6.2-6.2l37.4-0.1C101.7,186.6,101.8,186.6,101.9,186.6z"/>
		</g>
		<g class="st3">
			<path class="st4" d="M100.5,212.5c3.4,0.1,6.1,2.8,6.1,6.2c0,3.4-2.8,6.2-6.2,6.2L63,225c-3.5,0-6.2-2.8-6.2-6.2
				c0-3.4,2.8-6.2,6.2-6.2l37.4-0.1C100.4,212.5,100.5,212.5,100.5,212.5z"/>
		</g>
		<g>
			<path class="st5" d="M103.2,213.8c3.4,0.1,6.1,2.8,6.1,6.2c0,3.4-2.8,6.2-6.2,6.2l-37.4,0.1c-3.5,0-6.2-2.8-6.2-6.2
				c0-3.4,2.8-6.2,6.2-6.2l37.4-0.1C103.1,213.8,103.1,213.8,103.2,213.8z"/>
		</g>
		<g class="st3">
			<path class="st4" d="M100.5,237c3.4,0.1,6.1,2.8,6.1,6.2c0,3.4-2.8,6.2-6.2,6.2L63,249.5c-3.5,0-6.2-2.8-6.2-6.2
				c0-3.4,2.8-6.2,6.2-6.2l37.4-0.1C100.4,237,100.5,237,100.5,237z"/>
		</g>
		<g>
			<path class="st5" d="M103.2,238.4c3.4,0.1,6.1,2.8,6.1,6.2c0,3.4-2.8,6.2-6.2,6.2l-37.4,0.1c-3.5,0-6.2-2.8-6.2-6.2
				c0-3.4,2.8-6.2,6.2-6.2l37.4-0.1C103.1,238.4,103.1,238.4,103.2,238.4z"/>
		</g>
		<g class="st3">
			<path class="st4" d="M189.8,182.3c3.3-0.8,6.6,1.2,7.5,4.4c0.9,3.3-1.1,6.7-4.4,7.6l-36.1,9.7c-3.4,0.9-6.7-1.1-7.6-4.4
				c-0.9-3.3,1.1-6.7,4.4-7.6l36.1-9.7C189.7,182.3,189.7,182.3,189.8,182.3z"/>
		</g>
		<g>
			<path class="st5" d="M192.7,182.9c3.3-0.8,6.6,1.2,7.5,4.4c0.9,3.3-1.1,6.7-4.4,7.6l-36.1,9.7c-3.4,0.9-6.7-1.1-7.6-4.4
				c-0.9-3.3,1.1-6.7,4.4-7.6l36.1-9.7C192.6,182.9,192.6,182.9,192.7,182.9z"/>
		</g>
		<g class="st3">
			<path class="st4" d="M206,208.5c3.3-0.8,6.6,1.2,7.5,4.4c0.9,3.3-1.1,6.7-4.4,7.6l-36.1,9.7c-3.4,0.9-6.7-1.1-7.6-4.4
				c-0.9-3.3,1.1-6.7,4.4-7.6l36.1-9.7C205.9,208.5,206,208.5,206,208.5z"/>
		</g>
		<g>
			<path class="st5" d="M208.9,209.1c3.3-0.8,6.6,1.2,7.5,4.4c0.9,3.3-1.1,6.7-4.4,7.6l-36.1,9.7c-3.4,0.9-6.7-1.1-7.6-4.4
				c-0.9-3.3,1.1-6.7,4.4-7.6l36.1-9.7C208.8,209.1,208.8,209.1,208.9,209.1z"/>
		</g>
		<g class="st3">
			<path class="st4" d="M212.6,232.4c3.3-0.8,6.6,1.2,7.5,4.4c0.9,3.3-1.1,6.7-4.4,7.6l-36.1,9.7c-3.4,0.9-6.7-1.1-7.6-4.4
				c-0.9-3.3,1.1-6.7,4.4-7.6l36.1-9.7C212.5,232.4,212.6,232.4,212.6,232.4z"/>
		</g>
		<g>
			<path class="st5" d="M215.5,233c3.3-0.8,6.6,1.2,7.5,4.4c0.9,3.3-1.1,6.7-4.4,7.6l-36.1,9.7c-3.4,0.9-6.7-1.1-7.6-4.4
				c-0.9-3.3,1.1-6.7,4.4-7.6l36.1-9.7C215.4,233.1,215.5,233,215.5,233z"/>
		</g>
		<g>
			<path class="st5" d="M62.1,76.6c0.1,0,0.2,0,0.3,0l37.4,1.7c3.4,0.2,6.1,3.1,6,6.5c-0.2,3.4-3,6.2-6.5,6L61.8,89
				c-3.4-0.2-6.1-3.1-6-6.5C56,79.2,58.8,76.6,62.1,76.6z"/>
		</g>
		<g>
			<path class="st5" d="M64.2,43.2c0.7,0,1.5,0.1,2.2,0.4l35,13c3.2,1.2,4.9,4.8,3.7,8c-1.2,3.2-4.8,4.9-8,3.7l-35-13
				c-3.2-1.2-4.9-4.8-3.7-8C59.2,44.7,61.6,43.2,64.2,43.2z"/>
		</g>
		<g>
			<path class="st5" d="M90.3,18c1.7,0,3.4,0.7,4.7,2.1l24.8,28c2.3,2.6,2,6.5-0.5,8.8c-2.6,2.3-6.5,2-8.8-0.5l-24.8-28
				c-2.3-2.6-2-6.5,0.5-8.8C87.4,18.5,88.8,18,90.3,18z"/>
		</g>
		<g>
			<path class="st5" d="M132.5,4.6c0.1,0,0.2,0,0.3,0c3.4,0.2,6.1,3.1,5.9,6.5L137,49.8c-0.2,3.4-3,6.1-6.5,5.9
				c-3.4-0.2-6.1-3.1-5.9-6.5l1.8-38.7C126.5,7.2,129.2,4.6,132.5,4.6z"/>
		</g>
		<g>
			<path class="st5" d="M168.4,13.9c0.8,0,1.7,0.2,2.5,0.5c3.2,1.4,4.6,5,3.3,8.2l-14.4,33.7c-1.4,3.2-5,4.6-8.2,3.3
				c-3.2-1.4-4.6-5-3.3-8.2l14.4-33.7C163.7,15.3,166,13.9,168.4,13.9z"/>
		</g>
		<g>
			<path class="st5" d="M197.4,40.7c2.2,0,4.3,1.1,5.4,3.1c1.7,3,0.7,6.8-2.3,8.5l-32.3,18.4c-3,1.7-6.8,0.7-8.5-2.3
				c-1.7-3-0.7-6.8,2.3-8.5l32.3-18.4C195.3,41,196.4,40.7,197.4,40.7z"/>
		</g>
		<g>
			<path class="st5" d="M213.5,76.2c3,0.3,5.5,2.8,5.6,6c0.1,3.4-2.6,6.3-6,6.5l-38.9,1.5c-3.4,0.1-6.3-2.6-6.5-6
				c-0.1-3.4,2.6-6.3,6-6.5l38.9-1.5C212.9,76.2,213.2,76.2,213.5,76.2z"/>
		</g>
		<g class="st3">
			<path class="st4" d="M212.1,111.3c2.9,1.1,4.5,4.1,3.9,7.2c-0.8,3.4-4.1,5.5-7.5,4.7l-38-8.6c-3.4-0.8-5.5-4.1-4.7-7.5
				c0.8-3.4,4.1-5.5,7.5-4.7l38,8.6C211.5,111.1,211.8,111.2,212.1,111.3z"/>
		</g>
		<g>
			<path class="st5" d="M214.4,109.9c2.9,1.1,4.5,4.1,3.9,7.2c-0.8,3.4-4.1,5.5-7.5,4.7l-38-8.6c-3.4-0.8-5.5-4.1-4.7-7.5
				c0.8-3.4,4.1-5.5,7.5-4.7l38,8.6C213.8,109.7,214.1,109.8,214.4,109.9z"/>
		</g>
		<g class="st3">
			<path class="st4" d="M198.6,140.9c2.4,1.9,3.1,5.3,1.6,8c-1.7,3-5.5,4-8.5,2.3l-33.8-19.3c-3-1.7-4-5.5-2.3-8.5
				c1.7-3,5.5-4,8.5-2.3l33.8,19.3C198.1,140.5,198.4,140.7,198.6,140.9z"/>
		</g>
		<g>
			<path class="st5" d="M200,140.6c2.4,1.9,3.1,5.3,1.6,8c-1.7,3-5.5,4-8.5,2.3l-33.8-19.3c-3-1.7-4-5.5-2.3-8.5
				c1.7-3,5.5-4,8.5-2.3l33.8,19.3C199.6,140.2,199.8,140.4,200,140.6z"/>
		</g>
	</g>
</g>
</svg>
