<?xml version="1.0" encoding="utf-8"?>
<!-- Generator: Adobe Illustrator 24.1.2, SVG Export Plug-In . SVG Version: 6.00 Build 0)  -->
<svg version="1.1" id="Calque_1" xmlns="http://www.w3.org/2000/svg" xmlns:xlink="http://www.w3.org/1999/xlink" x="0px" y="0px"
	 viewBox="0 0 300 300" style="enable-background:new 0 0 300 300;" xml:space="preserve">
<style type="text/css">
	.st0{fill:#C2D9AB;}
	.st1{fill:#AB7017;}
	.st2{fill:#D79728;}
	.st3{fill:#8D6017;}
	.st4{opacity:0.2;}
	.st5{fill:#252422;}
	.st6{fill:#FCFBFA;}
	.st7{opacity:7.000000e-02;}
</style>
<g>
	<path class="st0" d="M249.9,212.5c0-19.7-4.7-37.2-12.1-51.2c-9.3-19.4-18-27.3-24.3-33.5c7.3-3.2,15-13.2,17.6-21.1
		c9-27.6-5-48-7-51.8c-13.7-26.1-41.2-41-75.3-41c-52.3,0-86.1,32.2-86.1,82c0,3.4,0.2,6.6,0.5,9.8c-0.4,3.9-0.7,7.9-0.7,12
		c0,27.6,10.2,49.5,28.8,64.1c-8.2,2.5-15.1,8-19.6,15.7c-4.9,8.6-5.8,18.4-2.9,27.4c-3.3,10.3-2.1,21.5,3.6,31.2
		c15.6,26.7,45.8,42,82.9,42C212.7,298,249.9,264.4,249.9,212.5z M147,108.1c1.7-0.9,4-1.5,7.1-1.5c2.9,0,6.6,0.7,8.9,3.9
		c-3-0.4-6.1-0.8-9.1-1.1C151.4,109,149.1,108.6,147,108.1z M146.8,201.1l0.8,0.1c5.7,0.5,10,1.1,13.2,1.9c-3.8,1.5-8,1.8-10.6,1.8
		c-6.3,0-11.6-1.9-15.2-5.2C138.8,200.3,142.7,200.8,146.8,201.1z"/>
	<g>
		<path class="st1" d="M237.5,201.7c0-30.6-15.8-68.9-31.3-80.7c-18.1-13.8-40.7-3.2-59.6-5.1c-16.5-2.1-16.5-7.6-16.5-9.4
			c0-2.9,0-10.7,11.7-10.7c3.2,0,7.5,0.9,9.7,5.1c6.3,12,19.2,19.4,33.7,19.4c13.9,0,24.1-11.9,30.8-24.2c7-12.9,3.6-36.6-2.6-48.4
			c-14.6-27.6-36.7-27.5-72.6-27.5c-46.9,0-87.9,13.6-90,54.3C50.2,85,50.1,99,50.1,106.8c0,48.4,31.5,79.6,84.3,83.5l0.8,0.1
			c18.7,1.6,22,4.7,22,10.6c0,8.5-8.2,10.3-15.1,10.3c-6.4,0-11.5-2.3-14-6.2c-7.2-11.6-19.6-18.6-33.2-18.6h-1.3
			c-14.2,0-34.7-6.3-37.5,7.6c-2.7,13.3-3.3,39,3.8,51.2c15.6,26.7,45.8,42,82.9,42C200.3,287.2,237.5,253.6,237.5,201.7z"/>
		<path class="st2" d="M228.5,179.9c0-63.8-44-76.9-86.9-81.3c-20.5-2.7-20.5-11.1-20.5-13.9c0-13.2,10.2-15.2,16.3-15.2
			c6.3,0,11.2,2.7,13.8,7.5c5.5,10.5,16.9,17,29.7,17c12.3,0,23.4-6.3,29.8-16.9c6.2-10.2,6.6-22.6,1.1-33
			c-13.7-26.1-41.2-41-75.3-41C84,3,50.2,35.2,50.2,85c0,45.7,30,75.2,80.1,78.9l0.8,0.1c17,1.4,26.2,4.3,26.2,15.2
			c0,13.4-13.7,14.9-19.6,14.9c-8.1,0-14.6-3.1-17.9-8.4c-6.4-10.3-17.3-16.4-29.3-16.4h-1.3c-12.5,0-23.7,6.5-29.9,17.4
			c-6.2,10.8-6.2,23.8,0.2,34.5c14.8,25.2,43.6,39.7,78.9,39.7C193.1,260.8,228.5,229.1,228.5,179.9z"/>
	</g>
	<g>
		<g>
			<path class="st3" d="M137.8,248.8c-46.7,0-68-40.8-68.9-42.6c-4.6-9-1-20,8-24.5c8.9-4.6,19.9-1,24.5,7.9
				c0.7,1.3,13.9,25.1,40.8,22.6c36.3-3.4,37.7-26.4,37.3-33.4c-0.4-7.1-7.7-25.5-35.6-25.5c-25.4,0-48.5-9-63.2-24.8
				C68.7,115.7,62.8,99.2,64,82c1.4-20.6,12.2-40.3,28.8-52.8c15.7-11.8,34.6-16.1,53.2-12.1c17.4,3.7,40.4,18.9,48.3,26.3
				c11.4,10.8,12.6,25.3-1.7,32.2c-6.7,3.2-13.5,2.3-22.6-4.8c-4.2-3.3-21.3-15.8-31.7-18c-10.5-2.2-18.6,1.8-23.6,5.5
				c-8.3,6.2-13.6,16-14.3,26.2c-0.5,7.2,1.8,13.6,6.8,19c7.9,8.4,21.2,13.2,36.5,13.2c26.8,0,43.5,10.7,52.8,19.6
				c11.3,10.9,18.4,25.5,19.2,40.2c1.9,32.4-19.1,67.2-70.4,71.9C142.8,248.7,140.3,248.8,137.8,248.8z"/>
		</g>
		<g>
			<g class="st4">
				<path class="st5" d="M184.8,68.2c0.6,0,1.1-0.1,1.7-0.2c0.2,0,0.3-0.1,0.5-0.1c0.5-0.1,0.9-0.3,1.4-0.4c0.2-0.1,0.3-0.2,0.5-0.2
					c0.3-0.2,0.6-0.3,0.9-0.5c0.2-0.1,0.4-0.3,0.7-0.4c0.2-0.1,0.3-0.3,0.5-0.4c0.4-0.4,0.8-0.8,1.2-1.2c0.1-0.1,0.1-0.2,0.2-0.2
					c0.2-0.3,0.4-0.6,0.6-0.9c0,0,0,0,0,0h0c0.9-1.4,1.4-3.1,1.4-4.9c0-5.2-4.3-9.5-9.5-9.5c-1.4,0-2.7,0.3-3.8,0.8
					c-0.4,0.2-0.9,0.4-1.3,0.7c-0.2,0.1-0.4,0.3-0.6,0.4c-0.2,0.2-0.5,0.4-0.7,0.6c-0.2,0.2-0.3,0.3-0.5,0.5
					c-0.3,0.3-0.5,0.6-0.7,0.9c-0.1,0.1-0.2,0.2-0.3,0.4c-0.3,0.4-0.5,0.9-0.8,1.4c-0.1,0.2-0.1,0.3-0.2,0.5
					c-0.1,0.4-0.3,0.8-0.4,1.2c0,0.2-0.1,0.3-0.1,0.5c-0.1,0.6-0.2,1.1-0.2,1.7c0,0.8,0.1,1.6,0.3,2.3c0.3,1.1,0.7,2.1,1.3,3
					c0.5,0.8,1.2,1.4,1.9,2c1.2,0.9,2.5,1.6,4,2C183.5,68.1,184.2,68.2,184.8,68.2z"/>
				<path class="st5" d="M142.4,43.1c1.2,0.9,2.5,1.6,4,2c0.6,0.1,1.3,0.2,1.9,0.2c0.6,0,1.1-0.1,1.7-0.2c0.2,0,0.3-0.1,0.5-0.1
					c0.5-0.1,0.9-0.3,1.4-0.4c0.2-0.1,0.3-0.2,0.5-0.2c0.3-0.2,0.6-0.3,0.9-0.5c0.2-0.1,0.4-0.3,0.7-0.4c0.2-0.1,0.3-0.3,0.5-0.4
					c0.4-0.4,0.8-0.8,1.2-1.2c0.1-0.1,0.1-0.2,0.2-0.2c0.2-0.3,0.4-0.6,0.6-0.9c0,0,0,0,0,0h0c0.9-1.4,1.4-3.1,1.4-4.9
					c0-5.2-4.3-9.5-9.5-9.5c-1.4,0-2.7,0.3-3.8,0.8c-0.4,0.2-0.9,0.4-1.3,0.7c-0.2,0.1-0.4,0.3-0.6,0.4c-0.2,0.2-0.5,0.4-0.7,0.6
					c-0.2,0.2-0.3,0.3-0.5,0.5c-0.3,0.3-0.5,0.6-0.7,0.9c-0.1,0.1-0.2,0.2-0.3,0.4c-0.3,0.4-0.5,0.9-0.8,1.4
					c-0.1,0.2-0.1,0.3-0.2,0.5c-0.1,0.4-0.3,0.8-0.4,1.2c0,0.2-0.1,0.3-0.1,0.5c-0.1,0.6-0.2,1.1-0.2,1.7c0,0.8,0.1,1.6,0.3,2.3
					c0.3,1.1,0.7,2.1,1.3,3C141,41.8,141.6,42.5,142.4,43.1z"/>
				<path class="st5" d="M94.8,39.7c-0.1,0.2-0.1,0.3-0.2,0.5c-0.1,0.4-0.3,0.8-0.4,1.2c0,0.2-0.1,0.3-0.1,0.5
					C94,42.4,94,43,94,43.6c0,0.8,0.1,1.6,0.3,2.3c0.3,1.1,0.7,2.1,1.3,3c0.5,0.8,1.2,1.4,1.9,2c1.2,0.9,2.5,1.6,4,2
					c0.6,0.1,1.3,0.2,1.9,0.2c0.6,0,1.1-0.1,1.7-0.2c0.2,0,0.3-0.1,0.5-0.1c0.5-0.1,0.9-0.3,1.4-0.4c0.2-0.1,0.3-0.2,0.5-0.2
					c0.3-0.2,0.6-0.3,0.9-0.5c0.2-0.1,0.4-0.3,0.7-0.4c0.2-0.1,0.3-0.3,0.5-0.4c0.4-0.4,0.8-0.8,1.2-1.2c0.1-0.1,0.1-0.2,0.2-0.2
					c0.2-0.3,0.4-0.6,0.6-0.9c0,0,0,0,0,0h0c0.9-1.4,1.4-3.1,1.4-4.9c0-5.2-4.3-9.5-9.5-9.5c-1.4,0-2.7,0.3-3.8,0.8
					c-0.4,0.2-0.9,0.4-1.3,0.7c-0.2,0.1-0.4,0.3-0.6,0.4c-0.2,0.2-0.5,0.4-0.7,0.6c-0.2,0.2-0.3,0.3-0.5,0.5
					c-0.3,0.3-0.5,0.6-0.7,0.9c-0.1,0.1-0.2,0.2-0.3,0.4C95.3,38.8,95,39.2,94.8,39.7z"/>
				<path class="st5" d="M150.8,125.5c-1.4,0-2.7,0.3-3.8,0.8v0c-0.4,0.2-0.9,0.4-1.3,0.7c-0.2,0.1-0.4,0.3-0.6,0.4
					c-0.2,0.2-0.5,0.4-0.7,0.6c-0.2,0.2-0.3,0.3-0.5,0.5c-0.3,0.3-0.5,0.6-0.7,0.9c-0.1,0.1-0.2,0.2-0.3,0.4
					c-0.3,0.4-0.5,0.9-0.8,1.4c-0.1,0.2-0.1,0.3-0.2,0.5c-0.1,0.4-0.3,0.8-0.4,1.2c0,0.2-0.1,0.3-0.1,0.5c-0.1,0.6-0.2,1.1-0.2,1.7
					c0,0.8,0.1,1.6,0.3,2.3c0.3,1.1,0.7,2.1,1.3,3c0.5,0.8,1.2,1.4,1.9,2c1.2,0.9,2.5,1.6,4,2c0.6,0.1,1.3,0.2,1.9,0.2
					c0.6,0,1.1-0.1,1.7-0.2c0.2,0,0.3-0.1,0.5-0.1c0.5-0.1,0.9-0.3,1.4-0.4c0.2-0.1,0.3-0.2,0.5-0.2c0.3-0.2,0.6-0.3,0.9-0.5
					c0.2-0.1,0.4-0.3,0.7-0.4c0.2-0.1,0.3-0.3,0.5-0.4c0.4-0.4,0.8-0.8,1.2-1.2c0.1-0.1,0.1-0.2,0.2-0.2c0.2-0.3,0.4-0.6,0.6-0.9
					c0,0,0,0,0,0h0c0.9-1.4,1.4-3.1,1.4-4.9C160.3,129.7,156.1,125.5,150.8,125.5z"/>
				<path class="st5" d="M88,93.5c0.2-0.1,0.3-0.2,0.5-0.2c0.3-0.2,0.6-0.3,0.9-0.5c0.2-0.1,0.4-0.3,0.7-0.4
					c0.2-0.1,0.3-0.3,0.5-0.4c0.4-0.4,0.8-0.8,1.2-1.2c0.1-0.1,0.1-0.2,0.2-0.2c0.2-0.3,0.4-0.6,0.6-0.9c0,0,0,0,0,0h0
					c0.9-1.4,1.4-3.1,1.4-4.9c0-5.2-4.3-9.5-9.5-9.5c-1.4,0-2.7,0.3-3.8,0.8c-0.4,0.2-0.9,0.4-1.3,0.7c-0.2,0.1-0.4,0.3-0.6,0.4
					c-0.2,0.2-0.5,0.4-0.7,0.6c-0.2,0.2-0.3,0.3-0.5,0.5c-0.3,0.3-0.5,0.6-0.7,0.9c-0.1,0.1-0.2,0.2-0.3,0.4
					c-0.3,0.4-0.5,0.9-0.8,1.4c-0.1,0.2-0.1,0.3-0.2,0.5c-0.1,0.4-0.3,0.8-0.4,1.2c0,0.2-0.1,0.3-0.1,0.5C75,83.6,75,84.1,75,84.7
					c0,0.8,0.1,1.6,0.3,2.3c0.3,1.1,0.7,2.1,1.3,3c0.5,0.8,1.2,1.4,1.9,2c1.2,0.9,2.5,1.6,4,2c0.6,0.1,1.3,0.2,1.9,0.2
					c0.6,0,1.1-0.1,1.7-0.2c0.2,0,0.3-0.1,0.5-0.1C87.1,93.8,87.5,93.7,88,93.5z"/>
				<path class="st5" d="M105.6,114.6c-1.4,0-2.7,0.3-3.8,0.8l0,0c-0.4,0.2-0.9,0.4-1.3,0.7c-0.2,0.1-0.4,0.3-0.6,0.4
					c-0.2,0.2-0.5,0.4-0.7,0.6c-0.2,0.2-0.3,0.3-0.5,0.5c-0.3,0.3-0.5,0.6-0.7,0.9c-0.1,0.1-0.2,0.2-0.3,0.4
					c-0.3,0.4-0.5,0.9-0.8,1.4c-0.1,0.2-0.1,0.3-0.2,0.5c-0.1,0.4-0.3,0.8-0.4,1.2c0,0.2-0.1,0.3-0.1,0.5c-0.1,0.6-0.2,1.1-0.2,1.7
					c0,0.8,0.1,1.6,0.3,2.3c0.3,1.1,0.7,2.1,1.3,3c0.5,0.8,1.2,1.4,1.9,2c1.2,0.9,2.5,1.6,4,2c0.6,0.1,1.3,0.2,1.9,0.2
					c0.6,0,1.1-0.1,1.7-0.2c0.2,0,0.3-0.1,0.5-0.1c0.5-0.1,0.9-0.3,1.4-0.4c0.2-0.1,0.3-0.2,0.5-0.2c0.3-0.2,0.6-0.3,0.9-0.5
					c0.2-0.1,0.4-0.3,0.7-0.4c0.2-0.1,0.3-0.3,0.5-0.4c0.4-0.4,0.8-0.8,1.2-1.2c0.1-0.1,0.1-0.2,0.2-0.2c0.2-0.3,0.4-0.6,0.6-0.9
					c0,0,0,0,0,0h0c0.9-1.4,1.4-3.1,1.4-4.9C115.1,118.8,110.9,114.6,105.6,114.6z"/>
				<path class="st5" d="M192.9,198.9c-1.4,0-2.7,0.3-3.8,0.8c-0.4,0.2-0.9,0.4-1.3,0.7c-0.2,0.1-0.4,0.3-0.6,0.4
					c-0.2,0.2-0.5,0.4-0.7,0.6c-0.2,0.2-0.4,0.3-0.5,0.5c-0.3,0.3-0.5,0.6-0.7,0.9c-0.1,0.1-0.2,0.2-0.3,0.4
					c-0.3,0.4-0.5,0.9-0.7,1.4c-0.1,0.2-0.1,0.3-0.2,0.5c-0.1,0.4-0.3,0.8-0.4,1.2c0,0.2-0.1,0.3-0.1,0.5c-0.1,0.6-0.2,1.1-0.2,1.7
					c0,5.2,4.3,9.5,9.5,9.5c0.6,0,1.1-0.1,1.7-0.2c0.2,0,0.3-0.1,0.5-0.1c0.5-0.1,0.9-0.3,1.4-0.4c0.2-0.1,0.3-0.2,0.5-0.2
					c0.3-0.2,0.6-0.3,0.9-0.5c0.2-0.1,0.4-0.3,0.7-0.4c0.2-0.1,0.3-0.3,0.5-0.4c0.4-0.4,0.8-0.8,1.2-1.2c0.1-0.1,0.1-0.2,0.2-0.2
					c0.2-0.3,0.4-0.6,0.6-0.9c0,0,0,0,0,0c0,0,0,0,0,0c0.9-1.4,1.4-3.1,1.4-4.9C202.4,203.1,198.2,198.9,192.9,198.9z"/>
				<path class="st5" d="M203.8,159.5c0-5.2-4.3-9.5-9.5-9.5c-1.4,0-2.7,0.3-3.8,0.8c-0.4,0.2-0.9,0.4-1.3,0.7
					c-0.2,0.1-0.4,0.3-0.6,0.4c-0.2,0.2-0.5,0.4-0.7,0.6c-0.2,0.2-0.3,0.3-0.5,0.5c-0.3,0.3-0.5,0.6-0.7,0.9
					c-0.1,0.1-0.2,0.2-0.3,0.4c-0.3,0.4-0.5,0.9-0.8,1.4c-0.1,0.2-0.1,0.3-0.2,0.5c-0.1,0.4-0.3,0.8-0.4,1.2c0,0.2-0.1,0.3-0.1,0.5
					c-0.1,0.6-0.2,1.1-0.2,1.7c0,0.7,0.1,1.3,0.2,1.9c0.3,1.2,0.7,2.4,1.4,3.4c0.3,0.5,0.7,1,1.2,1.4c1.3,1.3,2.9,2.2,4.8,2.6
					c0.6,0.1,1.3,0.2,1.9,0.2c0.6,0,1.1-0.1,1.7-0.2c0.2,0,0.3-0.1,0.5-0.1c0.5-0.1,0.9-0.3,1.4-0.4c0.2-0.1,0.3-0.2,0.5-0.2
					c0.3-0.2,0.6-0.3,0.9-0.5c0.2-0.1,0.4-0.3,0.7-0.4c0.2-0.1,0.3-0.3,0.5-0.4c0.4-0.4,0.8-0.8,1.2-1.2c0.1-0.1,0.1-0.2,0.2-0.2
					c0.2-0.3,0.4-0.6,0.6-0.9c0,0,0,0,0,0h0C203.3,162.9,203.8,161.2,203.8,159.5z"/>
				<path class="st5" d="M101.2,204.2c-1.4,0-2.7,0.3-3.8,0.8c-0.4,0.2-0.9,0.4-1.3,0.7c-0.2,0.1-0.4,0.3-0.6,0.4
					c-0.2,0.2-0.5,0.4-0.7,0.6c-0.2,0.2-0.4,0.3-0.5,0.5c-0.3,0.3-0.5,0.6-0.7,0.9c-0.1,0.1-0.2,0.2-0.3,0.4
					c-0.3,0.4-0.5,0.9-0.7,1.4c-0.1,0.2-0.1,0.3-0.2,0.5c-0.1,0.4-0.3,0.8-0.4,1.2c0,0.2-0.1,0.3-0.1,0.5c-0.1,0.6-0.2,1.1-0.2,1.7
					c0,5.2,4.3,9.5,9.5,9.5c0.6,0,1.1-0.1,1.7-0.2c0.2,0,0.3-0.1,0.5-0.1c0.5-0.1,0.9-0.3,1.4-0.4c0.2-0.1,0.3-0.2,0.5-0.2
					c0.3-0.2,0.6-0.3,0.9-0.5c0.2-0.1,0.4-0.3,0.7-0.4c0.2-0.1,0.3-0.3,0.5-0.4c0.4-0.4,0.8-0.8,1.2-1.2c0.1-0.1,0.1-0.2,0.2-0.2
					c0.2-0.3,0.4-0.6,0.6-0.9c0,0,0,0,0,0c0,0,0,0,0,0c0.9-1.4,1.4-3.1,1.4-4.9C110.7,208.5,106.5,204.2,101.2,204.2z"/>
				<path class="st5" d="M150.8,220.5c-1.4,0-2.7,0.3-3.8,0.8v0c-0.4,0.2-0.9,0.4-1.3,0.7c-0.2,0.1-0.4,0.3-0.6,0.4
					c-0.2,0.2-0.5,0.4-0.7,0.6c-0.2,0.2-0.3,0.3-0.5,0.5c-0.3,0.3-0.5,0.6-0.7,0.9c-0.1,0.1-0.2,0.2-0.3,0.4
					c-0.3,0.4-0.5,0.9-0.8,1.4c-0.1,0.2-0.1,0.3-0.2,0.5c-0.1,0.4-0.3,0.8-0.4,1.2c0,0.2-0.1,0.3-0.1,0.5c-0.1,0.6-0.2,1.1-0.2,1.7
					c0,0.8,0.1,1.6,0.3,2.3c0.3,1.1,0.7,2.1,1.3,3c0.5,0.8,1.2,1.4,1.9,2c1.2,0.9,2.5,1.6,4,2c0.6,0.1,1.3,0.2,1.9,0.2
					c0.6,0,1.1-0.1,1.7-0.2c0.2,0,0.3-0.1,0.5-0.1c0.5-0.1,0.9-0.3,1.4-0.4c0.2-0.1,0.3-0.2,0.5-0.2c0.3-0.2,0.6-0.3,0.9-0.5
					c0.2-0.1,0.4-0.3,0.7-0.4c0.2-0.1,0.3-0.3,0.5-0.4c0.4-0.4,0.8-0.8,1.2-1.2c0.1-0.1,0.1-0.2,0.2-0.2c0.2-0.3,0.4-0.6,0.6-0.9
					c0,0,0,0,0,0h0c0.9-1.4,1.4-3.1,1.4-4.9C160.3,224.8,156.1,220.5,150.8,220.5z"/>
			</g>
			<g>
				<g>
					<circle class="st6" cx="182.9" cy="57.2" r="9.5"/>
					<g class="st7">
						<path class="st5" d="M177.6,53.4c0-1.8,0.5-3.4,1.4-4.9c-3.3,1.5-5.7,4.8-5.7,8.7c0,5.2,4.3,9.5,9.5,9.5
							c3.5,0,6.5-1.9,8.1-4.6c-1.2,0.5-2.5,0.8-3.8,0.8C181.9,62.9,177.6,58.7,177.6,53.4z"/>
					</g>
				</g>
				<g>
					<circle class="st6" cx="146.4" cy="34.3" r="9.5"/>
					<g class="st7">
						<path class="st5" d="M141.2,30.5c0-1.8,0.5-3.4,1.4-4.9c-3.3,1.5-5.7,4.8-5.7,8.7c0,5.2,4.3,9.5,9.5,9.5
							c3.5,0,6.5-1.9,8.1-4.6c-1.2,0.5-2.5,0.8-3.8,0.8C145.4,40,141.2,35.8,141.2,30.5z"/>
					</g>
				</g>
				<g>
					<circle class="st6" cx="101.5" cy="42.1" r="9.5"/>
					<g class="st7">
						<path class="st5" d="M96.3,38.3c0-1.8,0.5-3.4,1.4-4.9c-3.3,1.5-5.7,4.8-5.7,8.7c0,5.2,4.3,9.5,9.5,9.5c3.5,0,6.5-1.9,8.1-4.6
							c-1.2,0.5-2.5,0.8-3.8,0.8C100.6,47.8,96.3,43.6,96.3,38.3z"/>
					</g>
				</g>
				<g>
					<circle class="st6" cx="148.9" cy="133.5" r="9.5"/>
					<g class="st7">
						<path class="st5" d="M143.7,129.7c0-1.8,0.5-3.4,1.4-4.9c-3.3,1.5-5.7,4.8-5.7,8.7c0,5.2,4.3,9.5,9.5,9.5
							c3.5,0,6.5-1.9,8.1-4.6c-1.2,0.5-2.5,0.8-3.8,0.8C147.9,139.2,143.7,135,143.7,129.7z"/>
					</g>
				</g>
				<g>
					<circle class="st6" cx="82.5" cy="83.3" r="9.5"/>
					<g class="st7">
						<path class="st5" d="M77.3,79.5c0-1.8,0.5-3.4,1.4-4.9c-3.3,1.5-5.7,4.8-5.7,8.7c0,5.2,4.3,9.5,9.5,9.5c3.5,0,6.5-1.9,8.1-4.6
							c-1.2,0.5-2.5,0.8-3.8,0.8C81.5,89,77.3,84.7,77.3,79.5z"/>
					</g>
				</g>
				<g>
					<circle class="st6" cx="103.7" cy="122.6" r="9.5"/>
					<g class="st7">
						<path class="st5" d="M98.4,118.8c0-1.8,0.5-3.4,1.4-4.9c-3.3,1.5-5.7,4.8-5.7,8.7c0,5.2,4.3,9.5,9.5,9.5
							c3.5,0,6.5-1.9,8.1-4.6c-1.2,0.5-2.5,0.8-3.8,0.8C102.7,128.4,98.4,124.1,98.4,118.8z"/>
					</g>
				</g>
				<g>
					<circle class="st6" cx="191" cy="206.9" r="9.5"/>
					<g class="st7">
						<path class="st5" d="M185.8,203.1c0-1.8,0.5-3.4,1.4-4.9c-3.3,1.5-5.7,4.8-5.7,8.7c0,5.2,4.3,9.5,9.5,9.5
							c3.5,0,6.5-1.9,8.1-4.6c-1.2,0.5-2.5,0.8-3.8,0.8C190,212.6,185.8,208.4,185.8,203.1z"/>
					</g>
				</g>
				<g>
					<circle class="st6" cx="192.4" cy="158" r="9.5"/>
					<g class="st7">
						<path class="st5" d="M187.2,154.2c0-1.8,0.5-3.4,1.4-4.9c-3.3,1.5-5.7,4.8-5.7,8.7c0,5.2,4.3,9.5,9.5,9.5
							c3.5,0,6.5-1.9,8.1-4.6c-1.2,0.5-2.5,0.8-3.8,0.8C191.4,163.7,187.2,159.4,187.2,154.2z"/>
					</g>
				</g>
				<g>
					<circle class="st6" cx="99.3" cy="212.3" r="9.5"/>
					<g class="st7">
						<path class="st5" d="M94,208.5c0-1.8,0.5-3.4,1.4-4.9c-3.3,1.5-5.7,4.8-5.7,8.7c0,5.2,4.3,9.5,9.5,9.5c3.5,0,6.5-1.9,8.1-4.6
							c-1.2,0.5-2.5,0.8-3.8,0.8C98.3,218,94,213.7,94,208.5z"/>
					</g>
				</g>
				<g>
					<circle class="st6" cx="148.9" cy="228.6" r="9.5"/>
					<g class="st7">
						<path class="st5" d="M143.7,224.8c0-1.8,0.5-3.4,1.4-4.9c-3.3,1.5-5.7,4.8-5.7,8.7c0,5.2,4.3,9.5,9.5,9.5
							c3.5,0,6.5-1.9,8.1-4.6c-1.2,0.5-2.5,0.8-3.8,0.8C147.9,234.3,143.7,230,143.7,224.8z"/>
					</g>
				</g>
			</g>
		</g>
	</g>
</g>
</svg>
