<?xml version="1.0" encoding="utf-8"?>
<!-- Generator: Adobe Illustrator 24.1.2, SVG Export Plug-In . SVG Version: 6.00 Build 0)  -->
<svg version="1.1" id="Calque_1" xmlns="http://www.w3.org/2000/svg" xmlns:xlink="http://www.w3.org/1999/xlink" x="0px" y="0px"
	 viewBox="0 0 300 300" style="enable-background:new 0 0 300 300;" xml:space="preserve">
<style type="text/css">
	.st0{fill:#C2D9AB;}
	.st1{fill:#AB7017;}
	.st2{fill:#D79728;}
	.st3{fill:#EABFD0;}
	.st4{opacity:0.13;}
	.st5{fill:#252422;}
	.st6{fill:#FCFBFA;}
</style>
<g>
	<path class="st0" d="M197.6,269.8V110.4h14c18.6,0,33.8-15.2,33.8-33.8v-11c0-35.7-22.5-51.5-38.3-51.5H97.3
		c-16.1,0-29.1,13.1-29.1,29.1v11c0,1.7,0.2,3.3,0.5,4.9c-0.4,2.1-0.6,4.2-0.6,6.4v11c0,18.6,15.2,33.8,33.8,33.8h14.4v159.3
		c0,16.1,13.1,29.2,29.2,29.2h23C184.5,299,197.6,285.9,197.6,269.8z"/>
	<g>
		<path class="st1" d="M184.8,258.7V99.4h14c18.6,0,33.8-15.2,33.8-33.8v-28c0-18.6-18.4-34.6-37-34.6L89,3.8
			c-18.6,0-33.8,15.4-33.8,34v27.8c0,18.6,15.2,33.8,33.8,33.8h14.4v159.3c0,16.1,13.1,29.2,29.2,29.2h23
			C171.7,287.9,184.8,274.8,184.8,258.7z"/>
		<path class="st2" d="M175.6,236.3V74.1c0-1,0.8-1.9,1.9-1.9h16.9c16.1,0,29.1-13.1,29.1-29.1v-11c0-16.1-13.1-29.1-29.1-29.1H84.5
			C68.4,3,55.4,16.1,55.4,32.1v11c0,16.1,13.1,29.1,29.1,29.1h17.2c1,0,1.9,0.8,1.9,1.9v162.2c0,13.5,11,24.5,24.5,24.5h23
			C164.6,260.8,175.6,249.8,175.6,236.3z"/>
	</g>
	<g>
		<path class="st3" d="M186.1,16.5H88.8c-11.2,0-20.3,9.1-20.3,20.3c0,11.2,9.1,20.3,20.3,20.3h31.5v168.8
			c0,11.2,9.1,20.3,20.3,20.3c11.2,0,20.3-9.1,20.3-20.3V57.1h25.1c11.2,0,20.3-9.1,20.3-20.3C206.4,25.6,197.3,16.5,186.1,16.5z"/>
		<g>
			<g class="st4">
				<g>
					<path class="st5" d="M86.7,60.4c-3.4,0-6.2-2.8-6.2-6.2V16.7c0-3.4,2.8-6.2,6.2-6.2s6.2,2.8,6.2,6.2v37.5
						C93,57.6,90.2,60.4,86.7,60.4z"/>
				</g>
				<g>
					<path class="st5" d="M111.7,60.4c-3.4,0-6.2-2.8-6.2-6.2V16.7c0-3.4,2.8-6.2,6.2-6.2s6.2,2.8,6.2,6.2v37.5
						C118,57.6,115.2,60.4,111.7,60.4z"/>
				</g>
				<g>
					<path class="st5" d="M136.7,60.4c-3.4,0-6.2-2.8-6.2-6.2V16.7c0-3.4,2.8-6.2,6.2-6.2c3.4,0,6.2,2.8,6.2,6.2v37.5
						C142.9,57.6,140.1,60.4,136.7,60.4z"/>
				</g>
				<g>
					<path class="st5" d="M161.7,60.4c-3.4,0-6.2-2.8-6.2-6.2V16.7c0-3.4,2.8-6.2,6.2-6.2c3.4,0,6.2,2.8,6.2,6.2v37.5
						C167.9,57.6,165.1,60.4,161.7,60.4z"/>
				</g>
				<g>
					<path class="st5" d="M186.6,60.4c-3.4,0-6.2-2.8-6.2-6.2V16.7c0-3.4,2.8-6.2,6.2-6.2c3.4,0,6.2,2.8,6.2,6.2v37.5
						C192.9,57.6,190.1,60.4,186.6,60.4z"/>
				</g>
				<g>
					<path class="st5" d="M124.1,84.2c-3.4-0.1-6.1-2.8-6.1-6.2c-0.1-3.4,2.7-6.3,6.2-6.3l37.5-0.6c3.5,0,6.3,2.7,6.3,6.2
						c0.1,3.4-2.7,6.3-6.2,6.3l-37.5,0.6C124.2,84.2,124.1,84.2,124.1,84.2z"/>
				</g>
				<g>
					<path class="st5" d="M124.1,110.3c-3.4-0.1-6.1-2.8-6.1-6.2c-0.1-3.4,2.7-6.3,6.2-6.3l37.5-0.6c3.5,0,6.3,2.7,6.3,6.2
						c0.1,3.4-2.7,6.3-6.2,6.3l-37.5,0.6C124.2,110.3,124.1,110.3,124.1,110.3z"/>
				</g>
				<g>
					<path class="st5" d="M124.1,136.5c-3.4-0.1-6.1-2.8-6.1-6.2c-0.1-3.4,2.7-6.3,6.2-6.3l37.5-0.6c3.5,0,6.3,2.7,6.3,6.2
						c0.1,3.4-2.7,6.3-6.2,6.3l-37.5,0.6C124.2,136.5,124.1,136.5,124.1,136.5z"/>
				</g>
				<g>
					<path class="st5" d="M124.1,162.6c-3.4-0.1-6.1-2.8-6.1-6.2c-0.1-3.4,2.7-6.3,6.2-6.3l37.5-0.6c3.5,0,6.3,2.7,6.3,6.2
						c0.1,3.4-2.7,6.3-6.2,6.3l-37.5,0.6C124.2,162.6,124.1,162.6,124.1,162.6z"/>
				</g>
				<g>
					<path class="st5" d="M124.1,188.8c-3.4-0.1-6.1-2.8-6.1-6.2c-0.1-3.4,2.7-6.3,6.2-6.3l37.5-0.6c3.5,0,6.3,2.7,6.3,6.2
						c0.1,3.4-2.7,6.3-6.2,6.3l-37.5,0.6C124.2,188.8,124.1,188.8,124.1,188.8z"/>
				</g>
				<g>
					<path class="st5" d="M124.1,214.9c-3.4-0.1-6.1-2.8-6.1-6.2c-0.1-3.4,2.7-6.3,6.2-6.3l37.5-0.6c3.5,0,6.3,2.7,6.3,6.2
						c0.1,3.4-2.7,6.3-6.2,6.3l-37.5,0.6C124.2,214.9,124.1,214.9,124.1,214.9z"/>
				</g>
				<g>
					<path class="st5" d="M124.1,241.1c-3.4-0.1-6.1-2.8-6.1-6.2c-0.1-3.4,2.7-6.3,6.2-6.3l37.5-0.6c3.5,0,6.3,2.7,6.3,6.2
						c0.1,3.4-2.7,6.3-6.2,6.3l-37.5,0.6C124.2,241.1,124.1,241.1,124.1,241.1z"/>
				</g>
			</g>
			<g>
				<g>
					<path class="st6" d="M84.4,59.7c-3.4,0-6.2-2.8-6.2-6.2V16c0-3.4,2.8-6.2,6.2-6.2s6.2,2.8,6.2,6.2v37.5
						C90.7,56.9,87.9,59.7,84.4,59.7z"/>
				</g>
				<g>
					<path class="st6" d="M109.4,59.7c-3.4,0-6.2-2.8-6.2-6.2V16c0-3.4,2.8-6.2,6.2-6.2c3.4,0,6.2,2.8,6.2,6.2v37.5
						C115.7,56.9,112.9,59.7,109.4,59.7z"/>
				</g>
				<g>
					<path class="st6" d="M134.4,59.7c-3.4,0-6.2-2.8-6.2-6.2V16c0-3.4,2.8-6.2,6.2-6.2c3.4,0,6.2,2.8,6.2,6.2v37.5
						C140.7,56.9,137.9,59.7,134.4,59.7z"/>
				</g>
				<g>
					<path class="st6" d="M159.4,59.7c-3.4,0-6.2-2.8-6.2-6.2V16c0-3.4,2.8-6.2,6.2-6.2s6.2,2.8,6.2,6.2v37.5
						C165.6,56.9,162.8,59.7,159.4,59.7z"/>
				</g>
				<g>
					<path class="st6" d="M184.4,59.7c-3.4,0-6.2-2.8-6.2-6.2V16c0-3.4,2.8-6.2,6.2-6.2c3.4,0,6.2,2.8,6.2,6.2v37.5
						C190.6,56.9,187.8,59.7,184.4,59.7z"/>
				</g>
				<g>
					<path class="st6" d="M121.8,83.5c-3.4-0.1-6.1-2.8-6.1-6.2c-0.1-3.4,2.7-6.3,6.2-6.3l37.5-0.6c3.5,0,6.3,2.7,6.3,6.2
						c0.1,3.4-2.7,6.3-6.2,6.3L122,83.5C121.9,83.5,121.9,83.5,121.8,83.5z"/>
				</g>
				<g>
					<path class="st6" d="M121.8,109.7c-3.4-0.1-6.1-2.8-6.1-6.2c-0.1-3.4,2.7-6.3,6.2-6.3l37.5-0.6c3.5,0,6.3,2.7,6.3,6.2
						c0.1,3.4-2.7,6.3-6.2,6.3l-37.5,0.6C121.9,109.7,121.9,109.7,121.8,109.7z"/>
				</g>
				<g>
					<path class="st6" d="M121.8,135.8c-3.4-0.1-6.1-2.8-6.1-6.2c-0.1-3.4,2.7-6.3,6.2-6.3l37.5-0.6c3.5,0,6.3,2.7,6.3,6.2
						c0.1,3.4-2.7,6.3-6.2,6.3l-37.5,0.6C121.9,135.8,121.9,135.8,121.8,135.8z"/>
				</g>
				<g>
					<path class="st6" d="M121.8,162c-3.4-0.1-6.1-2.8-6.1-6.2c-0.1-3.4,2.7-6.3,6.2-6.3l37.5-0.6c3.5,0,6.3,2.7,6.3,6.2
						c0.1,3.4-2.7,6.3-6.2,6.3L122,162C121.9,162,121.9,162,121.8,162z"/>
				</g>
				<g>
					<path class="st6" d="M121.8,188.1c-3.4-0.1-6.1-2.8-6.1-6.2c-0.1-3.4,2.7-6.3,6.2-6.3l37.5-0.6c3.5,0,6.3,2.7,6.3,6.2
						c0.1,3.4-2.7,6.3-6.2,6.3l-37.5,0.6C121.9,188.1,121.9,188.1,121.8,188.1z"/>
				</g>
				<g>
					<path class="st6" d="M121.8,214.2c-3.4-0.1-6.1-2.8-6.1-6.2c-0.1-3.4,2.7-6.3,6.2-6.3l37.5-0.6c3.5,0,6.3,2.7,6.3,6.2
						c0.1,3.4-2.7,6.3-6.2,6.3l-37.5,0.6C121.9,214.2,121.9,214.2,121.8,214.2z"/>
				</g>
				<g>
					<path class="st6" d="M121.8,240.4c-3.4-0.1-6.1-2.8-6.1-6.2c-0.1-3.4,2.7-6.3,6.2-6.3l37.5-0.6c3.5,0,6.3,2.7,6.3,6.2
						c0.1,3.4-2.7,6.3-6.2,6.3l-37.5,0.6C121.9,240.4,121.9,240.4,121.8,240.4z"/>
				</g>
			</g>
		</g>
	</g>
</g>
</svg>
