<?xml version="1.0" encoding="utf-8"?>
<!-- Generator: Adobe Illustrator 24.1.2, SVG Export Plug-In . SVG Version: 6.00 Build 0)  -->
<svg version="1.1" id="Calque_1" xmlns="http://www.w3.org/2000/svg" xmlns:xlink="http://www.w3.org/1999/xlink" x="0px" y="0px"
	 viewBox="0 0 300 300" style="enable-background:new 0 0 300 300;" xml:space="preserve">
<style type="text/css">
	.st0{fill:#C2D9AB;}
	.st1{fill:#AB7017;}
	.st2{fill:#D79728;}
	.st3{opacity:0.13;}
	.st4{fill:#252422;}
	.st5{fill:#EABFD0;}
	.st6{fill:#FCFBFA;}
</style>
<g>
	<path class="st0" d="M211.9,2.5h-9.1c-17.6,0-31.9,14.3-31.9,31.9v29.3c-0.1,1.1-0.2,2.2-0.2,3.4v115.6
		c-0.9,10.2-5.9,19.9-17.7,19.9c-3.6,0-6.8-0.9-9.5-2.6V37.1c0-9.3-2.1-33.7-41-35.1h-9.4C75.6,2,61.3,16.3,61.3,33.9v29.8
		c-0.1,1.1-0.2,2.2-0.2,3.4v135.6c0,45.7,25.7,81,67.1,92c8.2,2.2,16.6,3.3,25,3.3c21.5,0,42.2-7.1,59.7-20.5
		c25.4-19.5,40-49,40-91.5V45.1c0-21.9-16.5-40.9-38.4-42.5C213.6,2.5,212.7,2.5,211.9,2.5z"/>
	<g>
		<path class="st1" d="M203.7,2h-9.1c-20.1,0-36.5,16.4-36.5,36.5v151.8c0,4.4-1,18.8-13.3,18.8c-8.7,0-14-7-14-18.8V38.5
			C130.9,18.4,114.5,2,94.4,2H85C64.8,2,48.5,18.4,48.5,38.5v153.2c0,45.7,25.7,81,67.1,92c8.2,2.2,16.6,3.3,25,3.3
			c21.5,0,42.2-7.1,59.7-20.5c25.4-19.5,40-49,40-81v-147C240.2,18.4,223.8,2,203.7,2z"/>
		<path class="st2" d="M199.2,2h-9.1c-17.6,0-31.9,14.3-31.9,31.9v134.3c0,11.3-4.7,23.4-17.9,23.4c-11.5,0-18.6-9-18.6-23.4V33.9
			C121.8,16.3,107.5,2,89.9,2h-9.4C62.9,2,48.6,16.3,48.6,33.9v135.6c0,43.5,24.4,77.1,63.7,87.6c7.9,2.1,15.8,3.1,23.8,3.1
			c20.2,0,40.1-6.7,56.8-19.6c24.3-18.6,38.2-46.8,38.2-77.3V33.9C231.1,16.3,216.8,2,199.2,2z"/>
	</g>
	<g>
		<g class="st3">
			<path class="st4" d="M202.1,106.7c-1.5,0-3-0.7-3.9-2.1c-1.4-2.1-0.8-5,1.3-6.4l13.5-8.9c2.1-1.4,5-0.8,6.4,1.3
				c1.4,2.1,0.8,5-1.3,6.4l-13.5,8.9C203.9,106.5,203,106.7,202.1,106.7z"/>
		</g>
		<g class="st3">
			<path class="st4" d="M79.1,70.3c-0.8-1.3-1-2.9-0.3-4.4c1.1-2.3,3.8-3.3,6.2-2.3l14.7,6.8c2.3,1.1,3.3,3.8,2.3,6.2
				c-1.1,2.3-3.8,3.3-6.2,2.3L81.1,72C80.2,71.6,79.6,71,79.1,70.3z"/>
		</g>
		<g class="st3">
			<path class="st4" d="M61,21.6c0.2-1.5,1.2-2.8,2.7-3.5c2.3-1.1,5.1,0,6.1,2.3l6.7,14.7c1.1,2.3,0,5.1-2.3,6.1
				c-2.3,1.1-5.1,0-6.1-2.3l-6.7-14.7C61,23.4,60.9,22.5,61,21.6z"/>
		</g>
		<g class="st3">
			<path class="st4" d="M200.8,143.8c-0.8-1.3-1-2.9-0.3-4.4c1.1-2.3,3.8-3.3,6.2-2.3l14.7,6.8c2.3,1.1,3.3,3.8,2.3,6.2
				c-1.1,2.3-3.8,3.3-6.2,2.3l-14.7-6.8C202,145.2,201.3,144.6,200.8,143.8z"/>
		</g>
		<g class="st3">
			<path class="st4" d="M177.4,164.8c1.1-1,2.7-1.5,4.3-1.1c2.5,0.6,4,3.2,3.4,5.6l-4,15.7c-0.6,2.5-3.2,4-5.6,3.4
				c-2.5-0.6-4-3.2-3.4-5.6l4-15.7C176.3,166.2,176.8,165.4,177.4,164.8z"/>
		</g>
		<g class="st3">
			<path class="st4" d="M107.1,189.8c1.1-1,2.7-1.5,4.3-1.1c2.5,0.6,4,3.2,3.4,5.6l-4,15.7c-0.6,2.5-3.2,4-5.6,3.4
				c-2.5-0.6-4-3.2-3.4-5.6l4-15.7C106,191.1,106.5,190.4,107.1,189.8z"/>
		</g>
		<g class="st3">
			<path class="st4" d="M222.9,50.7c0.8,1.3,0.9,3,0.2,4.4c-1.1,2.3-3.9,3.3-6.2,2.1l-14.5-7.1c-2.3-1.1-3.3-3.9-2.1-6.2
				c1.1-2.3,3.9-3.3,6.2-2.1l14.5,7.1C221.8,49.3,222.4,49.9,222.9,50.7z"/>
		</g>
		<g class="st3">
			<path class="st4" d="M75.3,226.8c-0.7-1.3-0.7-3,0.1-4.4c1.2-2.2,4.1-3,6.3-1.8l14.1,7.9c2.2,1.2,3,4.1,1.8,6.3
				c-1.2,2.2-4.1,3-6.3,1.8l-14.1-7.9C76.4,228.3,75.7,227.6,75.3,226.8z"/>
		</g>
		<g class="st3">
			<path class="st4" d="M159.3,224.9c-0.7-1.3-0.7-3,0.1-4.4c1.2-2.2,4.1-3,6.3-1.8l14.1,7.9c2.2,1.2,3,4.1,1.8,6.3
				c-1.2,2.2-4.1,3-6.3,1.8l-14.1-7.9C160.4,226.3,159.7,225.7,159.3,224.9z"/>
		</g>
		<g class="st3">
			<path class="st4" d="M173.8,84.4c-1.5,0-3-0.7-3.9-2.1c-1.4-2.1-0.8-5,1.3-6.4l13.5-8.9c2.1-1.4,5-0.8,6.4,1.3
				c1.4,2.1,0.8,5-1.3,6.4l-13.5,8.9C175.6,84.2,174.7,84.4,173.8,84.4z"/>
		</g>
		<g class="st3">
			<path class="st4" d="M93.9,44.5c-0.6-1.6-0.3-3.5,1-4.9L106.1,28c1.8-1.8,4.7-1.9,6.6-0.1c1.8,1.8,1.9,4.7,0.1,6.6l-11.2,11.7
				C99.8,48,96.8,48,95,46.3C94.5,45.8,94.1,45.2,93.9,44.5z"/>
		</g>
		<g class="st3">
			<path class="st4" d="M100.8,141.4c-1.1-1.3-1.4-3.2-0.6-4.9l6.8-14.7c1.1-2.3,3.8-3.3,6.2-2.3c2.3,1.1,3.3,3.8,2.3,6.2l-6.8,14.7
				c-1.1,2.3-3.8,3.3-6.2,2.3C101.8,142.4,101.2,141.9,100.8,141.4z"/>
		</g>
		<g class="st3">
			<path class="st4" d="M77.6,153.9c-1.7,0.3-3.5-0.3-4.6-1.8L63.5,139c-1.5-2.1-1-5,1-6.5c2.1-1.5,5-1.1,6.5,1l9.5,13.1
				c1.5,2.1,1,5-1,6.5C78.9,153.5,78.3,153.8,77.6,153.9z"/>
		</g>
		<g class="st3">
			<path class="st4" d="M81.4,118.1c-1.7,0-3.4-1-4.2-2.6l-7-14.6c-1.1-2.3-0.1-5.1,2.2-6.2c2.3-1.1,5.1-0.1,6.2,2.2l7,14.6
				c1.1,2.3,0.1,5.1-2.2,6.2C82.7,118,82,118.1,81.4,118.1z"/>
		</g>
		<g>
			<path class="st5" d="M201.1,102.8c-1.5,0-3-0.7-3.9-2.1c-1.4-2.1-0.8-5,1.3-6.4l13.5-8.9c2.1-1.4,5-0.8,6.4,1.3
				c1.4,2.1,0.8,5-1.3,6.4l-13.5,8.9C202.9,102.6,202,102.8,201.1,102.8z"/>
		</g>
		<g>
			<path class="st5" d="M78.1,66.4c-0.8-1.3-1-2.9-0.3-4.4c1.1-2.3,3.8-3.3,6.2-2.3l14.7,6.8c2.3,1.1,3.3,3.8,2.3,6.2
				c-1.1,2.3-3.8,3.3-6.2,2.3l-14.7-6.8C79.2,67.8,78.5,67.1,78.1,66.4z"/>
		</g>
		<g>
			<path class="st6" d="M60,17.8c0.2-1.5,1.2-2.8,2.7-3.5c2.3-1.1,5.1,0,6.1,2.3l6.7,14.7c1.1,2.3,0,5.1-2.3,6.1
				c-2.3,1.1-5.1,0-6.1-2.3l-6.7-14.7C60,19.5,59.9,18.6,60,17.8z"/>
		</g>
		<g>
			<path class="st6" d="M199.8,139.9c-0.8-1.3-1-2.9-0.3-4.4c1.1-2.3,3.8-3.3,6.2-2.3l14.7,6.8c2.3,1.1,3.3,3.8,2.3,6.2
				c-1.1,2.3-3.8,3.3-6.2,2.3l-14.7-6.8C200.9,141.3,200.3,140.7,199.8,139.9z"/>
		</g>
		<g>
			<path class="st5" d="M176.4,160.9c1.1-1,2.7-1.5,4.3-1.1c2.5,0.6,4,3.2,3.4,5.6l-4,15.7c-0.6,2.5-3.2,4-5.6,3.4
				c-2.5-0.6-4-3.2-3.4-5.6l4-15.7C175.2,162.3,175.7,161.5,176.4,160.9z"/>
		</g>
		<g class="st3">
			<path class="st4" d="M187.3,17.8c1.1-1,2.7-1.5,4.3-1.1c2.5,0.6,4,3.2,3.4,5.6l-4,15.7c-0.6,2.5-3.2,4-5.6,3.4
				c-2.5-0.6-4-3.2-3.4-5.6l4-15.7C186.2,19.2,186.7,18.4,187.3,17.8z"/>
		</g>
		<g>
			<path class="st5" d="M186.3,13.9c1.1-1,2.7-1.5,4.3-1.1c2.5,0.6,4,3.2,3.4,5.6l-4,15.7c-0.6,2.5-3.2,4-5.6,3.4
				c-2.5-0.6-4-3.2-3.4-5.6l4-15.7C185.1,15.3,185.6,14.5,186.3,13.9z"/>
		</g>
		<g>
			<path class="st6" d="M106.1,185.9c1.1-1,2.7-1.5,4.3-1.1c2.5,0.6,4,3.2,3.4,5.6l-4,15.7c-0.6,2.5-3.2,4-5.6,3.4
				c-2.5-0.6-4-3.2-3.4-5.6l4-15.7C105,187.3,105.5,186.5,106.1,185.9z"/>
		</g>
		<g>
			<path class="st6" d="M221.8,46.8c0.8,1.3,0.9,3,0.2,4.4c-1.1,2.3-3.9,3.3-6.2,2.1l-14.5-7.1c-2.3-1.1-3.3-3.9-2.1-6.2
				c1.1-2.3,3.9-3.3,6.2-2.1l14.5,7.1C220.7,45.4,221.4,46.1,221.8,46.8z"/>
		</g>
		<g>
			<path class="st6" d="M74.3,223c-0.7-1.3-0.7-3,0.1-4.4c1.2-2.2,4.1-3,6.3-1.8l14.1,7.9c2.2,1.2,3,4.1,1.8,6.3
				c-1.2,2.2-4.1,3-6.3,1.8l-14.1-7.9C75.3,224.4,74.7,223.7,74.3,223z"/>
		</g>
		<g>
			<path class="st5" d="M158.3,221c-0.7-1.3-0.7-3,0.1-4.4c1.2-2.2,4.1-3,6.3-1.8l14.1,7.9c2.2,1.2,3,4.1,1.8,6.3
				c-1.2,2.2-4.1,3-6.3,1.8l-14.1-7.9C159.3,222.5,158.7,221.8,158.3,221z"/>
		</g>
		<g>
			<path class="st6" d="M172.8,80.5c-1.5,0-3-0.7-3.9-2.1c-1.4-2.1-0.8-5,1.3-6.4l13.5-8.9c2.1-1.4,5-0.8,6.4,1.3
				c1.4,2.1,0.8,5-1.3,6.4l-13.5,8.9C174.5,80.3,173.6,80.5,172.8,80.5z"/>
		</g>
		<g class="st3">
			<path class="st4" d="M199.9,206.4c-1.5,0-3-0.7-3.9-2.1c-1.4-2.1-0.8-5,1.3-6.4l13.5-8.9c2.1-1.4,5-0.8,6.4,1.3
				c1.4,2.1,0.8,5-1.3,6.4l-13.5,8.9C201.6,206.2,200.8,206.4,199.9,206.4z"/>
		</g>
		<g>
			<path class="st6" d="M198.9,202.6c-1.5,0-3-0.7-3.9-2.1c-1.4-2.1-0.8-5,1.3-6.4l13.5-8.9c2.1-1.4,5-0.8,6.4,1.3
				c1.4,2.1,0.8,5-1.3,6.4l-13.5,8.9C200.6,202.3,199.7,202.6,198.9,202.6z"/>
		</g>
		<g class="st3">
			<path class="st4" d="M126.1,241.6c-1.5,0-3-0.7-3.9-2.1c-1.4-2.1-0.8-5,1.3-6.4l13.5-8.9c2.1-1.4,5-0.8,6.4,1.3
				c1.4,2.1,0.8,5-1.3,6.4l-13.5,8.9C127.9,241.3,127,241.6,126.1,241.6z"/>
		</g>
		<g>
			<path class="st5" d="M125.1,237.7c-1.5,0-3-0.7-3.9-2.1c-1.4-2.1-0.8-5,1.3-6.4l13.5-8.9c2.1-1.4,5-0.8,6.4,1.3
				c1.4,2.1,0.8,5-1.3,6.4l-13.5,8.9C126.9,237.5,126,237.7,125.1,237.7z"/>
		</g>
		<g>
			<path class="st5" d="M92.8,40.7c-0.6-1.6-0.3-3.5,1-4.9L105,24.2c1.8-1.8,4.7-1.9,6.6-0.1c1.8,1.8,1.9,4.7,0.1,6.6l-11.2,11.7
				c-1.8,1.8-4.7,1.9-6.6,0.1C93.4,41.9,93.1,41.3,92.8,40.7z"/>
		</g>
		<g>
			<path class="st6" d="M99.8,137.5c-1.1-1.3-1.4-3.2-0.6-4.9l6.8-14.7c1.1-2.3,3.8-3.3,6.2-2.3c2.3,1.1,3.3,3.8,2.3,6.2l-6.8,14.7
				c-1.1,2.3-3.8,3.3-6.2,2.3C100.7,138.5,100.2,138.1,99.8,137.5z"/>
		</g>
		<g class="st3">
			<path class="st4" d="M170.2,143.3c-1.1-1.3-1.4-3.2-0.6-4.9l6.8-14.7c1.1-2.3,3.8-3.3,6.2-2.3c2.3,1.1,3.3,3.8,2.3,6.2l-6.8,14.7
				c-1.1,2.3-3.8,3.3-6.2,2.3C171.2,144.3,170.7,143.9,170.2,143.3z"/>
		</g>
		<g>
			<path class="st6" d="M169.2,139.5c-1.1-1.3-1.4-3.2-0.6-4.9l6.8-14.7c1.1-2.3,3.8-3.3,6.2-2.3c2.3,1.1,3.3,3.8,2.3,6.2l-6.8,14.7
				c-1.1,2.3-3.8,3.3-6.2,2.3C170.2,140.4,169.6,140,169.2,139.5z"/>
		</g>
		<g>
			<path class="st5" d="M76.6,150c-1.7,0.3-3.5-0.3-4.6-1.8l-9.5-13.1c-1.5-2.1-1-5,1-6.5c2.1-1.5,5-1.1,6.5,1l9.5,13.1
				c1.5,2.1,1,5-1,6.5C77.9,149.6,77.3,149.9,76.6,150z"/>
		</g>
		<g class="st3">
			<path class="st4" d="M77.7,199c-1.7,0.3-3.5-0.3-4.6-1.8l-9.5-13.1c-1.5-2.1-1-5,1-6.5c2.1-1.5,5-1.1,6.5,1l9.5,13.1
				c1.5,2.1,1,5-1,6.5C79,198.6,78.4,198.9,77.7,199z"/>
		</g>
		<g>
			<path class="st5" d="M76.7,195.2c-1.7,0.3-3.5-0.3-4.6-1.8l-9.5-13.1c-1.5-2.1-1-5,1-6.5c2.1-1.5,5-1.1,6.5,1l9.5,13.1
				c1.5,2.1,1,5-1,6.5C78,194.8,77.3,195,76.7,195.2z"/>
		</g>
		<g>
			<path class="st6" d="M80.3,114.3c-1.7,0-3.4-1-4.2-2.6l-7-14.6c-1.1-2.3-0.1-5.1,2.2-6.2c2.3-1.1,5.1-0.1,6.2,2.2l7,14.6
				c1.1,2.3,0.1,5.1-2.2,6.2C81.7,114.1,81,114.3,80.3,114.3z"/>
		</g>
	</g>
</g>
</svg>
