<?xml version="1.0" encoding="utf-8"?>
<!-- Generator: Adobe Illustrator 24.1.2, SVG Export Plug-In . SVG Version: 6.00 Build 0)  -->
<svg version="1.1" id="Calque_1" xmlns="http://www.w3.org/2000/svg" xmlns:xlink="http://www.w3.org/1999/xlink" x="0px" y="0px"
	 viewBox="0 0 300 300" style="enable-background:new 0 0 300 300;" xml:space="preserve">
<style type="text/css">
	.st0{fill:#C2D9AB;}
	.st1{fill:#AB7017;}
	.st2{fill:#D79728;}
	.st3{fill:#8D6017;}
	.st4{opacity:0.2;}
	.st5{fill:#252422;}
	.st6{fill:#FCFBFA;}
</style>
<g>
	<path class="st0" d="M246.3,27.5c-6.6-8.4-15.9-13.5-26.6-13.5h-10.1c-14.2,0-26.8,9.1-31.2,22.6L161,90l-0.1,0.3
		c-1.2,4.1-2.4,9.1-3.7,14.4c-0.6,2.4-2.7,3.4-4.7,3.2l-17.4-51c-1.1-3.2-6.6-20.7-6.6-20.7c-4.5-13.3-18.9-22.2-33-22.2h-9.4
		c-10.7,0-21,4.6-27.4,13.2c-6.4,8.5-8.2,19.3-5,29.4l0.1,0.3c-2.6,7.4-2.8,15.5-0.3,23.3l60.1,192.4c4.8,15.2,18.7,25.5,34.6,25.5
		h17.7c16,0,29.9-10.3,34.7-25.6l56.7-184.1C262.9,67.5,264.1,50.2,246.3,27.5z"/>
	<g>
		<path class="st1" d="M211.3,20.6h-10.1c-16.2,0-30.5,10.4-35.6,25.8l-17.5,53.5l-0.1,0.4c-1,3.6-2.1,8-3.4,13.2
			c-1.1-4.1-2.2-8.4-3.5-13l-18.6-54.5C117.4,30.8,110,8,94,8c0,0-42.5,1.3-49.5,10.7c-7.3,9.7-7.2,39-3.6,50.6l60.1,192.4
			c4.8,15.2,18.7,25.5,34.6,25.5h17.7c16,0,29.9-10.3,34.7-25.6l58.1-188.6c3.7-11.9,3.2-32.6-10-53
			C229.3,9.8,223.4,20.6,211.3,20.6z"/>
		<path class="st2" d="M207.2,3H197c-14.2,0-26.8,9.1-31.2,22.6L148.4,79l-0.1,0.3c-1.2,4.1-2.4,9.1-3.7,14.4
			c-1,4.3-7.1,4.3-8.2,0.1c-1.2-4.5-2.4-9.3-3.8-14.3c0-0.1-0.1-0.2-0.1-0.3l-18.4-54C109.5,11.9,97,3,83,3h-9.4
			c-10.7,0-21,4.6-27.4,13.2c-6.4,8.5-8.2,19.3-5,29.4L101.2,238c4.1,13.3,16.3,22.2,30.2,22.2H149c13.9,0,26.2-9.1,30.2-22.3
			l58.9-191.4c3.1-10.2,1.8-21.4-4.5-30C227.5,7.9,217.8,3,207.2,3z"/>
	</g>
	<g>
		<g>
			<path class="st3" d="M139.7,234c-0.1,0-0.2,0-0.2,0c-15.1-0.1-28.4-9.8-33-24.2c-0.1-0.2-0.1-0.4-0.2-0.6L58.8,44.2
				c-3.1-10.6,3.1-21.7,13.7-24.7c10.6-3,21.7,3.1,24.7,13.7l39.6,137.4c0.9,3.1,5.3,3.1,6.2,0l39.2-130.6
				c3.2-10.6,14.3-16.6,24.9-13.4c10.6,3.2,16.6,14.3,13.4,24.9L173,209.6c-0.1,0.2-0.1,0.4-0.2,0.6C168,224.5,154.7,234,139.7,234z
				"/>
		</g>
		<g>
			<g class="st4">
				<g>
					<path class="st5" d="M73.4,33.8c1.1-1,2.7-1.5,4.3-1.1c2.5,0.6,4,3.1,3.3,5.6l-4,15.6c-0.6,2.5-3.1,4-5.6,3.3
						c-2.5-0.6-4-3.1-3.3-5.6l4-15.6C72.3,35.2,72.8,34.4,73.4,33.8z"/>
				</g>
				<g>
					<path class="st5" d="M99.1,64.4c1.5,0.1,2.9,0.8,3.8,2.2c1.3,2.2,0.6,5-1.6,6.3l-13.8,8.3c-2.2,1.3-5,0.6-6.3-1.6
						c-1.3-2.2-0.6-5,1.6-6.3L96.5,65C97.3,64.5,98.2,64.3,99.1,64.4z"/>
				</g>
				<g>
					<path class="st5" d="M104.8,111c0.2,1.5-0.4,3-1.6,4.1c-2,1.6-4.9,1.4-6.5-0.6l-10.3-12.3c-1.6-2-1.4-4.9,0.6-6.5
						c2-1.6,4.9-1.4,6.5,0.6l10.3,12.3C104.4,109.3,104.7,110.2,104.8,111z"/>
				</g>
				<g>
					<path class="st5" d="M199.2,87.5c0.2,1.5-0.4,3-1.6,4.1c-2,1.6-4.9,1.4-6.5-0.6l-10.3-12.3c-1.6-2-1.4-4.9,0.6-6.5
						c2-1.6,4.9-1.4,6.5,0.6l10.3,12.3C198.7,85.8,199.1,86.6,199.2,87.5z"/>
				</g>
				<g>
					<path class="st5" d="M181.6,120.9c-1.5,0.3-3.1-0.1-4.2-1.3c-1.8-1.8-1.8-4.7,0.1-6.5l11.5-11.3c1.8-1.8,4.7-1.8,6.5,0.1
						c1.8,1.8,1.8,4.7-0.1,6.5l-11.5,11.3C183.2,120.3,182.4,120.7,181.6,120.9z"/>
				</g>
				<g>
					<path class="st5" d="M122.3,196c-1,1.1-2.5,1.7-4.1,1.5c-2.5-0.4-4.2-2.7-3.9-5.3l2.4-15.9c0.4-2.5,2.7-4.2,5.3-3.9
						c2.5,0.4,4.2,2.7,3.9,5.3l-2.4,15.9C123.3,194.5,122.9,195.3,122.3,196z"/>
				</g>
				<g>
					<path class="st5" d="M182.2,151.8c-0.1,1.5-1,2.9-2.4,3.7c-2.2,1.2-5,0.4-6.2-1.9l-7.6-14.1c-1.2-2.2-0.4-5,1.9-6.2
						c2.2-1.2,5-0.4,6.2,1.9l7.6,14.1C182.1,150.1,182.3,151,182.2,151.8z"/>
				</g>
				<g>
					<path class="st5" d="M156.2,216.6c0.2,1.5-0.2,3.1-1.4,4.2c-1.9,1.7-4.8,1.6-6.5-0.3l-10.9-11.8c-1.7-1.9-1.6-4.8,0.3-6.5
						c1.9-1.7,4.8-1.6,6.5,0.3l10.9,11.8C155.6,214.9,156,215.8,156.2,216.6z"/>
				</g>
				<g>
					<path class="st5" d="M203,64.1c-1.4,0.5-3,0.4-4.3-0.6c-2.1-1.5-2.5-4.4-1-6.4l9.5-13c1.5-2.1,4.4-2.5,6.4-1
						c2.1,1.5,2.5,4.4,1,6.4l-9.5,13C204.5,63.2,203.8,63.7,203,64.1z"/>
				</g>
				<g>
					<path class="st5" d="M122.8,136.1c1.5,0.1,2.9,1,3.6,2.5c1.2,2.3,0.3,5-1.9,6.2l-14.2,7.5c-2.3,1.2-5,0.3-6.2-1.9
						c-1.2-2.3-0.3-5,1.9-6.2l14.2-7.5C121.1,136.1,122,136,122.8,136.1z"/>
				</g>
				<g>
					<path class="st5" d="M175.5,172.4c1.5,0.1,2.9,1,3.6,2.4c1.2,2.3,0.3,5-1.9,6.2l-14.2,7.5c-2.3,1.2-5,0.3-6.2-1.9
						c-1.2-2.3-0.3-5,1.9-6.2l14.2-7.5C173.8,172.5,174.7,172.3,175.5,172.4z"/>
				</g>
			</g>
			<g>
				<g>
					<path class="st6" d="M71.1,32c1.1-1,2.7-1.5,4.3-1.1c2.5,0.6,4,3.1,3.3,5.6l-4,15.6c-0.6,2.5-3.1,4-5.6,3.3
						c-2.5-0.6-4-3.1-3.3-5.6l4-15.6C70,33.4,70.4,32.6,71.1,32z"/>
				</g>
				<g>
					<path class="st6" d="M96.8,62.6c1.5,0.1,2.9,0.8,3.8,2.2c1.3,2.2,0.6,5-1.6,6.3l-13.8,8.3c-2.2,1.3-5,0.6-6.3-1.6
						c-1.3-2.2-0.6-5,1.6-6.3l13.8-8.3C95,62.7,95.9,62.5,96.8,62.6z"/>
				</g>
				<g>
					<path class="st6" d="M102.5,109.2c0.2,1.5-0.4,3-1.6,4.1c-2,1.6-4.9,1.4-6.5-0.6l-10.3-12.3c-1.6-2-1.4-4.9,0.6-6.5
						c2-1.6,4.9-1.4,6.5,0.6l10.3,12.3C102,107.5,102.4,108.4,102.5,109.2z"/>
				</g>
				<g>
					<path class="st6" d="M196.9,85.7c0.2,1.5-0.4,3-1.6,4.1c-2,1.6-4.9,1.4-6.5-0.6l-10.3-12.3c-1.6-2-1.4-4.9,0.6-6.5
						c2-1.6,4.9-1.4,6.5,0.6l10.3,12.3C196.4,84,196.8,84.8,196.9,85.7z"/>
				</g>
				<g>
					<path class="st6" d="M179.2,119.1c-1.5,0.3-3.1-0.1-4.2-1.3c-1.8-1.8-1.8-4.7,0.1-6.5l11.5-11.3c1.8-1.8,4.7-1.8,6.5,0.1
						c1.8,1.8,1.8,4.7-0.1,6.5l-11.5,11.3C180.9,118.5,180.1,119,179.2,119.1z"/>
				</g>
				<g>
					<path class="st6" d="M120,194.2c-1,1.1-2.5,1.7-4.1,1.5c-2.5-0.4-4.2-2.7-3.9-5.3l2.4-15.9c0.4-2.5,2.7-4.2,5.3-3.9
						c2.5,0.4,4.2,2.7,3.9,5.3l-2.4,15.9C120.9,192.7,120.5,193.5,120,194.2z"/>
				</g>
				<g>
					<path class="st6" d="M179.9,150c-0.1,1.5-1,2.9-2.4,3.7c-2.2,1.2-5,0.4-6.2-1.9l-7.6-14.1c-1.2-2.2-0.4-5,1.9-6.2
						c2.2-1.2,5-0.4,6.2,1.9l7.6,14.1C179.8,148.3,180,149.2,179.9,150z"/>
				</g>
				<g>
					<path class="st6" d="M153.8,214.8c0.2,1.5-0.2,3.1-1.4,4.2c-1.9,1.7-4.8,1.6-6.5-0.3L135,206.9c-1.7-1.9-1.6-4.8,0.3-6.5
						c1.9-1.7,4.8-1.6,6.5,0.3l10.9,11.8C153.3,213.2,153.7,214,153.8,214.8z"/>
				</g>
				<g>
					<path class="st6" d="M200.7,62.3c-1.4,0.5-3,0.4-4.4-0.6c-2.1-1.5-2.5-4.4-1-6.4l9.5-13c1.5-2.1,4.4-2.5,6.4-1
						c2.1,1.5,2.5,4.4,1,6.4l-9.5,13C202.2,61.4,201.5,62,200.7,62.3z"/>
				</g>
				<g>
					<path class="st6" d="M120.5,134.3c1.5,0.1,2.9,1,3.6,2.5c1.2,2.3,0.3,5-1.9,6.2l-14.2,7.5c-2.3,1.2-5,0.3-6.2-1.9
						c-1.2-2.3-0.3-5,1.9-6.2l14.2-7.5C118.7,134.3,119.6,134.2,120.5,134.3z"/>
				</g>
				<g>
					<path class="st6" d="M173.2,170.6c1.5,0.1,2.9,1,3.6,2.5c1.2,2.3,0.3,5-1.9,6.2l-14.2,7.5c-2.3,1.2-5,0.3-6.2-1.9
						c-1.2-2.3-0.3-5,1.9-6.2l14.2-7.5C171.4,170.7,172.3,170.5,173.2,170.6z"/>
				</g>
			</g>
		</g>
	</g>
</g>
</svg>
