<?xml version="1.0" encoding="utf-8"?>
<!-- Generator: Adobe Illustrator 24.1.2, SVG Export Plug-In . SVG Version: 6.00 Build 0)  -->
<svg version="1.1" id="Calque_1" xmlns="http://www.w3.org/2000/svg" xmlns:xlink="http://www.w3.org/1999/xlink" x="0px" y="0px"
	 viewBox="0 0 300 300" style="enable-background:new 0 0 300 300;" xml:space="preserve">
<style type="text/css">
	.st0{fill:#C2D9AB;}
	.st1{fill:#AB7017;}
	.st2{fill:#D79728;}
	.st3{opacity:0.13;}
	.st4{fill:#252422;}
	.st5{fill:#FCFBFA;}
</style>
<g>
	<path class="st0" d="M281.7,51.8c-4.7-6.8-12.8-11-21.6-11.3L247.4,40c-12.3-0.4-23.3,6.8-26.7,17.5l-12.3,38.6
		c-0.1,0.4-0.2,0.8-0.3,1.2l0,0c-1.9,7.6-4.3,18.9-6.7,29.8l-13.6-49.1c-1-3.8-7.2-35.1-33.2-35.3h-5.1c-10.3,0-19.4,6.3-22.1,15.4
		l-20.8,68.2c-1.2-4.6-2.4-9-3.5-13L90.5,74.3c-1-3-9.4-33.3-34-34.2l-12.8,0.5c-8.8,0.3-16.8,4.6-21.5,11.3c-4.1,5.9-5.2,13.2-3,20
		l0.5,1.6c-2.2,5.6-2.4,11.7-0.5,17.5L72,252.3c3.4,10.4,13.7,17.5,25.5,17.5h12.6c11.5,0,21.6-6.8,25.3-16.8l20.4-56.7l21.5,57.1
		c3.7,9.9,13.8,16.5,25.1,16.5h11.2c11.8,0,22.1-7,25.5-17.5l52.8-161.4C296.7,71.4,284.3,55.6,281.7,51.8z"/>
	<g>
		<path class="st1" d="M249.8,31.6l-8.9,13.8c-14-0.4-26.5,7.8-30.4,20.1l-12.3,38.6c-0.1,0.4-0.2,0.7-0.3,1l-0.1,0.4
			c-1.2,4.9-2.7,11.6-4.6,20.1l-15.6-56.4c-3.4-12.4-9-23.9-14.7-28.6l-19.9,7.5c-11.9,0-22.5,7.4-25.6,18l-18.4,60.6
			c-2-8-4-15.5-5.9-22.2L80.2,65.4c-4-12.3-10.1-31.6-25.6-32L36.9,45.9c-9.9,0.4-21-8.3-26.3-0.6c-4.8,6.9-4.2,28.9-1.6,36.8
			l52.8,161.2c3.4,10.4,13.7,17.5,25.5,17.5h12.6c11.5,0,21.6-6.8,25.3-16.8l20.4-56.7l21.5,57.1c3.7,9.9,13.8,16.5,25.1,16.5h11.2
			c11.8,0,22.1-7,25.5-17.5l51-155.9c4.2-12.4,4.6-23.4-6.2-41.8C268.9,37.6,259.8,31.9,249.8,31.6z"/>
		<path class="st2" d="M249.8,31.6l-12.6-0.4c-12.3-0.4-23.3,6.8-26.7,17.5l-12.3,38.6c-0.1,0.4-0.2,0.8-0.3,1.2l0,0
			c-2.2,8.8-5.1,22.6-7.8,35l-19.7-71.2c-3-10.8-13.7-18.4-26-18.4h-5.1c-10.3,0-19.4,6.3-22.1,15.4l-22.6,74.1
			c-2.7-13-5.9-25.1-8.9-35.7L73,48.7c-3.5-10.7-14.6-17.9-26.8-17.4l-12.8,0.5c-8.8,0.3-16.8,4.6-21.5,11.3c-4.1,5.9-5.2,13.2-3,20
			l52.8,161.2c2.9,8.9,11.7,14.9,21.9,14.9h12.6c9.9,0,18.6-5.8,21.7-14.3l23.8-66.3l25.1,66.6c3.2,8.4,11.9,14.1,21.6,14.1h11.2
			c10.2,0,19-6,21.9-14.9l52.8-161.4c2.2-6.8,1.1-14.1-3.1-20C266.7,36.1,258.6,31.9,249.8,31.6z"/>
	</g>
	<g>
		<g>
			<g class="st3">
				<path class="st4" d="M193.3,237.4c-0.9,0-1.9-0.4-2.6-1.1c-1.5-1.4-1.5-3.8-0.1-5.3l32.5-33.4c1.4-1.5,3.8-1.5,5.3-0.1
					c1.5,1.4,1.5,3.8,0.1,5.3L196,236.3C195.3,237,194.3,237.4,193.3,237.4z"/>
			</g>
			<g>
				<path class="st5" d="M192.3,233.8c-0.9,0-1.9-0.4-2.6-1.1c-1.5-1.4-1.5-3.8-0.1-5.3l32.5-33.4c1.4-1.5,3.8-1.5,5.3-0.1
					c1.5,1.4,1.5,3.8,0.1,5.3l-32.5,33.4C194.2,233.5,193.2,233.8,192.3,233.8z"/>
			</g>
		</g>
		<g>
			<g class="st3">
				<path class="st4" d="M91.1,239.2c-0.9,0-1.9-0.4-2.6-1.1c-1.5-1.4-1.5-3.8-0.1-5.3l32.5-33.4c1.4-1.5,3.8-1.5,5.3-0.1
					c1.5,1.4,1.5,3.8,0.1,5.3L93.8,238C93.1,238.8,92.1,239.2,91.1,239.2z"/>
			</g>
			<g>
				<path class="st5" d="M90.1,235.6c-0.9,0-1.9-0.4-2.6-1.1c-1.5-1.4-1.5-3.8-0.1-5.3l32.5-33.4c1.4-1.5,3.8-1.5,5.3-0.1
					c1.5,1.4,1.5,3.8,0.1,5.3l-32.5,33.4C92,235.2,91,235.6,90.1,235.6z"/>
			</g>
		</g>
		<g>
			<g class="st3">
				<path class="st4" d="M150.1,159c-0.9,0-1.9-0.4-2.6-1.1c-1.5-1.4-1.5-3.8-0.1-5.3l32.5-33.4c1.4-1.5,3.8-1.5,5.3-0.1
					c1.5,1.4,1.5,3.8,0.1,5.3l-32.5,33.4C152.1,158.6,151.1,159,150.1,159z"/>
			</g>
			<g>
				<path class="st5" d="M149.1,155.5c-0.9,0-1.9-0.4-2.6-1.1c-1.5-1.4-1.5-3.8-0.1-5.3l32.5-33.4c1.4-1.5,3.8-1.5,5.3-0.1
					c1.5,1.4,1.5,3.8,0.1,5.3l-32.5,33.4C151,155.1,150.1,155.5,149.1,155.5z"/>
			</g>
		</g>
		<g>
			<g class="st3">
				<path class="st4" d="M202.3,110.3c-0.9,0-1.9-0.4-2.6-1.1c-1.5-1.4-1.5-3.8-0.1-5.3l55.6-57.1c1.4-1.5,3.8-1.5,5.3-0.1
					c1.5,1.4,1.5,3.8,0.1,5.3L205,109.2C204.3,110,203.3,110.3,202.3,110.3z"/>
			</g>
			<g>
				<path class="st5" d="M201.3,106.8c-0.9,0-1.9-0.4-2.6-1.1c-1.5-1.4-1.5-3.8-0.1-5.3l55.6-57.1c1.4-1.5,3.8-1.5,5.3-0.1
					c1.5,1.4,1.5,3.8,0.1,5.3L204,105.7C203.2,106.4,202.2,106.8,201.3,106.8z"/>
			</g>
		</g>
		<g>
			<g class="st3">
				<path class="st4" d="M61.3,217.9c-0.9,0-1.9-0.4-2.6-1.1c-1.5-1.4-1.5-3.8-0.1-5.3l115-118.3c1.4-1.5,3.8-1.5,5.3-0.1
					c1.5,1.4,1.5,3.8,0.1,5.3L64,216.7C63.2,217.5,62.3,217.9,61.3,217.9z"/>
			</g>
			<g>
				<path class="st5" d="M60.2,214.3c-0.9,0-1.9-0.4-2.6-1.1c-1.5-1.4-1.5-3.8-0.1-5.3l115-118.3c1.4-1.5,3.8-1.5,5.3-0.1
					c1.5,1.4,1.5,3.8,0.1,5.3l-115,118.3C62.2,213.9,61.2,214.3,60.2,214.3z"/>
			</g>
		</g>
		<g>
			<g class="st3">
				<path class="st4" d="M154.8,187.4c-0.9,0-1.9-0.4-2.6-1.1c-1.5-1.4-1.5-3.8-0.1-5.3l115-118.3c1.4-1.5,3.8-1.5,5.3-0.1
					c1.5,1.4,1.5,3.8,0.1,5.3l-115,118.3C156.8,187.1,155.8,187.4,154.8,187.4z"/>
			</g>
			<g>
				<path class="st5" d="M153.8,183.9c-0.9,0-1.9-0.4-2.6-1.1c-1.5-1.4-1.5-3.8-0.1-5.3l115-118.3c1.4-1.5,3.8-1.5,5.3-0.1
					c1.5,1.4,1.5,3.8,0.1,5.3l-115,118.3C155.7,183.5,154.8,183.9,153.8,183.9z"/>
			</g>
		</g>
		<g>
			<g class="st3">
				<path class="st4" d="M53.6,195.4c-0.9,0-1.9-0.4-2.6-1.1c-1.5-1.4-1.5-3.8-0.1-5.3l115-118.3c1.4-1.5,3.8-1.5,5.3-0.1
					c1.5,1.4,1.5,3.8,0.1,5.3l-115,118.3C55.6,195,54.6,195.4,53.6,195.4z"/>
			</g>
			<g>
				<path class="st5" d="M52.6,191.8c-0.9,0-1.9-0.4-2.6-1.1c-1.5-1.4-1.5-3.8-0.1-5.3l115-118.3c1.4-1.5,3.8-1.5,5.3-0.1
					c1.5,1.4,1.5,3.8,0.1,5.3l-115,118.3C54.5,191.4,53.5,191.8,52.6,191.8z"/>
			</g>
		</g>
		<g>
			<g class="st3">
				<path class="st4" d="M37.9,143c-0.9,0-1.9-0.4-2.6-1.1c-1.5-1.4-1.5-3.8-0.1-5.3l43.2-44.4c1.4-1.5,3.8-1.5,5.3-0.1
					c1.5,1.4,1.5,3.8,0.1,5.3l-43.2,44.4C39.9,142.6,38.9,143,37.9,143z"/>
			</g>
			<g>
				<path class="st5" d="M36.9,139.5c-0.9,0-1.9-0.4-2.6-1.1c-1.5-1.4-1.5-3.8-0.1-5.3l43.2-44.4c1.4-1.5,3.8-1.5,5.3-0.1
					c1.5,1.4,1.5,3.8,0.1,5.3l-43.2,44.4C38.8,139.1,37.9,139.5,36.9,139.5z"/>
			</g>
		</g>
		<g>
			<g class="st3">
				<path class="st4" d="M21.9,94.7c-0.9,0-1.9-0.4-2.6-1.1c-1.5-1.4-1.5-3.8-0.1-5.3l43.2-44.4c1.4-1.5,3.8-1.5,5.3-0.1
					c1.5,1.4,1.5,3.8,0.1,5.3L24.6,93.5C23.8,94.3,22.9,94.7,21.9,94.7z"/>
			</g>
			<g>
				<path class="st5" d="M20.8,91.1c-0.9,0-1.9-0.4-2.6-1.1c-1.5-1.4-1.5-3.8-0.1-5.3l43.2-44.4c1.4-1.5,3.8-1.5,5.3-0.1
					c1.5,1.4,1.5,3.8,0.1,5.3L23.5,90C22.8,90.7,21.8,91.1,20.8,91.1z"/>
			</g>
		</g>
		<g>
			<g class="st3">
				<path class="st4" d="M30.7,117.1c-0.9,0-1.9-0.4-2.6-1.1c-1.5-1.4-1.5-3.8-0.1-5.3l43.2-44.4c1.4-1.5,3.8-1.5,5.3-0.1
					c1.5,1.4,1.5,3.8,0.1,5.3l-43.2,44.4C32.7,116.7,31.7,117.1,30.7,117.1z"/>
			</g>
			<g>
				<path class="st5" d="M29.7,113.5c-0.9,0-1.9-0.4-2.6-1.1c-1.5-1.4-1.5-3.8-0.1-5.3l43.2-44.4c1.4-1.5,3.8-1.5,5.3-0.1
					c1.5,1.4,1.5,3.8,0.1,5.3l-43.2,44.4C31.6,113.1,30.6,113.5,29.7,113.5z"/>
			</g>
		</g>
		<g>
			<g class="st3">
				<path class="st4" d="M105.7,114.4c-0.9,0-1.9-0.4-2.6-1.1c-1.5-1.4-1.5-3.8-0.1-5.3l57.5-58.6c1.4-1.5,3.8-1.5,5.3-0.1
					c1.5,1.4,1.5,3.8,0.1,5.3l-57.5,58.6C107.6,114.1,106.7,114.4,105.7,114.4z"/>
			</g>
			<g>
				<path class="st5" d="M104.6,110.9c-0.9,0-1.9-0.4-2.6-1.1c-1.5-1.4-1.5-3.8-0.1-5.3l57.5-58.6c1.4-1.5,3.8-1.5,5.3-0.1
					c1.5,1.4,1.5,3.8,0.1,5.3l-57.5,58.6C106.6,110.5,105.6,110.9,104.6,110.9z"/>
			</g>
		</g>
		<g>
			<g class="st3">
				<path class="st4" d="M46.7,166.3c-0.9,0-1.9-0.4-2.6-1.1c-1.5-1.4-1.5-3.8-0.1-5.3l43.2-44.4c1.4-1.5,3.8-1.5,5.3-0.1
					c1.5,1.4,1.5,3.8,0.1,5.3l-43.2,44.4C48.6,165.9,47.7,166.3,46.7,166.3z"/>
			</g>
			<g>
				<path class="st5" d="M45.6,162.7c-0.9,0-1.9-0.4-2.6-1.1c-1.5-1.4-1.5-3.8-0.1-5.3L86.1,112c1.4-1.5,3.8-1.5,5.3-0.1
					c1.5,1.4,1.5,3.8,0.1,5.3l-43.2,44.4C47.6,162.3,46.6,162.7,45.6,162.7z"/>
			</g>
		</g>
		<g>
			<g class="st3">
				<path class="st4" d="M166.6,207.7c-0.9,0-1.9-0.3-2.6-1c-1.5-1.4-1.5-3.8-0.1-5.3l74.2-77.4c1.4-1.5,3.8-1.5,5.3-0.1
					c1.5,1.4,1.5,3.8,0.1,5.3l-74.2,77.4C168.6,207.3,167.6,207.7,166.6,207.7z"/>
			</g>
			<g>
				<path class="st5" d="M165.5,204.2c-0.9,0-1.9-0.3-2.6-1c-1.5-1.4-1.5-3.8-0.1-5.3l74.2-77.4c1.4-1.5,3.8-1.5,5.3-0.1
					c1.5,1.4,1.5,3.8,0.1,5.3L168.2,203C167.5,203.8,166.5,204.2,165.5,204.2z"/>
			</g>
		</g>
		<g>
			<g class="st3">
				<path class="st4" d="M176.3,226.2c-0.9,0-1.9-0.4-2.6-1.1c-1.5-1.4-1.5-3.8-0.1-5.3l53.7-55.2c1.4-1.5,3.8-1.5,5.3-0.1
					c1.5,1.4,1.5,3.8,0.1,5.3L179,225C178.3,225.8,177.3,226.2,176.3,226.2z"/>
			</g>
			<g>
				<path class="st5" d="M175.3,222.6c-0.9,0-1.9-0.4-2.6-1.1c-1.5-1.4-1.5-3.8-0.1-5.3l53.7-55.2c1.4-1.5,3.8-1.5,5.3-0.1
					c1.5,1.4,1.5,3.8,0.1,5.3l-53.7,55.2C177.2,222.2,176.2,222.6,175.3,222.6z"/>
			</g>
		</g>
		<g>
			<g class="st3">
				<path class="st4" d="M117.6,76.2c-0.9,0-1.9-0.4-2.6-1.1c-1.5-1.4-1.5-3.8-0.1-5.3l28.7-29.5c1.4-1.5,3.8-1.5,5.3-0.1
					c1.5,1.4,1.5,3.8,0.1,5.3l-28.7,29.5C119.5,75.9,118.6,76.2,117.6,76.2z"/>
			</g>
			<g>
				<path class="st5" d="M116.5,72.7c-0.9,0-1.9-0.4-2.6-1.1c-1.5-1.4-1.5-3.8-0.1-5.3l28.7-29.5c1.4-1.5,3.8-1.5,5.3-0.1
					c1.5,1.4,1.5,3.8,0.1,5.3l-28.7,29.5C118.5,72.3,117.5,72.7,116.5,72.7z"/>
			</g>
		</g>
		<g>
			<g class="st3">
				<path class="st4" d="M16.2,72.7c-0.9,0-1.9-0.4-2.6-1.1c-1.5-1.4-1.5-3.8-0.1-5.3l28.7-29.5c1.4-1.5,3.8-1.5,5.3-0.1
					c1.5,1.4,1.5,3.8,0.1,5.3L18.9,71.6C18.2,72.3,17.2,72.7,16.2,72.7z"/>
			</g>
			<g>
				<path class="st5" d="M15.1,69.1c-0.9,0-1.9-0.4-2.6-1.1c-1.5-1.4-1.5-3.8-0.1-5.3l28.7-29.5c1.4-1.5,3.8-1.5,5.3-0.1
					c1.5,1.4,1.5,3.8,0.1,5.3L17.8,68C17.1,68.8,16.1,69.1,15.1,69.1z"/>
			</g>
		</g>
		<g>
			<g class="st3">
				<path class="st4" d="M72,234c-0.9,0-1.9-0.4-2.6-1.1c-1.5-1.4-1.5-3.8-0.1-5.3l65.6-67.4c1.4-1.5,3.8-1.5,5.3-0.1
					c1.5,1.4,1.5,3.8,0.1,5.3l-65.6,67.4C74,233.7,73,234,72,234z"/>
			</g>
			<g>
				<path class="st5" d="M71,230.5c-0.9,0-1.9-0.4-2.6-1.1c-1.5-1.4-1.5-3.8-0.1-5.3l65.6-67.4c1.4-1.5,3.8-1.5,5.3-0.1
					c1.5,1.4,1.5,3.8,0.1,5.3l-65.6,67.4C72.9,230.1,72,230.5,71,230.5z"/>
			</g>
		</g>
		<g>
			<g class="st3">
				<path class="st4" d="M210.8,75c-0.9,0-1.9-0.4-2.6-1.1c-1.5-1.4-1.5-3.8-0.1-5.3l29.6-30.4c1.4-1.5,3.8-1.5,5.3-0.1
					c1.5,1.4,1.5,3.8,0.1,5.3l-29.6,30.4C212.8,74.6,211.8,75,210.8,75z"/>
			</g>
			<g>
				<path class="st5" d="M209.8,71.4c-0.9,0-1.9-0.4-2.6-1.1c-1.5-1.4-1.5-3.8-0.1-5.3l29.6-30.4c1.4-1.5,3.8-1.5,5.3-0.1
					c1.5,1.4,1.5,3.8,0.1,5.3l-29.6,30.4C211.7,71,210.7,71.4,209.8,71.4z"/>
			</g>
		</g>
	</g>
</g>
</svg>
