<?xml version="1.0" encoding="utf-8"?>
<!-- Generator: Adobe Illustrator 24.1.2, SVG Export Plug-In . SVG Version: 6.00 Build 0)  -->
<svg version="1.1" id="Calque_1" xmlns="http://www.w3.org/2000/svg" xmlns:xlink="http://www.w3.org/1999/xlink" x="0px" y="0px"
	 viewBox="0 0 300 300" style="enable-background:new 0 0 300 300;" xml:space="preserve">
<style type="text/css">
	.st0{fill:#C2D9AB;}
	.st1{fill:#AB7017;}
	.st2{fill:#D79728;}
	.st3{opacity:0.13;fill:#252422;}
	.st4{fill:#EABFD0;}
	.st5{opacity:0.13;}
	.st6{fill:#252422;}
	.st7{fill:#FCFBFA;}
	.st8{opacity:7.000000e-02;}
	.st9{fill:#8D6017;}
	.st10{opacity:0.2;}
</style>
<g>
	<path class="st0" d="M248.4,238.6c-0.4-3-1.3-5.9-2.7-8.7l-38-74l39.2-76.7c5-9.8,4.9-32-9.5-50.9c-5.7-7.5-13.3-13.2-22.7-13.5
		l-18.9-0.6c-10.8-0.3-20.7,5.6-25.5,15.2l-14,28.2c-1.7,3.3-3,6.6-4.1,10c-1.6-4.2-2.9-7.5-4.1-9.9l-14-28.2
		c-4.8-9.6-14.8-15.6-25.5-15.2l-18.5,0.6c-9.4,0.3-18,5.4-22.7,13.5c-4.4,7.5-5,16.5-1.6,24.4c-3.4,8.6-3.1,18.2,1.2,26.6
		l34.9,67.9l-42.5,82.8c-3.8,7.3-4.1,15.8-1,23.3c-3.7,9.3-2.9,19.7,2.3,28.4c5.7,9.7,15.9,15.6,27.1,15.9l20.8,0.5
		c0.2,0,0.5,0,0.7,0c12.8,0,24.4-7.4,29.7-19.1l14.6-32.2c1-1.9,1.9-4.1,2.9-6.4c0.8,2,1.4,3.8,2,5.3c0.2,0.4,0.3,0.8,0.5,1.2
		l15.3,32.6c5.3,11.4,16.9,18.7,29.4,18.7l22.5-0.6c11.2-0.3,21.4-6.2,27.1-15.9c5.7-9.7,6.1-21.4,1-31.4L248.4,238.6z"/>
	<g>
		<path class="st1" d="M194,146.4L234,68c5-9.8,7.2-22.5-1.8-39.5c-7.6-14.4-17.6-24.4-28.7-24.7l-16,17
			c-12.6-0.3-24.2,6.6-29.8,17.8l-13.9,28l-13.9-28c-5.6-11.2-17.2-18.1-29.8-17.8l-18.5,0.6c-11.1,0.4-24.3-11-28.8-0.9
			c-5.6,12.6-5.2,35.3,1.3,47.6l40.3,78.4l-49.2,75.3c-5.1,10-3.1,39,2.6,48.7c5.7,9.7,15.9,15.6,27.1,15.9l20.8,0.5
			c13.1,0.1,25-7.2,30.4-19.1l14.6-32.2c1-1.9,1.9-4.1,2.9-6.4c0.8,2,1.4,3.8,2,5.3c0.2,0.4,0.3,0.8,0.5,1.2l15.3,32.6
			c5.3,11.4,16.9,18.7,29.4,18.7l22.3-0.7c19.7-1.9,34.6-21.4,20.9-64.5L194,146.4z"/>
		<path class="st2" d="M185.2,126c-0.6-1.2-0.6-2.7,0-3.9l40.2-78.6c4.3-8.4,4-18.3-0.8-26.4C219.7,9,211.2,3.9,201.8,3.6L182.9,3
			c-10.8-0.3-20.7,5.6-25.5,15.2l-14,28.2c-1.7,3.3-3,6.6-4.1,10c-1.6-4.2-2.9-7.5-4.1-9.9l-14-28.2C116.5,8.6,106.4,2.7,95.8,3
			L77.3,3.6c-9.4,0.3-18,5.4-22.7,13.5c-4.8,8.1-5.1,18-0.8,26.4l40.4,78.6c0.6,1.2,0.6,2.7,0,3.9l-47.7,92.8
			c-4.4,8.6-4.1,18.6,0.8,26.9c4.9,8.3,13.6,13.4,23.2,13.6l20.8,0.5c11.2,0.2,21.4-6.1,26-16.3l14.7-32.4
			c2.4-4.7,4.7-10.7,7.2-18.2c2.6,7.7,4.7,13.5,6.3,17.4c0.1,0.3,0.3,0.6,0.4,1l15.3,32.6c4.6,9.8,14.4,16,25.2,16
			c0.2,0,0.5,0,0.7,0l21.7-0.5c9.6-0.2,18.3-5.3,23.2-13.6c4.9-8.3,5.2-18.3,0.8-26.9L185.2,126z"/>
	</g>
	<g>
		<path class="st3" d="M217.7,226.4l-51.6-94c-2-3.6-2-8.1,0-11.7L209.7,40c4.2-7.8,2.9-17.8-3.8-23.6c-9.4-8-23.2-5.1-28.8,5.2
			L146.5,78c-2.2,4.1-8.1,4.1-10.3,0l-28.9-52.6c-5-9-16.3-13.1-25.4-8.4c-9.4,4.9-12.9,16.5-7.8,25.7l46.1,83.9c0,0,0,0.1,0,0.1
			L67,225c-4.2,7.8-2.9,17.7,3.8,23.4c3.7,3.2,8.1,4.7,12.4,4.7c6.7,0,13.1-3.6,16.5-9.8l36.8-67.9c2.3-4.2,8.3-4.2,10.6,0
			l38.2,69.6c3.4,6.2,9.8,9.7,16.4,9.7c4.3,0,8.8-1.5,12.5-4.8C220.7,244,221.9,234.1,217.7,226.4z"/>
		<path class="st4" d="M215.2,224.8l-50.8-92.5c-2.5-4.6-2.5-10.1,0-14.7l42.9-79.2c4.2-7.8,2.9-17.8-3.8-23.6
			c-9.4-8-23.2-5.1-28.8,5.2l-33.3,61.5c-1,1.9-3.7,1.9-4.8,0l-31.7-57.7c-5-9-16.3-13.1-25.4-8.4C70,20.4,66.5,32,71.6,41.2
			l42.8,78c2,3.7,2.1,8.2,0,12l-50,92.3c-4.2,7.8-2.9,17.7,3.8,23.4c3.7,3.2,8.1,4.7,12.4,4.7c6.7,0,13.1-3.6,16.5-9.8l37-68.3
			c2.2-4,7.9-4,10.1,0l38.4,70c3.4,6.2,9.8,9.7,16.4,9.7c4.3,0,8.8-1.5,12.5-4.8C218.2,242.5,219.4,232.6,215.2,224.8z"/>
		<g class="st5">
			<path class="st6" d="M85.8,38.9c-0.1,0.2-0.1,0.3-0.2,0.5c-0.1,0.4-0.3,0.8-0.4,1.2c0,0.2-0.1,0.3-0.1,0.5
				c-0.1,0.6-0.2,1.2-0.2,1.8c0,1.3,0.3,2.6,0.8,3.8c0.2,0.6,0.5,1.1,0.9,1.7c0.7,1,1.6,1.9,2.6,2.6c1.6,1.1,3.4,1.7,5.5,1.7
				c0.6,0,1.2-0.1,1.7-0.2c0.2,0,0.3-0.1,0.5-0.1c0.5-0.1,1-0.3,1.4-0.4c0.2-0.1,0.3-0.2,0.5-0.2c0.3-0.2,0.6-0.3,1-0.5
				c0.2-0.1,0.5-0.3,0.7-0.5c0.2-0.1,0.3-0.3,0.5-0.4c0.4-0.4,0.9-0.8,1.2-1.2c0.1-0.1,0.1-0.2,0.2-0.3c0.2-0.3,0.4-0.6,0.6-0.9
				c0,0,0,0,0,0c0,0,0,0,0,0c0.9-1.5,1.4-3.2,1.4-5c0-5.4-4.4-9.8-9.8-9.8c-1.4,0-2.7,0.3-3.9,0.8c-0.5,0.2-0.9,0.4-1.3,0.7
				c-0.2,0.1-0.4,0.3-0.6,0.4c-0.2,0.2-0.5,0.4-0.7,0.6c-0.2,0.2-0.4,0.3-0.5,0.5c-0.3,0.3-0.5,0.6-0.7,0.9
				c-0.1,0.1-0.2,0.2-0.3,0.4C86.2,37.9,86,38.4,85.8,38.9z"/>
			<path class="st6" d="M106.3,74.1c-0.1,0.1-0.2,0.2-0.3,0.4c-0.3,0.4-0.5,0.9-0.8,1.4c-0.1,0.2-0.1,0.3-0.2,0.5
				c-0.1,0.4-0.3,0.8-0.4,1.2c0,0.2-0.1,0.3-0.1,0.5c-0.1,0.6-0.2,1.2-0.2,1.8c0,1.3,0.3,2.6,0.8,3.8c0.2,0.6,0.5,1.1,0.9,1.7
				c0.7,1,1.6,1.9,2.6,2.6c1.6,1.1,3.4,1.7,5.5,1.7c0.6,0,1.2-0.1,1.7-0.2c0.2,0,0.3-0.1,0.5-0.1c0.5-0.1,1-0.3,1.4-0.4
				c0.2-0.1,0.3-0.2,0.5-0.2c0.3-0.2,0.6-0.3,1-0.5c0.2-0.1,0.5-0.3,0.7-0.5c0.2-0.1,0.3-0.3,0.5-0.4c0.4-0.4,0.9-0.8,1.2-1.2
				c0.1-0.1,0.1-0.2,0.2-0.3c0.2-0.3,0.4-0.6,0.6-0.9c0,0,0,0,0,0c0,0,0,0,0,0c0.9-1.5,1.4-3.2,1.4-5c0-5.4-4.4-9.8-9.8-9.8
				c-1.4,0-2.7,0.3-3.9,0.8c-0.5,0.2-0.9,0.4-1.3,0.7c-0.2,0.1-0.4,0.3-0.6,0.4c-0.2,0.2-0.5,0.4-0.7,0.6c-0.2,0.2-0.4,0.3-0.5,0.5
				C106.8,73.5,106.6,73.8,106.3,74.1z"/>
			<path class="st6" d="M140.1,107.2c-1.4,0-2.7,0.3-3.9,0.8c-0.5,0.2-0.9,0.4-1.3,0.7c-0.2,0.1-0.4,0.3-0.6,0.4
				c-0.2,0.2-0.5,0.4-0.7,0.6c-0.2,0.2-0.4,0.3-0.5,0.5c-0.3,0.3-0.5,0.6-0.7,0.9c-0.1,0.1-0.2,0.2-0.3,0.4
				c-0.3,0.4-0.5,0.9-0.8,1.4c-0.1,0.2-0.1,0.3-0.2,0.5c-0.1,0.4-0.3,0.8-0.4,1.2c0,0.2-0.1,0.3-0.1,0.5c-0.1,0.6-0.2,1.2-0.2,1.8
				c0,1.3,0.3,2.6,0.8,3.8c0.2,0.6,0.5,1.1,0.9,1.7c0.7,1,1.6,1.9,2.6,2.6c1.6,1.1,3.4,1.7,5.5,1.7c0.6,0,1.2-0.1,1.7-0.2
				c0.2,0,0.3-0.1,0.5-0.1c0.5-0.1,1-0.3,1.4-0.4c0.2-0.1,0.3-0.2,0.5-0.2c0.3-0.2,0.6-0.3,1-0.5c0.2-0.1,0.5-0.3,0.7-0.5
				c0.2-0.1,0.3-0.3,0.5-0.4c0.4-0.4,0.9-0.8,1.2-1.2c0.1-0.1,0.1-0.2,0.2-0.3c0.2-0.3,0.4-0.6,0.6-0.9c0,0,0,0,0,0c0,0,0,0,0,0
				c0.9-1.5,1.4-3.2,1.4-5C149.9,111.5,145.5,107.2,140.1,107.2z"/>
			<path class="st6" d="M103,183.5c-1.4,0-2.7,0.3-3.9,0.8c-0.5,0.2-0.9,0.4-1.3,0.7c-0.2,0.1-0.4,0.3-0.6,0.4
				c-0.2,0.2-0.5,0.4-0.7,0.6c-0.2,0.2-0.4,0.3-0.5,0.5c-0.3,0.3-0.5,0.6-0.7,0.9c-0.1,0.1-0.2,0.2-0.3,0.4
				c-0.3,0.4-0.5,0.9-0.8,1.4c-0.1,0.2-0.1,0.3-0.2,0.5c-0.1,0.4-0.3,0.8-0.4,1.2c0,0.2-0.1,0.3-0.1,0.5c-0.1,0.6-0.2,1.2-0.2,1.8
				c0,0.7,0.1,1.3,0.2,2c0.3,1.3,0.8,2.4,1.5,3.5c0.4,0.5,0.7,1,1.2,1.4c1.3,1.3,3,2.3,4.9,2.7c0.6,0.1,1.3,0.2,2,0.2
				c0.6,0,1.2-0.1,1.7-0.2c0.2,0,0.3-0.1,0.5-0.1c0.5-0.1,1-0.3,1.4-0.4c0.2-0.1,0.3-0.2,0.5-0.2c0.3-0.2,0.6-0.3,1-0.5
				c0.2-0.1,0.5-0.3,0.7-0.5c0.2-0.1,0.3-0.3,0.5-0.4c0.4-0.4,0.9-0.8,1.2-1.2c0.1-0.1,0.1-0.2,0.2-0.2c0.2-0.3,0.4-0.6,0.6-0.9
				c0,0,0,0,0,0h0c0.9-1.5,1.4-3.2,1.4-5C112.7,187.9,108.4,183.5,103,183.5z"/>
			<path class="st6" d="M179.9,36.2c-0.1,0.2-0.1,0.3-0.2,0.5c-0.1,0.4-0.3,0.8-0.4,1.2c0,0.2-0.1,0.3-0.1,0.5
				c-0.1,0.6-0.2,1.2-0.2,1.8c0,1.3,0.3,2.6,0.8,3.8c0.2,0.6,0.5,1.1,0.9,1.7c0.7,1,1.6,1.9,2.6,2.6c1.6,1.1,3.4,1.7,5.5,1.7
				c0.6,0,1.2-0.1,1.7-0.2c0.2,0,0.3-0.1,0.5-0.1c0.5-0.1,1-0.3,1.4-0.4c0.2-0.1,0.3-0.2,0.5-0.2c0.3-0.2,0.6-0.3,1-0.5
				c0.2-0.1,0.5-0.3,0.7-0.5c0.2-0.1,0.3-0.3,0.5-0.4c0.4-0.4,0.9-0.8,1.2-1.2c0.1-0.1,0.1-0.2,0.2-0.3c0.2-0.3,0.4-0.6,0.6-0.9
				c0,0,0,0,0,0c0,0,0,0,0,0c0.9-1.5,1.4-3.2,1.4-5c0-5.4-4.4-9.8-9.8-9.8c-1.4,0-2.7,0.3-3.9,0.8c-0.5,0.2-0.9,0.4-1.3,0.7
				c-0.2,0.1-0.4,0.3-0.6,0.4c-0.2,0.2-0.5,0.4-0.7,0.6c-0.2,0.2-0.4,0.3-0.5,0.5c-0.3,0.3-0.5,0.6-0.7,0.9
				c-0.1,0.1-0.2,0.2-0.3,0.4C180.4,35.2,180.1,35.7,179.9,36.2z"/>
			<path class="st6" d="M160.9,149.8c-1.4,0-2.7,0.3-3.9,0.8c-0.5,0.2-0.9,0.4-1.3,0.7c-0.2,0.1-0.4,0.3-0.6,0.5
				c-0.2,0.2-0.5,0.4-0.7,0.6c-0.2,0.2-0.4,0.3-0.5,0.5c-0.3,0.3-0.5,0.6-0.7,0.9c-0.1,0.1-0.2,0.2-0.3,0.4
				c-0.3,0.4-0.5,0.9-0.8,1.4c-0.1,0.2-0.1,0.3-0.2,0.5c-0.1,0.4-0.3,0.8-0.4,1.2c0,0.2-0.1,0.3-0.1,0.5c-0.1,0.6-0.2,1.2-0.2,1.8
				c0,0.7,0.1,1.3,0.2,2c0.3,1.3,0.8,2.4,1.5,3.5c0.4,0.5,0.7,1,1.2,1.4c1.3,1.3,3,2.3,4.9,2.7c0.6,0.1,1.3,0.2,2,0.2
				c0.6,0,1.2-0.1,1.7-0.2c0.2,0,0.3-0.1,0.5-0.1c0.5-0.1,1-0.3,1.4-0.4c0.2-0.1,0.3-0.2,0.5-0.2c0.3-0.2,0.6-0.3,1-0.5
				c0.2-0.1,0.5-0.3,0.7-0.5c0.2-0.1,0.3-0.3,0.5-0.4c0.4-0.4,0.9-0.8,1.2-1.2c0.1-0.1,0.1-0.2,0.2-0.2c0.2-0.3,0.4-0.6,0.6-0.9
				c0,0,0,0,0,0l0,0c0.9-1.5,1.4-3.2,1.4-5C170.7,154.2,166.3,149.8,160.9,149.8z"/>
			<path class="st6" d="M123.9,149.8c-1.4,0-2.7,0.3-3.9,0.8c-0.5,0.2-0.9,0.4-1.3,0.7c-0.2,0.1-0.4,0.3-0.6,0.5
				c-0.2,0.2-0.5,0.4-0.7,0.6c-0.2,0.2-0.4,0.3-0.5,0.5c-0.3,0.3-0.5,0.6-0.7,0.9c-0.1,0.1-0.2,0.2-0.3,0.4
				c-0.3,0.4-0.5,0.9-0.8,1.4c-0.1,0.2-0.1,0.3-0.2,0.5c-0.1,0.4-0.3,0.8-0.4,1.2c0,0.2-0.1,0.3-0.1,0.5c-0.1,0.6-0.2,1.2-0.2,1.8
				c0,5.4,4.4,9.8,9.8,9.8c0.6,0,1.2-0.1,1.7-0.2c0.2,0,0.3-0.1,0.5-0.1c0.5-0.1,1-0.3,1.4-0.4c0.2-0.1,0.3-0.2,0.5-0.2
				c0.3-0.2,0.6-0.3,1-0.5c0.2-0.1,0.5-0.3,0.7-0.5c0.2-0.1,0.3-0.3,0.5-0.4c0.4-0.4,0.9-0.8,1.2-1.2c0.1-0.1,0.1-0.2,0.2-0.3
				c0.2-0.3,0.4-0.6,0.6-0.9c0,0,0,0,0,0c0,0,0,0,0,0c0.9-1.5,1.4-3.2,1.4-5C133.7,154.2,129.3,149.8,123.9,149.8z"/>
			<path class="st6" d="M174.2,85.3C174.2,85.3,174.2,85.3,174.2,85.3C174.2,85.3,174.2,85.3,174.2,85.3c0.9-1.5,1.4-3.2,1.4-5
				c0-5.4-4.4-9.8-9.8-9.8c-1.4,0-2.7,0.3-3.9,0.8c-0.5,0.2-0.9,0.4-1.3,0.7c-0.2,0.1-0.4,0.3-0.6,0.5c-0.2,0.2-0.5,0.4-0.7,0.6
				c-0.2,0.2-0.4,0.3-0.5,0.5c-0.3,0.3-0.5,0.6-0.7,0.9c-0.1,0.1-0.2,0.2-0.3,0.4c-0.3,0.4-0.5,0.9-0.8,1.4
				c-0.1,0.2-0.1,0.3-0.2,0.5c-0.1,0.4-0.3,0.8-0.4,1.2c0,0.2-0.1,0.3-0.1,0.5c-0.1,0.6-0.2,1.2-0.2,1.8c0,5.4,4.4,9.8,9.8,9.8
				c0.6,0,1.2-0.1,1.7-0.2c0.2,0,0.3-0.1,0.5-0.1c0.5-0.1,1-0.3,1.4-0.4c0.2-0.1,0.3-0.2,0.5-0.2c0.3-0.2,0.6-0.3,1-0.5
				c0.2-0.1,0.5-0.3,0.7-0.5c0.2-0.1,0.3-0.3,0.5-0.4c0.4-0.4,0.9-0.8,1.2-1.2c0.1-0.1,0.1-0.2,0.2-0.3
				C173.8,85.9,174,85.6,174.2,85.3z"/>
			<path class="st6" d="M211.8,243.9C211.8,243.9,211.8,243.9,211.8,243.9L211.8,243.9c0.9-1.5,1.4-3.2,1.4-5c0-5.4-4.4-9.8-9.8-9.8
				c-1.4,0-2.7,0.3-3.9,0.8c-0.5,0.2-0.9,0.4-1.3,0.7c-0.2,0.1-0.4,0.3-0.6,0.4c-0.2,0.2-0.5,0.4-0.7,0.6c-0.2,0.2-0.4,0.3-0.5,0.5
				c-0.3,0.3-0.5,0.6-0.7,0.9c-0.1,0.1-0.2,0.2-0.3,0.4c-0.3,0.4-0.5,0.9-0.8,1.4c-0.1,0.2-0.1,0.3-0.2,0.5
				c-0.1,0.4-0.3,0.8-0.4,1.2c0,0.2-0.1,0.3-0.1,0.5c-0.1,0.6-0.2,1.2-0.2,1.8c0,0.8,0.1,1.6,0.3,2.4c0.3,1.1,0.7,2.1,1.3,3.1
				c0.5,0.8,1.2,1.5,2,2.1c1.2,1,2.6,1.7,4.1,2c0.6,0.1,1.3,0.2,2,0.2c0.6,0,1.2-0.1,1.7-0.2c0.2,0,0.3-0.1,0.5-0.1
				c0.5-0.1,1-0.3,1.4-0.4c0.2-0.1,0.3-0.2,0.5-0.2c0.3-0.2,0.6-0.3,1-0.5c0.2-0.1,0.5-0.3,0.7-0.5c0.2-0.1,0.3-0.3,0.5-0.4
				c0.4-0.4,0.9-0.8,1.2-1.2c0.1-0.1,0.1-0.2,0.2-0.2C211.4,244.5,211.6,244.2,211.8,243.9z"/>
			<path class="st6" d="M84.9,224.5c-1.4,0-2.7,0.3-3.9,0.8c-0.5,0.2-0.9,0.4-1.3,0.7c-0.2,0.1-0.4,0.3-0.6,0.4
				c-0.2,0.2-0.5,0.4-0.7,0.6c-0.2,0.2-0.4,0.3-0.5,0.5c-0.3,0.3-0.5,0.6-0.7,0.9c-0.1,0.1-0.2,0.2-0.3,0.4
				c-0.3,0.4-0.5,0.9-0.8,1.4c-0.1,0.2-0.1,0.3-0.2,0.5c-0.1,0.4-0.3,0.8-0.4,1.2c0,0.2-0.1,0.3-0.1,0.5c-0.1,0.6-0.2,1.2-0.2,1.8
				c0,1.3,0.3,2.6,0.8,3.8c0.2,0.6,0.5,1.1,0.9,1.7c0.7,1,1.6,1.9,2.6,2.6c1.6,1.1,3.4,1.7,5.5,1.7c0.6,0,1.2-0.1,1.7-0.2
				c0.2,0,0.3-0.1,0.5-0.1c0.5-0.1,1-0.3,1.4-0.4c0.2-0.1,0.3-0.2,0.5-0.2c0.3-0.2,0.6-0.3,1-0.5c0.2-0.1,0.5-0.3,0.7-0.5
				c0.2-0.1,0.3-0.3,0.5-0.4c0.4-0.4,0.9-0.8,1.2-1.2c0.1-0.1,0.1-0.2,0.2-0.3c0.2-0.3,0.4-0.6,0.6-0.9c0,0,0,0,0,0c0,0,0,0,0,0
				c0.9-1.5,1.4-3.2,1.4-5C94.7,228.8,90.3,224.5,84.9,224.5z"/>
			<path class="st6" d="M193,203C193,203,193,203,193,203C193,203,193,203,193,203c0.9-1.5,1.4-3.2,1.4-5c0-5.4-4.4-9.8-9.8-9.8
				c-1.4,0-2.7,0.3-3.9,0.8c-0.5,0.2-0.9,0.4-1.3,0.7c-0.2,0.1-0.4,0.3-0.6,0.4c-0.2,0.2-0.5,0.4-0.7,0.6c-0.2,0.2-0.4,0.3-0.5,0.5
				c-0.3,0.3-0.5,0.6-0.7,0.9c-0.1,0.1-0.2,0.2-0.3,0.4c-0.3,0.4-0.5,0.9-0.8,1.4c-0.1,0.2-0.1,0.3-0.2,0.5
				c-0.1,0.4-0.3,0.8-0.4,1.2c0,0.2-0.1,0.3-0.1,0.5c-0.1,0.6-0.2,1.2-0.2,1.8c0,1.3,0.3,2.6,0.8,3.8c0.2,0.6,0.5,1.1,0.9,1.7
				c0.7,1,1.6,1.9,2.6,2.6c1.6,1.1,3.4,1.7,5.5,1.7c0.6,0,1.2-0.1,1.7-0.2c0.2,0,0.3-0.1,0.5-0.1c0.5-0.1,1-0.3,1.4-0.4
				c0.2-0.1,0.3-0.2,0.5-0.2c0.3-0.2,0.6-0.3,1-0.5c0.2-0.1,0.5-0.3,0.7-0.5c0.2-0.1,0.3-0.3,0.5-0.4c0.4-0.4,0.9-0.8,1.2-1.2
				c0.1-0.1,0.1-0.2,0.2-0.3C192.6,203.6,192.8,203.3,193,203z"/>
		</g>
		<g>
			<g>
				<circle class="st7" cx="92.7" cy="40.1" r="9.8"/>
				<g class="st8">
					<path class="st6" d="M87.4,36.2c0-1.8,0.5-3.5,1.4-5c-3.4,1.5-5.8,4.9-5.8,8.9c0,5.4,4.4,9.8,9.8,9.8c3.5,0,6.6-1.9,8.3-4.7
						c-1.2,0.5-2.5,0.8-3.9,0.8C91.7,46,87.4,41.6,87.4,36.2z"/>
				</g>
			</g>
			<g>
				<circle class="st9" cx="112.2" cy="77.1" r="9.8"/>
				<g class="st10">
					<path class="st6" d="M106.9,73.2c0-1.8,0.5-3.5,1.4-5c-3.4,1.5-5.8,4.9-5.8,8.9c0,5.4,4.4,9.8,9.8,9.8c3.5,0,6.6-1.9,8.3-4.7
						c-1.2,0.5-2.5,0.8-3.9,0.8C111.3,83,106.9,78.6,106.9,73.2z"/>
				</g>
			</g>
			<g>
				<circle class="st7" cx="138.2" cy="114.2" r="9.8"/>
				<g class="st8">
					<path class="st6" d="M132.8,110.3c0-1.8,0.5-3.5,1.4-5c-3.4,1.5-5.8,4.9-5.8,8.9c0,5.4,4.4,9.8,9.8,9.8c3.5,0,6.6-1.9,8.3-4.7
						c-1.2,0.5-2.5,0.8-3.9,0.8C137.2,120,132.8,115.7,132.8,110.3z"/>
				</g>
			</g>
			<g>
				<circle class="st7" cx="101.1" cy="190.6" r="9.8"/>
				<g class="st8">
					<path class="st6" d="M95.7,186.7c0-1.8,0.5-3.5,1.4-5c-3.4,1.5-5.8,4.9-5.8,8.9c0,5.4,4.4,9.8,9.8,9.8c3.5,0,6.6-1.9,8.3-4.7
						c-1.2,0.5-2.5,0.8-3.9,0.8C100.1,196.4,95.7,192,95.7,186.7z"/>
				</g>
			</g>
			<g>
				<circle class="st7" cx="186.9" cy="37.4" r="9.8"/>
				<g class="st8">
					<path class="st6" d="M181.5,33.5c0-1.8,0.5-3.5,1.4-5c-3.4,1.5-5.8,4.9-5.8,8.9c0,5.4,4.4,9.8,9.8,9.8c3.5,0,6.6-1.9,8.3-4.7
						c-1.2,0.5-2.5,0.8-3.9,0.8C185.9,43.2,181.5,38.9,181.5,33.5z"/>
				</g>
			</g>
			<g>
				<circle class="st9" cx="159" cy="156.8" r="9.8"/>
				<g class="st10">
					<path class="st6" d="M153.6,152.9c0-1.8,0.5-3.5,1.4-5c-3.4,1.5-5.8,4.9-5.8,8.9c0,5.4,4.4,9.8,9.8,9.8c3.5,0,6.6-1.9,8.3-4.7
						c-1.2,0.5-2.5,0.8-3.9,0.8C158,162.7,153.6,158.3,153.6,152.9z"/>
				</g>
			</g>
			<g>
				<circle class="st9" cx="122" cy="156.8" r="9.8"/>
				<g class="st10">
					<path class="st6" d="M116.6,152.9c0-1.8,0.5-3.5,1.4-5c-3.4,1.5-5.8,4.9-5.8,8.9c0,5.4,4.4,9.8,9.8,9.8c3.5,0,6.6-1.9,8.3-4.7
						c-1.2,0.5-2.5,0.8-3.9,0.8C121,162.7,116.6,158.3,116.6,152.9z"/>
				</g>
			</g>
			<g>
				<circle class="st9" cx="163.9" cy="77.6" r="9.8"/>
				<g class="st10">
					<path class="st6" d="M158.6,73.7c0-1.8,0.5-3.5,1.4-5c-3.4,1.5-5.8,4.9-5.8,8.9c0,5.4,4.4,9.8,9.8,9.8c3.5,0,6.6-1.9,8.3-4.7
						c-1.2,0.5-2.5,0.8-3.9,0.8C162.9,83.4,158.6,79,158.6,73.7z"/>
				</g>
			</g>
			<g>
				<circle class="st9" cx="201.5" cy="236.2" r="9.8"/>
				<g class="st10">
					<path class="st6" d="M196.2,232.3c0-1.8,0.5-3.5,1.4-5c-3.4,1.5-5.8,4.9-5.8,8.9c0,5.4,4.4,9.8,9.8,9.8c3.5,0,6.6-1.9,8.3-4.7
						c-1.2,0.5-2.5,0.8-3.9,0.8C200.5,242,196.2,237.7,196.2,232.3z"/>
				</g>
			</g>
			<g>
				<circle class="st9" cx="83" cy="231.5" r="9.8"/>
				<g class="st10">
					<path class="st6" d="M77.6,227.6c0-1.8,0.5-3.5,1.4-5c-3.4,1.5-5.8,4.9-5.8,8.9c0,5.4,4.4,9.8,9.8,9.8c3.5,0,6.6-1.9,8.3-4.7
						c-1.2,0.5-2.5,0.8-3.9,0.8C82,237.3,77.6,233,77.6,227.6z"/>
				</g>
			</g>
			<g>
				<circle class="st7" cx="182.7" cy="195.3" r="9.8"/>
				<g class="st8">
					<path class="st6" d="M177.4,191.4c0-1.8,0.5-3.5,1.4-5c-3.4,1.5-5.8,4.9-5.8,8.9c0,5.4,4.4,9.8,9.8,9.8c3.5,0,6.6-1.9,8.3-4.7
						c-1.2,0.5-2.5,0.8-3.9,0.8C181.7,201.1,177.4,196.8,177.4,191.4z"/>
				</g>
			</g>
		</g>
	</g>
</g>
</svg>
