<?xml version="1.0" encoding="utf-8"?>
<!-- Generator: Adobe Illustrator 24.1.2, SVG Export Plug-In . SVG Version: 6.00 Build 0)  -->
<svg version="1.1" id="Calque_1" xmlns="http://www.w3.org/2000/svg" xmlns:xlink="http://www.w3.org/1999/xlink" x="0px" y="0px"
	 viewBox="0 0 300 300" style="enable-background:new 0 0 300 300;" xml:space="preserve">
<style type="text/css">
	.st0{fill:#C2D9AB;}
	.st1{fill:#AB7017;}
	.st2{fill:#D79728;}
	.st3{fill:#8D6017;}
	.st4{opacity:0.13;}
	.st5{fill:#252422;}
	.st6{fill:#FCFBFA;}
</style>
<g>
	<path class="st0" d="M237.3,15.5l-33.9-1.6c-10.1-0.5-19.3,4.7-23.4,13.1l-18.7,38.4c-1.6,3.3-3.5,7.7-5.5,13
		c-0.8,2.1-3.6,2.2-3.9,2.2c-0.5,0-3.1-0.1-3.9-2.2c-1.8-4.8-3.5-9-5.3-12.9l-18.7-38.9c-3.9-8.1-12.6-13.3-22.2-13.3H67.9
		c-8.8,0-16.9,4.4-21.2,11.4C42.8,31,42.6,38.4,46,45l0.5,1c-3.9,7.4-4.1,15.9-0.2,23.5l64.9,126v70.7c0,17,15,30.8,33.4,30.8h24
		c18.4,0,33.4-13.8,33.4-30.8l0-70.5l60.7-116.5c4.7-8.7,8-30.1,2.2-45.1C260.6,22.9,250.1,16.4,237.3,15.5z"/>
	<g>
		<path class="st1" d="M223.7,4.5l-28.2,16c-12-0.6-22.9,5.6-27.9,15.7l-18.7,38.3c-1.6,3.2-3.3,7.3-5.2,12.2
			c-1.7-4.4-3.3-8.3-5-12.1l-18.7-38.9c-4.6-9.7-15-15.9-26.4-15.9H59.7c-10.4,0-26.3-10.5-28.1-0.8c-2.6,14.1-2.2,31.3,2,39.3
			l64.9,126v70.7c0,17,15,30.8,33.4,30.8h24c18.4,0,33.4-13.8,33.4-30.8l0-70.5l58.4-111.9c4.1-7.8,3.6-38.1,0-49.8
			C244.8,13.6,233.9,5,223.7,4.5z"/>
		<path class="st2" d="M224.6,4.5l-33.9-1.6c-10.1-0.5-19.3,4.7-23.4,13.1l-18.7,38.4c-1.6,3.3-3.5,7.7-5.5,13
			c-0.8,2.1-3.6,2.2-3.9,2.2c-0.5,0-3.1-0.1-3.9-2.2c-1.8-4.8-3.5-9-5.3-12.9l-18.7-38.9C107.3,7.4,98.6,2.2,89,2.2H55.2
			c-8.8,0-16.9,4.4-21.2,11.4C30.1,20,29.8,27.4,33.2,34l64.9,126.2c0.3,0.6,0.5,1.3,0.5,2v70.7c0,14.4,12.9,26.2,28.7,26.2h24
			c15.8,0,28.7-11.7,28.7-26.2v-70.7c0-0.7,0.2-1.4,0.5-2l64.6-123.9c3.3-6.4,3.2-13.7-0.4-19.9C240.8,9.3,233.2,4.9,224.6,4.5z"/>
	</g>
	<g>
		<path class="st3" d="M209.3,20.1c-11.4-5.8-25.4-0.7-31.5,10.6l-32,59c-2.9,5.4-10.6,5.4-13.6,0l-30.9-56.1
			c-6.2-11.2-20.1-16.2-31.5-10.4c-11.8,6-16.2,20.5-9.8,32l56.9,103.4v64.4c0,12.8,9.8,23.9,22.6,24.3c13.2,0.4,24-10.2,24-23.3
			v-69.2l55.8-102.7C225.6,40.5,221.1,26,209.3,20.1z"/>
		<g class="st4">
			<path class="st5" d="M136.4,142.2c-0.7,0-1.4,0-2.1-0.2c-3.3-1-5.2-4.4-4.2-7.7c4.7-16.2,23.7-26.7,40.7-22.6
				c6.9,1.7,13.1-2,15.7-6.5c1.4-2.5,2.4-6.1-0.9-9.6c-12-12.7-12.9-23.5-3.1-36.4c7-9.1,16-8.5,22-8.2c6,0.4,7.4,0.2,9.1-2.8
				c5-8.8-9.5-20.9-9.6-21c-2.7-2.2-3.1-6.1-0.9-8.7c2.2-2.7,6.1-3.1,8.7-1c8.5,6.9,20.8,22.3,12.7,36.8
				c-5.7,10.1-14.7,9.5-20.7,9.1c-5.7-0.4-8.6-0.4-11.4,3.3c-5.6,7.3-6.1,11.5,2.3,20.2c6.4,6.8,7.4,16.1,2.6,24.4
				c-5.8,10-17.9,15.1-29.4,12.3c-10.4-2.5-22.9,4.3-25.8,14C141.3,140.3,139,142,136.4,142.2z"/>
		</g>
		<g class="st4">
			<path class="st5" d="M139.2,128.7c0.8,3.3-0.1,4.4-4.7,8.3c-4.6,3.9-11.6,9.7-10.3,21.1c1.7,16.1,9.9,23.3,27.3,24.2
				c4.8,0.2,6.6,3.6,7.2,6.3c1.2,5-0.8,12-6.9,15.5c-15.1,8.7-21.6,29.5-13.8,44.4c1.6,3.1,5.3,4.3,8.4,2.7c0.6-0.3,1.2-0.8,1.7-1.3
				c1.8-1.9,2.2-4.7,1-7.1c-4.7-9-0.3-22.6,9-28c10.2-5.9,15.5-17.9,12.8-29.2c-2.2-9.3-9.4-15.4-18.7-15.9
				c-12.1-0.6-14.6-4-15.6-13.1c-0.5-4.6,1.6-6.6,6-10.2c4.6-3.9,11.6-9.7,8.7-20.9c0,0-2.1-4.5-7-6.5"/>
		</g>
		<g>
			<g class="st4">
				<path class="st5" d="M75.2,11.8c0.3-0.6,0.7-1.2,1.2-1.7c2.4-2.5,6.3-2.6,8.8-0.3C97.4,21.3,98.3,43,87,56.3
					c-4.6,5.4-4.1,12.6-1.3,16.9c1.5,2.4,4.4,4.9,9,3.5c16.7-5,26.8-0.9,33.9,13.6c5,10.4,0.4,18.2-2.7,23.4c-3,5.2-3.5,6.6-1.6,9.4
					c5.6,8.4,22.9,1,23.1,0.9c3.1-1.4-24.2,19.8-33.4,6c-6.4-9.6-1.8-17.4,1.2-22.6c2.9-4.9,4.2-7.5,2.2-11.6
					c-4-8.3-7.5-10.6-19.1-7.1C89.3,91.3,80.5,88,75.2,80c-6.3-9.7-5.4-22.8,2.3-31.8c7-8.1,6.5-22.4-0.9-29.4
					C74.7,17,74.2,14.1,75.2,11.8z"/>
			</g>
			<path class="st6" d="M207.2,15.8c-2.7-2.2-6.6-1.7-8.7,1c-2.2,2.7-1.7,6.6,1,8.7c0.1,0.1,14.5,12.2,9.6,21
				c-1.7,3-3.1,3.2-9.1,2.8c-6-0.4-15.1-1-22,8.2c-9.8,12.8-8.9,23.7,3.1,36.4c3.3,3.5,2.3,7.1,0.9,9.6c-2.6,4.5-8.8,8.1-15.7,6.5
				c-14.9-3.6-31.4,4.1-38.4,17.1c-2.8-0.4-5.3-1.5-6.8-3.8c-1.9-2.8-1.4-4.2,1.6-9.4c3-5.2,7.7-13,2.7-23.4
				c-7-14.6-17.1-18.6-33.9-13.6c-4.6,1.4-7.4-1.2-9-3.6c-2.8-4.3-3.3-11.5,1.3-16.9C95.1,43,94.2,21.3,82,9.8
				c-2.5-2.4-6.4-2.2-8.8,0.3c-2.4,2.5-2.2,6.4,0.3,8.8c7.4,6.9,7.8,21.2,0.9,29.4c-7.7,9-8.6,22.1-2.3,31.8c5.2,8,14,11.4,22.9,8.7
				c11.6-3.5,15.1-1.2,19.1,7.1c2,4.2,0.7,6.7-2.2,11.6c-3.1,5.2-7.7,13-1.2,22.6c4.2,6.2,10.4,8.8,16.9,9.4
				c-4.1,3.8-8.4,9.4-7.4,18.5c1.7,16.1,9.9,23.3,27.3,24.2c4.8,0.2,6.6,3.6,7.2,6.3c1.2,5-0.8,12-6.9,15.5
				c-15.1,8.7-21.6,29.5-13.8,44.4c1.2,2.4,3.8,3.7,6.4,3.3c0.7-0.1,1.4-0.3,2-0.6c3.1-1.6,4.3-5.3,2.7-8.4c-4.6-9-0.3-22.6,9-28
				c10.2-5.9,15.5-17.9,12.8-29.2c-2.2-9.3-9.4-15.4-18.7-15.9c-12.1-0.6-14.6-4-15.6-13.1c-0.5-4.6,1.6-6.6,6-10.2
				c4.6-3.9,11.6-9.7,8.7-20.9c-0.1-0.3-0.2-0.5-0.3-0.8c4.9-2.8,10.9-4.1,16.3-2.8c11.5,2.8,23.6-2.3,29.4-12.3
				c4.8-8.3,3.8-17.6-2.6-24.4c-8.3-8.8-7.8-13-2.3-20.2c2.8-3.7,5.7-3.7,11.4-3.3c6,0.4,15.1,1,20.7-9.1
				C228,38.1,215.8,22.6,207.2,15.8z"/>
		</g>
	</g>
</g>
</svg>
