<?xml version="1.0" encoding="utf-8"?>
<!-- Generator: Adobe Illustrator 24.1.2, SVG Export Plug-In . SVG Version: 6.00 Build 0)  -->
<svg version="1.1" id="Calque_1" xmlns="http://www.w3.org/2000/svg" xmlns:xlink="http://www.w3.org/1999/xlink" x="0px" y="0px"
	 viewBox="0 0 300 300" style="enable-background:new 0 0 300 300;" xml:space="preserve">
<style type="text/css">
	.st0{fill:#C2D9AB;}
	.st1{fill:#AB7017;}
	.st2{fill:#D79728;}
	.st3{opacity:0.13;}
	.st4{fill:#252422;}
	.st5{fill:#8D6017;}
	.st6{fill:#FCFBFA;}
</style>
<g>
	<path class="st0" d="M210,200.9h-20.7l57-109.7c2-3.8,3-8.1,3-12.4V58.5c0-27.6-19.1-44.4-31.3-44.4H101.4
		c-17.4,0-31.6,14.2-31.6,31.6v5.6c0,2.7,0.4,5.3,1,7.8c-0.7,2.9-1.2,5.9-1.2,9v5.6c0,20,16.3,36.2,36.2,36.2h15.1l-55.7,109
		c-1.6,3.1-2.4,6.6-2.4,10.1v19.4c-0.1,1-0.2,1.9-0.2,2.9v20.1c0,14.8,12,26.8,26.8,26.8h125c19.6,0,35.5-15.9,35.5-35.5v-8.4
		c0-9.2-3.5-17.5-9.2-23.8C240,214,226.5,200.9,210,200.9z"/>
	<g>
		<path class="st1" d="M197.3,189.9H176l57.6-109.7c2-3.8,3-8.1,3-12.4v-38c0-14.8-12-26.8-26.8-26.8H93.2
			c-20,0-36.2,17.2-36.2,37.1v22.3c0,20,16.3,36.2,36.2,36.2H119L52.9,227.9c-1.9,3.8-2.9,8-2.9,12.2v20.1c0,14.8,12,26.8,26.8,26.8
			h125c19.6,0,35.5-15.9,35.5-35.5V234C237.3,212.7,216.9,189.9,197.3,189.9z"/>
		<path class="st2" d="M197.3,189.9h-42.1l69.7-134.2c1.6-3.1,2.5-6.7,2.5-10.2V25.1c0-12.2-9.9-22.1-22.1-22.1H88.7
			C71.3,3,57.1,17.2,57.1,34.6v5.6c0,17.4,14.2,31.6,31.6,31.6h33.4l-69.5,136c-1.6,3.1-2.4,6.6-2.4,10.1v20.1
			c0,12.2,9.9,22.1,22.1,22.1h125c17,0,30.9-13.8,30.9-30.9v-8.4C228.1,203.7,214.3,189.9,197.3,189.9z"/>
	</g>
	<g>
		<g class="st3">
			<path class="st4" d="M76,51.6c-1.5,0-3-0.7-3.9-2.1c-1.4-2.2-0.8-5.1,1.3-6.5l13.6-8.9c2.2-1.4,5.1-0.8,6.5,1.3
				c1.4,2.2,0.8,5.1-1.3,6.5l-13.6,8.9C77.8,51.3,76.9,51.6,76,51.6z"/>
		</g>
		<g class="st3">
			<path class="st4" d="M132.7,79.5c-0.8-1.3-1-3-0.3-4.4c1.1-2.3,3.9-3.4,6.2-2.3l14.8,6.8c2.3,1.1,3.4,3.9,2.3,6.2
				c-1.1,2.3-3.9,3.4-6.2,2.3l-14.8-6.8C133.9,80.8,133.2,80.2,132.7,79.5z"/>
		</g>
		<g class="st3">
			<path class="st4" d="M119.1,26.7c0.2-1.5,1.2-2.9,2.7-3.5c2.3-1.1,5.1,0,6.2,2.3l6.7,14.8c1.1,2.3,0,5.1-2.3,6.2
				c-2.3,1.1-5.1,0-6.2-2.3l-6.7-14.8C119,28.4,118.9,27.5,119.1,26.7z"/>
		</g>
		<g class="st3">
			<path class="st4" d="M81.1,198.6c-0.8-1.3-1-3-0.3-4.4c1.1-2.3,3.9-3.4,6.2-2.3l14.8,6.8c2.3,1.1,3.4,3.9,2.3,6.2
				c-1.1,2.3-3.9,3.4-6.2,2.3l-14.8-6.8C82.3,200,81.6,199.4,81.1,198.6z"/>
		</g>
		<g class="st3">
			<path class="st4" d="M76.9,225.2c1.1-1,2.7-1.5,4.3-1.1c2.5,0.6,4,3.2,3.4,5.7l-4,15.8c-0.6,2.5-3.2,4-5.7,3.4
				c-2.5-0.6-4-3.2-3.4-5.7l4-15.8C75.8,226.6,76.2,225.8,76.9,225.2z"/>
		</g>
		<g class="st3">
			<path class="st4" d="M168.1,202.7c1.1-1,2.7-1.5,4.3-1.1c2.5,0.6,4,3.2,3.4,5.7l-4,15.8c-0.6,2.5-3.2,4-5.7,3.4
				c-2.5-0.6-4-3.2-3.4-5.7l4-15.8C167,204.1,167.5,203.3,168.1,202.7z"/>
		</g>
		<g class="st3">
			<path class="st4" d="M218.1,34c0.8,1.3,0.9,3,0.2,4.4c-1.1,2.3-3.9,3.3-6.2,2.1l-14.6-7.2c-2.3-1.1-3.3-3.9-2.1-6.2
				c1.1-2.3,3.9-3.3,6.2-2.1l14.6,7.2C217,32.6,217.6,33.3,218.1,34z"/>
		</g>
		<g class="st3">
			<path class="st4" d="M123.6,240.9c-0.7-1.3-0.7-3,0.1-4.4c1.3-2.3,4.1-3.1,6.4-1.8l14.2,7.9c2.3,1.3,3.1,4.1,1.8,6.4
				c-1.3,2.3-4.1,3.1-6.4,1.8l-14.2-7.9C124.6,242.3,124,241.7,123.6,240.9z"/>
		</g>
		<g class="st3">
			<path class="st4" d="M191.9,230.8c-0.7-1.3-0.7-3,0.1-4.4c1.3-2.3,4.1-3.1,6.4-1.8l14.2,7.9c2.3,1.3,3.1,4.1,1.8,6.4
				c-1.3,2.3-4.1,3.1-6.4,1.8l-14.2-7.9C193,232.3,192.4,231.6,191.9,230.8z"/>
		</g>
		<g class="st3">
			<path class="st4" d="M176.5,83.4c-1.5,0-3-0.7-3.9-2.1c-1.4-2.2-0.8-5.1,1.3-6.5l13.6-8.9c2.2-1.4,5.1-0.8,6.5,1.3
				c1.4,2.2,0.8,5.1-1.3,6.5l-13.6,8.9C178.3,83.1,177.4,83.4,176.5,83.4z"/>
		</g>
		<g class="st3">
			<path class="st4" d="M158.8,35.3c-0.6-1.6-0.3-3.5,1-4.9l11.3-11.7c1.8-1.9,4.7-1.9,6.6-0.1c1.9,1.8,1.9,4.7,0.1,6.6l-11.3,11.7
				c-1.8,1.9-4.7,1.9-6.6,0.1C159.4,36.5,159,35.9,158.8,35.3z"/>
		</g>
		<g class="st3">
			<path class="st4" d="M148,162c-1.1-1.3-1.4-3.3-0.6-4.9l6.8-14.8c1.1-2.3,3.9-3.4,6.2-2.3c2.3,1.1,3.4,3.9,2.3,6.2l-6.8,14.8
				c-1.1,2.3-3.9,3.4-6.2,2.3C148.9,163,148.4,162.5,148,162z"/>
		</g>
		<g class="st3">
			<path class="st4" d="M120.7,172.9c-1.7,0.3-3.5-0.3-4.6-1.8l-9.6-13.2c-1.5-2.1-1.1-5,1-6.5c2.1-1.5,5-1.1,6.5,1l9.6,13.2
				c1.5,2.1,1.1,5-1,6.5C122,172.5,121.3,172.8,120.7,172.9z"/>
		</g>
		<g class="st3">
			<path class="st4" d="M135,127.6c-1.7,0-3.4-1-4.2-2.7l-7-14.7c-1.1-2.3-0.1-5.1,2.2-6.2c2.3-1.1,5.1-0.1,6.2,2.2l7,14.7
				c1.1,2.3,0.1,5.1-2.2,6.2C136.4,127.5,135.7,127.6,135,127.6z"/>
		</g>
		<g>
			<path class="st5" d="M75,47.7c-1.5,0-3-0.7-3.9-2.1c-1.4-2.2-0.8-5.1,1.3-6.5l13.6-8.9c2.2-1.4,5.1-0.8,6.5,1.3
				c1.4,2.2,0.8,5.1-1.3,6.5l-13.6,8.9C76.8,47.4,75.9,47.7,75,47.7z"/>
		</g>
		<g>
			<path class="st5" d="M131.7,75.6c-0.8-1.3-1-3-0.3-4.4c1.1-2.3,3.9-3.4,6.2-2.3l14.8,6.8c2.3,1.1,3.4,3.9,2.3,6.2
				c-1.1,2.3-3.9,3.4-6.2,2.3l-14.8-6.8C132.8,76.9,132.2,76.3,131.7,75.6z"/>
		</g>
		<g>
			<path class="st6" d="M118,22.8c0.2-1.5,1.2-2.9,2.7-3.5c2.3-1.1,5.1,0,6.2,2.3l6.7,14.8c1.1,2.3,0,5.1-2.3,6.2
				c-2.3,1.1-5.1,0-6.2-2.3l-6.7-14.8C118,24.5,117.9,23.6,118,22.8z"/>
		</g>
		<g>
			<path class="st6" d="M80.1,194.7c-0.8-1.3-1-3-0.3-4.4c1.1-2.3,3.9-3.4,6.2-2.3l14.8,6.8c2.3,1.1,3.4,3.9,2.3,6.2
				c-1.1,2.3-3.9,3.4-6.2,2.3l-14.8-6.8C81.2,196.1,80.5,195.5,80.1,194.7z"/>
		</g>
		<g>
			<path class="st5" d="M75.9,221.3c1.1-1,2.7-1.5,4.3-1.1c2.5,0.6,4,3.2,3.4,5.7l-4,15.8c-0.6,2.5-3.2,4-5.7,3.4
				c-2.5-0.6-4-3.2-3.4-5.7l4-15.8C74.7,222.7,75.2,221.9,75.9,221.3z"/>
		</g>
		<g>
			<path class="st6" d="M167.1,198.8c1.1-1,2.7-1.5,4.3-1.1c2.5,0.6,4,3.2,3.4,5.7l-4,15.8c-0.6,2.5-3.2,4-5.7,3.4
				c-2.5-0.6-4-3.2-3.4-5.7l4-15.8C166,200.2,166.5,199.4,167.1,198.8z"/>
		</g>
		<g>
			<path class="st6" d="M217,30.1c0.8,1.3,0.9,3,0.2,4.4c-1.1,2.3-3.9,3.3-6.2,2.1l-14.6-7.2c-2.3-1.1-3.3-3.9-2.1-6.2
				c1.1-2.3,3.9-3.3,6.2-2.1l14.6,7.2C215.9,28.7,216.6,29.4,217,30.1z"/>
		</g>
		<g>
			<path class="st6" d="M122.6,237c-0.7-1.3-0.7-3,0.1-4.4c1.3-2.3,4.1-3.1,6.4-1.8l14.2,7.9c2.3,1.3,3.1,4.1,1.8,6.4
				c-1.3,2.3-4.1,3.1-6.4,1.8l-14.2-7.9C123.6,238.4,123,237.8,122.6,237z"/>
		</g>
		<g>
			<path class="st5" d="M190.9,226.9c-0.7-1.3-0.7-3,0.1-4.4c1.3-2.3,4.1-3.1,6.4-1.8l14.2,7.9c2.3,1.3,3.1,4.1,1.8,6.4
				c-1.3,2.3-4.1,3.1-6.4,1.8l-14.2-7.9C191.9,228.4,191.3,227.7,190.9,226.9z"/>
		</g>
		<g>
			<path class="st6" d="M175.5,79.5c-1.5,0-3-0.7-3.9-2.1c-1.4-2.2-0.8-5.1,1.3-6.5l13.6-8.9c2.2-1.4,5.1-0.8,6.5,1.3
				c1.4,2.2,0.8,5.1-1.3,6.5L178,78.7C177.2,79.3,176.3,79.5,175.5,79.5z"/>
		</g>
		<g class="st3">
			<path class="st4" d="M168.1,128.6c-1.5,0-3-0.7-3.9-2.1c-1.4-2.2-0.8-5.1,1.3-6.5l13.6-8.9c2.2-1.4,5.1-0.8,6.5,1.3
				c1.4,2.2,0.8,5.1-1.3,6.5l-13.6,8.9C169.9,128.4,169,128.6,168.1,128.6z"/>
		</g>
		<g>
			<path class="st5" d="M167.1,124.7c-1.5,0-3-0.7-3.9-2.1c-1.4-2.2-0.8-5.1,1.3-6.5l13.6-8.9c2.2-1.4,5.1-0.8,6.5,1.3
				c1.4,2.2,0.8,5.1-1.3,6.5l-13.6,8.9C168.8,124.5,168,124.7,167.1,124.7z"/>
		</g>
		<g>
			<path class="st5" d="M157.7,31.4c-0.6-1.6-0.3-3.5,1-4.9L170,14.8c1.8-1.9,4.7-1.9,6.6-0.1c1.9,1.8,1.9,4.7,0.1,6.6L165.4,33
				c-1.8,1.9-4.7,1.9-6.6,0.1C158.3,32.6,157.9,32,157.7,31.4z"/>
		</g>
		<g>
			<path class="st6" d="M146.9,158.1c-1.1-1.3-1.4-3.3-0.6-4.9l6.8-14.8c1.1-2.3,3.9-3.4,6.2-2.3c2.3,1.1,3.4,3.9,2.3,6.2l-6.8,14.8
				c-1.1,2.3-3.9,3.4-6.2,2.3C147.9,159.1,147.3,158.6,146.9,158.1z"/>
		</g>
		<g>
			<path class="st5" d="M119.6,169c-1.7,0.3-3.5-0.3-4.6-1.8l-9.6-13.2c-1.5-2.1-1.1-5,1-6.5c2.1-1.5,5-1.1,6.5,1l9.6,13.2
				c1.5,2.1,1.1,5-1,6.5C120.9,168.6,120.3,168.9,119.6,169z"/>
		</g>
		<g class="st3">
			<path class="st4" d="M140.2,212.7c-1.7,0.3-3.5-0.3-4.6-1.8l-9.6-13.2c-1.5-2.1-1.1-5,1-6.5c2.1-1.5,5-1.1,6.5,1l9.6,13.2
				c1.5,2.1,1.1,5-1,6.5C141.5,212.3,140.9,212.5,140.2,212.7z"/>
		</g>
		<g>
			<path class="st5" d="M139.2,208.8c-1.7,0.3-3.5-0.3-4.6-1.8l-9.6-13.2c-1.5-2.1-1.1-5,1-6.5c2.1-1.5,5-1.1,6.5,1l9.6,13.2
				c1.5,2.1,1.1,5-1,6.5C140.5,208.4,139.8,208.6,139.2,208.8z"/>
		</g>
		<g>
			<path class="st6" d="M134,123.7c-1.7,0-3.4-1-4.2-2.7l-7-14.7c-1.1-2.3-0.1-5.1,2.2-6.2c2.3-1.1,5.1-0.1,6.2,2.2l7,14.7
				c1.1,2.3,0.1,5.1-2.2,6.2C135.3,123.6,134.7,123.7,134,123.7z"/>
		</g>
	</g>
</g>
</svg>
